%TF.GenerationSoftware,KiCad,Pcbnew,9.0.2*%
%TF.CreationDate,2025-11-07T18:09:28+05:30*%
%TF.ProjectId,v1,76312e6b-6963-4616-945f-706362585858,rev?*%
%TF.SameCoordinates,Original*%
%TF.FileFunction,Copper,L2,Bot*%
%TF.FilePolarity,Positive*%
%FSLAX46Y46*%
G04 Gerber Fmt 4.6, Leading zero omitted, Abs format (unit mm)*
G04 Created by KiCad (PCBNEW 9.0.2) date 2025-11-07 18:09:28*
%MOMM*%
%LPD*%
G01*
G04 APERTURE LIST*
G04 Aperture macros list*
%AMRoundRect*
0 Rectangle with rounded corners*
0 $1 Rounding radius*
0 $2 $3 $4 $5 $6 $7 $8 $9 X,Y pos of 4 corners*
0 Add a 4 corners polygon primitive as box body*
4,1,4,$2,$3,$4,$5,$6,$7,$8,$9,$2,$3,0*
0 Add four circle primitives for the rounded corners*
1,1,$1+$1,$2,$3*
1,1,$1+$1,$4,$5*
1,1,$1+$1,$6,$7*
1,1,$1+$1,$8,$9*
0 Add four rect primitives between the rounded corners*
20,1,$1+$1,$2,$3,$4,$5,0*
20,1,$1+$1,$4,$5,$6,$7,0*
20,1,$1+$1,$6,$7,$8,$9,0*
20,1,$1+$1,$8,$9,$2,$3,0*%
G04 Aperture macros list end*
%TA.AperFunction,ComponentPad*%
%ADD10RoundRect,0.250000X0.550000X-0.950000X0.550000X0.950000X-0.550000X0.950000X-0.550000X-0.950000X0*%
%TD*%
%TA.AperFunction,ComponentPad*%
%ADD11O,1.600000X2.400000*%
%TD*%
%TA.AperFunction,ComponentPad*%
%ADD12RoundRect,0.250000X0.550000X-0.550000X0.550000X0.550000X-0.550000X0.550000X-0.550000X-0.550000X0*%
%TD*%
%TA.AperFunction,ComponentPad*%
%ADD13C,1.600000*%
%TD*%
%TA.AperFunction,ComponentPad*%
%ADD14R,1.524000X2.524000*%
%TD*%
%TA.AperFunction,ComponentPad*%
%ADD15O,1.524000X2.524000*%
%TD*%
%TA.AperFunction,ComponentPad*%
%ADD16RoundRect,0.250000X0.550000X0.550000X-0.550000X0.550000X-0.550000X-0.550000X0.550000X-0.550000X0*%
%TD*%
%TA.AperFunction,ComponentPad*%
%ADD17RoundRect,0.250000X1.050000X-1.050000X1.050000X1.050000X-1.050000X1.050000X-1.050000X-1.050000X0*%
%TD*%
%TA.AperFunction,ComponentPad*%
%ADD18C,2.600000*%
%TD*%
%TA.AperFunction,ComponentPad*%
%ADD19R,1.500000X1.050000*%
%TD*%
%TA.AperFunction,ComponentPad*%
%ADD20O,1.500000X1.050000*%
%TD*%
%TA.AperFunction,ComponentPad*%
%ADD21RoundRect,0.250000X-0.950000X-0.550000X0.950000X-0.550000X0.950000X0.550000X-0.950000X0.550000X0*%
%TD*%
%TA.AperFunction,ComponentPad*%
%ADD22O,2.400000X1.600000*%
%TD*%
%TA.AperFunction,ComponentPad*%
%ADD23C,2.000000*%
%TD*%
%TA.AperFunction,ComponentPad*%
%ADD24C,1.000000*%
%TD*%
%TA.AperFunction,ViaPad*%
%ADD25C,0.600000*%
%TD*%
%TA.AperFunction,Conductor*%
%ADD26C,0.300000*%
%TD*%
G04 APERTURE END LIST*
D10*
%TO.P,U8,1,CLK*%
%TO.N,Net-(U7-CARRY_OUT)*%
X67380000Y-72250000D03*
D11*
%TO.P,U8,2,CLK_INHIBIT*%
%TO.N,GND*%
X69920000Y-72250000D03*
%TO.P,U8,3,DISPLAY_EN_IN*%
%TO.N,+6V*%
X72460000Y-72250000D03*
%TO.P,U8,4,DISPLAY_EN_OUT*%
%TO.N,unconnected-(U8-DISPLAY_EN_OUT-Pad4)*%
X75000000Y-72250000D03*
%TO.P,U8,5,CARRY_OUT*%
%TO.N,unconnected-(U8-CARRY_OUT-Pad5)*%
X77540000Y-72250000D03*
%TO.P,U8,6,F*%
%TO.N,Net-(U8-F)*%
X80080000Y-72250000D03*
%TO.P,U8,7,G*%
%TO.N,Net-(U8-G)*%
X82620000Y-72250000D03*
%TO.P,U8,8,VSS*%
%TO.N,GND*%
X85160000Y-72250000D03*
%TO.P,U8,9,D*%
%TO.N,Net-(U8-D)*%
X85160000Y-64630000D03*
%TO.P,U8,10,A*%
%TO.N,Net-(U8-A)*%
X82620000Y-64630000D03*
%TO.P,U8,11,E*%
%TO.N,Net-(U8-E)*%
X80080000Y-64630000D03*
%TO.P,U8,12,B*%
%TO.N,Net-(U8-B)*%
X77540000Y-64630000D03*
%TO.P,U8,13,C*%
%TO.N,Net-(U8-C)*%
X75000000Y-64630000D03*
%TO.P,U8,14,UNGATED_C_SEGMENT_OUT*%
%TO.N,unconnected-(U8-UNGATED_C_SEGMENT_OUT-Pad14)*%
X72460000Y-64630000D03*
%TO.P,U8,15,RESET*%
%TO.N,Net-(U7-RESET)*%
X69920000Y-64630000D03*
%TO.P,U8,16,VDD*%
%TO.N,+6V*%
X67380000Y-64630000D03*
%TD*%
D12*
%TO.P,D5,1,K*%
%TO.N,Net-(D5-K)*%
X53250000Y-85000000D03*
D13*
%TO.P,D5,2,A*%
%TO.N,Net-(D5-A)*%
X53250000Y-77380000D03*
%TD*%
D12*
%TO.P,D4,1,K*%
%TO.N,Net-(D4-K)*%
X53250000Y-95620000D03*
D13*
%TO.P,D4,2,A*%
%TO.N,Net-(D2-A)*%
X53250000Y-88000000D03*
%TD*%
D14*
%TO.P,AFF3,1,e*%
%TO.N,Net-(AFF3-e)*%
X94000000Y-94240000D03*
D15*
%TO.P,AFF3,2,d*%
%TO.N,Net-(AFF3-d)*%
X96540000Y-94240000D03*
%TO.P,AFF3,3,C.K.*%
%TO.N,GND*%
X99080000Y-94240000D03*
%TO.P,AFF3,4,c*%
%TO.N,Net-(AFF3-c)*%
X101620000Y-94240000D03*
%TO.P,AFF3,5,DP*%
%TO.N,unconnected-(AFF3-DP-Pad5)*%
X104160000Y-94240000D03*
%TO.P,AFF3,6,b*%
%TO.N,Net-(AFF3-b)*%
X104160000Y-79000000D03*
%TO.P,AFF3,7,a*%
%TO.N,Net-(AFF3-a)*%
X101620000Y-79000000D03*
%TO.P,AFF3,8,C.K.*%
%TO.N,GND*%
X99080000Y-79000000D03*
%TO.P,AFF3,9,f*%
%TO.N,Net-(AFF3-f)*%
X96540000Y-79000000D03*
%TO.P,AFF3,10,g*%
%TO.N,Net-(AFF3-g)*%
X94000000Y-79000000D03*
%TD*%
D16*
%TO.P,D6,1,K*%
%TO.N,Net-(D6-K)*%
X64750000Y-101750000D03*
D13*
%TO.P,D6,2,A*%
%TO.N,Net-(D5-A)*%
X57130000Y-101750000D03*
%TD*%
D10*
%TO.P,U6,1,CLK*%
%TO.N,/CLK - Mod-60 (2)*%
X81760000Y-118000000D03*
D11*
%TO.P,U6,2,CLK_INHIBIT*%
%TO.N,GND*%
X84300000Y-118000000D03*
%TO.P,U6,3,DISPLAY_EN_IN*%
%TO.N,+6V*%
X86840000Y-118000000D03*
%TO.P,U6,4,DISPLAY_EN_OUT*%
%TO.N,unconnected-(U6-DISPLAY_EN_OUT-Pad4)*%
X89380000Y-118000000D03*
%TO.P,U6,5,CARRY_OUT*%
%TO.N,Net-(U5-CLK)*%
X91920000Y-118000000D03*
%TO.P,U6,6,F*%
%TO.N,Net-(U6-F)*%
X94460000Y-118000000D03*
%TO.P,U6,7,G*%
%TO.N,Net-(U6-G)*%
X97000000Y-118000000D03*
%TO.P,U6,8,VSS*%
%TO.N,GND*%
X99540000Y-118000000D03*
%TO.P,U6,9,D*%
%TO.N,Net-(U6-D)*%
X99540000Y-110380000D03*
%TO.P,U6,10,A*%
%TO.N,Net-(U6-A)*%
X97000000Y-110380000D03*
%TO.P,U6,11,E*%
%TO.N,Net-(U6-E)*%
X94460000Y-110380000D03*
%TO.P,U6,12,B*%
%TO.N,Net-(U6-B)*%
X91920000Y-110380000D03*
%TO.P,U6,13,C*%
%TO.N,Net-(U6-C)*%
X89380000Y-110380000D03*
%TO.P,U6,14,UNGATED_C_SEGMENT_OUT*%
%TO.N,unconnected-(U6-UNGATED_C_SEGMENT_OUT-Pad14)*%
X86840000Y-110380000D03*
%TO.P,U6,15,RESET*%
%TO.N,Net-(D5-A)*%
X84300000Y-110380000D03*
%TO.P,U6,16,VDD*%
%TO.N,+6V*%
X81760000Y-110380000D03*
%TD*%
D14*
%TO.P,AFF2,1,e*%
%TO.N,Net-(AFF2-e)*%
X136170000Y-94240000D03*
D15*
%TO.P,AFF2,2,d*%
%TO.N,Net-(AFF2-d)*%
X138710000Y-94240000D03*
%TO.P,AFF2,3,C.K.*%
%TO.N,GND*%
X141250000Y-94240000D03*
%TO.P,AFF2,4,c*%
%TO.N,Net-(AFF2-c)*%
X143790000Y-94240000D03*
%TO.P,AFF2,5,DP*%
%TO.N,unconnected-(AFF2-DP-Pad5)*%
X146330000Y-94240000D03*
%TO.P,AFF2,6,b*%
%TO.N,Net-(AFF2-b)*%
X146330000Y-79000000D03*
%TO.P,AFF2,7,a*%
%TO.N,Net-(AFF2-a)*%
X143790000Y-79000000D03*
%TO.P,AFF2,8,C.K.*%
%TO.N,GND*%
X141250000Y-79000000D03*
%TO.P,AFF2,9,f*%
%TO.N,Net-(AFF2-f)*%
X138710000Y-79000000D03*
%TO.P,AFF2,10,g*%
%TO.N,Net-(AFF2-g)*%
X136170000Y-79000000D03*
%TD*%
D17*
%TO.P,J1,1,Pin_1*%
%TO.N,+6V*%
X171750000Y-99000000D03*
D18*
%TO.P,J1,2,Pin_2*%
%TO.N,GND*%
X171750000Y-94000000D03*
%TD*%
D14*
%TO.P,AFF6,1,e*%
%TO.N,Net-(AFF6-e)*%
X65170000Y-94240000D03*
D15*
%TO.P,AFF6,2,d*%
%TO.N,Net-(AFF6-d)*%
X67710000Y-94240000D03*
%TO.P,AFF6,3,C.K.*%
%TO.N,GND*%
X70250000Y-94240000D03*
%TO.P,AFF6,4,c*%
%TO.N,Net-(AFF6-c)*%
X72790000Y-94240000D03*
%TO.P,AFF6,5,DP*%
%TO.N,unconnected-(AFF6-DP-Pad5)*%
X75330000Y-94240000D03*
%TO.P,AFF6,6,b*%
%TO.N,Net-(AFF6-b)*%
X75330000Y-79000000D03*
%TO.P,AFF6,7,a*%
%TO.N,Net-(AFF6-a)*%
X72790000Y-79000000D03*
%TO.P,AFF6,8,C.K.*%
%TO.N,GND*%
X70250000Y-79000000D03*
%TO.P,AFF6,9,f*%
%TO.N,Net-(AFF6-f)*%
X67710000Y-79000000D03*
%TO.P,AFF6,10,g*%
%TO.N,Net-(AFF6-g)*%
X65170000Y-79000000D03*
%TD*%
D12*
%TO.P,D7,1,K*%
%TO.N,Net-(D7-K)*%
X53250000Y-74500000D03*
D13*
%TO.P,D7,2,A*%
%TO.N,Net-(D5-A)*%
X53250000Y-66880000D03*
%TD*%
D10*
%TO.P,U3,1,CLK*%
%TO.N,/CLK - Mod-60 (1)*%
X105470000Y-117750000D03*
D11*
%TO.P,U3,2,CLK_INHIBIT*%
%TO.N,GND*%
X108010000Y-117750000D03*
%TO.P,U3,3,DISPLAY_EN_IN*%
%TO.N,+6V*%
X110550000Y-117750000D03*
%TO.P,U3,4,DISPLAY_EN_OUT*%
%TO.N,unconnected-(U3-DISPLAY_EN_OUT-Pad4)*%
X113090000Y-117750000D03*
%TO.P,U3,5,CARRY_OUT*%
%TO.N,Net-(U3-CARRY_OUT)*%
X115630000Y-117750000D03*
%TO.P,U3,6,F*%
%TO.N,Net-(U3-F)*%
X118170000Y-117750000D03*
%TO.P,U3,7,G*%
%TO.N,Net-(U3-G)*%
X120710000Y-117750000D03*
%TO.P,U3,8,VSS*%
%TO.N,GND*%
X123250000Y-117750000D03*
%TO.P,U3,9,D*%
%TO.N,Net-(U3-D)*%
X123250000Y-110130000D03*
%TO.P,U3,10,A*%
%TO.N,Net-(U3-A)*%
X120710000Y-110130000D03*
%TO.P,U3,11,E*%
%TO.N,Net-(U3-E)*%
X118170000Y-110130000D03*
%TO.P,U3,12,B*%
%TO.N,Net-(U3-B)*%
X115630000Y-110130000D03*
%TO.P,U3,13,C*%
%TO.N,Net-(U3-C)*%
X113090000Y-110130000D03*
%TO.P,U3,14,UNGATED_C_SEGMENT_OUT*%
%TO.N,unconnected-(U3-UNGATED_C_SEGMENT_OUT-Pad14)*%
X110550000Y-110130000D03*
%TO.P,U3,15,RESET*%
%TO.N,Net-(D2-A)*%
X108010000Y-110130000D03*
%TO.P,U3,16,VDD*%
%TO.N,+6V*%
X105470000Y-110130000D03*
%TD*%
D12*
%TO.P,D3,1,K*%
%TO.N,Net-(D3-K)*%
X53750000Y-117120000D03*
D13*
%TO.P,D3,2,A*%
%TO.N,Net-(D2-A)*%
X53750000Y-109500000D03*
%TD*%
D19*
%TO.P,Q2,1,C*%
%TO.N,Net-(D1-K)*%
X165000000Y-88540000D03*
D20*
%TO.P,Q2,2,B*%
%TO.N,Net-(Q2-B)*%
X165000000Y-87270000D03*
%TO.P,Q2,3,E*%
%TO.N,GND*%
X165000000Y-86000000D03*
%TD*%
D21*
%TO.P,U10,1*%
%TO.N,Net-(U8-A)*%
X151380000Y-81460000D03*
D22*
%TO.P,U10,2*%
X151380000Y-84000000D03*
%TO.P,U10,3*%
%TO.N,Net-(U10-Pad3)*%
X151380000Y-86540000D03*
%TO.P,U10,4*%
X151380000Y-89080000D03*
%TO.P,U10,5*%
%TO.N,Net-(U7-G)*%
X151380000Y-91620000D03*
%TO.P,U10,6*%
%TO.N,Net-(U10-Pad10)*%
X151380000Y-94160000D03*
%TO.P,U10,7,GND*%
%TO.N,GND*%
X151380000Y-96700000D03*
%TO.P,U10,8*%
%TO.N,Net-(U7-RESET)*%
X159000000Y-96700000D03*
%TO.P,U10,9*%
%TO.N,Net-(U10-Pad10)*%
X159000000Y-94160000D03*
%TO.P,U10,10*%
X159000000Y-91620000D03*
%TO.P,U10,11*%
%TO.N,N/C*%
X159000000Y-89080000D03*
%TO.P,U10,12*%
X159000000Y-86540000D03*
%TO.P,U10,13*%
X159000000Y-84000000D03*
%TO.P,U10,14,VCC*%
%TO.N,+6V*%
X159000000Y-81460000D03*
%TD*%
D10*
%TO.P,U5,1,CLK*%
%TO.N,Net-(U5-CLK)*%
X98610000Y-72060000D03*
D11*
%TO.P,U5,2,CLK_INHIBIT*%
%TO.N,GND*%
X101150000Y-72060000D03*
%TO.P,U5,3,DISPLAY_EN_IN*%
%TO.N,+6V*%
X103690000Y-72060000D03*
%TO.P,U5,4,DISPLAY_EN_OUT*%
%TO.N,unconnected-(U5-DISPLAY_EN_OUT-Pad4)*%
X106230000Y-72060000D03*
%TO.P,U5,5,CARRY_OUT*%
%TO.N,/CLK - Mod-12*%
X108770000Y-72060000D03*
%TO.P,U5,6,F*%
%TO.N,Net-(D6-K)*%
X111310000Y-72060000D03*
%TO.P,U5,7,G*%
%TO.N,Net-(D7-K)*%
X113850000Y-72060000D03*
%TO.P,U5,8,VSS*%
%TO.N,GND*%
X116390000Y-72060000D03*
%TO.P,U5,9,D*%
%TO.N,Net-(U5-D)*%
X116390000Y-64440000D03*
%TO.P,U5,10,A*%
%TO.N,Net-(U5-A)*%
X113850000Y-64440000D03*
%TO.P,U5,11,E*%
%TO.N,Net-(D5-K)*%
X111310000Y-64440000D03*
%TO.P,U5,12,B*%
%TO.N,Net-(U5-B)*%
X108770000Y-64440000D03*
%TO.P,U5,13,C*%
%TO.N,Net-(U5-C)*%
X106230000Y-64440000D03*
%TO.P,U5,14,UNGATED_C_SEGMENT_OUT*%
%TO.N,unconnected-(U5-UNGATED_C_SEGMENT_OUT-Pad14)*%
X103690000Y-64440000D03*
%TO.P,U5,15,RESET*%
%TO.N,Net-(D5-A)*%
X101150000Y-64440000D03*
%TO.P,U5,16,VDD*%
%TO.N,+6V*%
X98610000Y-64440000D03*
%TD*%
D23*
%TO.P,SW1,1,1*%
%TO.N,Net-(U1-Q4)*%
X171000000Y-74250000D03*
X171000000Y-67750000D03*
%TO.P,SW1,2,2*%
%TO.N,Net-(R2-Pad1)*%
X175500000Y-74250000D03*
X175500000Y-67750000D03*
%TD*%
D12*
%TO.P,D2,1,K*%
%TO.N,Net-(D2-K)*%
X53250000Y-106500000D03*
D13*
%TO.P,D2,2,A*%
%TO.N,Net-(D2-A)*%
X53250000Y-98880000D03*
%TD*%
D10*
%TO.P,U1,1,Q12*%
%TO.N,unconnected-(U1-Q12-Pad1)*%
X157760000Y-117750000D03*
D11*
%TO.P,U1,2,Q13*%
%TO.N,unconnected-(U1-Q13-Pad2)*%
X160300000Y-117750000D03*
%TO.P,U1,3,Q14*%
%TO.N,unconnected-(U1-Q14-Pad3)*%
X162840000Y-117750000D03*
%TO.P,U1,4,Q6*%
%TO.N,unconnected-(U1-Q6-Pad4)*%
X165380000Y-117750000D03*
%TO.P,U1,5,Q5*%
%TO.N,unconnected-(U1-Q5-Pad5)*%
X167920000Y-117750000D03*
%TO.P,U1,6,Q7*%
%TO.N,unconnected-(U1-Q7-Pad6)*%
X170460000Y-117750000D03*
%TO.P,U1,7,Q4*%
%TO.N,Net-(U1-Q4)*%
X173000000Y-117750000D03*
%TO.P,U1,8,VSS*%
%TO.N,GND*%
X175540000Y-117750000D03*
%TO.P,U1,9,~{\u03A60}*%
%TO.N,Net-(U1-~{\u03A60})*%
X175540000Y-110130000D03*
%TO.P,U1,10,\u03A60*%
%TO.N,Net-(U1-\u03A60)*%
X173000000Y-110130000D03*
%TO.P,U1,11,~{\u03A61}*%
%TO.N,Net-(U1-~{\u03A61})*%
X170460000Y-110130000D03*
%TO.P,U1,12,CLR*%
%TO.N,GND*%
X167920000Y-110130000D03*
%TO.P,U1,13,Q9*%
%TO.N,Net-(U1-Q9)*%
X165380000Y-110130000D03*
%TO.P,U1,14,Q8*%
%TO.N,unconnected-(U1-Q8-Pad14)*%
X162840000Y-110130000D03*
%TO.P,U1,15,Q10*%
%TO.N,Net-(U1-Q10)*%
X160300000Y-110130000D03*
%TO.P,U1,16,VDD*%
%TO.N,+6V*%
X157760000Y-110130000D03*
%TD*%
D14*
%TO.P,AFF4,1,e*%
%TO.N,Net-(AFF4-e)*%
X107920000Y-94240000D03*
D15*
%TO.P,AFF4,2,d*%
%TO.N,Net-(AFF4-d)*%
X110460000Y-94240000D03*
%TO.P,AFF4,3,C.K.*%
%TO.N,GND*%
X113000000Y-94240000D03*
%TO.P,AFF4,4,c*%
%TO.N,Net-(AFF4-c)*%
X115540000Y-94240000D03*
%TO.P,AFF4,5,DP*%
%TO.N,Net-(AFF4-DP)*%
X118080000Y-94240000D03*
%TO.P,AFF4,6,b*%
%TO.N,Net-(AFF4-b)*%
X118080000Y-79000000D03*
%TO.P,AFF4,7,a*%
%TO.N,Net-(AFF4-a)*%
X115540000Y-79000000D03*
%TO.P,AFF4,8,C.K.*%
%TO.N,GND*%
X113000000Y-79000000D03*
%TO.P,AFF4,9,f*%
%TO.N,Net-(AFF4-f)*%
X110460000Y-79000000D03*
%TO.P,AFF4,10,g*%
%TO.N,Net-(AFF4-g)*%
X107920000Y-79000000D03*
%TD*%
D10*
%TO.P,U2,1,Q12*%
%TO.N,unconnected-(U2-Q12-Pad1)*%
X130010000Y-117750000D03*
D11*
%TO.P,U2,2,Q13*%
%TO.N,unconnected-(U2-Q13-Pad2)*%
X132550000Y-117750000D03*
%TO.P,U2,3,Q14*%
%TO.N,unconnected-(U2-Q14-Pad3)*%
X135090000Y-117750000D03*
%TO.P,U2,4,Q6*%
%TO.N,unconnected-(U2-Q6-Pad4)*%
X137630000Y-117750000D03*
%TO.P,U2,5,Q5*%
%TO.N,Net-(U2-Q5)*%
X140170000Y-117750000D03*
%TO.P,U2,6,Q7*%
%TO.N,unconnected-(U2-Q7-Pad6)*%
X142710000Y-117750000D03*
%TO.P,U2,7,Q4*%
%TO.N,unconnected-(U2-Q4-Pad7)*%
X145250000Y-117750000D03*
%TO.P,U2,8,VSS*%
%TO.N,GND*%
X147790000Y-117750000D03*
%TO.P,U2,9,~{\u03A60}*%
%TO.N,unconnected-(U2-~{\u03A60}-Pad9)*%
X147790000Y-110130000D03*
%TO.P,U2,10,\u03A60*%
%TO.N,unconnected-(U2-\u03A60-Pad10)*%
X145250000Y-110130000D03*
%TO.P,U2,11,~{\u03A61}*%
%TO.N,Net-(U1-Q10)*%
X142710000Y-110130000D03*
%TO.P,U2,12,CLR*%
%TO.N,GND*%
X140170000Y-110130000D03*
%TO.P,U2,13,Q9*%
%TO.N,unconnected-(U2-Q9-Pad13)*%
X137630000Y-110130000D03*
%TO.P,U2,14,Q8*%
%TO.N,unconnected-(U2-Q8-Pad14)*%
X135090000Y-110130000D03*
%TO.P,U2,15,Q10*%
%TO.N,unconnected-(U2-Q10-Pad15)*%
X132550000Y-110130000D03*
%TO.P,U2,16,VDD*%
%TO.N,+6V*%
X130010000Y-110130000D03*
%TD*%
D23*
%TO.P,SW2,1,1*%
%TO.N,Net-(U1-Q9)*%
X171000000Y-85500000D03*
X171000000Y-79000000D03*
%TO.P,SW2,2,2*%
%TO.N,Net-(R2-Pad1)*%
X175500000Y-85500000D03*
X175500000Y-79000000D03*
%TD*%
D24*
%TO.P,Y1,1,1*%
%TO.N,Net-(U1-~{\u03A60})*%
X170750000Y-89750000D03*
%TO.P,Y1,2,2*%
%TO.N,Net-(U1-~{\u03A61})*%
X172250000Y-89750000D03*
%TD*%
D14*
%TO.P,AFF1,1,e*%
%TO.N,Net-(AFF1-e)*%
X122170000Y-94240000D03*
D15*
%TO.P,AFF1,2,d*%
%TO.N,Net-(AFF1-d)*%
X124710000Y-94240000D03*
%TO.P,AFF1,3,C.K.*%
%TO.N,GND*%
X127250000Y-94240000D03*
%TO.P,AFF1,4,c*%
%TO.N,Net-(AFF1-c)*%
X129790000Y-94240000D03*
%TO.P,AFF1,5,DP*%
%TO.N,unconnected-(AFF1-DP-Pad5)*%
X132330000Y-94240000D03*
%TO.P,AFF1,6,b*%
%TO.N,Net-(AFF1-b)*%
X132330000Y-79000000D03*
%TO.P,AFF1,7,a*%
%TO.N,Net-(AFF1-a)*%
X129790000Y-79000000D03*
%TO.P,AFF1,8,C.K.*%
%TO.N,GND*%
X127250000Y-79000000D03*
%TO.P,AFF1,9,f*%
%TO.N,Net-(AFF1-f)*%
X124710000Y-79000000D03*
%TO.P,AFF1,10,g*%
%TO.N,Net-(AFF1-g)*%
X122170000Y-79000000D03*
%TD*%
D10*
%TO.P,U7,1,CLK*%
%TO.N,/CLK - Mod-12*%
X58760000Y-118120000D03*
D11*
%TO.P,U7,2,CLK_INHIBIT*%
%TO.N,GND*%
X61300000Y-118120000D03*
%TO.P,U7,3,DISPLAY_EN_IN*%
%TO.N,+6V*%
X63840000Y-118120000D03*
%TO.P,U7,4,DISPLAY_EN_OUT*%
%TO.N,unconnected-(U7-DISPLAY_EN_OUT-Pad4)*%
X66380000Y-118120000D03*
%TO.P,U7,5,CARRY_OUT*%
%TO.N,Net-(U7-CARRY_OUT)*%
X68920000Y-118120000D03*
%TO.P,U7,6,F*%
%TO.N,Net-(U7-F)*%
X71460000Y-118120000D03*
%TO.P,U7,7,G*%
%TO.N,Net-(U7-G)*%
X74000000Y-118120000D03*
%TO.P,U7,8,VSS*%
%TO.N,GND*%
X76540000Y-118120000D03*
%TO.P,U7,9,D*%
%TO.N,Net-(U7-D)*%
X76540000Y-110500000D03*
%TO.P,U7,10,A*%
%TO.N,Net-(U7-A)*%
X74000000Y-110500000D03*
%TO.P,U7,11,E*%
%TO.N,Net-(U7-E)*%
X71460000Y-110500000D03*
%TO.P,U7,12,B*%
%TO.N,Net-(U7-B)*%
X68920000Y-110500000D03*
%TO.P,U7,13,C*%
%TO.N,Net-(U7-C)*%
X66380000Y-110500000D03*
%TO.P,U7,14,UNGATED_C_SEGMENT_OUT*%
%TO.N,unconnected-(U7-UNGATED_C_SEGMENT_OUT-Pad14)*%
X63840000Y-110500000D03*
%TO.P,U7,15,RESET*%
%TO.N,Net-(U7-RESET)*%
X61300000Y-110500000D03*
%TO.P,U7,16,VDD*%
%TO.N,+6V*%
X58760000Y-110500000D03*
%TD*%
D10*
%TO.P,U4,1,CLK*%
%TO.N,Net-(U3-CARRY_OUT)*%
X127010000Y-72000000D03*
D11*
%TO.P,U4,2,CLK_INHIBIT*%
%TO.N,GND*%
X129550000Y-72000000D03*
%TO.P,U4,3,DISPLAY_EN_IN*%
%TO.N,+6V*%
X132090000Y-72000000D03*
%TO.P,U4,4,DISPLAY_EN_OUT*%
%TO.N,unconnected-(U4-DISPLAY_EN_OUT-Pad4)*%
X134630000Y-72000000D03*
%TO.P,U4,5,CARRY_OUT*%
%TO.N,/CLK - Mod-60 (2)*%
X137170000Y-72000000D03*
%TO.P,U4,6,F*%
%TO.N,Net-(D3-K)*%
X139710000Y-72000000D03*
%TO.P,U4,7,G*%
%TO.N,Net-(D4-K)*%
X142250000Y-72000000D03*
%TO.P,U4,8,VSS*%
%TO.N,GND*%
X144790000Y-72000000D03*
%TO.P,U4,9,D*%
%TO.N,Net-(U4-D)*%
X144790000Y-64380000D03*
%TO.P,U4,10,A*%
%TO.N,Net-(U4-A)*%
X142250000Y-64380000D03*
%TO.P,U4,11,E*%
%TO.N,Net-(D2-K)*%
X139710000Y-64380000D03*
%TO.P,U4,12,B*%
%TO.N,Net-(U4-B)*%
X137170000Y-64380000D03*
%TO.P,U4,13,C*%
%TO.N,Net-(U4-C)*%
X134630000Y-64380000D03*
%TO.P,U4,14,UNGATED_C_SEGMENT_OUT*%
%TO.N,unconnected-(U4-UNGATED_C_SEGMENT_OUT-Pad14)*%
X132090000Y-64380000D03*
%TO.P,U4,15,RESET*%
%TO.N,Net-(D2-A)*%
X129550000Y-64380000D03*
%TO.P,U4,16,VDD*%
%TO.N,+6V*%
X127010000Y-64380000D03*
%TD*%
D14*
%TO.P,AFF5,1,e*%
%TO.N,Net-(AFF5-e)*%
X79750000Y-94240000D03*
D15*
%TO.P,AFF5,2,d*%
%TO.N,Net-(AFF5-d)*%
X82290000Y-94240000D03*
%TO.P,AFF5,3,C.K.*%
%TO.N,GND*%
X84830000Y-94240000D03*
%TO.P,AFF5,4,c*%
%TO.N,Net-(AFF5-c)*%
X87370000Y-94240000D03*
%TO.P,AFF5,5,DP*%
%TO.N,Net-(AFF5-DP)*%
X89910000Y-94240000D03*
%TO.P,AFF5,6,b*%
%TO.N,Net-(AFF5-b)*%
X89910000Y-79000000D03*
%TO.P,AFF5,7,a*%
%TO.N,Net-(AFF5-a)*%
X87370000Y-79000000D03*
%TO.P,AFF5,8,C.K.*%
%TO.N,GND*%
X84830000Y-79000000D03*
%TO.P,AFF5,9,f*%
%TO.N,Net-(AFF5-f)*%
X82290000Y-79000000D03*
%TO.P,AFF5,10,g*%
%TO.N,Net-(AFF5-g)*%
X79750000Y-79000000D03*
%TD*%
D25*
%TO.N,Net-(AFF1-c)*%
X128114200Y-76476400D03*
%TO.N,Net-(AFF1-f)*%
X156209100Y-64284800D03*
X156565500Y-60856800D03*
X126874500Y-61330400D03*
%TO.N,Net-(AFF1-d)*%
X133188300Y-75102700D03*
X130816900Y-95505600D03*
%TO.N,GND*%
X79500000Y-110500000D03*
X125500000Y-116500000D03*
X121500000Y-64000000D03*
X152000000Y-79000000D03*
X83500000Y-112500000D03*
%TO.N,Net-(AFF1-a)*%
X143140000Y-61904600D03*
%TO.N,Net-(AFF1-e)*%
X123488400Y-75500600D03*
%TO.N,Net-(AFF1-b)*%
X154353800Y-67056000D03*
X133507200Y-80982800D03*
X149823700Y-78240300D03*
%TO.N,Net-(AFF2-g)*%
X134471100Y-97967300D03*
%TO.N,Net-(AFF2-a)*%
X143080900Y-85786100D03*
X111689800Y-86633700D03*
X111552000Y-96786000D03*
%TO.N,Net-(AFF2-e)*%
X136300500Y-89848700D03*
X125507700Y-89967700D03*
X121488200Y-99035500D03*
%TO.N,Net-(AFF2-f)*%
X124167600Y-99077500D03*
%TO.N,Net-(AFF2-b)*%
X145894200Y-91278400D03*
X119026200Y-96424600D03*
X117959100Y-91220500D03*
%TO.N,Net-(AFF3-d)*%
X91333900Y-63360100D03*
%TO.N,Net-(AFF3-f)*%
X97095300Y-74343000D03*
%TO.N,Net-(AFF3-c)*%
X93697400Y-67678600D03*
%TO.N,Net-(AFF3-g)*%
X96216800Y-71061000D03*
%TO.N,Net-(AFF3-e)*%
X96996600Y-69551300D03*
%TO.N,Net-(AFF4-g)*%
X109465200Y-102109900D03*
%TO.N,Net-(AFF4-e)*%
X111105600Y-104991900D03*
%TO.N,Net-(AFF4-f)*%
X127880200Y-82637200D03*
X129075400Y-103635100D03*
%TO.N,Net-(AFF4-a)*%
X145623000Y-103284600D03*
X144842100Y-83608100D03*
%TO.N,Net-(AFF4-b)*%
X120486500Y-97890200D03*
%TO.N,Net-(AFF4-DP)*%
X117269400Y-80482600D03*
%TO.N,Net-(AFF4-d)*%
X133902800Y-92816000D03*
X133136000Y-103635100D03*
%TO.N,Net-(AFF4-c)*%
X116579500Y-106726900D03*
%TO.N,Net-(AFF5-g)*%
X78413900Y-95404000D03*
%TO.N,Net-(AFF5-f)*%
X79687800Y-90692500D03*
%TO.N,Net-(AFF5-DP)*%
X92006100Y-81615600D03*
%TO.N,Net-(AFF5-a)*%
X79469900Y-91615800D03*
%TO.N,Net-(AFF6-b)*%
X76353900Y-76832900D03*
%TO.N,Net-(AFF6-c)*%
X71308800Y-73980200D03*
%TO.N,Net-(AFF6-g)*%
X62738400Y-64880100D03*
%TO.N,Net-(AFF6-f)*%
X64645100Y-67417500D03*
%TO.N,Net-(AFF6-e)*%
X62634900Y-69753000D03*
%TO.N,Net-(AFF6-d)*%
X63700300Y-72392900D03*
%TO.N,Net-(U1-~{\u03A61})*%
X170080000Y-102750500D03*
%TO.N,Net-(D1-K)*%
X164639200Y-100099100D03*
%TO.N,Net-(D2-A)*%
X108275400Y-101432400D03*
X105250700Y-101432400D03*
X139092600Y-106056500D03*
X138900000Y-112064000D03*
%TO.N,Net-(D5-A)*%
X153843300Y-89798600D03*
X91117400Y-62282400D03*
X156443600Y-103305200D03*
X59385500Y-105013600D03*
X87931900Y-88327100D03*
%TO.N,Net-(Q2-B)*%
X162248200Y-105987300D03*
%TO.N,Net-(U2-Q5)*%
X149930200Y-103305200D03*
%TO.N,Net-(R2-Pad1)*%
X166371900Y-87457500D03*
X162087700Y-99787700D03*
%TO.N,/CLK - Mod-60 (1)*%
X153876500Y-120249700D03*
X158603400Y-100670500D03*
X109043700Y-121741000D03*
X162760800Y-103135700D03*
%TO.N,+6V*%
X159000000Y-74500000D03*
X81000000Y-106000000D03*
%TO.N,Net-(D2-K)*%
X86352100Y-87108600D03*
X79325700Y-105814100D03*
X138389400Y-69925000D03*
X139469300Y-69758200D03*
X134030000Y-85397800D03*
%TO.N,Net-(U7-RESET)*%
X157838400Y-90350000D03*
X60656600Y-83043500D03*
%TO.N,Net-(D3-K)*%
X135883300Y-120587500D03*
X142078700Y-61086100D03*
%TO.N,Net-(D4-K)*%
X144705300Y-60516800D03*
X53372900Y-65069400D03*
%TO.N,Net-(D5-K)*%
X67559300Y-75749000D03*
X78385700Y-70057400D03*
X51487900Y-73148000D03*
X79015700Y-75679400D03*
X65640800Y-73803400D03*
%TO.N,Net-(D6-K)*%
X111835500Y-74472800D03*
X63296600Y-76272800D03*
%TO.N,Net-(U7-B)*%
X54790300Y-82713000D03*
X62878700Y-108693100D03*
%TO.N,Net-(U7-C)*%
X64699600Y-85664700D03*
%TO.N,Net-(U7-D)*%
X76540000Y-89969800D03*
%TO.N,Net-(U7-E)*%
X71148100Y-88108300D03*
%TO.N,Net-(U7-F)*%
X68224300Y-91412700D03*
%TO.N,Net-(U7-A)*%
X73935200Y-95629600D03*
%TO.N,Net-(U7-G)*%
X72773300Y-99737600D03*
%TO.N,Net-(U8-A)*%
X84960300Y-81941800D03*
%TO.N,Net-(U8-B)*%
X76965900Y-79047400D03*
%TO.N,Net-(U8-C)*%
X57593100Y-73663100D03*
%TO.N,Net-(U8-F)*%
X57593100Y-67275500D03*
%TO.N,Net-(U8-G)*%
X79325700Y-58431600D03*
%TO.N,Net-(U4-D)*%
X149781000Y-69583600D03*
%TO.N,Net-(U3-A)*%
X112429700Y-103605900D03*
%TO.N,Net-(U3-B)*%
X113549700Y-103610700D03*
%TO.N,Net-(U3-C)*%
X114351500Y-103633500D03*
%TO.N,Net-(U3-D)*%
X121980000Y-103763000D03*
%TO.N,Net-(U3-E)*%
X119056400Y-103437100D03*
%TO.N,Net-(U3-F)*%
X121141200Y-103387900D03*
%TO.N,Net-(U3-G)*%
X123399500Y-103458400D03*
%TO.N,Net-(U5-C)*%
X95704200Y-68215100D03*
%TO.N,Net-(U5-D)*%
X114987300Y-61044900D03*
%TO.N,Net-(U6-B)*%
X144705300Y-99737600D03*
X144431900Y-89895700D03*
X91974700Y-89629100D03*
%TO.N,Net-(U6-D)*%
X138162400Y-99079700D03*
X136072500Y-97700400D03*
X134379500Y-98858600D03*
X132137900Y-107424700D03*
%TO.N,Net-(U6-E)*%
X94482900Y-102560400D03*
%TO.N,Net-(U6-F)*%
X96221600Y-102492500D03*
%TO.N,Net-(U6-G)*%
X136351300Y-96898600D03*
X126096400Y-120087300D03*
X130370900Y-99228800D03*
X138728500Y-97132000D03*
%TO.N,/CLK - Mod-60 (2)*%
X89258500Y-85808000D03*
X132544000Y-85069900D03*
%TO.N,/CLK - Mod-12*%
X106048200Y-103469400D03*
X57827000Y-105235700D03*
%TD*%
D26*
%TO.N,Net-(AFF1-c)*%
X129790000Y-92626300D02*
X128593300Y-91429600D01*
X128593300Y-91429600D02*
X128593300Y-76955500D01*
X128593300Y-76955500D02*
X128114200Y-76476400D01*
X129790000Y-94240000D02*
X129790000Y-92626300D01*
%TO.N,Net-(AFF1-f)*%
X124710000Y-77386300D02*
X124710000Y-63494900D01*
X156209100Y-61213200D02*
X156565500Y-60856800D01*
X124710000Y-63494900D02*
X126874500Y-61330400D01*
X156209100Y-64284800D02*
X156209100Y-61213200D01*
X124710000Y-79000000D02*
X124710000Y-77386300D01*
%TO.N,Net-(AFF1-d)*%
X131165000Y-95853700D02*
X132791300Y-95853700D01*
X132791300Y-95853700D02*
X133443700Y-95201300D01*
X131202600Y-77088400D02*
X133188300Y-75102700D01*
X133443700Y-95201300D02*
X133443700Y-93278700D01*
X131202600Y-91037600D02*
X131202600Y-77088400D01*
X133443700Y-93278700D02*
X131202600Y-91037600D01*
X130816900Y-95505600D02*
X131165000Y-95853700D01*
%TO.N,GND*%
X129550000Y-72000000D02*
X129550000Y-73551700D01*
X123250000Y-117750000D02*
X123250000Y-115250000D01*
X141250000Y-80613700D02*
X141250000Y-92626300D01*
X61300000Y-118120000D02*
X63180000Y-120000000D01*
X113000000Y-79000000D02*
X113000000Y-77001700D01*
X79000000Y-111000000D02*
X79500000Y-110500000D01*
X113000000Y-92626300D02*
X113000000Y-80613700D01*
X69920000Y-73801700D02*
X70250000Y-74131700D01*
X113000000Y-77001700D02*
X116390000Y-73611700D01*
X147500000Y-77000000D02*
X147500000Y-74500000D01*
X141250000Y-77091700D02*
X141250000Y-79000000D01*
X123250000Y-117750000D02*
X124250000Y-117750000D01*
X84830000Y-74131700D02*
X84830000Y-79000000D01*
X63180000Y-120000000D02*
X75500000Y-120000000D01*
X127250000Y-79806800D02*
X127250000Y-79000000D01*
X85477500Y-115270800D02*
X85477500Y-96501200D01*
X113000000Y-79000000D02*
X113000000Y-80613700D01*
X141500000Y-111500000D02*
X141500000Y-109000000D01*
X101150000Y-75316300D02*
X99080000Y-77386300D01*
X70250000Y-80613700D02*
X70250000Y-92626300D01*
X99080000Y-79000000D02*
X99080000Y-77386300D01*
X83630400Y-112630400D02*
X83500000Y-112500000D01*
X141250000Y-79000000D02*
X141250000Y-80613700D01*
X123516600Y-98807846D02*
X127250000Y-95074446D01*
X99080000Y-94240000D02*
X99080000Y-95853700D01*
X99080000Y-94240000D02*
X99080000Y-79000000D01*
X101150000Y-72060000D02*
X101150000Y-75316300D01*
X79000000Y-117000000D02*
X79000000Y-111000000D01*
X144790000Y-72000000D02*
X144790000Y-73551700D01*
X76540000Y-118120000D02*
X76540000Y-118960000D01*
X83630400Y-117000000D02*
X83630400Y-113000000D01*
X85160000Y-73801700D02*
X84830000Y-74131700D01*
X121193800Y-119806200D02*
X110066200Y-119806200D01*
X127250000Y-75851700D02*
X127250000Y-77386300D01*
X99540000Y-112408700D02*
X99540100Y-112408700D01*
X151380000Y-99120000D02*
X151380000Y-96700000D01*
X102040000Y-115500000D02*
X105760000Y-115500000D01*
X110066200Y-119806200D02*
X108010000Y-117750000D01*
X100691700Y-97465400D02*
X99080000Y-95853700D01*
X123516600Y-101901179D02*
X123516600Y-98807846D01*
X123250000Y-117750000D02*
X121193800Y-119806200D01*
X85160000Y-72250000D02*
X85160000Y-73801700D01*
X141250000Y-94240000D02*
X141250000Y-92626300D01*
X84830000Y-94240000D02*
X84830000Y-95853700D01*
X141500000Y-109000000D02*
X151380000Y-99120000D01*
X99540000Y-118000000D02*
X102040000Y-115500000D01*
X140170000Y-110130000D02*
X140170000Y-111670000D01*
X152000000Y-79000000D02*
X149500000Y-79000000D01*
X84300000Y-116448300D02*
X85477500Y-115270800D01*
X140170000Y-108578300D02*
X141250000Y-107498300D01*
X145000000Y-72000000D02*
X144790000Y-72000000D01*
X127250000Y-94240000D02*
X127250000Y-92626300D01*
X127228500Y-80635200D02*
X127228500Y-92604800D01*
X127250000Y-79000000D02*
X127250000Y-77386300D01*
X140170000Y-110130000D02*
X140170000Y-108578300D01*
X105760000Y-115500000D02*
X108010000Y-117750000D01*
X129550000Y-73551700D02*
X127250000Y-75851700D01*
X144790000Y-73551700D02*
X141250000Y-77091700D01*
X76540000Y-118120000D02*
X77880000Y-118120000D01*
X99540100Y-112408700D02*
X100691700Y-111257100D01*
X140500000Y-112000000D02*
X141000000Y-112000000D01*
X141000000Y-112000000D02*
X141500000Y-111500000D01*
X84300000Y-118000000D02*
X84300000Y-116448300D01*
X116390000Y-72060000D02*
X116390000Y-69110000D01*
X127250000Y-80613700D02*
X127228500Y-80635200D01*
X116390000Y-72060000D02*
X116390000Y-73611700D01*
X127228500Y-92604800D02*
X127250000Y-92626300D01*
X70250000Y-94240000D02*
X70250000Y-92626300D01*
X124250000Y-117750000D02*
X125500000Y-116500000D01*
X124581900Y-102966480D02*
X123516600Y-101901179D01*
X70250000Y-74131700D02*
X70250000Y-79000000D01*
X99540000Y-118000000D02*
X99540000Y-116448300D01*
X76540000Y-118960000D02*
X75500000Y-120000000D01*
X141250000Y-107498300D02*
X141250000Y-94240000D01*
X83630400Y-113000000D02*
X83630400Y-112630400D01*
X127250000Y-79806800D02*
X127250000Y-80613700D01*
X77880000Y-118120000D02*
X79000000Y-117000000D01*
X84300000Y-118000000D02*
X83630400Y-117330400D01*
X85477500Y-96501200D02*
X84830000Y-95853700D01*
X127250000Y-95074446D02*
X127250000Y-94240000D01*
X69920000Y-72250000D02*
X69920000Y-73801700D01*
X140170000Y-111670000D02*
X140500000Y-112000000D01*
X100691700Y-111257100D02*
X100691700Y-97465400D01*
X123250000Y-115250000D02*
X124581900Y-113918100D01*
X113000000Y-94240000D02*
X113000000Y-92626300D01*
X149500000Y-79000000D02*
X147500000Y-77000000D01*
X83630400Y-117330400D02*
X83630400Y-117000000D01*
X124581900Y-113918100D02*
X124581900Y-102966480D01*
X147500000Y-74500000D02*
X145000000Y-72000000D01*
X116390000Y-69110000D02*
X121500000Y-64000000D01*
X70250000Y-79000000D02*
X70250000Y-80613700D01*
X99540000Y-116448300D02*
X99540000Y-112408700D01*
%TO.N,Net-(AFF1-a)*%
X141573500Y-60434300D02*
X138440000Y-63567800D01*
X142379400Y-60434300D02*
X141573500Y-60434300D01*
X129790000Y-79000000D02*
X129790000Y-77386300D01*
X143140000Y-61194900D02*
X142379400Y-60434300D01*
X143140000Y-61904600D02*
X143140000Y-61194900D01*
X138440000Y-63567800D02*
X138440000Y-65784900D01*
X133360000Y-70864900D02*
X133360000Y-73816300D01*
X133360000Y-73816300D02*
X129790000Y-77386300D01*
X138440000Y-65784900D02*
X133360000Y-70864900D01*
%TO.N,Net-(AFF1-e)*%
X122170000Y-94240000D02*
X122170000Y-92626300D01*
X123488400Y-91307900D02*
X123488400Y-75500600D01*
X122170000Y-92626300D02*
X123488400Y-91307900D01*
%TO.N,Net-(AFF1-b)*%
X132699100Y-80982800D02*
X132330000Y-80613700D01*
X149823700Y-78240300D02*
X149823700Y-71586100D01*
X133507200Y-80982800D02*
X132699100Y-80982800D01*
X132330000Y-79000000D02*
X132330000Y-80613700D01*
X149823700Y-71586100D02*
X154353800Y-67056000D01*
%TO.N,Net-(AFF2-g)*%
X134471100Y-97967300D02*
X134577300Y-97967300D01*
X136170000Y-79000000D02*
X136170000Y-88413200D01*
X134621200Y-97817200D02*
X134471100Y-97967300D01*
X134577300Y-97967300D02*
X134471100Y-97967300D01*
X136170000Y-88413200D02*
X134621200Y-89962000D01*
X134621200Y-89962000D02*
X134621200Y-97817200D01*
%TO.N,Net-(AFF2-a)*%
X143790000Y-79000000D02*
X143790000Y-85077000D01*
X143790000Y-85077000D02*
X143080900Y-85786100D01*
X111552000Y-96786000D02*
X111689800Y-96648200D01*
X111689800Y-96648200D02*
X111689800Y-86633700D01*
%TO.N,Net-(AFF2-e)*%
X136170000Y-94240000D02*
X136170000Y-92626300D01*
X136170000Y-92626300D02*
X136300500Y-92495800D01*
X125507700Y-90529300D02*
X125507700Y-89967700D01*
X121488200Y-99035500D02*
X123439900Y-97083800D01*
X123439900Y-92597100D02*
X125507700Y-90529300D01*
X123439900Y-97083800D02*
X123439900Y-92597100D01*
X136300500Y-92495800D02*
X136300500Y-89848700D01*
%TO.N,Net-(AFF2-f)*%
X124167600Y-99077500D02*
X124167600Y-99715000D01*
X137426900Y-100981800D02*
X137426900Y-81896800D01*
X138710000Y-79000000D02*
X138710000Y-80613700D01*
X137426900Y-81896800D02*
X138710000Y-80613700D01*
X129242000Y-104789400D02*
X133619300Y-104789400D01*
X124167600Y-99715000D02*
X129242000Y-104789400D01*
X133619300Y-104789400D02*
X137426900Y-100981800D01*
%TO.N,Net-(AFF2-b)*%
X146330000Y-79000000D02*
X146330000Y-80613700D01*
X119193700Y-96257100D02*
X119193700Y-92455100D01*
X119026200Y-96424600D02*
X119193700Y-96257100D01*
X145894200Y-81049500D02*
X146330000Y-80613700D01*
X145894200Y-91278400D02*
X145894200Y-81049500D01*
X119193700Y-92455100D02*
X117959100Y-91220500D01*
%TO.N,Net-(AFF3-d)*%
X99800200Y-70875200D02*
X97824600Y-68899600D01*
X93211600Y-68899600D02*
X91333900Y-67021900D01*
X97810000Y-91356300D02*
X97810000Y-75276100D01*
X99800200Y-73285900D02*
X99800200Y-70875200D01*
X91333900Y-67021900D02*
X91333900Y-63360100D01*
X97824600Y-68899600D02*
X93211600Y-68899600D01*
X97810000Y-75276100D02*
X99800200Y-73285900D01*
X96540000Y-94240000D02*
X96540000Y-92626300D01*
X96540000Y-92626300D02*
X97810000Y-91356300D01*
%TO.N,Net-(AFF3-f)*%
X96540000Y-79000000D02*
X96540000Y-77386300D01*
X97095300Y-76831000D02*
X97095300Y-74343000D01*
X96540000Y-77386300D02*
X97095300Y-76831000D01*
%TO.N,Net-(AFF3-c)*%
X102301700Y-71122400D02*
X98742700Y-67563400D01*
X101620000Y-94240000D02*
X101620000Y-92626300D01*
X100506300Y-91512600D02*
X100506300Y-77103900D01*
X100506300Y-77103900D02*
X102301700Y-75308500D01*
X98742700Y-67563400D02*
X93812600Y-67563400D01*
X93812600Y-67563400D02*
X93697400Y-67678600D01*
X101620000Y-92626300D02*
X100506300Y-91512600D01*
X102301700Y-75308500D02*
X102301700Y-71122400D01*
%TO.N,Net-(AFF3-g)*%
X94000000Y-73277800D02*
X96216800Y-71061000D01*
X94000000Y-79000000D02*
X94000000Y-73277800D01*
%TO.N,Net-(AFF3-e)*%
X96805000Y-69551300D02*
X96996600Y-69551300D01*
X92886200Y-91512500D02*
X92886200Y-73470100D01*
X94000000Y-92626300D02*
X92886200Y-91512500D01*
X92886200Y-73470100D02*
X96805000Y-69551300D01*
X94000000Y-94240000D02*
X94000000Y-92626300D01*
%TO.N,Net-(AFF4-g)*%
X111757300Y-105301800D02*
X111757300Y-104722000D01*
X111386500Y-105672600D02*
X111757300Y-105301800D01*
X111375500Y-104340200D02*
X111276600Y-104340200D01*
X111757300Y-104722000D02*
X111375500Y-104340200D01*
X109465200Y-102528800D02*
X109465200Y-102109900D01*
X110856500Y-105672600D02*
X111386500Y-105672600D01*
X106757800Y-81775900D02*
X106757800Y-101573900D01*
X107920000Y-80613700D02*
X106757800Y-81775900D01*
X106757800Y-101573900D02*
X110856500Y-105672600D01*
X111276600Y-104340200D02*
X109465200Y-102528800D01*
X107920000Y-79000000D02*
X107920000Y-80613700D01*
%TO.N,Net-(AFF4-e)*%
X107920000Y-94240000D02*
X107920000Y-95853700D01*
X107608800Y-101695800D02*
X110904900Y-104991900D01*
X110904900Y-104991900D02*
X111105600Y-104991900D01*
X107920000Y-95853700D02*
X107608800Y-96164900D01*
X107608800Y-96164900D02*
X107608800Y-101695800D01*
%TO.N,Net-(AFF4-f)*%
X128593500Y-103153200D02*
X128593500Y-92573700D01*
X127880200Y-91860400D02*
X127880200Y-82637200D01*
X129075400Y-103635100D02*
X128593500Y-103153200D01*
X128593500Y-92573700D02*
X127880200Y-91860400D01*
%TO.N,Net-(AFF4-a)*%
X142655200Y-100316800D02*
X145623000Y-103284600D01*
X144842100Y-86381100D02*
X142655200Y-88568000D01*
X142655200Y-88568000D02*
X142655200Y-100316800D01*
X144842100Y-83608100D02*
X144842100Y-86381100D01*
%TO.N,Net-(AFF4-b)*%
X118080000Y-80613700D02*
X120486500Y-83020200D01*
X118080000Y-79000000D02*
X118080000Y-80613700D01*
X120486500Y-83020200D02*
X120486500Y-97890200D01*
%TO.N,Net-(AFF4-DP)*%
X118080000Y-94240000D02*
X118080000Y-92626300D01*
X118080000Y-92626300D02*
X117201600Y-91747900D01*
X117269400Y-80865400D02*
X117269400Y-80482600D01*
X117201600Y-80933200D02*
X117269400Y-80865400D01*
X117201600Y-91747900D02*
X117201600Y-80933200D01*
%TO.N,Net-(AFF4-d)*%
X133136000Y-99180600D02*
X133136000Y-103635100D01*
X133945400Y-98363100D02*
X133945400Y-98371200D01*
X133819400Y-98237100D02*
X133945400Y-98363100D01*
X133945400Y-98371200D02*
X133136000Y-99180600D01*
X133945400Y-92939100D02*
X133945400Y-97571500D01*
X133902800Y-92896500D02*
X133945400Y-92939100D01*
X133819400Y-97697500D02*
X133819400Y-98237100D01*
X133902800Y-92896500D02*
X133902800Y-92816000D01*
X133945400Y-97571500D02*
X133819400Y-97697500D01*
%TO.N,Net-(AFF4-c)*%
X115540000Y-94240000D02*
X115540000Y-105687400D01*
X115540000Y-105687400D02*
X116579500Y-106726900D01*
%TO.N,Net-(AFF5-g)*%
X79750000Y-79000000D02*
X79750000Y-80613700D01*
X78413900Y-95404000D02*
X78413900Y-81949800D01*
X78413900Y-81949800D02*
X79750000Y-80613700D01*
%TO.N,Net-(AFF5-f)*%
X82290000Y-88090300D02*
X79687800Y-90692500D01*
X82290000Y-79000000D02*
X82290000Y-88090300D01*
%TO.N,Net-(AFF5-DP)*%
X89910200Y-92626100D02*
X89910200Y-83711500D01*
X89910200Y-83711500D02*
X92006100Y-81615600D01*
X89910000Y-94240000D02*
X89910000Y-92626300D01*
X89910000Y-92626300D02*
X89910200Y-92626100D01*
%TO.N,Net-(AFF5-a)*%
X87370000Y-83933400D02*
X79687600Y-91615800D01*
X87370000Y-79000000D02*
X87370000Y-83933400D01*
X79687600Y-91615800D02*
X79469900Y-91615800D01*
%TO.N,Net-(AFF6-b)*%
X75330000Y-77856800D02*
X76353900Y-76832900D01*
X75330000Y-79000000D02*
X75330000Y-77856800D01*
%TO.N,Net-(AFF6-c)*%
X72790000Y-84539600D02*
X72790000Y-94240000D01*
X71643000Y-74314400D02*
X71643000Y-83392600D01*
X71643000Y-83392600D02*
X72790000Y-84539600D01*
X71308800Y-73980200D02*
X71643000Y-74314400D01*
%TO.N,Net-(AFF6-g)*%
X62486200Y-64919900D02*
X62628100Y-64778000D01*
X62636300Y-64778000D02*
X62738400Y-64880100D01*
X62429300Y-65156300D02*
X62429300Y-64976800D01*
X65170000Y-77224600D02*
X61983200Y-74037800D01*
X62486200Y-64919900D02*
X62628100Y-64778000D01*
X65170000Y-77386300D02*
X65170000Y-77224600D01*
X61983200Y-65602400D02*
X62429300Y-65156300D01*
X61983200Y-74037800D02*
X61983200Y-65602400D01*
X62429300Y-64976800D02*
X62486200Y-64919900D01*
X62628100Y-64778000D02*
X62636300Y-64778000D01*
X65170000Y-79000000D02*
X65170000Y-77386300D01*
%TO.N,Net-(AFF6-f)*%
X64645100Y-67417500D02*
X64645100Y-73756300D01*
X67709900Y-76821100D02*
X67710000Y-76821100D01*
X67710000Y-76821100D02*
X67710000Y-79000000D01*
X64645100Y-73756300D02*
X67709900Y-76821100D01*
%TO.N,Net-(AFF6-e)*%
X66315000Y-91481300D02*
X65170000Y-92626300D01*
X65170000Y-94240000D02*
X65170000Y-92626300D01*
X66315000Y-76380100D02*
X66315000Y-91481300D01*
X62634900Y-69753000D02*
X62634900Y-72700000D01*
X62634900Y-72700000D02*
X66315000Y-76380100D01*
%TO.N,Net-(AFF6-d)*%
X65453600Y-67246400D02*
X64945200Y-66738000D01*
X64373100Y-66738000D02*
X63700300Y-67410800D01*
X65453600Y-72684000D02*
X65453600Y-67246400D01*
X67526900Y-92443200D02*
X67526900Y-83570000D01*
X68824300Y-82272600D02*
X68824300Y-76054700D01*
X67526900Y-83570000D02*
X68824300Y-82272600D01*
X63700300Y-67410800D02*
X63700300Y-72392900D01*
X64945200Y-66738000D02*
X64373100Y-66738000D01*
X67710000Y-92626300D02*
X67526900Y-92443200D01*
X68824300Y-76054700D02*
X65453600Y-72684000D01*
X67710000Y-94240000D02*
X67710000Y-92626300D01*
%TO.N,Net-(U1-~{\u03A61})*%
X170080000Y-102750500D02*
X170080000Y-108198300D01*
X170080000Y-108198300D02*
X170460000Y-108578300D01*
X170080000Y-91920000D02*
X170080000Y-102750500D01*
X172250000Y-89750000D02*
X170080000Y-91920000D01*
X170460000Y-110130000D02*
X170460000Y-108578300D01*
%TO.N,Net-(U1-~{\u03A60})*%
X170750000Y-89750000D02*
X171603200Y-88896800D01*
X172616200Y-88896800D02*
X175540000Y-91820600D01*
X171603200Y-88896800D02*
X172616200Y-88896800D01*
X175540000Y-91820600D02*
X175540000Y-110130000D01*
%TO.N,Net-(D1-K)*%
X164639200Y-100099100D02*
X164639200Y-89777500D01*
X164639200Y-89777500D02*
X165000000Y-89416700D01*
X165000000Y-88540000D02*
X165000000Y-89416700D01*
%TO.N,Net-(D2-A)*%
X53250000Y-109500000D02*
X52068700Y-108318700D01*
X114220300Y-77117600D02*
X114220300Y-95487500D01*
X53250000Y-98880000D02*
X52068700Y-97698700D01*
X53750000Y-109500000D02*
X53250000Y-109500000D01*
X121452700Y-69885200D02*
X114220300Y-77117600D01*
X139092600Y-106056500D02*
X138900000Y-106249100D01*
X52068700Y-108318700D02*
X52068700Y-100061300D01*
X105250700Y-101432400D02*
X105250700Y-105819000D01*
X129550000Y-64380000D02*
X129550000Y-62828300D01*
X105250700Y-105819000D02*
X108010000Y-108578300D01*
X52068700Y-97500000D02*
X52068700Y-89181300D01*
X129550000Y-62828300D02*
X127385300Y-60663600D01*
X127385300Y-60663600D02*
X126612500Y-60663600D01*
X108010000Y-110130000D02*
X108010000Y-108578300D01*
X138900000Y-106249100D02*
X138900000Y-112064000D01*
X114220300Y-95487500D02*
X108275400Y-101432400D01*
X52068700Y-97698700D02*
X52068700Y-97500000D01*
X121452700Y-65823400D02*
X121452700Y-69885200D01*
X126612500Y-60663600D02*
X121452700Y-65823400D01*
X52068700Y-89181300D02*
X53250000Y-88000000D01*
X52068700Y-100061300D02*
X53250000Y-98880000D01*
%TO.N,Net-(D5-A)*%
X153843300Y-100704900D02*
X156443600Y-103305200D01*
X53250000Y-66880000D02*
X54438500Y-68068500D01*
X87931900Y-88327100D02*
X88606800Y-87652200D01*
X54438500Y-76191500D02*
X53250000Y-77380000D01*
X88606800Y-64793000D02*
X91117400Y-62282400D01*
X88606800Y-87652200D02*
X88606800Y-64793000D01*
X83652500Y-92606500D02*
X87931900Y-88327100D01*
X54438500Y-68068500D02*
X54438500Y-76191500D01*
X84300000Y-108828300D02*
X83652500Y-108180800D01*
X59385500Y-104005500D02*
X59385500Y-105013600D01*
X57130000Y-101750000D02*
X59385500Y-104005500D01*
X53250000Y-77380000D02*
X57130000Y-81260000D01*
X84300000Y-110380000D02*
X84300000Y-108828300D01*
X83652500Y-108180800D02*
X83652500Y-92606500D01*
X153843300Y-89798600D02*
X153843300Y-100704900D01*
X57130000Y-81260000D02*
X57130000Y-101750000D01*
%TO.N,Net-(Q2-B)*%
X164293000Y-87270000D02*
X165000000Y-87270000D01*
X163898300Y-104337200D02*
X163898300Y-87664700D01*
X162248200Y-105987300D02*
X163898300Y-104337200D01*
X163898300Y-87664700D02*
X164293000Y-87270000D01*
%TO.N,Net-(U2-Q5)*%
X141236800Y-116198300D02*
X141236800Y-116683200D01*
X141236800Y-116683200D02*
X140170000Y-117750000D01*
X146520000Y-110915100D02*
X146520000Y-106715400D01*
X141236800Y-116198300D02*
X146520000Y-110915100D01*
X146520000Y-106715400D02*
X149930200Y-103305200D01*
%TO.N,Net-(R2-Pad1)*%
X165571700Y-85096600D02*
X166371900Y-85896800D01*
X175500000Y-85500000D02*
X175500000Y-79000000D01*
X166371900Y-85896800D02*
X166371900Y-87457500D01*
X162087700Y-87437400D02*
X164428500Y-85096600D01*
X164428500Y-85096600D02*
X165571700Y-85096600D01*
X162087700Y-99787700D02*
X162087700Y-87437400D01*
X175500000Y-67750000D02*
X175500000Y-74250000D01*
X175500000Y-79000000D02*
X175500000Y-74250000D01*
%TO.N,/CLK - Mod-60 (1)*%
X158603400Y-100396600D02*
X159000000Y-100000000D01*
X162760800Y-101739200D02*
X162760800Y-103135700D01*
X109036500Y-121316500D02*
X109043700Y-121316500D01*
X109043700Y-121316500D02*
X109043700Y-121741000D01*
X159030000Y-112232100D02*
X153876500Y-117385600D01*
X159000000Y-100000000D02*
X161021600Y-100000000D01*
X159030000Y-103135700D02*
X158603400Y-102709100D01*
X153876500Y-117385600D02*
X153876500Y-120249700D01*
X161021600Y-100000000D02*
X162760800Y-101739200D01*
X105470000Y-117750000D02*
X109036500Y-121316500D01*
X158603400Y-100670500D02*
X158603400Y-100396600D01*
X158603400Y-102709100D02*
X158603400Y-100670500D01*
X159030000Y-103135700D02*
X159030000Y-112232100D01*
%TO.N,+6V*%
X58760000Y-110500000D02*
X58760000Y-113040000D01*
X157760000Y-110130000D02*
X157760000Y-108578300D01*
X77253800Y-96199500D02*
X77204400Y-96150100D01*
X72460000Y-71261700D02*
X72460000Y-72250000D01*
X103690000Y-72060000D02*
X103690000Y-73611700D01*
X159000000Y-74500000D02*
X159000000Y-81460000D01*
X81760000Y-110380000D02*
X81760000Y-106740000D01*
X110550000Y-116761700D02*
X110550000Y-117750000D01*
X157760000Y-108578300D02*
X157760000Y-103700000D01*
X77204400Y-85831900D02*
X74011700Y-82639200D01*
X105470000Y-110130000D02*
X105470000Y-111681700D01*
X83129400Y-118878600D02*
X83129400Y-113301100D01*
X159600100Y-80859900D02*
X159000000Y-81460000D01*
X81760000Y-111155800D02*
X81760000Y-111931700D01*
X85288300Y-119551700D02*
X86840000Y-118000000D01*
X159000000Y-81460000D02*
X157448300Y-81460000D01*
X81760000Y-106740000D02*
X81020000Y-106000000D01*
X67380000Y-66181700D02*
X72460000Y-71261700D01*
X156946600Y-81961700D02*
X157448300Y-81460000D01*
X85000000Y-119551700D02*
X85288300Y-119551700D01*
X67380000Y-64630000D02*
X67380000Y-66181700D01*
X103690000Y-72060000D02*
X103690000Y-70508300D01*
X74011700Y-82639200D02*
X74011700Y-75353400D01*
X157760000Y-103700000D02*
X156946600Y-102886600D01*
X103690000Y-73611700D02*
X103008600Y-74293100D01*
X103008600Y-106116900D02*
X105470000Y-108578300D01*
X127010000Y-65368300D02*
X127010000Y-64380000D01*
X103690000Y-70508300D02*
X98610000Y-65428300D01*
X72460000Y-73801700D02*
X72460000Y-72250000D01*
X81020000Y-106000000D02*
X81000000Y-106000000D01*
X105470000Y-110130000D02*
X105470000Y-108578300D01*
X105470000Y-111681700D02*
X110550000Y-116761700D01*
X81760000Y-111155800D02*
X77253800Y-106649600D01*
X132090000Y-70448300D02*
X127010000Y-65368300D01*
X98610000Y-65428300D02*
X98610000Y-64440000D01*
X83129400Y-113301100D02*
X81760000Y-111931700D01*
X132090000Y-72000000D02*
X132090000Y-70448300D01*
X58760000Y-113040000D02*
X63840000Y-118120000D01*
X74011700Y-75353400D02*
X72460000Y-73801700D01*
X77204400Y-96150100D02*
X77204400Y-85831900D01*
X156946600Y-102886600D02*
X156946600Y-81961700D01*
X103008600Y-74293100D02*
X103008600Y-106116900D01*
X81760000Y-110380000D02*
X81760000Y-111155800D01*
X85000000Y-119551700D02*
X83802500Y-119551700D01*
X83802500Y-119551700D02*
X83129400Y-118878600D01*
X77253800Y-106649600D02*
X77253800Y-96199500D01*
%TO.N,Net-(D2-K)*%
X81020000Y-104119800D02*
X81020000Y-92440700D01*
X139469300Y-66172400D02*
X139469300Y-69758200D01*
X134030000Y-85397800D02*
X134660600Y-84767200D01*
X139710000Y-64380000D02*
X139710000Y-65931700D01*
X79325700Y-105814100D02*
X81020000Y-104119800D01*
X134660600Y-84767200D02*
X134660600Y-77255200D01*
X139710000Y-65931700D02*
X139469300Y-66172400D01*
X81020000Y-92440700D02*
X86352100Y-87108600D01*
X134660600Y-77255200D02*
X138389400Y-73526400D01*
X138389400Y-73526400D02*
X138389400Y-69925000D01*
%TO.N,Net-(U7-RESET)*%
X60924200Y-108572500D02*
X60924200Y-83043500D01*
X62820300Y-63078300D02*
X68000000Y-63078300D01*
X68368300Y-63078300D02*
X69920000Y-64630000D01*
X61300000Y-110500000D02*
X61300000Y-108948300D01*
X60924200Y-83043500D02*
X60925700Y-83042000D01*
X61300000Y-108948300D02*
X60924200Y-108572500D01*
X60924200Y-83043500D02*
X60656600Y-83043500D01*
X159000000Y-96700000D02*
X158648300Y-96700000D01*
X60925700Y-64972900D02*
X62820300Y-63078300D01*
X157448300Y-90740100D02*
X157448300Y-95500000D01*
X60925700Y-83042000D02*
X60925700Y-64972900D01*
X158648300Y-96700000D02*
X157448300Y-95500000D01*
X157838400Y-90350000D02*
X157448300Y-90740100D01*
X68000000Y-63078300D02*
X68368300Y-63078300D01*
%TO.N,Net-(U1-Q4)*%
X176715400Y-112482900D02*
X176715400Y-90962200D01*
X173250100Y-76500100D02*
X171000000Y-74250000D01*
X173000000Y-117750000D02*
X173000000Y-116198300D01*
X173250100Y-87496900D02*
X173250100Y-76500100D01*
X171000000Y-67750000D02*
X171000000Y-74250000D01*
X173000000Y-116198300D02*
X176715400Y-112482900D01*
X176715400Y-90962200D02*
X173250100Y-87496900D01*
%TO.N,Net-(U1-Q9)*%
X165380000Y-91120000D02*
X171000000Y-85500000D01*
X165380000Y-110130000D02*
X165380000Y-91120000D01*
X171000000Y-85500000D02*
X171000000Y-79000000D01*
%TO.N,Net-(U10-Pad10)*%
X159000000Y-94160000D02*
X159891700Y-94160000D01*
X159891700Y-94160000D02*
X160551700Y-93500000D01*
X160551700Y-92000000D02*
X160551700Y-93500000D01*
X160171700Y-91620000D02*
X160551700Y-92000000D01*
X159000000Y-91620000D02*
X160171700Y-91620000D01*
%TO.N,Net-(U10-Pad3)*%
X151380000Y-86540000D02*
X151971700Y-86540000D01*
X151380000Y-89080000D02*
X151851700Y-89080000D01*
X151851700Y-89080000D02*
X152931700Y-88000000D01*
X151971700Y-86540000D02*
X152931700Y-87500000D01*
X152931700Y-87500000D02*
X152931700Y-88000000D01*
%TO.N,Net-(U3-CARRY_OUT)*%
X126190700Y-90767900D02*
X126190700Y-89729100D01*
X116835800Y-114992500D02*
X116835800Y-107392200D01*
X125980000Y-90978600D02*
X126190700Y-90767900D01*
X116835800Y-107392200D02*
X117231200Y-106996800D01*
X117231200Y-106996800D02*
X117231200Y-104250300D01*
X115630000Y-117750000D02*
X115630000Y-116198300D01*
X125980000Y-89518400D02*
X125980000Y-73030000D01*
X125980000Y-95501500D02*
X125980000Y-90978600D01*
X125980000Y-73030000D02*
X127010000Y-72000000D01*
X115630000Y-116198300D02*
X116835800Y-114992500D01*
X117231200Y-104250300D02*
X125980000Y-95501500D01*
X126190700Y-89729100D02*
X125980000Y-89518400D01*
%TO.N,Net-(D3-K)*%
X140980000Y-69178300D02*
X140980000Y-62184800D01*
X139710000Y-72000000D02*
X139710000Y-73551700D01*
X139710000Y-71566400D02*
X139710000Y-72000000D01*
X139710000Y-73551700D02*
X139860600Y-73702300D01*
X139860600Y-73702300D02*
X139860600Y-104177700D01*
X139710000Y-71566400D02*
X139710000Y-70448300D01*
X139710000Y-70448300D02*
X140980000Y-69178300D01*
X136420500Y-120050300D02*
X135883300Y-120587500D01*
X136420500Y-107617800D02*
X136420500Y-120050300D01*
X139860600Y-104177700D02*
X136420500Y-107617800D01*
X140980000Y-62184800D02*
X142078700Y-61086100D01*
%TO.N,Net-(U5-CLK)*%
X93145200Y-115223100D02*
X91920000Y-116448300D01*
X93145200Y-100395400D02*
X93145200Y-115223100D01*
X95191000Y-98349600D02*
X93145200Y-100395400D01*
X98610000Y-72060000D02*
X98456800Y-72060000D01*
X91920000Y-118000000D02*
X91920000Y-116448300D01*
X98456800Y-72060000D02*
X95191000Y-75325800D01*
X95191000Y-75325800D02*
X95191000Y-98349600D01*
%TO.N,Net-(D4-K)*%
X52032100Y-66410200D02*
X53372900Y-65069400D01*
X143520000Y-62446200D02*
X144705300Y-61260900D01*
X142250000Y-70448300D02*
X143520000Y-69178300D01*
X54415100Y-83344000D02*
X52032100Y-80961000D01*
X54415100Y-94454900D02*
X54415100Y-83344000D01*
X53250000Y-95620000D02*
X54415100Y-94454900D01*
X52139600Y-72878100D02*
X52032100Y-72770600D01*
X52032100Y-80961000D02*
X52032100Y-73525400D01*
X52032100Y-72770600D02*
X52032100Y-66410200D01*
X142250000Y-72000000D02*
X142250000Y-70448300D01*
X52139600Y-73417900D02*
X52139600Y-72878100D01*
X52032100Y-73525400D02*
X52139600Y-73417900D01*
X144705300Y-61260900D02*
X144705300Y-60516800D01*
X143520000Y-69178300D02*
X143520000Y-62446200D01*
%TO.N,Net-(U7-CARRY_OUT)*%
X61454200Y-65242500D02*
X61454200Y-103749100D01*
X62502000Y-64194700D02*
X61454200Y-65242500D01*
X65110000Y-107404900D02*
X65110000Y-112758300D01*
X68920000Y-118120000D02*
X68920000Y-116568300D01*
X63196300Y-64194700D02*
X62502000Y-64194700D01*
X61454200Y-103749100D02*
X65110000Y-107404900D01*
X67380000Y-68378400D02*
X63196300Y-64194700D01*
X65110000Y-112758300D02*
X68920000Y-116568300D01*
X67380000Y-72250000D02*
X67380000Y-68378400D01*
%TO.N,Net-(D5-K)*%
X78691700Y-70363400D02*
X78385700Y-70057400D01*
X51487900Y-73148000D02*
X51487900Y-83237900D01*
X67559300Y-75721900D02*
X65640800Y-73803400D01*
X67559300Y-75749000D02*
X67559300Y-75721900D01*
X78691700Y-75355400D02*
X78691700Y-70363400D01*
X51487900Y-83237900D02*
X53250000Y-85000000D01*
X79015700Y-75679400D02*
X78691700Y-75355400D01*
%TO.N,Net-(D6-K)*%
X64750000Y-101750000D02*
X63296600Y-100296600D01*
X111835500Y-74472800D02*
X111310000Y-73947300D01*
X111310000Y-73947300D02*
X111310000Y-72060000D01*
X63296600Y-100296600D02*
X63296600Y-76272800D01*
%TO.N,Net-(U7-B)*%
X60148300Y-111413400D02*
X60148300Y-106697900D01*
X54998000Y-101299700D02*
X54998000Y-82920700D01*
X62451700Y-109120100D02*
X62451700Y-111441700D01*
X58478700Y-104780400D02*
X54998000Y-101299700D01*
X61833500Y-112059900D02*
X60794800Y-112059900D01*
X58478700Y-105028300D02*
X58478700Y-104780400D01*
X60148300Y-106697900D02*
X58478700Y-105028300D01*
X60794800Y-112059900D02*
X60148300Y-111413400D01*
X62878700Y-108693100D02*
X62451700Y-109120100D01*
X54998000Y-82920700D02*
X54790300Y-82713000D01*
X62451700Y-111441700D02*
X61833500Y-112059900D01*
%TO.N,Net-(U7-C)*%
X66380000Y-99632600D02*
X66380000Y-110500000D01*
X64056300Y-97308900D02*
X66380000Y-99632600D01*
X64056300Y-86308000D02*
X64056300Y-97308900D01*
X64699600Y-85664700D02*
X64056300Y-86308000D01*
%TO.N,Net-(U7-D)*%
X76540000Y-89969800D02*
X76540000Y-108948300D01*
X76540000Y-110500000D02*
X76540000Y-108948300D01*
%TO.N,Net-(U7-E)*%
X71148100Y-88108300D02*
X71460000Y-88420200D01*
X71460000Y-88420200D02*
X71460000Y-110500000D01*
%TO.N,Net-(U7-F)*%
X70190000Y-102775200D02*
X68980000Y-101565200D01*
X68980000Y-101565200D02*
X68980000Y-92168400D01*
X70190000Y-115298300D02*
X70190000Y-102775200D01*
X71460000Y-118120000D02*
X71460000Y-116568300D01*
X71460000Y-116568300D02*
X70190000Y-115298300D01*
X68980000Y-92168400D02*
X68224300Y-91412700D01*
%TO.N,Net-(U7-A)*%
X74000000Y-95694400D02*
X74000000Y-110500000D01*
X73935200Y-95629600D02*
X74000000Y-95694400D01*
%TO.N,Net-(U7-G)*%
X72773400Y-99737600D02*
X72773300Y-99737600D01*
X74000000Y-116568300D02*
X72773400Y-115341700D01*
X74000000Y-118120000D02*
X74000000Y-116568300D01*
X72773400Y-115341700D02*
X72773400Y-99737600D01*
%TO.N,Net-(U8-A)*%
X86100000Y-80802100D02*
X86100000Y-75029900D01*
X151380000Y-84000000D02*
X152431700Y-84000000D01*
X152431700Y-84000000D02*
X152931700Y-83500000D01*
X152931700Y-83011700D02*
X151380000Y-81460000D01*
X86324800Y-69886500D02*
X82620000Y-66181700D01*
X86100000Y-75029900D02*
X86324800Y-74805100D01*
X82620000Y-64630000D02*
X82620000Y-66181700D01*
X152931700Y-83500000D02*
X152931700Y-83011700D01*
X86324800Y-74805100D02*
X86324800Y-69886500D01*
X84960300Y-81941800D02*
X86100000Y-80802100D01*
%TO.N,Net-(U8-B)*%
X77540000Y-66181700D02*
X81276900Y-69918600D01*
X81276900Y-74736400D02*
X76965900Y-79047400D01*
X81276900Y-69918600D02*
X81276900Y-74736400D01*
X77540000Y-64630000D02*
X77540000Y-66181700D01*
%TO.N,Net-(U8-C)*%
X72934000Y-62564000D02*
X62589700Y-62564000D01*
X75000000Y-64630000D02*
X72934000Y-62564000D01*
X60424000Y-64729700D02*
X60424000Y-70832200D01*
X62589700Y-62564000D02*
X60424000Y-64729700D01*
X60424000Y-70832200D02*
X57593100Y-73663100D01*
%TO.N,Net-(U8-F)*%
X76250300Y-66868600D02*
X76250300Y-63825500D01*
X80080000Y-70698300D02*
X76250300Y-66868600D01*
X76250300Y-63825500D02*
X74487100Y-62062300D01*
X57593100Y-66734000D02*
X57593100Y-67275500D01*
X80080000Y-72250000D02*
X80080000Y-70698300D01*
X62264800Y-62062300D02*
X57593100Y-66734000D01*
X74487100Y-62062300D02*
X62264800Y-62062300D01*
%TO.N,Net-(U8-G)*%
X82620000Y-66891200D02*
X82620000Y-72250000D01*
X81349900Y-65621100D02*
X82620000Y-66891200D01*
X79325700Y-58431600D02*
X81349900Y-60455800D01*
X81349900Y-60455800D02*
X81349900Y-65621100D01*
%TO.N,Net-(U4-D)*%
X144790000Y-64380000D02*
X144790000Y-64592600D01*
X144790000Y-64592600D02*
X149781000Y-69583600D01*
%TO.N,Net-(U3-A)*%
X120710000Y-115488800D02*
X119440000Y-116758800D01*
X112466700Y-104012600D02*
X112428600Y-103974500D01*
X115095500Y-119305200D02*
X114360000Y-118569700D01*
X112466700Y-104012600D02*
X112428600Y-103974500D01*
X119440000Y-118573000D02*
X118707800Y-119305200D01*
X114360000Y-108444300D02*
X112760700Y-106845000D01*
X112428600Y-103974500D02*
X112428600Y-103607000D01*
X112760700Y-106845000D02*
X112760700Y-104306600D01*
X114360000Y-118569700D02*
X114360000Y-108444300D01*
X118707800Y-119305200D02*
X115095500Y-119305200D01*
X119440000Y-116758800D02*
X119440000Y-118573000D01*
X112428600Y-103607000D02*
X112429700Y-103605900D01*
X112760700Y-104306600D02*
X112466700Y-104012600D01*
X120710000Y-110130000D02*
X120710000Y-115488800D01*
%TO.N,Net-(U3-B)*%
X115630000Y-110130000D02*
X115630000Y-108578300D01*
X113549700Y-106498000D02*
X113549700Y-103610700D01*
X115630000Y-108578300D02*
X113549700Y-106498000D01*
%TO.N,Net-(U3-C)*%
X112121200Y-102941300D02*
X113862900Y-102941300D01*
X112259000Y-104514300D02*
X111757300Y-104012600D01*
X114351500Y-103429900D02*
X114351500Y-103633500D01*
X113862900Y-102941300D02*
X114351500Y-103429900D01*
X113090000Y-110130000D02*
X113090000Y-108578300D01*
X113090000Y-108578300D02*
X112259000Y-107747300D01*
X112259000Y-107747300D02*
X112259000Y-104514300D01*
X111757300Y-103305200D02*
X112121200Y-102941300D01*
X111757300Y-104012600D02*
X111757300Y-103305200D01*
%TO.N,Net-(U3-D)*%
X124080900Y-107747400D02*
X123250000Y-108578300D01*
X123669500Y-102762600D02*
X124080900Y-103174000D01*
X123250000Y-110130000D02*
X123250000Y-108578300D01*
X121980000Y-103763000D02*
X122980400Y-102762600D01*
X124080900Y-103174000D02*
X124080900Y-107747400D01*
X122980400Y-102762600D02*
X123669500Y-102762600D01*
%TO.N,Net-(U3-E)*%
X118170000Y-110130000D02*
X118170000Y-108578300D01*
X119056400Y-103437100D02*
X118170000Y-104323500D01*
X118170000Y-104323500D02*
X118170000Y-108578300D01*
%TO.N,Net-(U3-F)*%
X119455900Y-114912400D02*
X119455900Y-105073200D01*
X118170000Y-116198300D02*
X119455900Y-114912400D01*
X118170000Y-117750000D02*
X118170000Y-116198300D01*
X119455900Y-105073200D02*
X121141200Y-103387900D01*
%TO.N,Net-(U3-G)*%
X121861700Y-104996200D02*
X123399500Y-103458400D01*
X120710000Y-117750000D02*
X120710000Y-116198300D01*
X120710000Y-116198300D02*
X121861700Y-115046600D01*
X121861700Y-115046600D02*
X121861700Y-104996200D01*
%TO.N,Net-(U5-C)*%
X98001200Y-62378600D02*
X93045600Y-67334200D01*
X93045600Y-67334200D02*
X93045600Y-67955100D01*
X105720300Y-62378600D02*
X98001200Y-62378600D01*
X106230000Y-62888300D02*
X105720300Y-62378600D01*
X93045600Y-67955100D02*
X93420900Y-68330400D01*
X95588900Y-68330400D02*
X95704200Y-68215100D01*
X93420900Y-68330400D02*
X95588900Y-68330400D01*
X106230000Y-64440000D02*
X106230000Y-62888300D01*
%TO.N,Net-(U5-D)*%
X116390000Y-64440000D02*
X116390000Y-62447600D01*
X116390000Y-62447600D02*
X114987300Y-61044900D01*
%TO.N,Net-(U6-B)*%
X91974700Y-89629100D02*
X92205900Y-89397900D01*
X144903700Y-99539200D02*
X144705300Y-99737600D01*
X92205900Y-89397900D02*
X91974700Y-89629100D01*
X91920000Y-108828300D02*
X91920000Y-89683800D01*
X144903700Y-90367500D02*
X144903700Y-99539200D01*
X144431900Y-89895700D02*
X144903700Y-90367500D01*
X91920000Y-89683800D02*
X91974700Y-89629100D01*
X91920000Y-110380000D02*
X91920000Y-108828300D01*
%TO.N,Net-(U6-D)*%
X138162400Y-99079700D02*
X138162400Y-101400200D01*
X134914300Y-98858600D02*
X134379500Y-98858600D01*
X138162400Y-101400200D02*
X132137900Y-107424700D01*
X136072500Y-97700400D02*
X134914300Y-98858600D01*
%TO.N,Net-(U6-E)*%
X94482900Y-108805400D02*
X94460000Y-108828300D01*
X94460000Y-110380000D02*
X94460000Y-108828300D01*
X94482900Y-102560400D02*
X94482900Y-108805400D01*
%TO.N,Net-(U6-F)*%
X94460000Y-116448300D02*
X95730000Y-115178300D01*
X95730000Y-115178300D02*
X95730000Y-102984100D01*
X94460000Y-118000000D02*
X94460000Y-116448300D01*
X95730000Y-102984100D02*
X96221600Y-102492500D01*
%TO.N,Net-(U6-G)*%
X138814100Y-101670100D02*
X138814100Y-97217600D01*
X126096400Y-120087300D02*
X126096400Y-119206200D01*
X138518400Y-96921900D02*
X138728500Y-97132000D01*
X131340000Y-109144200D02*
X138814100Y-101670100D01*
X136758100Y-100587600D02*
X135012600Y-102333100D01*
X138814100Y-97217600D02*
X138728500Y-97132000D01*
X126096400Y-119206200D02*
X131340000Y-113962600D01*
X138728500Y-97132000D02*
X138518400Y-96921900D01*
X136758100Y-97305400D02*
X136758100Y-100587600D01*
X135012600Y-102333100D02*
X135012600Y-102686700D01*
X131340000Y-113962600D02*
X131340000Y-109144200D01*
X135012600Y-102686700D02*
X133411600Y-104287700D01*
X132790500Y-104287700D02*
X130370900Y-101868100D01*
X130370900Y-101868100D02*
X130370900Y-99228800D01*
X133411600Y-104287700D02*
X132790500Y-104287700D01*
X136351300Y-96898600D02*
X136758100Y-97305400D01*
%TO.N,/CLK - Mod-60 (2)*%
X137170000Y-72000000D02*
X137170000Y-73551700D01*
X88179600Y-114770800D02*
X90531700Y-117122900D01*
X90531700Y-118877100D02*
X89326500Y-120082300D01*
X134158900Y-83455000D02*
X132544000Y-85069900D01*
X89258500Y-85808000D02*
X89258500Y-92816500D01*
X137170000Y-73551700D02*
X134158900Y-76562800D01*
X90531700Y-117122900D02*
X90531700Y-118877100D01*
X89258500Y-92816500D02*
X88764100Y-93310900D01*
X88764100Y-108891300D02*
X88179600Y-109475800D01*
X134158900Y-76562800D02*
X134158900Y-83455000D01*
X88179600Y-109475800D02*
X88179600Y-114770800D01*
X89326500Y-120082300D02*
X83581900Y-120082300D01*
X81760000Y-118260400D02*
X81760000Y-118000000D01*
X88764100Y-93310900D02*
X88764100Y-108891300D01*
X83581900Y-120082300D02*
X81760000Y-118260400D01*
%TO.N,/CLK - Mod-12*%
X108770000Y-73611700D02*
X106048200Y-76333500D01*
X57605700Y-105457000D02*
X57827000Y-105235700D01*
X58760000Y-118120000D02*
X57605700Y-116965700D01*
X57605700Y-116965700D02*
X57605700Y-105457000D01*
X106048200Y-76333500D02*
X106048200Y-103469400D01*
X108770000Y-72060000D02*
X108770000Y-73611700D01*
%TD*%
M02*
