%TF.GenerationSoftware,KiCad,Pcbnew,9.0.2*%
%TF.CreationDate,2025-11-07T18:09:28+05:30*%
%TF.ProjectId,v1,76312e6b-6963-4616-945f-706362585858,rev?*%
%TF.SameCoordinates,Original*%
%TF.FileFunction,Legend,Bot*%
%TF.FilePolarity,Positive*%
%FSLAX46Y46*%
G04 Gerber Fmt 4.6, Leading zero omitted, Abs format (unit mm)*
G04 Created by KiCad (PCBNEW 9.0.2) date 2025-11-07 18:09:28*
%MOMM*%
%LPD*%
G01*
G04 APERTURE LIST*
%ADD10C,0.100000*%
%ADD11C,0.000000*%
G04 APERTURE END LIST*
D10*
X155612782Y-121348609D02*
X155469925Y-121396228D01*
X155469925Y-121396228D02*
X155422306Y-121443847D01*
X155422306Y-121443847D02*
X155374687Y-121539085D01*
X155374687Y-121539085D02*
X155374687Y-121681942D01*
X155374687Y-121681942D02*
X155422306Y-121777180D01*
X155422306Y-121777180D02*
X155469925Y-121824800D01*
X155469925Y-121824800D02*
X155565163Y-121872419D01*
X155565163Y-121872419D02*
X155946115Y-121872419D01*
X155946115Y-121872419D02*
X155946115Y-120872419D01*
X155946115Y-120872419D02*
X155612782Y-120872419D01*
X155612782Y-120872419D02*
X155517544Y-120920038D01*
X155517544Y-120920038D02*
X155469925Y-120967657D01*
X155469925Y-120967657D02*
X155422306Y-121062895D01*
X155422306Y-121062895D02*
X155422306Y-121158133D01*
X155422306Y-121158133D02*
X155469925Y-121253371D01*
X155469925Y-121253371D02*
X155517544Y-121300990D01*
X155517544Y-121300990D02*
X155612782Y-121348609D01*
X155612782Y-121348609D02*
X155946115Y-121348609D01*
X154946115Y-121872419D02*
X154946115Y-120872419D01*
X154517544Y-121872419D02*
X154517544Y-121348609D01*
X154517544Y-121348609D02*
X154565163Y-121253371D01*
X154565163Y-121253371D02*
X154660401Y-121205752D01*
X154660401Y-121205752D02*
X154803258Y-121205752D01*
X154803258Y-121205752D02*
X154898496Y-121253371D01*
X154898496Y-121253371D02*
X154946115Y-121300990D01*
X153612782Y-121872419D02*
X153612782Y-121348609D01*
X153612782Y-121348609D02*
X153660401Y-121253371D01*
X153660401Y-121253371D02*
X153755639Y-121205752D01*
X153755639Y-121205752D02*
X153946115Y-121205752D01*
X153946115Y-121205752D02*
X154041353Y-121253371D01*
X153612782Y-121824800D02*
X153708020Y-121872419D01*
X153708020Y-121872419D02*
X153946115Y-121872419D01*
X153946115Y-121872419D02*
X154041353Y-121824800D01*
X154041353Y-121824800D02*
X154088972Y-121729561D01*
X154088972Y-121729561D02*
X154088972Y-121634323D01*
X154088972Y-121634323D02*
X154041353Y-121539085D01*
X154041353Y-121539085D02*
X153946115Y-121491466D01*
X153946115Y-121491466D02*
X153708020Y-121491466D01*
X153708020Y-121491466D02*
X153612782Y-121443847D01*
X153136591Y-121872419D02*
X153136591Y-120872419D01*
X153041353Y-121491466D02*
X152755639Y-121872419D01*
X152755639Y-121205752D02*
X153136591Y-121586704D01*
X152469924Y-121205752D02*
X152088972Y-121205752D01*
X152327067Y-120872419D02*
X152327067Y-121729561D01*
X152327067Y-121729561D02*
X152279448Y-121824800D01*
X152279448Y-121824800D02*
X152184210Y-121872419D01*
X152184210Y-121872419D02*
X152088972Y-121872419D01*
X151755638Y-121872419D02*
X151755638Y-121205752D01*
X151755638Y-120872419D02*
X151803257Y-120920038D01*
X151803257Y-120920038D02*
X151755638Y-120967657D01*
X151755638Y-120967657D02*
X151708019Y-120920038D01*
X151708019Y-120920038D02*
X151755638Y-120872419D01*
X151755638Y-120872419D02*
X151755638Y-120967657D01*
X150565162Y-121586704D02*
X150088972Y-121586704D01*
X150660400Y-121872419D02*
X150327067Y-120872419D01*
X150327067Y-120872419D02*
X149993734Y-121872419D01*
X149708019Y-121824800D02*
X149612781Y-121872419D01*
X149612781Y-121872419D02*
X149422305Y-121872419D01*
X149422305Y-121872419D02*
X149327067Y-121824800D01*
X149327067Y-121824800D02*
X149279448Y-121729561D01*
X149279448Y-121729561D02*
X149279448Y-121681942D01*
X149279448Y-121681942D02*
X149327067Y-121586704D01*
X149327067Y-121586704D02*
X149422305Y-121539085D01*
X149422305Y-121539085D02*
X149565162Y-121539085D01*
X149565162Y-121539085D02*
X149660400Y-121491466D01*
X149660400Y-121491466D02*
X149708019Y-121396228D01*
X149708019Y-121396228D02*
X149708019Y-121348609D01*
X149708019Y-121348609D02*
X149660400Y-121253371D01*
X149660400Y-121253371D02*
X149565162Y-121205752D01*
X149565162Y-121205752D02*
X149422305Y-121205752D01*
X149422305Y-121205752D02*
X149327067Y-121253371D01*
X148898495Y-121824800D02*
X148803257Y-121872419D01*
X148803257Y-121872419D02*
X148612781Y-121872419D01*
X148612781Y-121872419D02*
X148517543Y-121824800D01*
X148517543Y-121824800D02*
X148469924Y-121729561D01*
X148469924Y-121729561D02*
X148469924Y-121681942D01*
X148469924Y-121681942D02*
X148517543Y-121586704D01*
X148517543Y-121586704D02*
X148612781Y-121539085D01*
X148612781Y-121539085D02*
X148755638Y-121539085D01*
X148755638Y-121539085D02*
X148850876Y-121491466D01*
X148850876Y-121491466D02*
X148898495Y-121396228D01*
X148898495Y-121396228D02*
X148898495Y-121348609D01*
X148898495Y-121348609D02*
X148850876Y-121253371D01*
X148850876Y-121253371D02*
X148755638Y-121205752D01*
X148755638Y-121205752D02*
X148612781Y-121205752D01*
X148612781Y-121205752D02*
X148517543Y-121253371D01*
X147612781Y-121872419D02*
X147612781Y-121348609D01*
X147612781Y-121348609D02*
X147660400Y-121253371D01*
X147660400Y-121253371D02*
X147755638Y-121205752D01*
X147755638Y-121205752D02*
X147946114Y-121205752D01*
X147946114Y-121205752D02*
X148041352Y-121253371D01*
X147612781Y-121824800D02*
X147708019Y-121872419D01*
X147708019Y-121872419D02*
X147946114Y-121872419D01*
X147946114Y-121872419D02*
X148041352Y-121824800D01*
X148041352Y-121824800D02*
X148088971Y-121729561D01*
X148088971Y-121729561D02*
X148088971Y-121634323D01*
X148088971Y-121634323D02*
X148041352Y-121539085D01*
X148041352Y-121539085D02*
X147946114Y-121491466D01*
X147946114Y-121491466D02*
X147708019Y-121491466D01*
X147708019Y-121491466D02*
X147612781Y-121443847D01*
X147136590Y-121872419D02*
X147136590Y-121205752D01*
X147136590Y-121396228D02*
X147088971Y-121300990D01*
X147088971Y-121300990D02*
X147041352Y-121253371D01*
X147041352Y-121253371D02*
X146946114Y-121205752D01*
X146946114Y-121205752D02*
X146850876Y-121205752D01*
X146469923Y-121824800D02*
X146469923Y-121872419D01*
X146469923Y-121872419D02*
X146517542Y-121967657D01*
X146517542Y-121967657D02*
X146565161Y-122015276D01*
X145279447Y-121872419D02*
X145279447Y-120872419D01*
X145279447Y-120872419D02*
X144946114Y-121586704D01*
X144946114Y-121586704D02*
X144612781Y-120872419D01*
X144612781Y-120872419D02*
X144612781Y-121872419D01*
X143708019Y-121205752D02*
X143708019Y-121872419D01*
X144136590Y-121205752D02*
X144136590Y-121729561D01*
X144136590Y-121729561D02*
X144088971Y-121824800D01*
X144088971Y-121824800D02*
X143993733Y-121872419D01*
X143993733Y-121872419D02*
X143850876Y-121872419D01*
X143850876Y-121872419D02*
X143755638Y-121824800D01*
X143755638Y-121824800D02*
X143708019Y-121777180D01*
X142803257Y-121872419D02*
X142803257Y-120872419D01*
X142803257Y-121824800D02*
X142898495Y-121872419D01*
X142898495Y-121872419D02*
X143088971Y-121872419D01*
X143088971Y-121872419D02*
X143184209Y-121824800D01*
X143184209Y-121824800D02*
X143231828Y-121777180D01*
X143231828Y-121777180D02*
X143279447Y-121681942D01*
X143279447Y-121681942D02*
X143279447Y-121396228D01*
X143279447Y-121396228D02*
X143231828Y-121300990D01*
X143231828Y-121300990D02*
X143184209Y-121253371D01*
X143184209Y-121253371D02*
X143088971Y-121205752D01*
X143088971Y-121205752D02*
X142898495Y-121205752D01*
X142898495Y-121205752D02*
X142803257Y-121253371D01*
X142327066Y-121872419D02*
X142327066Y-121205752D01*
X142327066Y-120872419D02*
X142374685Y-120920038D01*
X142374685Y-120920038D02*
X142327066Y-120967657D01*
X142327066Y-120967657D02*
X142279447Y-120920038D01*
X142279447Y-120920038D02*
X142327066Y-120872419D01*
X142327066Y-120872419D02*
X142327066Y-120967657D01*
X141993733Y-121205752D02*
X141612781Y-121205752D01*
X141850876Y-120872419D02*
X141850876Y-121729561D01*
X141850876Y-121729561D02*
X141803257Y-121824800D01*
X141803257Y-121824800D02*
X141708019Y-121872419D01*
X141708019Y-121872419D02*
X141612781Y-121872419D01*
X140184209Y-121348609D02*
X140041352Y-121396228D01*
X140041352Y-121396228D02*
X139993733Y-121443847D01*
X139993733Y-121443847D02*
X139946114Y-121539085D01*
X139946114Y-121539085D02*
X139946114Y-121681942D01*
X139946114Y-121681942D02*
X139993733Y-121777180D01*
X139993733Y-121777180D02*
X140041352Y-121824800D01*
X140041352Y-121824800D02*
X140136590Y-121872419D01*
X140136590Y-121872419D02*
X140517542Y-121872419D01*
X140517542Y-121872419D02*
X140517542Y-120872419D01*
X140517542Y-120872419D02*
X140184209Y-120872419D01*
X140184209Y-120872419D02*
X140088971Y-120920038D01*
X140088971Y-120920038D02*
X140041352Y-120967657D01*
X140041352Y-120967657D02*
X139993733Y-121062895D01*
X139993733Y-121062895D02*
X139993733Y-121158133D01*
X139993733Y-121158133D02*
X140041352Y-121253371D01*
X140041352Y-121253371D02*
X140088971Y-121300990D01*
X140088971Y-121300990D02*
X140184209Y-121348609D01*
X140184209Y-121348609D02*
X140517542Y-121348609D01*
X139136590Y-121824800D02*
X139231828Y-121872419D01*
X139231828Y-121872419D02*
X139422304Y-121872419D01*
X139422304Y-121872419D02*
X139517542Y-121824800D01*
X139517542Y-121824800D02*
X139565161Y-121729561D01*
X139565161Y-121729561D02*
X139565161Y-121348609D01*
X139565161Y-121348609D02*
X139517542Y-121253371D01*
X139517542Y-121253371D02*
X139422304Y-121205752D01*
X139422304Y-121205752D02*
X139231828Y-121205752D01*
X139231828Y-121205752D02*
X139136590Y-121253371D01*
X139136590Y-121253371D02*
X139088971Y-121348609D01*
X139088971Y-121348609D02*
X139088971Y-121443847D01*
X139088971Y-121443847D02*
X139565161Y-121539085D01*
X138660399Y-121205752D02*
X138660399Y-121872419D01*
X138660399Y-121300990D02*
X138612780Y-121253371D01*
X138612780Y-121253371D02*
X138517542Y-121205752D01*
X138517542Y-121205752D02*
X138374685Y-121205752D01*
X138374685Y-121205752D02*
X138279447Y-121253371D01*
X138279447Y-121253371D02*
X138231828Y-121348609D01*
X138231828Y-121348609D02*
X138231828Y-121872419D01*
X137327066Y-121205752D02*
X137327066Y-122015276D01*
X137327066Y-122015276D02*
X137374685Y-122110514D01*
X137374685Y-122110514D02*
X137422304Y-122158133D01*
X137422304Y-122158133D02*
X137517542Y-122205752D01*
X137517542Y-122205752D02*
X137660399Y-122205752D01*
X137660399Y-122205752D02*
X137755637Y-122158133D01*
X137327066Y-121824800D02*
X137422304Y-121872419D01*
X137422304Y-121872419D02*
X137612780Y-121872419D01*
X137612780Y-121872419D02*
X137708018Y-121824800D01*
X137708018Y-121824800D02*
X137755637Y-121777180D01*
X137755637Y-121777180D02*
X137803256Y-121681942D01*
X137803256Y-121681942D02*
X137803256Y-121396228D01*
X137803256Y-121396228D02*
X137755637Y-121300990D01*
X137755637Y-121300990D02*
X137708018Y-121253371D01*
X137708018Y-121253371D02*
X137612780Y-121205752D01*
X137612780Y-121205752D02*
X137422304Y-121205752D01*
X137422304Y-121205752D02*
X137327066Y-121253371D01*
X136422304Y-121872419D02*
X136422304Y-121348609D01*
X136422304Y-121348609D02*
X136469923Y-121253371D01*
X136469923Y-121253371D02*
X136565161Y-121205752D01*
X136565161Y-121205752D02*
X136755637Y-121205752D01*
X136755637Y-121205752D02*
X136850875Y-121253371D01*
X136422304Y-121824800D02*
X136517542Y-121872419D01*
X136517542Y-121872419D02*
X136755637Y-121872419D01*
X136755637Y-121872419D02*
X136850875Y-121824800D01*
X136850875Y-121824800D02*
X136898494Y-121729561D01*
X136898494Y-121729561D02*
X136898494Y-121634323D01*
X136898494Y-121634323D02*
X136850875Y-121539085D01*
X136850875Y-121539085D02*
X136755637Y-121491466D01*
X136755637Y-121491466D02*
X136517542Y-121491466D01*
X136517542Y-121491466D02*
X136422304Y-121443847D01*
X135946113Y-121205752D02*
X135946113Y-121872419D01*
X135946113Y-121300990D02*
X135898494Y-121253371D01*
X135898494Y-121253371D02*
X135803256Y-121205752D01*
X135803256Y-121205752D02*
X135660399Y-121205752D01*
X135660399Y-121205752D02*
X135565161Y-121253371D01*
X135565161Y-121253371D02*
X135517542Y-121348609D01*
X135517542Y-121348609D02*
X135517542Y-121872419D01*
X135041351Y-121872419D02*
X135041351Y-121205752D01*
X135041351Y-120872419D02*
X135088970Y-120920038D01*
X135088970Y-120920038D02*
X135041351Y-120967657D01*
X135041351Y-120967657D02*
X134993732Y-120920038D01*
X134993732Y-120920038D02*
X135041351Y-120872419D01*
X135041351Y-120872419D02*
X135041351Y-120967657D01*
X134517542Y-121824800D02*
X134517542Y-121872419D01*
X134517542Y-121872419D02*
X134565161Y-121967657D01*
X134565161Y-121967657D02*
X134612780Y-122015276D01*
X133327066Y-121872419D02*
X133327066Y-120872419D01*
X133327066Y-120872419D02*
X132946114Y-120872419D01*
X132946114Y-120872419D02*
X132850876Y-120920038D01*
X132850876Y-120920038D02*
X132803257Y-120967657D01*
X132803257Y-120967657D02*
X132755638Y-121062895D01*
X132755638Y-121062895D02*
X132755638Y-121205752D01*
X132755638Y-121205752D02*
X132803257Y-121300990D01*
X132803257Y-121300990D02*
X132850876Y-121348609D01*
X132850876Y-121348609D02*
X132946114Y-121396228D01*
X132946114Y-121396228D02*
X133327066Y-121396228D01*
X132327066Y-121872419D02*
X132327066Y-121205752D01*
X132327066Y-121396228D02*
X132279447Y-121300990D01*
X132279447Y-121300990D02*
X132231828Y-121253371D01*
X132231828Y-121253371D02*
X132136590Y-121205752D01*
X132136590Y-121205752D02*
X132041352Y-121205752D01*
X131279447Y-121872419D02*
X131279447Y-121348609D01*
X131279447Y-121348609D02*
X131327066Y-121253371D01*
X131327066Y-121253371D02*
X131422304Y-121205752D01*
X131422304Y-121205752D02*
X131612780Y-121205752D01*
X131612780Y-121205752D02*
X131708018Y-121253371D01*
X131279447Y-121824800D02*
X131374685Y-121872419D01*
X131374685Y-121872419D02*
X131612780Y-121872419D01*
X131612780Y-121872419D02*
X131708018Y-121824800D01*
X131708018Y-121824800D02*
X131755637Y-121729561D01*
X131755637Y-121729561D02*
X131755637Y-121634323D01*
X131755637Y-121634323D02*
X131708018Y-121539085D01*
X131708018Y-121539085D02*
X131612780Y-121491466D01*
X131612780Y-121491466D02*
X131374685Y-121491466D01*
X131374685Y-121491466D02*
X131279447Y-121443847D01*
X130946113Y-121205752D02*
X130565161Y-121205752D01*
X130803256Y-120872419D02*
X130803256Y-121729561D01*
X130803256Y-121729561D02*
X130755637Y-121824800D01*
X130755637Y-121824800D02*
X130660399Y-121872419D01*
X130660399Y-121872419D02*
X130565161Y-121872419D01*
X130327065Y-121205752D02*
X130088970Y-121872419D01*
X129850875Y-121205752D02*
X130088970Y-121872419D01*
X130088970Y-121872419D02*
X130184208Y-122110514D01*
X130184208Y-122110514D02*
X130231827Y-122158133D01*
X130231827Y-122158133D02*
X130327065Y-122205752D01*
X129041351Y-121205752D02*
X129041351Y-121872419D01*
X129469922Y-121205752D02*
X129469922Y-121729561D01*
X129469922Y-121729561D02*
X129422303Y-121824800D01*
X129422303Y-121824800D02*
X129327065Y-121872419D01*
X129327065Y-121872419D02*
X129184208Y-121872419D01*
X129184208Y-121872419D02*
X129088970Y-121824800D01*
X129088970Y-121824800D02*
X129041351Y-121777180D01*
X128612779Y-121824800D02*
X128517541Y-121872419D01*
X128517541Y-121872419D02*
X128327065Y-121872419D01*
X128327065Y-121872419D02*
X128231827Y-121824800D01*
X128231827Y-121824800D02*
X128184208Y-121729561D01*
X128184208Y-121729561D02*
X128184208Y-121681942D01*
X128184208Y-121681942D02*
X128231827Y-121586704D01*
X128231827Y-121586704D02*
X128327065Y-121539085D01*
X128327065Y-121539085D02*
X128469922Y-121539085D01*
X128469922Y-121539085D02*
X128565160Y-121491466D01*
X128565160Y-121491466D02*
X128612779Y-121396228D01*
X128612779Y-121396228D02*
X128612779Y-121348609D01*
X128612779Y-121348609D02*
X128565160Y-121253371D01*
X128565160Y-121253371D02*
X128469922Y-121205752D01*
X128469922Y-121205752D02*
X128327065Y-121205752D01*
X128327065Y-121205752D02*
X128231827Y-121253371D01*
X127755636Y-121872419D02*
X127755636Y-120872419D01*
X127327065Y-121872419D02*
X127327065Y-121348609D01*
X127327065Y-121348609D02*
X127374684Y-121253371D01*
X127374684Y-121253371D02*
X127469922Y-121205752D01*
X127469922Y-121205752D02*
X127612779Y-121205752D01*
X127612779Y-121205752D02*
X127708017Y-121253371D01*
X127708017Y-121253371D02*
X127755636Y-121300990D01*
X125517541Y-121872419D02*
X125850874Y-121396228D01*
X126088969Y-121872419D02*
X126088969Y-120872419D01*
X126088969Y-120872419D02*
X125708017Y-120872419D01*
X125708017Y-120872419D02*
X125612779Y-120920038D01*
X125612779Y-120920038D02*
X125565160Y-120967657D01*
X125565160Y-120967657D02*
X125517541Y-121062895D01*
X125517541Y-121062895D02*
X125517541Y-121205752D01*
X125517541Y-121205752D02*
X125565160Y-121300990D01*
X125565160Y-121300990D02*
X125612779Y-121348609D01*
X125612779Y-121348609D02*
X125708017Y-121396228D01*
X125708017Y-121396228D02*
X126088969Y-121396228D01*
X124660398Y-121872419D02*
X124660398Y-121348609D01*
X124660398Y-121348609D02*
X124708017Y-121253371D01*
X124708017Y-121253371D02*
X124803255Y-121205752D01*
X124803255Y-121205752D02*
X124993731Y-121205752D01*
X124993731Y-121205752D02*
X125088969Y-121253371D01*
X124660398Y-121824800D02*
X124755636Y-121872419D01*
X124755636Y-121872419D02*
X124993731Y-121872419D01*
X124993731Y-121872419D02*
X125088969Y-121824800D01*
X125088969Y-121824800D02*
X125136588Y-121729561D01*
X125136588Y-121729561D02*
X125136588Y-121634323D01*
X125136588Y-121634323D02*
X125088969Y-121539085D01*
X125088969Y-121539085D02*
X124993731Y-121491466D01*
X124993731Y-121491466D02*
X124755636Y-121491466D01*
X124755636Y-121491466D02*
X124660398Y-121443847D01*
X124041350Y-121872419D02*
X124136588Y-121824800D01*
X124136588Y-121824800D02*
X124184207Y-121777180D01*
X124184207Y-121777180D02*
X124231826Y-121681942D01*
X124231826Y-121681942D02*
X124231826Y-121396228D01*
X124231826Y-121396228D02*
X124184207Y-121300990D01*
X124184207Y-121300990D02*
X124136588Y-121253371D01*
X124136588Y-121253371D02*
X124041350Y-121205752D01*
X124041350Y-121205752D02*
X123898493Y-121205752D01*
X123898493Y-121205752D02*
X123803255Y-121253371D01*
X123803255Y-121253371D02*
X123755636Y-121300990D01*
X123755636Y-121300990D02*
X123708017Y-121396228D01*
X123708017Y-121396228D02*
X123708017Y-121681942D01*
X123708017Y-121681942D02*
X123755636Y-121777180D01*
X123755636Y-121777180D02*
X123803255Y-121824800D01*
X123803255Y-121824800D02*
X123898493Y-121872419D01*
X123898493Y-121872419D02*
X124041350Y-121872419D01*
X123231826Y-121824800D02*
X123231826Y-121872419D01*
X123231826Y-121872419D02*
X123279445Y-121967657D01*
X123279445Y-121967657D02*
X123327064Y-122015276D01*
X122088969Y-121824800D02*
X121946112Y-121872419D01*
X121946112Y-121872419D02*
X121708017Y-121872419D01*
X121708017Y-121872419D02*
X121612779Y-121824800D01*
X121612779Y-121824800D02*
X121565160Y-121777180D01*
X121565160Y-121777180D02*
X121517541Y-121681942D01*
X121517541Y-121681942D02*
X121517541Y-121586704D01*
X121517541Y-121586704D02*
X121565160Y-121491466D01*
X121565160Y-121491466D02*
X121612779Y-121443847D01*
X121612779Y-121443847D02*
X121708017Y-121396228D01*
X121708017Y-121396228D02*
X121898493Y-121348609D01*
X121898493Y-121348609D02*
X121993731Y-121300990D01*
X121993731Y-121300990D02*
X122041350Y-121253371D01*
X122041350Y-121253371D02*
X122088969Y-121158133D01*
X122088969Y-121158133D02*
X122088969Y-121062895D01*
X122088969Y-121062895D02*
X122041350Y-120967657D01*
X122041350Y-120967657D02*
X121993731Y-120920038D01*
X121993731Y-120920038D02*
X121898493Y-120872419D01*
X121898493Y-120872419D02*
X121660398Y-120872419D01*
X121660398Y-120872419D02*
X121517541Y-120920038D01*
X120660398Y-121872419D02*
X120660398Y-121348609D01*
X120660398Y-121348609D02*
X120708017Y-121253371D01*
X120708017Y-121253371D02*
X120803255Y-121205752D01*
X120803255Y-121205752D02*
X120993731Y-121205752D01*
X120993731Y-121205752D02*
X121088969Y-121253371D01*
X120660398Y-121824800D02*
X120755636Y-121872419D01*
X120755636Y-121872419D02*
X120993731Y-121872419D01*
X120993731Y-121872419D02*
X121088969Y-121824800D01*
X121088969Y-121824800D02*
X121136588Y-121729561D01*
X121136588Y-121729561D02*
X121136588Y-121634323D01*
X121136588Y-121634323D02*
X121088969Y-121539085D01*
X121088969Y-121539085D02*
X120993731Y-121491466D01*
X120993731Y-121491466D02*
X120755636Y-121491466D01*
X120755636Y-121491466D02*
X120660398Y-121443847D01*
X120184207Y-121872419D02*
X120184207Y-121205752D01*
X120184207Y-121396228D02*
X120136588Y-121300990D01*
X120136588Y-121300990D02*
X120088969Y-121253371D01*
X120088969Y-121253371D02*
X119993731Y-121205752D01*
X119993731Y-121205752D02*
X119898493Y-121205752D01*
X119660397Y-121205752D02*
X119422302Y-121872419D01*
X119422302Y-121872419D02*
X119184207Y-121205752D01*
X118374683Y-121872419D02*
X118374683Y-121348609D01*
X118374683Y-121348609D02*
X118422302Y-121253371D01*
X118422302Y-121253371D02*
X118517540Y-121205752D01*
X118517540Y-121205752D02*
X118708016Y-121205752D01*
X118708016Y-121205752D02*
X118803254Y-121253371D01*
X118374683Y-121824800D02*
X118469921Y-121872419D01*
X118469921Y-121872419D02*
X118708016Y-121872419D01*
X118708016Y-121872419D02*
X118803254Y-121824800D01*
X118803254Y-121824800D02*
X118850873Y-121729561D01*
X118850873Y-121729561D02*
X118850873Y-121634323D01*
X118850873Y-121634323D02*
X118803254Y-121539085D01*
X118803254Y-121539085D02*
X118708016Y-121491466D01*
X118708016Y-121491466D02*
X118469921Y-121491466D01*
X118469921Y-121491466D02*
X118374683Y-121443847D01*
X117469921Y-121872419D02*
X117469921Y-121348609D01*
X117469921Y-121348609D02*
X117517540Y-121253371D01*
X117517540Y-121253371D02*
X117612778Y-121205752D01*
X117612778Y-121205752D02*
X117803254Y-121205752D01*
X117803254Y-121205752D02*
X117898492Y-121253371D01*
X117469921Y-121824800D02*
X117565159Y-121872419D01*
X117565159Y-121872419D02*
X117803254Y-121872419D01*
X117803254Y-121872419D02*
X117898492Y-121824800D01*
X117898492Y-121824800D02*
X117946111Y-121729561D01*
X117946111Y-121729561D02*
X117946111Y-121634323D01*
X117946111Y-121634323D02*
X117898492Y-121539085D01*
X117898492Y-121539085D02*
X117803254Y-121491466D01*
X117803254Y-121491466D02*
X117565159Y-121491466D01*
X117565159Y-121491466D02*
X117469921Y-121443847D01*
X116993730Y-121872419D02*
X116993730Y-121205752D01*
X116993730Y-121396228D02*
X116946111Y-121300990D01*
X116946111Y-121300990D02*
X116898492Y-121253371D01*
X116898492Y-121253371D02*
X116803254Y-121205752D01*
X116803254Y-121205752D02*
X116708016Y-121205752D01*
X116517539Y-121205752D02*
X116136587Y-121205752D01*
X116374682Y-120872419D02*
X116374682Y-121729561D01*
X116374682Y-121729561D02*
X116327063Y-121824800D01*
X116327063Y-121824800D02*
X116231825Y-121872419D01*
X116231825Y-121872419D02*
X116136587Y-121872419D01*
X115803253Y-121872419D02*
X115803253Y-120872419D01*
X115374682Y-121872419D02*
X115374682Y-121348609D01*
X115374682Y-121348609D02*
X115422301Y-121253371D01*
X115422301Y-121253371D02*
X115517539Y-121205752D01*
X115517539Y-121205752D02*
X115660396Y-121205752D01*
X115660396Y-121205752D02*
X115755634Y-121253371D01*
X115755634Y-121253371D02*
X115803253Y-121300990D01*
X114136586Y-121872419D02*
X114136586Y-120872419D01*
X114136586Y-120872419D02*
X113565158Y-121872419D01*
X113565158Y-121872419D02*
X113565158Y-120872419D01*
X112660396Y-121872419D02*
X112660396Y-121348609D01*
X112660396Y-121348609D02*
X112708015Y-121253371D01*
X112708015Y-121253371D02*
X112803253Y-121205752D01*
X112803253Y-121205752D02*
X112993729Y-121205752D01*
X112993729Y-121205752D02*
X113088967Y-121253371D01*
X112660396Y-121824800D02*
X112755634Y-121872419D01*
X112755634Y-121872419D02*
X112993729Y-121872419D01*
X112993729Y-121872419D02*
X113088967Y-121824800D01*
X113088967Y-121824800D02*
X113136586Y-121729561D01*
X113136586Y-121729561D02*
X113136586Y-121634323D01*
X113136586Y-121634323D02*
X113088967Y-121539085D01*
X113088967Y-121539085D02*
X112993729Y-121491466D01*
X112993729Y-121491466D02*
X112755634Y-121491466D01*
X112755634Y-121491466D02*
X112660396Y-121443847D01*
X112184205Y-121872419D02*
X112184205Y-121205752D01*
X112184205Y-121396228D02*
X112136586Y-121300990D01*
X112136586Y-121300990D02*
X112088967Y-121253371D01*
X112088967Y-121253371D02*
X111993729Y-121205752D01*
X111993729Y-121205752D02*
X111898491Y-121205752D01*
X111136586Y-121872419D02*
X111136586Y-121348609D01*
X111136586Y-121348609D02*
X111184205Y-121253371D01*
X111184205Y-121253371D02*
X111279443Y-121205752D01*
X111279443Y-121205752D02*
X111469919Y-121205752D01*
X111469919Y-121205752D02*
X111565157Y-121253371D01*
X111136586Y-121824800D02*
X111231824Y-121872419D01*
X111231824Y-121872419D02*
X111469919Y-121872419D01*
X111469919Y-121872419D02*
X111565157Y-121824800D01*
X111565157Y-121824800D02*
X111612776Y-121729561D01*
X111612776Y-121729561D02*
X111612776Y-121634323D01*
X111612776Y-121634323D02*
X111565157Y-121539085D01*
X111565157Y-121539085D02*
X111469919Y-121491466D01*
X111469919Y-121491466D02*
X111231824Y-121491466D01*
X111231824Y-121491466D02*
X111136586Y-121443847D01*
X110660395Y-121205752D02*
X110660395Y-121872419D01*
X110660395Y-121300990D02*
X110612776Y-121253371D01*
X110612776Y-121253371D02*
X110517538Y-121205752D01*
X110517538Y-121205752D02*
X110374681Y-121205752D01*
X110374681Y-121205752D02*
X110279443Y-121253371D01*
X110279443Y-121253371D02*
X110231824Y-121348609D01*
X110231824Y-121348609D02*
X110231824Y-121872419D01*
X109327062Y-121205752D02*
X109327062Y-122015276D01*
X109327062Y-122015276D02*
X109374681Y-122110514D01*
X109374681Y-122110514D02*
X109422300Y-122158133D01*
X109422300Y-122158133D02*
X109517538Y-122205752D01*
X109517538Y-122205752D02*
X109660395Y-122205752D01*
X109660395Y-122205752D02*
X109755633Y-122158133D01*
X109327062Y-121824800D02*
X109422300Y-121872419D01*
X109422300Y-121872419D02*
X109612776Y-121872419D01*
X109612776Y-121872419D02*
X109708014Y-121824800D01*
X109708014Y-121824800D02*
X109755633Y-121777180D01*
X109755633Y-121777180D02*
X109803252Y-121681942D01*
X109803252Y-121681942D02*
X109803252Y-121396228D01*
X109803252Y-121396228D02*
X109755633Y-121300990D01*
X109755633Y-121300990D02*
X109708014Y-121253371D01*
X109708014Y-121253371D02*
X109612776Y-121205752D01*
X109612776Y-121205752D02*
X109422300Y-121205752D01*
X109422300Y-121205752D02*
X109327062Y-121253371D01*
X108803252Y-121824800D02*
X108803252Y-121872419D01*
X108803252Y-121872419D02*
X108850871Y-121967657D01*
X108850871Y-121967657D02*
X108898490Y-122015276D01*
X107612776Y-121872419D02*
X107612776Y-120872419D01*
X107612776Y-120872419D02*
X107231824Y-120872419D01*
X107231824Y-120872419D02*
X107136586Y-120920038D01*
X107136586Y-120920038D02*
X107088967Y-120967657D01*
X107088967Y-120967657D02*
X107041348Y-121062895D01*
X107041348Y-121062895D02*
X107041348Y-121205752D01*
X107041348Y-121205752D02*
X107088967Y-121300990D01*
X107088967Y-121300990D02*
X107136586Y-121348609D01*
X107136586Y-121348609D02*
X107231824Y-121396228D01*
X107231824Y-121396228D02*
X107612776Y-121396228D01*
X106184205Y-121872419D02*
X106184205Y-121348609D01*
X106184205Y-121348609D02*
X106231824Y-121253371D01*
X106231824Y-121253371D02*
X106327062Y-121205752D01*
X106327062Y-121205752D02*
X106517538Y-121205752D01*
X106517538Y-121205752D02*
X106612776Y-121253371D01*
X106184205Y-121824800D02*
X106279443Y-121872419D01*
X106279443Y-121872419D02*
X106517538Y-121872419D01*
X106517538Y-121872419D02*
X106612776Y-121824800D01*
X106612776Y-121824800D02*
X106660395Y-121729561D01*
X106660395Y-121729561D02*
X106660395Y-121634323D01*
X106660395Y-121634323D02*
X106612776Y-121539085D01*
X106612776Y-121539085D02*
X106517538Y-121491466D01*
X106517538Y-121491466D02*
X106279443Y-121491466D01*
X106279443Y-121491466D02*
X106184205Y-121443847D01*
X105279443Y-121872419D02*
X105279443Y-121348609D01*
X105279443Y-121348609D02*
X105327062Y-121253371D01*
X105327062Y-121253371D02*
X105422300Y-121205752D01*
X105422300Y-121205752D02*
X105612776Y-121205752D01*
X105612776Y-121205752D02*
X105708014Y-121253371D01*
X105279443Y-121824800D02*
X105374681Y-121872419D01*
X105374681Y-121872419D02*
X105612776Y-121872419D01*
X105612776Y-121872419D02*
X105708014Y-121824800D01*
X105708014Y-121824800D02*
X105755633Y-121729561D01*
X105755633Y-121729561D02*
X105755633Y-121634323D01*
X105755633Y-121634323D02*
X105708014Y-121539085D01*
X105708014Y-121539085D02*
X105612776Y-121491466D01*
X105612776Y-121491466D02*
X105374681Y-121491466D01*
X105374681Y-121491466D02*
X105279443Y-121443847D01*
X104803252Y-121872419D02*
X104803252Y-121205752D01*
X104803252Y-121396228D02*
X104755633Y-121300990D01*
X104755633Y-121300990D02*
X104708014Y-121253371D01*
X104708014Y-121253371D02*
X104612776Y-121205752D01*
X104612776Y-121205752D02*
X104517538Y-121205752D01*
X104327061Y-121205752D02*
X103946109Y-121205752D01*
X104184204Y-120872419D02*
X104184204Y-121729561D01*
X104184204Y-121729561D02*
X104136585Y-121824800D01*
X104136585Y-121824800D02*
X104041347Y-121872419D01*
X104041347Y-121872419D02*
X103946109Y-121872419D01*
X103612775Y-121872419D02*
X103612775Y-120872419D01*
X103184204Y-121872419D02*
X103184204Y-121348609D01*
X103184204Y-121348609D02*
X103231823Y-121253371D01*
X103231823Y-121253371D02*
X103327061Y-121205752D01*
X103327061Y-121205752D02*
X103469918Y-121205752D01*
X103469918Y-121205752D02*
X103565156Y-121253371D01*
X103565156Y-121253371D02*
X103612775Y-121300990D01*
X101993727Y-121824800D02*
X101850870Y-121872419D01*
X101850870Y-121872419D02*
X101612775Y-121872419D01*
X101612775Y-121872419D02*
X101517537Y-121824800D01*
X101517537Y-121824800D02*
X101469918Y-121777180D01*
X101469918Y-121777180D02*
X101422299Y-121681942D01*
X101422299Y-121681942D02*
X101422299Y-121586704D01*
X101422299Y-121586704D02*
X101469918Y-121491466D01*
X101469918Y-121491466D02*
X101517537Y-121443847D01*
X101517537Y-121443847D02*
X101612775Y-121396228D01*
X101612775Y-121396228D02*
X101803251Y-121348609D01*
X101803251Y-121348609D02*
X101898489Y-121300990D01*
X101898489Y-121300990D02*
X101946108Y-121253371D01*
X101946108Y-121253371D02*
X101993727Y-121158133D01*
X101993727Y-121158133D02*
X101993727Y-121062895D01*
X101993727Y-121062895D02*
X101946108Y-120967657D01*
X101946108Y-120967657D02*
X101898489Y-120920038D01*
X101898489Y-120920038D02*
X101803251Y-120872419D01*
X101803251Y-120872419D02*
X101565156Y-120872419D01*
X101565156Y-120872419D02*
X101422299Y-120920038D01*
X100993727Y-121872419D02*
X100993727Y-120872419D01*
X100565156Y-121872419D02*
X100565156Y-121348609D01*
X100565156Y-121348609D02*
X100612775Y-121253371D01*
X100612775Y-121253371D02*
X100708013Y-121205752D01*
X100708013Y-121205752D02*
X100850870Y-121205752D01*
X100850870Y-121205752D02*
X100946108Y-121253371D01*
X100946108Y-121253371D02*
X100993727Y-121300990D01*
X100088965Y-121872419D02*
X100088965Y-121205752D01*
X100088965Y-120872419D02*
X100136584Y-120920038D01*
X100136584Y-120920038D02*
X100088965Y-120967657D01*
X100088965Y-120967657D02*
X100041346Y-120920038D01*
X100041346Y-120920038D02*
X100088965Y-120872419D01*
X100088965Y-120872419D02*
X100088965Y-120967657D01*
X99612775Y-121872419D02*
X99612775Y-121205752D01*
X99612775Y-121396228D02*
X99565156Y-121300990D01*
X99565156Y-121300990D02*
X99517537Y-121253371D01*
X99517537Y-121253371D02*
X99422299Y-121205752D01*
X99422299Y-121205752D02*
X99327061Y-121205752D01*
X99041346Y-121824800D02*
X98946108Y-121872419D01*
X98946108Y-121872419D02*
X98755632Y-121872419D01*
X98755632Y-121872419D02*
X98660394Y-121824800D01*
X98660394Y-121824800D02*
X98612775Y-121729561D01*
X98612775Y-121729561D02*
X98612775Y-121681942D01*
X98612775Y-121681942D02*
X98660394Y-121586704D01*
X98660394Y-121586704D02*
X98755632Y-121539085D01*
X98755632Y-121539085D02*
X98898489Y-121539085D01*
X98898489Y-121539085D02*
X98993727Y-121491466D01*
X98993727Y-121491466D02*
X99041346Y-121396228D01*
X99041346Y-121396228D02*
X99041346Y-121348609D01*
X99041346Y-121348609D02*
X98993727Y-121253371D01*
X98993727Y-121253371D02*
X98898489Y-121205752D01*
X98898489Y-121205752D02*
X98755632Y-121205752D01*
X98755632Y-121205752D02*
X98660394Y-121253371D01*
X97755632Y-121872419D02*
X97755632Y-121348609D01*
X97755632Y-121348609D02*
X97803251Y-121253371D01*
X97803251Y-121253371D02*
X97898489Y-121205752D01*
X97898489Y-121205752D02*
X98088965Y-121205752D01*
X98088965Y-121205752D02*
X98184203Y-121253371D01*
X97755632Y-121824800D02*
X97850870Y-121872419D01*
X97850870Y-121872419D02*
X98088965Y-121872419D01*
X98088965Y-121872419D02*
X98184203Y-121824800D01*
X98184203Y-121824800D02*
X98231822Y-121729561D01*
X98231822Y-121729561D02*
X98231822Y-121634323D01*
X98231822Y-121634323D02*
X98184203Y-121539085D01*
X98184203Y-121539085D02*
X98088965Y-121491466D01*
X98088965Y-121491466D02*
X97850870Y-121491466D01*
X97850870Y-121491466D02*
X97755632Y-121443847D01*
X97422298Y-121205752D02*
X97041346Y-121205752D01*
X97279441Y-120872419D02*
X97279441Y-121729561D01*
X97279441Y-121729561D02*
X97231822Y-121824800D01*
X97231822Y-121824800D02*
X97136584Y-121872419D01*
X97136584Y-121872419D02*
X97041346Y-121872419D01*
X95946107Y-121491466D02*
X95184203Y-121491466D01*
X94708012Y-121491466D02*
X93946108Y-121491466D01*
X93469917Y-121491466D02*
X92708013Y-121491466D01*
X91469917Y-121872419D02*
X91469917Y-120872419D01*
X91469917Y-120872419D02*
X91231822Y-120872419D01*
X91231822Y-120872419D02*
X91088965Y-120920038D01*
X91088965Y-120920038D02*
X90993727Y-121015276D01*
X90993727Y-121015276D02*
X90946108Y-121110514D01*
X90946108Y-121110514D02*
X90898489Y-121300990D01*
X90898489Y-121300990D02*
X90898489Y-121443847D01*
X90898489Y-121443847D02*
X90946108Y-121634323D01*
X90946108Y-121634323D02*
X90993727Y-121729561D01*
X90993727Y-121729561D02*
X91088965Y-121824800D01*
X91088965Y-121824800D02*
X91231822Y-121872419D01*
X91231822Y-121872419D02*
X91469917Y-121872419D01*
X89993727Y-121872419D02*
X90469917Y-121872419D01*
X90469917Y-121872419D02*
X90469917Y-120872419D01*
X89660393Y-121872419D02*
X89660393Y-120872419D01*
X89660393Y-120872419D02*
X89422298Y-120872419D01*
X89422298Y-120872419D02*
X89279441Y-120920038D01*
X89279441Y-120920038D02*
X89184203Y-121015276D01*
X89184203Y-121015276D02*
X89136584Y-121110514D01*
X89136584Y-121110514D02*
X89088965Y-121300990D01*
X89088965Y-121300990D02*
X89088965Y-121443847D01*
X89088965Y-121443847D02*
X89136584Y-121634323D01*
X89136584Y-121634323D02*
X89184203Y-121729561D01*
X89184203Y-121729561D02*
X89279441Y-121824800D01*
X89279441Y-121824800D02*
X89422298Y-121872419D01*
X89422298Y-121872419D02*
X89660393Y-121872419D01*
X87946107Y-121824800D02*
X87803250Y-121872419D01*
X87803250Y-121872419D02*
X87565155Y-121872419D01*
X87565155Y-121872419D02*
X87469917Y-121824800D01*
X87469917Y-121824800D02*
X87422298Y-121777180D01*
X87422298Y-121777180D02*
X87374679Y-121681942D01*
X87374679Y-121681942D02*
X87374679Y-121586704D01*
X87374679Y-121586704D02*
X87422298Y-121491466D01*
X87422298Y-121491466D02*
X87469917Y-121443847D01*
X87469917Y-121443847D02*
X87565155Y-121396228D01*
X87565155Y-121396228D02*
X87755631Y-121348609D01*
X87755631Y-121348609D02*
X87850869Y-121300990D01*
X87850869Y-121300990D02*
X87898488Y-121253371D01*
X87898488Y-121253371D02*
X87946107Y-121158133D01*
X87946107Y-121158133D02*
X87946107Y-121062895D01*
X87946107Y-121062895D02*
X87898488Y-120967657D01*
X87898488Y-120967657D02*
X87850869Y-120920038D01*
X87850869Y-120920038D02*
X87755631Y-120872419D01*
X87755631Y-120872419D02*
X87517536Y-120872419D01*
X87517536Y-120872419D02*
X87374679Y-120920038D01*
X86565155Y-121824800D02*
X86660393Y-121872419D01*
X86660393Y-121872419D02*
X86850869Y-121872419D01*
X86850869Y-121872419D02*
X86946107Y-121824800D01*
X86946107Y-121824800D02*
X86993726Y-121729561D01*
X86993726Y-121729561D02*
X86993726Y-121348609D01*
X86993726Y-121348609D02*
X86946107Y-121253371D01*
X86946107Y-121253371D02*
X86850869Y-121205752D01*
X86850869Y-121205752D02*
X86660393Y-121205752D01*
X86660393Y-121205752D02*
X86565155Y-121253371D01*
X86565155Y-121253371D02*
X86517536Y-121348609D01*
X86517536Y-121348609D02*
X86517536Y-121443847D01*
X86517536Y-121443847D02*
X86993726Y-121539085D01*
X86088964Y-121872419D02*
X86088964Y-121205752D01*
X86088964Y-121300990D02*
X86041345Y-121253371D01*
X86041345Y-121253371D02*
X85946107Y-121205752D01*
X85946107Y-121205752D02*
X85803250Y-121205752D01*
X85803250Y-121205752D02*
X85708012Y-121253371D01*
X85708012Y-121253371D02*
X85660393Y-121348609D01*
X85660393Y-121348609D02*
X85660393Y-121872419D01*
X85660393Y-121348609D02*
X85612774Y-121253371D01*
X85612774Y-121253371D02*
X85517536Y-121205752D01*
X85517536Y-121205752D02*
X85374679Y-121205752D01*
X85374679Y-121205752D02*
X85279440Y-121253371D01*
X85279440Y-121253371D02*
X85231821Y-121348609D01*
X85231821Y-121348609D02*
X85231821Y-121872419D01*
X84088964Y-120872419D02*
X83469917Y-120872419D01*
X83469917Y-120872419D02*
X83803250Y-121253371D01*
X83803250Y-121253371D02*
X83660393Y-121253371D01*
X83660393Y-121253371D02*
X83565155Y-121300990D01*
X83565155Y-121300990D02*
X83517536Y-121348609D01*
X83517536Y-121348609D02*
X83469917Y-121443847D01*
X83469917Y-121443847D02*
X83469917Y-121681942D01*
X83469917Y-121681942D02*
X83517536Y-121777180D01*
X83517536Y-121777180D02*
X83565155Y-121824800D01*
X83565155Y-121824800D02*
X83660393Y-121872419D01*
X83660393Y-121872419D02*
X83946107Y-121872419D01*
X83946107Y-121872419D02*
X84041345Y-121824800D01*
X84041345Y-121824800D02*
X84088964Y-121777180D01*
X81993726Y-122253371D02*
X82041345Y-122205752D01*
X82041345Y-122205752D02*
X82136583Y-122062895D01*
X82136583Y-122062895D02*
X82184202Y-121967657D01*
X82184202Y-121967657D02*
X82231821Y-121824800D01*
X82231821Y-121824800D02*
X82279440Y-121586704D01*
X82279440Y-121586704D02*
X82279440Y-121396228D01*
X82279440Y-121396228D02*
X82231821Y-121158133D01*
X82231821Y-121158133D02*
X82184202Y-121015276D01*
X82184202Y-121015276D02*
X82136583Y-120920038D01*
X82136583Y-120920038D02*
X82041345Y-120777180D01*
X82041345Y-120777180D02*
X81993726Y-120729561D01*
X81660392Y-120967657D02*
X81612773Y-120920038D01*
X81612773Y-120920038D02*
X81517535Y-120872419D01*
X81517535Y-120872419D02*
X81279440Y-120872419D01*
X81279440Y-120872419D02*
X81184202Y-120920038D01*
X81184202Y-120920038D02*
X81136583Y-120967657D01*
X81136583Y-120967657D02*
X81088964Y-121062895D01*
X81088964Y-121062895D02*
X81088964Y-121158133D01*
X81088964Y-121158133D02*
X81136583Y-121300990D01*
X81136583Y-121300990D02*
X81708011Y-121872419D01*
X81708011Y-121872419D02*
X81088964Y-121872419D01*
X80469916Y-120872419D02*
X80374678Y-120872419D01*
X80374678Y-120872419D02*
X80279440Y-120920038D01*
X80279440Y-120920038D02*
X80231821Y-120967657D01*
X80231821Y-120967657D02*
X80184202Y-121062895D01*
X80184202Y-121062895D02*
X80136583Y-121253371D01*
X80136583Y-121253371D02*
X80136583Y-121491466D01*
X80136583Y-121491466D02*
X80184202Y-121681942D01*
X80184202Y-121681942D02*
X80231821Y-121777180D01*
X80231821Y-121777180D02*
X80279440Y-121824800D01*
X80279440Y-121824800D02*
X80374678Y-121872419D01*
X80374678Y-121872419D02*
X80469916Y-121872419D01*
X80469916Y-121872419D02*
X80565154Y-121824800D01*
X80565154Y-121824800D02*
X80612773Y-121777180D01*
X80612773Y-121777180D02*
X80660392Y-121681942D01*
X80660392Y-121681942D02*
X80708011Y-121491466D01*
X80708011Y-121491466D02*
X80708011Y-121253371D01*
X80708011Y-121253371D02*
X80660392Y-121062895D01*
X80660392Y-121062895D02*
X80612773Y-120967657D01*
X80612773Y-120967657D02*
X80565154Y-120920038D01*
X80565154Y-120920038D02*
X80469916Y-120872419D01*
X79755630Y-120967657D02*
X79708011Y-120920038D01*
X79708011Y-120920038D02*
X79612773Y-120872419D01*
X79612773Y-120872419D02*
X79374678Y-120872419D01*
X79374678Y-120872419D02*
X79279440Y-120920038D01*
X79279440Y-120920038D02*
X79231821Y-120967657D01*
X79231821Y-120967657D02*
X79184202Y-121062895D01*
X79184202Y-121062895D02*
X79184202Y-121158133D01*
X79184202Y-121158133D02*
X79231821Y-121300990D01*
X79231821Y-121300990D02*
X79803249Y-121872419D01*
X79803249Y-121872419D02*
X79184202Y-121872419D01*
X78279440Y-120872419D02*
X78755630Y-120872419D01*
X78755630Y-120872419D02*
X78803249Y-121348609D01*
X78803249Y-121348609D02*
X78755630Y-121300990D01*
X78755630Y-121300990D02*
X78660392Y-121253371D01*
X78660392Y-121253371D02*
X78422297Y-121253371D01*
X78422297Y-121253371D02*
X78327059Y-121300990D01*
X78327059Y-121300990D02*
X78279440Y-121348609D01*
X78279440Y-121348609D02*
X78231821Y-121443847D01*
X78231821Y-121443847D02*
X78231821Y-121681942D01*
X78231821Y-121681942D02*
X78279440Y-121777180D01*
X78279440Y-121777180D02*
X78327059Y-121824800D01*
X78327059Y-121824800D02*
X78422297Y-121872419D01*
X78422297Y-121872419D02*
X78660392Y-121872419D01*
X78660392Y-121872419D02*
X78755630Y-121824800D01*
X78755630Y-121824800D02*
X78803249Y-121777180D01*
X77803249Y-121491466D02*
X77041345Y-121491466D01*
X76612773Y-120967657D02*
X76565154Y-120920038D01*
X76565154Y-120920038D02*
X76469916Y-120872419D01*
X76469916Y-120872419D02*
X76231821Y-120872419D01*
X76231821Y-120872419D02*
X76136583Y-120920038D01*
X76136583Y-120920038D02*
X76088964Y-120967657D01*
X76088964Y-120967657D02*
X76041345Y-121062895D01*
X76041345Y-121062895D02*
X76041345Y-121158133D01*
X76041345Y-121158133D02*
X76088964Y-121300990D01*
X76088964Y-121300990D02*
X76660392Y-121872419D01*
X76660392Y-121872419D02*
X76041345Y-121872419D01*
X75184202Y-120872419D02*
X75374678Y-120872419D01*
X75374678Y-120872419D02*
X75469916Y-120920038D01*
X75469916Y-120920038D02*
X75517535Y-120967657D01*
X75517535Y-120967657D02*
X75612773Y-121110514D01*
X75612773Y-121110514D02*
X75660392Y-121300990D01*
X75660392Y-121300990D02*
X75660392Y-121681942D01*
X75660392Y-121681942D02*
X75612773Y-121777180D01*
X75612773Y-121777180D02*
X75565154Y-121824800D01*
X75565154Y-121824800D02*
X75469916Y-121872419D01*
X75469916Y-121872419D02*
X75279440Y-121872419D01*
X75279440Y-121872419D02*
X75184202Y-121824800D01*
X75184202Y-121824800D02*
X75136583Y-121777180D01*
X75136583Y-121777180D02*
X75088964Y-121681942D01*
X75088964Y-121681942D02*
X75088964Y-121443847D01*
X75088964Y-121443847D02*
X75136583Y-121348609D01*
X75136583Y-121348609D02*
X75184202Y-121300990D01*
X75184202Y-121300990D02*
X75279440Y-121253371D01*
X75279440Y-121253371D02*
X75469916Y-121253371D01*
X75469916Y-121253371D02*
X75565154Y-121300990D01*
X75565154Y-121300990D02*
X75612773Y-121348609D01*
X75612773Y-121348609D02*
X75660392Y-121443847D01*
X74755630Y-122253371D02*
X74708011Y-122205752D01*
X74708011Y-122205752D02*
X74612773Y-122062895D01*
X74612773Y-122062895D02*
X74565154Y-121967657D01*
X74565154Y-121967657D02*
X74517535Y-121824800D01*
X74517535Y-121824800D02*
X74469916Y-121586704D01*
X74469916Y-121586704D02*
X74469916Y-121396228D01*
X74469916Y-121396228D02*
X74517535Y-121158133D01*
X74517535Y-121158133D02*
X74565154Y-121015276D01*
X74565154Y-121015276D02*
X74612773Y-120920038D01*
X74612773Y-120920038D02*
X74708011Y-120777180D01*
X74708011Y-120777180D02*
X74755630Y-120729561D01*
D11*
%TO.C,G\u002A\u002A\u002A*%
G36*
X112939404Y-100145283D02*
G01*
X112957166Y-100145875D01*
X112979847Y-100147018D01*
X113003564Y-100148527D01*
X113049861Y-100151813D01*
X113049861Y-100281800D01*
X112990705Y-100281800D01*
X112987408Y-100335693D01*
X112986830Y-100347155D01*
X112985955Y-100372795D01*
X112985207Y-100405031D01*
X112984624Y-100441678D01*
X112984245Y-100480548D01*
X112984110Y-100519457D01*
X112984003Y-100550262D01*
X112983634Y-100582751D01*
X112983042Y-100610689D01*
X112982265Y-100632685D01*
X112981344Y-100647348D01*
X112980317Y-100653286D01*
X112978569Y-100654034D01*
X112968486Y-100655054D01*
X112951955Y-100655100D01*
X112931491Y-100654129D01*
X112925078Y-100653700D01*
X112901449Y-100652332D01*
X112879917Y-100651375D01*
X112864476Y-100651015D01*
X112842493Y-100651015D01*
X112842493Y-100570553D01*
X112808354Y-100569058D01*
X112774214Y-100567562D01*
X112774214Y-100284328D01*
X112805825Y-100282823D01*
X112837436Y-100281317D01*
X112837436Y-100252223D01*
X112837973Y-100239746D01*
X112840178Y-100225180D01*
X112843505Y-100217060D01*
X112849234Y-100214394D01*
X112863128Y-100211927D01*
X112881438Y-100210991D01*
X112913302Y-100210991D01*
X112913302Y-100145240D01*
X112935285Y-100145240D01*
X112939404Y-100145283D01*
G37*
G36*
X118594914Y-97838764D02*
G01*
X118634384Y-97840491D01*
X118669017Y-97842006D01*
X118739825Y-97845103D01*
X118739825Y-97908420D01*
X118810634Y-97912068D01*
X118881442Y-97915717D01*
X118881442Y-97980525D01*
X118952250Y-97980525D01*
X118952250Y-98056391D01*
X118984827Y-98056391D01*
X119000800Y-98057012D01*
X119014211Y-98058839D01*
X119020530Y-98061449D01*
X119020860Y-98061820D01*
X119028299Y-98064195D01*
X119042696Y-98065872D01*
X119061290Y-98066507D01*
X119098925Y-98066507D01*
X119098925Y-98098841D01*
X119099317Y-98115980D01*
X119101864Y-98127958D01*
X119108556Y-98134332D01*
X119121382Y-98136863D01*
X119142330Y-98137315D01*
X119169734Y-98137315D01*
X119169734Y-98169892D01*
X119170354Y-98185865D01*
X119172181Y-98199276D01*
X119174791Y-98205595D01*
X119176990Y-98209936D01*
X119179053Y-98222030D01*
X119179849Y-98238527D01*
X119179849Y-98268334D01*
X119243071Y-98271346D01*
X119244552Y-98307788D01*
X119246034Y-98344231D01*
X119279956Y-98345721D01*
X119313879Y-98347212D01*
X119322607Y-98481242D01*
X119352286Y-98481242D01*
X119357802Y-98481229D01*
X119368913Y-98481550D01*
X119376790Y-98483504D01*
X119382029Y-98488504D01*
X119385226Y-98497964D01*
X119386974Y-98513295D01*
X119387870Y-98535911D01*
X119388508Y-98567224D01*
X119389745Y-98630446D01*
X119451447Y-98633418D01*
X119454713Y-98690096D01*
X119454720Y-98690221D01*
X119455077Y-98701755D01*
X119455413Y-98722824D01*
X119455727Y-98752859D01*
X119456020Y-98791289D01*
X119456293Y-98837546D01*
X119456544Y-98891059D01*
X119456774Y-98951259D01*
X119456983Y-99017576D01*
X119457171Y-99089441D01*
X119457337Y-99166284D01*
X119457483Y-99247535D01*
X119457608Y-99332626D01*
X119457711Y-99420986D01*
X119457794Y-99512046D01*
X119457855Y-99605236D01*
X119457896Y-99699986D01*
X119457915Y-99795727D01*
X119457914Y-99891890D01*
X119457891Y-99987905D01*
X119457848Y-100083202D01*
X119457783Y-100177211D01*
X119457698Y-100269364D01*
X119457619Y-100335554D01*
X119457591Y-100359090D01*
X119457464Y-100445820D01*
X119457315Y-100528984D01*
X119457146Y-100608012D01*
X119456956Y-100682336D01*
X119456744Y-100751385D01*
X119456512Y-100814590D01*
X119456259Y-100871382D01*
X119455985Y-100921190D01*
X119455690Y-100963445D01*
X119455374Y-100997578D01*
X119455038Y-101023018D01*
X119454680Y-101039197D01*
X119451362Y-101141616D01*
X119393812Y-101141616D01*
X119390514Y-101195510D01*
X119389813Y-101207918D01*
X119388482Y-101237575D01*
X119387561Y-101266822D01*
X119387217Y-101290820D01*
X119387141Y-101300861D01*
X119386511Y-101327866D01*
X119385382Y-101357902D01*
X119383919Y-101386130D01*
X119380622Y-101440023D01*
X119322992Y-101440023D01*
X119322920Y-101441105D01*
X119319726Y-101489336D01*
X119319264Y-101496831D01*
X119317830Y-101527452D01*
X119316822Y-101560520D01*
X119316434Y-101590078D01*
X119316305Y-101604752D01*
X119315674Y-101625474D01*
X119314640Y-101641254D01*
X119313338Y-101649506D01*
X119309388Y-101653954D01*
X119299269Y-101656703D01*
X119281186Y-101657506D01*
X119252103Y-101657506D01*
X119248900Y-101706820D01*
X119248222Y-101717317D01*
X119246277Y-101747863D01*
X119244212Y-101780760D01*
X119242374Y-101810503D01*
X119239052Y-101864874D01*
X119175062Y-101864874D01*
X119172262Y-102014078D01*
X119138760Y-102015559D01*
X119105257Y-102017040D01*
X119101620Y-102087631D01*
X119097983Y-102158223D01*
X119023502Y-102158223D01*
X119020530Y-102231561D01*
X118989476Y-102233052D01*
X118958421Y-102234543D01*
X118954072Y-102301332D01*
X118949722Y-102368120D01*
X118915582Y-102369615D01*
X118881442Y-102371111D01*
X118881442Y-102440995D01*
X118847302Y-102442490D01*
X118813162Y-102443986D01*
X118804048Y-102588132D01*
X118775477Y-102588132D01*
X118763526Y-102588643D01*
X118748983Y-102590847D01*
X118740837Y-102594201D01*
X118738346Y-102599270D01*
X118735767Y-102612416D01*
X118734767Y-102629364D01*
X118734767Y-102658457D01*
X118703156Y-102659963D01*
X118671546Y-102661469D01*
X118666488Y-102732277D01*
X118632574Y-102733768D01*
X118598660Y-102735258D01*
X118597170Y-102769172D01*
X118595679Y-102803086D01*
X118561540Y-102804581D01*
X118527400Y-102806077D01*
X118527400Y-102871366D01*
X118495536Y-102871366D01*
X118480955Y-102871949D01*
X118465825Y-102874126D01*
X118457603Y-102877435D01*
X118455130Y-102882432D01*
X118452539Y-102895534D01*
X118451534Y-102912439D01*
X118451534Y-102941375D01*
X118414865Y-102944204D01*
X118395460Y-102945745D01*
X118368233Y-102948003D01*
X118344287Y-102950083D01*
X118310378Y-102953132D01*
X118308883Y-102984322D01*
X118307388Y-103015511D01*
X118271984Y-103018040D01*
X118236579Y-103020569D01*
X118235089Y-103054492D01*
X118233598Y-103088415D01*
X118197156Y-103089896D01*
X118160713Y-103091377D01*
X118159222Y-103122432D01*
X118157731Y-103153486D01*
X118090942Y-103157836D01*
X118024154Y-103162186D01*
X118019096Y-103238052D01*
X117885520Y-103246752D01*
X117884028Y-103277806D01*
X117882537Y-103308861D01*
X117844604Y-103311389D01*
X117806671Y-103313918D01*
X117803699Y-103375624D01*
X117744492Y-103378952D01*
X117726777Y-103379970D01*
X117695168Y-103381867D01*
X117664248Y-103383807D01*
X117638723Y-103385498D01*
X117592162Y-103388717D01*
X117589188Y-103450477D01*
X117517115Y-103451881D01*
X117445042Y-103453284D01*
X117445042Y-103518757D01*
X117418489Y-103519442D01*
X117412721Y-103519606D01*
X117394367Y-103520201D01*
X117369620Y-103521064D01*
X117340997Y-103522105D01*
X117311012Y-103523235D01*
X117230088Y-103526344D01*
X117228602Y-103557199D01*
X117227116Y-103588055D01*
X117173444Y-103591339D01*
X117170205Y-103591530D01*
X117143268Y-103592741D01*
X117110606Y-103593729D01*
X117076050Y-103594398D01*
X117043429Y-103594649D01*
X117037994Y-103594659D01*
X117005433Y-103594985D01*
X116972129Y-103595704D01*
X116941703Y-103596721D01*
X116917772Y-103597941D01*
X116868459Y-103601207D01*
X116868459Y-103658828D01*
X116811559Y-103662107D01*
X116797359Y-103662635D01*
X116773925Y-103663138D01*
X116742238Y-103663609D01*
X116703231Y-103664039D01*
X116657838Y-103664422D01*
X116606991Y-103664750D01*
X116551625Y-103665018D01*
X116492672Y-103665218D01*
X116431067Y-103665342D01*
X116367742Y-103665386D01*
X116304730Y-103665343D01*
X116243114Y-103665218D01*
X116184146Y-103665019D01*
X116128759Y-103664752D01*
X116077888Y-103664423D01*
X116032465Y-103664041D01*
X115993424Y-103663611D01*
X115961698Y-103663141D01*
X115938220Y-103662637D01*
X115923925Y-103662107D01*
X115867025Y-103658828D01*
X115867025Y-103601226D01*
X115810126Y-103597948D01*
X115785686Y-103596793D01*
X115752031Y-103595686D01*
X115716775Y-103594931D01*
X115684469Y-103594646D01*
X115656187Y-103594418D01*
X115621942Y-103593713D01*
X115589109Y-103592648D01*
X115562040Y-103591339D01*
X115508369Y-103588055D01*
X115506883Y-103557199D01*
X115505397Y-103526344D01*
X115424473Y-103523235D01*
X115410169Y-103522691D01*
X115380520Y-103521592D01*
X115353430Y-103520625D01*
X115331417Y-103519879D01*
X115316996Y-103519442D01*
X115290442Y-103518757D01*
X115290442Y-103453270D01*
X115213312Y-103451874D01*
X115136181Y-103450477D01*
X115134675Y-103418867D01*
X115133629Y-103402593D01*
X115131743Y-103392546D01*
X115128183Y-103388208D01*
X115122031Y-103387285D01*
X115115612Y-103387070D01*
X115100149Y-103386272D01*
X115078028Y-103384989D01*
X115051131Y-103383331D01*
X115021337Y-103381408D01*
X114931783Y-103375501D01*
X114930298Y-103344709D01*
X114928814Y-103313918D01*
X114890880Y-103311389D01*
X114852947Y-103308861D01*
X114851456Y-103277806D01*
X114849965Y-103246752D01*
X114783176Y-103242402D01*
X114716388Y-103238052D01*
X114711330Y-103162186D01*
X114577754Y-103153486D01*
X114576263Y-103122432D01*
X114574771Y-103091377D01*
X114533271Y-103089912D01*
X114491772Y-103088447D01*
X114488790Y-103020569D01*
X114453385Y-103018040D01*
X114417981Y-103015511D01*
X114416486Y-102984322D01*
X114414992Y-102953132D01*
X114382347Y-102950182D01*
X114367960Y-102948883D01*
X114341235Y-102946471D01*
X114316826Y-102944271D01*
X114283951Y-102941311D01*
X114283951Y-102912407D01*
X114283423Y-102900122D01*
X114281219Y-102885564D01*
X114277882Y-102877435D01*
X114272153Y-102874769D01*
X114258258Y-102872301D01*
X114239949Y-102871366D01*
X114208085Y-102871366D01*
X114208085Y-102806077D01*
X114173945Y-102804581D01*
X114139805Y-102803086D01*
X114138315Y-102769172D01*
X114136824Y-102735258D01*
X114102911Y-102733768D01*
X114068997Y-102732277D01*
X114063939Y-102661469D01*
X114000717Y-102658457D01*
X114000717Y-102629364D01*
X114000179Y-102616887D01*
X113997975Y-102602321D01*
X113994648Y-102594201D01*
X113989813Y-102591771D01*
X113976816Y-102589150D01*
X113960008Y-102588132D01*
X113931437Y-102588132D01*
X113926880Y-102516059D01*
X113922322Y-102443986D01*
X113883125Y-102442509D01*
X113843927Y-102441032D01*
X113843927Y-102371111D01*
X113809787Y-102369615D01*
X113775647Y-102368120D01*
X113771298Y-102301332D01*
X113766948Y-102234543D01*
X113735893Y-102233052D01*
X113704839Y-102231561D01*
X113701867Y-102158223D01*
X113637818Y-102158223D01*
X113633395Y-102088679D01*
X113628973Y-102019135D01*
X113596098Y-102016606D01*
X113563222Y-102014078D01*
X113561823Y-101939476D01*
X113560423Y-101864874D01*
X113496357Y-101864874D01*
X113489899Y-101761414D01*
X113483440Y-101657953D01*
X113452523Y-101656465D01*
X113421605Y-101654978D01*
X113418497Y-101574054D01*
X113417936Y-101559343D01*
X113416842Y-101530124D01*
X113415880Y-101503726D01*
X113415138Y-101482576D01*
X113414704Y-101469105D01*
X113414019Y-101445081D01*
X113353326Y-101445081D01*
X113353326Y-101370362D01*
X113486092Y-101366951D01*
X113511080Y-101366448D01*
X113546448Y-101365978D01*
X113589724Y-101365579D01*
X113639769Y-101365255D01*
X113695444Y-101365011D01*
X113755611Y-101364850D01*
X113819131Y-101364775D01*
X113884864Y-101364792D01*
X113951673Y-101364903D01*
X114018419Y-101365114D01*
X114417981Y-101366686D01*
X114420510Y-101792383D01*
X114420782Y-101834633D01*
X114421265Y-101897605D01*
X114421816Y-101957192D01*
X114422423Y-102012646D01*
X114423074Y-102063220D01*
X114423758Y-102108165D01*
X114424462Y-102146734D01*
X114425175Y-102178179D01*
X114425885Y-102201752D01*
X114426581Y-102216705D01*
X114427251Y-102222291D01*
X114430336Y-102222798D01*
X114442745Y-102223473D01*
X114463858Y-102224104D01*
X114492852Y-102224683D01*
X114528907Y-102225199D01*
X114571202Y-102225643D01*
X114618915Y-102226005D01*
X114671224Y-102226275D01*
X114727310Y-102226444D01*
X114786351Y-102226503D01*
X115141239Y-102226503D01*
X115142729Y-102192580D01*
X115144220Y-102158657D01*
X115180323Y-102157176D01*
X115216425Y-102155694D01*
X115215331Y-101562357D01*
X115863829Y-101562357D01*
X115863833Y-101615932D01*
X115863920Y-101665250D01*
X115864095Y-101709350D01*
X115864362Y-101747267D01*
X115864726Y-101778040D01*
X115865190Y-101800704D01*
X115865760Y-101814297D01*
X115869554Y-101867403D01*
X115900499Y-101868891D01*
X115931443Y-101870380D01*
X115940363Y-102014078D01*
X115974277Y-102015568D01*
X116008190Y-102017058D01*
X116009681Y-102050972D01*
X116011171Y-102084886D01*
X116080715Y-102089309D01*
X116150259Y-102093731D01*
X116150259Y-102157946D01*
X116294405Y-102160752D01*
X116295891Y-102191615D01*
X116297378Y-102222478D01*
X116346469Y-102225728D01*
X116358268Y-102226241D01*
X116379425Y-102226756D01*
X116408243Y-102227215D01*
X116443832Y-102227621D01*
X116485306Y-102227971D01*
X116531774Y-102228268D01*
X116582347Y-102228510D01*
X116636138Y-102228697D01*
X116692256Y-102228831D01*
X116749814Y-102228910D01*
X116807923Y-102228935D01*
X116865693Y-102228906D01*
X116922236Y-102228823D01*
X116976663Y-102228686D01*
X117028085Y-102228496D01*
X117075614Y-102228251D01*
X117118360Y-102227953D01*
X117155435Y-102227601D01*
X117185949Y-102227196D01*
X117209015Y-102226738D01*
X117223743Y-102226225D01*
X117229245Y-102225660D01*
X117229684Y-102222806D01*
X117230283Y-102210750D01*
X117230838Y-102190136D01*
X117231337Y-102161883D01*
X117231769Y-102126907D01*
X117232124Y-102086127D01*
X117232390Y-102040460D01*
X117232558Y-101990824D01*
X117232617Y-101938137D01*
X117232617Y-101912798D01*
X117727157Y-101912798D01*
X117727273Y-101985871D01*
X117727528Y-102067328D01*
X117727920Y-102156959D01*
X117728276Y-102229032D01*
X118161978Y-102228041D01*
X118206219Y-102227931D01*
X118271014Y-102227739D01*
X118332985Y-102227517D01*
X118391319Y-102227272D01*
X118445207Y-102227007D01*
X118493840Y-102226728D01*
X118536407Y-102226439D01*
X118572098Y-102226145D01*
X118600104Y-102225851D01*
X118619614Y-102225561D01*
X118629819Y-102225281D01*
X118663959Y-102223512D01*
X118663959Y-102193493D01*
X118663945Y-102187818D01*
X118664264Y-102176627D01*
X118666217Y-102168696D01*
X118671218Y-102163425D01*
X118680678Y-102160214D01*
X118696010Y-102158462D01*
X118718627Y-102157569D01*
X118749941Y-102156932D01*
X118813162Y-102155694D01*
X118814654Y-102124640D01*
X118816145Y-102093586D01*
X118882933Y-102089236D01*
X118949722Y-102084886D01*
X118951217Y-102050746D01*
X118952713Y-102016606D01*
X119022007Y-102016606D01*
X119025663Y-101943479D01*
X119029319Y-101870351D01*
X119065386Y-101868877D01*
X119101454Y-101867403D01*
X119104092Y-101441105D01*
X119021849Y-101437714D01*
X119002484Y-101437136D01*
X118973693Y-101436656D01*
X118937948Y-101436322D01*
X118896387Y-101436127D01*
X118850148Y-101436061D01*
X118800368Y-101436118D01*
X118748186Y-101436289D01*
X118694740Y-101436566D01*
X118641168Y-101436941D01*
X118588608Y-101437406D01*
X118538197Y-101437952D01*
X118491074Y-101438573D01*
X118448377Y-101439260D01*
X118411243Y-101440004D01*
X118380810Y-101440798D01*
X118358218Y-101441634D01*
X118344602Y-101442503D01*
X118311008Y-101445896D01*
X118306669Y-101512504D01*
X118302330Y-101579111D01*
X118232786Y-101583534D01*
X118163242Y-101587956D01*
X118163242Y-101647391D01*
X117948586Y-101647391D01*
X117906419Y-101647434D01*
X117857000Y-101647638D01*
X117816662Y-101648027D01*
X117784807Y-101648616D01*
X117760839Y-101649421D01*
X117744160Y-101650459D01*
X117734173Y-101651745D01*
X117730281Y-101653296D01*
X117730104Y-101653785D01*
X117729286Y-101662257D01*
X117728599Y-101680590D01*
X117728044Y-101708574D01*
X117727621Y-101745998D01*
X117727331Y-101792651D01*
X117727176Y-101848321D01*
X117727157Y-101912798D01*
X117232617Y-101912798D01*
X117232617Y-101653986D01*
X117178724Y-101650688D01*
X117173023Y-101650383D01*
X117151063Y-101649581D01*
X117121402Y-101648864D01*
X117085816Y-101648260D01*
X117046077Y-101647795D01*
X117003961Y-101647497D01*
X116961241Y-101647391D01*
X116797651Y-101647391D01*
X116797651Y-101587528D01*
X116762246Y-101584584D01*
X116744635Y-101583117D01*
X116716986Y-101580807D01*
X116692126Y-101578723D01*
X116657410Y-101575806D01*
X116654906Y-101489071D01*
X116654551Y-101474610D01*
X116654009Y-101434959D01*
X116653893Y-101391388D01*
X116654202Y-101348254D01*
X116654935Y-101309909D01*
X116657468Y-101217483D01*
X116726380Y-101217483D01*
X116727876Y-101183343D01*
X116729371Y-101149203D01*
X116979730Y-101146674D01*
X117230088Y-101144145D01*
X117725747Y-101144145D01*
X118197382Y-101145436D01*
X118669017Y-101146726D01*
X118669017Y-101082705D01*
X118763849Y-101076680D01*
X118793841Y-101074806D01*
X118821209Y-101073156D01*
X118843742Y-101071859D01*
X118859687Y-101071018D01*
X118867292Y-101070732D01*
X118869803Y-101070424D01*
X118873760Y-101066658D01*
X118876072Y-101056943D01*
X118877407Y-101039197D01*
X118878913Y-101007586D01*
X118915356Y-101006105D01*
X118951798Y-101004623D01*
X118953289Y-100970700D01*
X118954779Y-100936778D01*
X118988702Y-100935287D01*
X119022625Y-100933797D01*
X119024106Y-100897354D01*
X119025588Y-100860912D01*
X119061514Y-100859440D01*
X119097440Y-100857969D01*
X119100711Y-100811879D01*
X119101098Y-100803972D01*
X119101621Y-100784450D01*
X119102090Y-100756376D01*
X119102505Y-100720679D01*
X119102864Y-100678291D01*
X119103170Y-100630141D01*
X119103421Y-100577162D01*
X119103618Y-100520283D01*
X119103760Y-100460435D01*
X119103848Y-100398548D01*
X119103882Y-100335554D01*
X119103861Y-100272383D01*
X119103786Y-100209965D01*
X119103657Y-100149231D01*
X119103474Y-100091111D01*
X119103237Y-100036537D01*
X119102946Y-99986439D01*
X119102600Y-99941748D01*
X119102201Y-99903394D01*
X119101747Y-99872307D01*
X119101240Y-99849419D01*
X119100679Y-99835660D01*
X119097427Y-99786553D01*
X119061507Y-99785083D01*
X119025588Y-99783612D01*
X119024106Y-99747169D01*
X119022625Y-99710727D01*
X118954779Y-99707745D01*
X118953289Y-99673823D01*
X118951798Y-99639900D01*
X118915356Y-99638418D01*
X118878913Y-99636937D01*
X118877426Y-99606034D01*
X118875938Y-99575131D01*
X118826848Y-99571942D01*
X118816347Y-99571264D01*
X118785902Y-99569326D01*
X118753088Y-99567267D01*
X118723387Y-99565432D01*
X118669017Y-99562110D01*
X118669017Y-99497849D01*
X117728276Y-99497849D01*
X117727580Y-99676135D01*
X117727504Y-99695478D01*
X117727305Y-99744440D01*
X117727092Y-99794709D01*
X117726877Y-99843999D01*
X117726669Y-99890028D01*
X117726479Y-99930510D01*
X117726316Y-99963162D01*
X117725747Y-100071903D01*
X117926129Y-100074432D01*
X117968519Y-100074967D01*
X117969435Y-100074978D01*
X118018225Y-100075607D01*
X118064068Y-100076222D01*
X118105941Y-100076808D01*
X118142818Y-100077349D01*
X118173677Y-100077831D01*
X118197493Y-100078237D01*
X118213242Y-100078551D01*
X118219900Y-100078760D01*
X118222019Y-100079181D01*
X118226181Y-100083219D01*
X118228627Y-100093158D01*
X118230016Y-100111101D01*
X118231522Y-100142712D01*
X118266926Y-100145240D01*
X118302330Y-100147769D01*
X118305462Y-100185702D01*
X118306378Y-100201125D01*
X118307264Y-100225607D01*
X118307966Y-100255575D01*
X118308428Y-100288603D01*
X118308595Y-100322262D01*
X118308457Y-100352769D01*
X118308020Y-100385959D01*
X118307339Y-100416315D01*
X118306467Y-100441412D01*
X118305462Y-100458821D01*
X118302330Y-100496754D01*
X118268190Y-100498249D01*
X118234051Y-100499745D01*
X118234051Y-100532389D01*
X118233667Y-100547056D01*
X118231626Y-100560892D01*
X118227728Y-100565731D01*
X118227528Y-100565747D01*
X118220309Y-100565960D01*
X118204085Y-100566276D01*
X118179856Y-100566681D01*
X118148624Y-100567161D01*
X118111388Y-100567700D01*
X118069149Y-100568284D01*
X118022909Y-100568897D01*
X117973666Y-100569525D01*
X117932523Y-100570039D01*
X117725926Y-100572620D01*
X117725837Y-100858383D01*
X117725747Y-101144145D01*
X117230088Y-101144145D01*
X117232700Y-100570039D01*
X116761024Y-100571329D01*
X116289347Y-100572620D01*
X116287861Y-100609289D01*
X116286375Y-100645957D01*
X116262572Y-100646627D01*
X116257989Y-100646766D01*
X116240966Y-100647352D01*
X116217364Y-100648217D01*
X116189672Y-100649271D01*
X116160375Y-100650420D01*
X116081980Y-100653544D01*
X116080484Y-100687684D01*
X116078989Y-100721823D01*
X116009104Y-100721823D01*
X116007609Y-100755963D01*
X116006113Y-100790103D01*
X115972191Y-100791594D01*
X115938268Y-100793084D01*
X115936786Y-100829527D01*
X115935305Y-100865969D01*
X115904252Y-100867461D01*
X115873199Y-100868952D01*
X115869961Y-100905394D01*
X115869323Y-100916834D01*
X115868650Y-100938090D01*
X115868003Y-100967610D01*
X115867386Y-101004432D01*
X115866802Y-101047593D01*
X115866258Y-101096129D01*
X115865757Y-101149077D01*
X115865303Y-101205474D01*
X115864901Y-101264358D01*
X115864556Y-101324764D01*
X115864272Y-101385731D01*
X115864053Y-101446294D01*
X115863904Y-101505490D01*
X115863829Y-101562357D01*
X115215331Y-101562357D01*
X115215105Y-101440049D01*
X115214966Y-101371139D01*
X115214769Y-101289099D01*
X115214545Y-101210311D01*
X115214299Y-101135346D01*
X115214032Y-101064778D01*
X115213748Y-100999177D01*
X115213450Y-100939116D01*
X115213141Y-100885167D01*
X115212824Y-100837902D01*
X115212503Y-100797892D01*
X115212180Y-100765710D01*
X115211858Y-100741927D01*
X115211540Y-100727116D01*
X115211231Y-100721849D01*
X115211222Y-100721843D01*
X115205765Y-100721575D01*
X115190695Y-100721301D01*
X115166507Y-100721021D01*
X115133691Y-100720738D01*
X115092742Y-100720454D01*
X115044151Y-100720171D01*
X114988411Y-100719891D01*
X114926016Y-100719616D01*
X114857457Y-100719349D01*
X114783227Y-100719090D01*
X114703819Y-100718843D01*
X114619725Y-100718609D01*
X114531439Y-100718390D01*
X114439452Y-100718189D01*
X114344258Y-100718007D01*
X114246348Y-100717846D01*
X113284019Y-100716398D01*
X113280765Y-100667269D01*
X113280434Y-100661942D01*
X113279026Y-100629039D01*
X113278105Y-100588105D01*
X113277670Y-100540877D01*
X113277723Y-100489092D01*
X113278261Y-100434484D01*
X113279286Y-100378791D01*
X113280797Y-100323747D01*
X113284109Y-100221548D01*
X113345739Y-100218578D01*
X113348711Y-100145240D01*
X115214576Y-100145240D01*
X115214576Y-100099721D01*
X115864497Y-100099721D01*
X115864497Y-100284328D01*
X116257105Y-100285624D01*
X116649714Y-100286919D01*
X116654138Y-100217344D01*
X116658563Y-100147769D01*
X116693967Y-100145240D01*
X116729371Y-100142712D01*
X116730857Y-100111849D01*
X116732344Y-100080986D01*
X116781435Y-100077735D01*
X116782931Y-100077642D01*
X116800276Y-100076916D01*
X116826102Y-100076250D01*
X116858957Y-100075660D01*
X116897388Y-100075167D01*
X116939943Y-100074790D01*
X116985169Y-100074547D01*
X117031613Y-100074458D01*
X117232700Y-100074432D01*
X117230088Y-99500378D01*
X116294405Y-99500378D01*
X116292917Y-99531295D01*
X116291429Y-99562213D01*
X116188192Y-99568657D01*
X116084955Y-99575102D01*
X116083467Y-99606020D01*
X116081980Y-99636937D01*
X116008642Y-99639909D01*
X116008642Y-99710274D01*
X115938277Y-99710274D01*
X115935305Y-99783612D01*
X115904190Y-99785105D01*
X115873075Y-99786597D01*
X115868786Y-99850855D01*
X115868024Y-99865208D01*
X115867069Y-99892115D01*
X115866221Y-99926167D01*
X115865511Y-99965658D01*
X115864967Y-100008884D01*
X115864619Y-100054140D01*
X115864497Y-100099721D01*
X115214576Y-100099721D01*
X115214576Y-99504444D01*
X115160683Y-99501146D01*
X115158772Y-99501050D01*
X115145101Y-99500676D01*
X115122065Y-99500315D01*
X115090267Y-99499970D01*
X115050304Y-99499641D01*
X115002777Y-99499333D01*
X114948286Y-99499047D01*
X114887430Y-99498786D01*
X114820809Y-99498552D01*
X114749022Y-99498347D01*
X114672670Y-99498174D01*
X114592352Y-99498035D01*
X114508667Y-99497933D01*
X114422217Y-99497870D01*
X114333599Y-99497849D01*
X113560408Y-99497849D01*
X113563222Y-99358761D01*
X113597362Y-99357265D01*
X113631502Y-99355770D01*
X113631528Y-99329448D01*
X113631595Y-99323412D01*
X113632217Y-99303318D01*
X113633350Y-99278784D01*
X113634820Y-99253813D01*
X113638085Y-99204500D01*
X113701867Y-99204500D01*
X113704839Y-99131162D01*
X113735893Y-99129671D01*
X113766948Y-99128180D01*
X113771298Y-99061392D01*
X113775647Y-98994603D01*
X113809787Y-98993108D01*
X113843927Y-98991612D01*
X113843927Y-98921691D01*
X113883125Y-98920214D01*
X113922322Y-98918737D01*
X113926797Y-98851722D01*
X113931271Y-98784707D01*
X113962924Y-98784707D01*
X113979318Y-98784334D01*
X113991297Y-98781826D01*
X113997694Y-98775186D01*
X114000252Y-98762423D01*
X114000717Y-98741544D01*
X114000717Y-98714381D01*
X114063939Y-98711369D01*
X114066468Y-98670908D01*
X114068997Y-98630446D01*
X114102911Y-98628955D01*
X114136824Y-98627465D01*
X114138315Y-98593551D01*
X114139805Y-98559637D01*
X114175209Y-98557108D01*
X114210614Y-98554579D01*
X114212119Y-98522968D01*
X114213625Y-98491358D01*
X114242719Y-98491358D01*
X114255196Y-98490820D01*
X114269762Y-98488615D01*
X114277882Y-98485288D01*
X114280351Y-98480305D01*
X114282945Y-98467213D01*
X114283951Y-98450316D01*
X114283951Y-98421412D01*
X114318091Y-98418396D01*
X114334415Y-98416943D01*
X114360548Y-98414590D01*
X114383611Y-98412485D01*
X114414992Y-98409591D01*
X114416486Y-98378401D01*
X114417981Y-98347212D01*
X114454424Y-98345730D01*
X114490866Y-98344249D01*
X114492357Y-98310326D01*
X114493847Y-98276403D01*
X114534309Y-98273874D01*
X114574771Y-98271346D01*
X114576263Y-98240291D01*
X114577754Y-98209237D01*
X114711330Y-98200537D01*
X114712826Y-98166397D01*
X114714322Y-98132258D01*
X114736073Y-98132258D01*
X114740181Y-98132215D01*
X114757844Y-98131622D01*
X114780445Y-98130479D01*
X114804122Y-98128971D01*
X114850418Y-98125685D01*
X114850418Y-98095937D01*
X114850627Y-98086406D01*
X114852656Y-98070643D01*
X114856741Y-98064157D01*
X114857065Y-98064068D01*
X114865241Y-98063004D01*
X114881146Y-98061654D01*
X114902632Y-98060180D01*
X114927549Y-98058748D01*
X114992035Y-98055373D01*
X114992035Y-97980525D01*
X115016060Y-97980499D01*
X115022043Y-97980424D01*
X115041211Y-97979792D01*
X115065002Y-97978658D01*
X115089618Y-97977193D01*
X115139152Y-97973913D01*
X115137667Y-97943079D01*
X115136181Y-97912246D01*
X115100777Y-97910580D01*
X115082280Y-97910207D01*
X115056576Y-97910406D01*
X115027535Y-97911141D01*
X114998586Y-97912351D01*
X114931799Y-97915786D01*
X114930306Y-97946891D01*
X114928814Y-97977996D01*
X114858005Y-97980525D01*
X114787197Y-97983054D01*
X114784247Y-98061166D01*
X114714914Y-98062572D01*
X114645580Y-98063978D01*
X114642616Y-98131056D01*
X114496832Y-98138344D01*
X114495340Y-98169441D01*
X114493847Y-98200537D01*
X114457405Y-98202019D01*
X114420962Y-98203500D01*
X114419472Y-98237423D01*
X114417981Y-98271346D01*
X114284405Y-98280046D01*
X114282913Y-98311100D01*
X114281422Y-98342154D01*
X114210614Y-98347212D01*
X114209118Y-98381352D01*
X114207623Y-98415491D01*
X114137738Y-98415491D01*
X114136243Y-98449631D01*
X114134747Y-98483771D01*
X114100834Y-98485261D01*
X114066920Y-98486752D01*
X114065429Y-98520666D01*
X114063939Y-98554579D01*
X114030025Y-98556070D01*
X113996111Y-98557560D01*
X113993131Y-98625388D01*
X113959199Y-98626879D01*
X113925268Y-98628369D01*
X113923795Y-98667341D01*
X113922322Y-98706312D01*
X113844380Y-98709258D01*
X113841398Y-98777120D01*
X113807484Y-98778611D01*
X113773570Y-98780101D01*
X113770590Y-98847929D01*
X113702762Y-98850909D01*
X113701272Y-98884823D01*
X113699781Y-98918737D01*
X113665642Y-98920233D01*
X113631502Y-98921728D01*
X113631502Y-98991612D01*
X113597362Y-98993108D01*
X113563222Y-98994603D01*
X113558761Y-99061394D01*
X113554300Y-99128186D01*
X113492414Y-99131162D01*
X113489885Y-99166567D01*
X113487356Y-99201971D01*
X113453731Y-99203455D01*
X113420106Y-99204938D01*
X113416462Y-99277831D01*
X113412818Y-99350723D01*
X113381808Y-99352213D01*
X113350797Y-99353703D01*
X113345739Y-99429569D01*
X113314363Y-99431069D01*
X113282988Y-99432569D01*
X113281488Y-99463944D01*
X113279988Y-99495320D01*
X112478336Y-99497910D01*
X112478336Y-99562446D01*
X112334190Y-99571186D01*
X112332701Y-99602130D01*
X112331213Y-99633073D01*
X112197631Y-99641995D01*
X112196140Y-99675909D01*
X112194650Y-99709822D01*
X112160736Y-99711313D01*
X112126822Y-99712803D01*
X112122400Y-99782347D01*
X112117977Y-99851891D01*
X112055031Y-99851891D01*
X112051752Y-99908791D01*
X112051336Y-99918313D01*
X112050758Y-99940532D01*
X112050265Y-99970833D01*
X112049855Y-100008146D01*
X112049527Y-100051401D01*
X112049278Y-100099527D01*
X112049108Y-100151453D01*
X112049015Y-100206109D01*
X112048999Y-100262424D01*
X112049057Y-100319329D01*
X112049189Y-100375753D01*
X112049393Y-100430625D01*
X112049667Y-100482874D01*
X112050011Y-100531431D01*
X112050423Y-100575225D01*
X112050901Y-100613186D01*
X112051445Y-100644242D01*
X112052052Y-100667324D01*
X112052723Y-100681362D01*
X112056014Y-100724352D01*
X112118224Y-100727338D01*
X112121857Y-100795172D01*
X112125490Y-100863005D01*
X112159032Y-100864487D01*
X112192573Y-100865969D01*
X112194063Y-100899883D01*
X112195554Y-100933797D01*
X112229468Y-100935287D01*
X112263381Y-100936778D01*
X112263381Y-101073337D01*
X112229468Y-101074827D01*
X112195554Y-101076318D01*
X112194063Y-101110231D01*
X112192573Y-101144145D01*
X112125323Y-101147113D01*
X112118035Y-101292897D01*
X112087025Y-101294387D01*
X112056014Y-101295878D01*
X112052756Y-101341397D01*
X112052403Y-101347895D01*
X112051793Y-101367153D01*
X112051239Y-101394941D01*
X112050744Y-101430229D01*
X112050307Y-101471989D01*
X112049932Y-101519191D01*
X112049617Y-101570807D01*
X112049366Y-101625807D01*
X112049179Y-101683161D01*
X112049058Y-101741842D01*
X112049003Y-101800820D01*
X112049016Y-101859065D01*
X112049099Y-101915549D01*
X112049253Y-101969242D01*
X112049478Y-102019116D01*
X112049776Y-102064141D01*
X112050149Y-102103289D01*
X112050598Y-102135529D01*
X112051078Y-102157761D01*
X112051123Y-102159833D01*
X112051727Y-102175172D01*
X112055026Y-102229099D01*
X112769156Y-102226503D01*
X112771685Y-101834528D01*
X112774214Y-101442552D01*
X112808128Y-101441062D01*
X112842041Y-101439572D01*
X112843532Y-101405658D01*
X112845022Y-101371744D01*
X112981581Y-101371744D01*
X112984688Y-101533592D01*
X112985090Y-101554307D01*
X112985861Y-101593169D01*
X112986588Y-101628606D01*
X112987243Y-101659281D01*
X112987796Y-101683854D01*
X112988219Y-101700989D01*
X112988482Y-101709348D01*
X112988547Y-101710599D01*
X112989648Y-101717776D01*
X112993551Y-101721549D01*
X113002694Y-101723012D01*
X113019514Y-101723257D01*
X113049861Y-101723257D01*
X113050557Y-101744753D01*
X113050736Y-101750774D01*
X113051194Y-101767414D01*
X113051828Y-101791375D01*
X113052595Y-101820955D01*
X113053451Y-101854451D01*
X113054350Y-101890163D01*
X113057448Y-102014078D01*
X113089058Y-102015583D01*
X113120669Y-102017089D01*
X113121354Y-102040872D01*
X113121525Y-102046382D01*
X113122123Y-102063870D01*
X113122984Y-102087846D01*
X113124022Y-102115890D01*
X113125148Y-102145579D01*
X113128256Y-102226503D01*
X113161131Y-102229032D01*
X113194007Y-102231561D01*
X113196536Y-102302369D01*
X113199064Y-102373178D01*
X113235116Y-102374651D01*
X113271168Y-102376125D01*
X113275578Y-102445460D01*
X113279988Y-102514794D01*
X113310999Y-102516285D01*
X113342010Y-102517775D01*
X113349298Y-102663559D01*
X113416548Y-102666527D01*
X113420897Y-102733315D01*
X113425247Y-102800103D01*
X113456302Y-102801595D01*
X113487356Y-102803086D01*
X113488837Y-102839528D01*
X113490319Y-102875971D01*
X113524242Y-102877462D01*
X113558164Y-102878952D01*
X113560693Y-102914356D01*
X113563222Y-102949761D01*
X113594833Y-102951266D01*
X113626444Y-102952772D01*
X113626444Y-102985108D01*
X113627055Y-103000844D01*
X113628883Y-103014245D01*
X113631502Y-103020569D01*
X113633700Y-103024910D01*
X113635763Y-103037004D01*
X113636559Y-103053502D01*
X113636559Y-103083308D01*
X113699781Y-103086320D01*
X113704839Y-103157128D01*
X113772701Y-103160110D01*
X113775647Y-103238052D01*
X113809561Y-103239542D01*
X113843475Y-103241033D01*
X113844966Y-103274947D01*
X113846456Y-103308861D01*
X113924398Y-103311807D01*
X113927380Y-103379669D01*
X113961294Y-103381159D01*
X113995208Y-103382650D01*
X113996698Y-103416564D01*
X113998188Y-103450477D01*
X114032102Y-103451968D01*
X114066016Y-103453458D01*
X114067506Y-103487372D01*
X114068997Y-103521286D01*
X114139805Y-103526344D01*
X114141311Y-103557955D01*
X114142817Y-103589565D01*
X114172623Y-103589565D01*
X114185893Y-103590071D01*
X114199184Y-103591907D01*
X114205556Y-103594623D01*
X114210947Y-103597026D01*
X114223818Y-103598945D01*
X114241017Y-103599681D01*
X114273353Y-103599681D01*
X114274859Y-103631292D01*
X114276364Y-103662903D01*
X114311769Y-103665432D01*
X114347173Y-103667960D01*
X114348663Y-103701883D01*
X114350154Y-103735806D01*
X114386596Y-103737287D01*
X114423039Y-103738769D01*
X114426025Y-103800999D01*
X114490283Y-103804307D01*
X114492591Y-103804426D01*
X114517408Y-103805761D01*
X114538740Y-103806999D01*
X114554382Y-103808007D01*
X114562127Y-103808651D01*
X114564522Y-103809625D01*
X114567840Y-103815452D01*
X114569934Y-103827947D01*
X114571191Y-103848830D01*
X114572668Y-103887972D01*
X114594438Y-103887972D01*
X114598432Y-103888013D01*
X114616063Y-103888600D01*
X114638641Y-103889739D01*
X114662283Y-103891243D01*
X114708357Y-103894513D01*
X114709844Y-103925383D01*
X114711330Y-103956252D01*
X114780649Y-103960661D01*
X114849968Y-103965071D01*
X114851458Y-103996066D01*
X114852947Y-104027060D01*
X114923756Y-104029589D01*
X114994564Y-104032118D01*
X114996070Y-104063729D01*
X114997117Y-104080011D01*
X114999003Y-104090052D01*
X115002562Y-104094384D01*
X115008714Y-104095300D01*
X115009143Y-104095302D01*
X115018450Y-104095644D01*
X115035917Y-104096506D01*
X115059790Y-104097792D01*
X115088317Y-104099409D01*
X115119743Y-104101263D01*
X115219634Y-104107266D01*
X115219634Y-104165020D01*
X115284120Y-104168024D01*
X115288792Y-104168240D01*
X115319984Y-104169639D01*
X115356396Y-104171213D01*
X115393874Y-104172785D01*
X115428266Y-104174178D01*
X115507925Y-104177329D01*
X115507925Y-104206721D01*
X115507704Y-104216197D01*
X115505646Y-104231865D01*
X115501603Y-104238665D01*
X115497657Y-104238807D01*
X115483915Y-104238971D01*
X115460633Y-104239129D01*
X115428123Y-104239283D01*
X115386698Y-104239432D01*
X115336670Y-104239576D01*
X115278349Y-104239715D01*
X115212049Y-104239849D01*
X115138081Y-104239978D01*
X115056758Y-104240102D01*
X114968390Y-104240222D01*
X114873291Y-104240336D01*
X114771773Y-104240445D01*
X114664146Y-104240549D01*
X114550723Y-104240649D01*
X114431817Y-104240743D01*
X114307738Y-104240832D01*
X114178800Y-104240916D01*
X114045314Y-104240995D01*
X113907592Y-104241069D01*
X113765945Y-104241138D01*
X113620687Y-104241202D01*
X113472129Y-104241261D01*
X113320582Y-104241314D01*
X113166360Y-104241363D01*
X113009773Y-104241406D01*
X112851134Y-104241444D01*
X112690755Y-104241477D01*
X112528948Y-104241505D01*
X112366024Y-104241527D01*
X112202296Y-104241544D01*
X112038076Y-104241557D01*
X111873676Y-104241563D01*
X111709407Y-104241565D01*
X111545582Y-104241561D01*
X111382512Y-104241552D01*
X111220510Y-104241538D01*
X111059888Y-104241519D01*
X110900957Y-104241494D01*
X110744029Y-104241464D01*
X110589417Y-104241428D01*
X110437433Y-104241388D01*
X110288388Y-104241341D01*
X110142594Y-104241290D01*
X110000364Y-104241233D01*
X109862009Y-104241171D01*
X109727841Y-104241103D01*
X109598173Y-104241030D01*
X109473316Y-104240951D01*
X109353582Y-104240867D01*
X109239283Y-104240778D01*
X109130731Y-104240683D01*
X109028239Y-104240582D01*
X108932118Y-104240476D01*
X108842680Y-104240365D01*
X108760237Y-104240248D01*
X108685101Y-104240125D01*
X108617584Y-104239997D01*
X108557998Y-104239864D01*
X108506655Y-104239724D01*
X108463867Y-104239580D01*
X108429946Y-104239429D01*
X108405204Y-104239273D01*
X108389952Y-104239112D01*
X108384504Y-104238945D01*
X108380057Y-104234995D01*
X108377307Y-104224875D01*
X108376504Y-104206792D01*
X108376504Y-104177710D01*
X108327191Y-104174507D01*
X108316693Y-104173829D01*
X108286147Y-104171884D01*
X108253250Y-104169819D01*
X108223507Y-104167981D01*
X108169136Y-104164659D01*
X108169136Y-104101621D01*
X108096027Y-104097966D01*
X108022917Y-104094311D01*
X108021425Y-104063215D01*
X108019933Y-104032118D01*
X107984528Y-104029589D01*
X107949124Y-104027060D01*
X107947629Y-103992921D01*
X107946133Y-103958781D01*
X107875787Y-103958781D01*
X107875787Y-103887972D01*
X107804978Y-103887972D01*
X107804978Y-103807511D01*
X107770839Y-103806015D01*
X107736699Y-103804520D01*
X107734170Y-103769115D01*
X107731641Y-103733711D01*
X107700536Y-103732219D01*
X107669431Y-103730726D01*
X107662165Y-103595058D01*
X107628623Y-103593576D01*
X107595082Y-103592094D01*
X107591958Y-103513699D01*
X107591472Y-103501419D01*
X107590351Y-103472455D01*
X107589365Y-103446114D01*
X107588605Y-103424891D01*
X107588165Y-103411280D01*
X107587495Y-103387256D01*
X107557690Y-103387256D01*
X107540219Y-103386583D01*
X107529505Y-103384084D01*
X107524815Y-103379255D01*
X107524758Y-103378819D01*
X107524528Y-103370843D01*
X107524307Y-103353228D01*
X107524095Y-103326360D01*
X107523893Y-103290622D01*
X107523701Y-103246400D01*
X107523518Y-103194077D01*
X107523345Y-103134039D01*
X107523181Y-103066671D01*
X107523027Y-102992357D01*
X107522882Y-102911482D01*
X107522746Y-102824430D01*
X107522620Y-102731587D01*
X107522504Y-102633337D01*
X107522396Y-102530064D01*
X107522298Y-102422154D01*
X107522210Y-102309990D01*
X107522130Y-102193959D01*
X107522089Y-102124497D01*
X107730489Y-102124497D01*
X107730526Y-102141711D01*
X107731368Y-102151350D01*
X107734363Y-102163281D01*
X108124977Y-102162620D01*
X108131357Y-102162609D01*
X108194200Y-102162455D01*
X108254789Y-102162231D01*
X108312249Y-102161944D01*
X108365709Y-102161602D01*
X108414294Y-102161213D01*
X108457130Y-102160784D01*
X108493345Y-102160323D01*
X108522065Y-102159838D01*
X108542416Y-102159337D01*
X108553525Y-102158827D01*
X108591458Y-102155694D01*
X108593987Y-102087415D01*
X108596516Y-102019135D01*
X108629391Y-102016606D01*
X108662266Y-102014078D01*
X108666781Y-101939476D01*
X108671295Y-101864874D01*
X108744499Y-101864874D01*
X108748144Y-101796823D01*
X108751789Y-101728771D01*
X108782894Y-101727279D01*
X108813999Y-101725786D01*
X108816528Y-101687853D01*
X108819056Y-101649920D01*
X108850111Y-101648429D01*
X108881165Y-101646937D01*
X108889865Y-101513361D01*
X108922740Y-101510832D01*
X108955616Y-101508303D01*
X108960038Y-101438759D01*
X108964461Y-101369215D01*
X109027901Y-101369215D01*
X109031556Y-101296103D01*
X109035211Y-101222992D01*
X109066222Y-101221502D01*
X109097233Y-101220011D01*
X109099761Y-101182078D01*
X109102290Y-101144145D01*
X109133345Y-101142654D01*
X109164399Y-101141163D01*
X109168749Y-101074374D01*
X109173099Y-101007586D01*
X109238849Y-101002528D01*
X109241378Y-100934249D01*
X109243907Y-100865969D01*
X109277449Y-100864487D01*
X109310990Y-100863005D01*
X109314624Y-100795155D01*
X109318258Y-100727304D01*
X109390582Y-100724352D01*
X109395640Y-100648486D01*
X109426584Y-100646998D01*
X109457529Y-100645509D01*
X109461988Y-100573660D01*
X109466448Y-100501812D01*
X109499323Y-100499283D01*
X109532199Y-100496754D01*
X109534728Y-100428474D01*
X109537256Y-100360195D01*
X109603007Y-100360195D01*
X109608065Y-100431003D01*
X109638934Y-100432490D01*
X109669803Y-100433976D01*
X109673074Y-100480051D01*
X109673588Y-100487566D01*
X109674995Y-100511284D01*
X109675976Y-100532682D01*
X109676344Y-100547877D01*
X109676344Y-100569629D01*
X109710484Y-100571124D01*
X109744624Y-100572620D01*
X109747153Y-100645957D01*
X109749682Y-100719295D01*
X109782557Y-100721823D01*
X109815432Y-100724352D01*
X109819782Y-100791141D01*
X109824132Y-100857929D01*
X109855187Y-100859420D01*
X109886241Y-100860912D01*
X109891299Y-100936778D01*
X109922404Y-100938270D01*
X109953509Y-100939763D01*
X109957153Y-101007814D01*
X109960798Y-101075866D01*
X110034186Y-101075866D01*
X110038608Y-101145410D01*
X110043031Y-101214954D01*
X110075861Y-101217483D01*
X110094947Y-101219658D01*
X110105897Y-101222893D01*
X110109717Y-101227598D01*
X110109756Y-101227911D01*
X110110434Y-101236450D01*
X110111465Y-101252690D01*
X110112716Y-101274423D01*
X110114052Y-101299443D01*
X110117361Y-101363700D01*
X110148475Y-101365193D01*
X110179590Y-101366686D01*
X110184648Y-101442552D01*
X110246858Y-101445538D01*
X110250503Y-101513589D01*
X110254147Y-101581640D01*
X110317420Y-101581640D01*
X110321842Y-101651184D01*
X110326265Y-101720728D01*
X110392015Y-101725786D01*
X110396438Y-101795330D01*
X110400860Y-101864874D01*
X110464944Y-101864874D01*
X110466413Y-101906600D01*
X110467882Y-101948327D01*
X110498987Y-101949820D01*
X110530092Y-101951312D01*
X110533736Y-102019364D01*
X110537381Y-102087415D01*
X110601912Y-102087415D01*
X110601912Y-102119279D01*
X110602495Y-102133859D01*
X110604672Y-102148989D01*
X110607981Y-102157212D01*
X110608081Y-102157300D01*
X110611961Y-102158461D01*
X110620806Y-102159461D01*
X110635130Y-102160307D01*
X110655450Y-102161004D01*
X110682280Y-102161560D01*
X110716134Y-102161982D01*
X110757529Y-102162274D01*
X110806979Y-102162445D01*
X110864998Y-102162500D01*
X110932103Y-102162446D01*
X111008808Y-102162290D01*
X111019408Y-102162263D01*
X111082323Y-102162077D01*
X111142839Y-102161857D01*
X111200098Y-102161608D01*
X111253243Y-102161336D01*
X111301416Y-102161047D01*
X111343761Y-102160745D01*
X111379419Y-102160437D01*
X111407534Y-102160129D01*
X111427248Y-102159825D01*
X111437704Y-102159531D01*
X111471844Y-102157761D01*
X111471844Y-102087415D01*
X111406094Y-102087415D01*
X111406094Y-102065432D01*
X111406053Y-102061429D01*
X111405467Y-102043706D01*
X111404328Y-102021054D01*
X111402823Y-101997375D01*
X111399553Y-101951300D01*
X111368683Y-101949813D01*
X111337814Y-101948327D01*
X111332756Y-101862345D01*
X111260904Y-101859403D01*
X111257633Y-101813313D01*
X111257117Y-101805782D01*
X111255711Y-101782062D01*
X111254730Y-101760665D01*
X111254361Y-101745471D01*
X111254361Y-101723719D01*
X111220221Y-101722224D01*
X111186082Y-101720728D01*
X111183553Y-101652449D01*
X111181024Y-101584169D01*
X111146884Y-101582674D01*
X111112744Y-101581178D01*
X111112744Y-101559426D01*
X111112704Y-101555433D01*
X111112117Y-101537810D01*
X111110978Y-101515238D01*
X111109474Y-101491600D01*
X111106203Y-101445525D01*
X111075334Y-101444039D01*
X111044465Y-101442552D01*
X111039407Y-101366686D01*
X111008544Y-101365200D01*
X110977682Y-101363713D01*
X110974431Y-101314622D01*
X110973786Y-101304411D01*
X110972446Y-101279741D01*
X110971512Y-101257496D01*
X110971154Y-101241507D01*
X110971127Y-101217483D01*
X110906635Y-101217483D01*
X110902213Y-101147939D01*
X110897790Y-101078395D01*
X110864915Y-101075866D01*
X110832039Y-101073337D01*
X110827689Y-101006549D01*
X110823339Y-100939760D01*
X110761231Y-100936778D01*
X110756173Y-100860912D01*
X110693963Y-100857926D01*
X110690318Y-100789875D01*
X110686674Y-100721823D01*
X110613064Y-100721823D01*
X110609681Y-100652279D01*
X110609324Y-100645121D01*
X110607930Y-100619994D01*
X110606542Y-100598847D01*
X110605304Y-100583722D01*
X110604359Y-100576661D01*
X110601058Y-100573961D01*
X110589141Y-100570876D01*
X110570555Y-100569075D01*
X110538690Y-100567562D01*
X110529990Y-100433986D01*
X110498936Y-100432494D01*
X110467882Y-100431003D01*
X110462824Y-100355137D01*
X110431719Y-100353644D01*
X110400614Y-100352152D01*
X110396969Y-100284100D01*
X110393324Y-100216049D01*
X110330052Y-100216049D01*
X110325630Y-100146505D01*
X110321207Y-100076961D01*
X110288332Y-100074432D01*
X110255456Y-100071903D01*
X110250997Y-100000054D01*
X110246537Y-99928205D01*
X110215592Y-99926717D01*
X110184648Y-99925229D01*
X110182119Y-99887295D01*
X110179590Y-99849362D01*
X110148485Y-99847870D01*
X110117380Y-99846377D01*
X110113735Y-99778326D01*
X110110091Y-99710274D01*
X110046502Y-99710274D01*
X110039226Y-99569060D01*
X110000667Y-99567594D01*
X109962107Y-99566129D01*
X109960612Y-99531989D01*
X109959116Y-99497849D01*
X109171013Y-99497849D01*
X109169527Y-99534518D01*
X109168041Y-99571186D01*
X109105831Y-99574172D01*
X109102198Y-99642006D01*
X109098565Y-99709839D01*
X109065023Y-99711321D01*
X109031482Y-99712803D01*
X109028953Y-99781083D01*
X109026424Y-99849362D01*
X108993549Y-99851891D01*
X108960673Y-99854420D01*
X108956159Y-99929022D01*
X108951644Y-100003624D01*
X108888556Y-100003624D01*
X108881266Y-100139726D01*
X108819056Y-100142712D01*
X108816528Y-100180645D01*
X108813999Y-100218578D01*
X108782944Y-100220069D01*
X108751890Y-100221560D01*
X108747540Y-100288349D01*
X108743190Y-100355137D01*
X108667324Y-100360195D01*
X108662902Y-100429739D01*
X108658479Y-100499283D01*
X108595038Y-100499283D01*
X108591384Y-100572394D01*
X108587729Y-100645506D01*
X108525707Y-100648486D01*
X108520649Y-100724352D01*
X108489595Y-100725844D01*
X108458541Y-100727335D01*
X108454191Y-100794123D01*
X108449841Y-100860912D01*
X108416966Y-100863440D01*
X108384090Y-100865969D01*
X108379668Y-100935513D01*
X108375245Y-101005057D01*
X108310753Y-101005057D01*
X108310753Y-101027040D01*
X108310713Y-101031044D01*
X108310127Y-101048766D01*
X108308987Y-101071419D01*
X108307483Y-101095098D01*
X108304212Y-101141172D01*
X108273343Y-101142659D01*
X108242473Y-101144145D01*
X108239945Y-101182078D01*
X108237416Y-101220011D01*
X108206319Y-101221504D01*
X108175223Y-101222996D01*
X108167935Y-101368780D01*
X108100857Y-101371744D01*
X108098328Y-101440023D01*
X108095799Y-101508303D01*
X108019933Y-101513361D01*
X108011011Y-101646943D01*
X107980067Y-101648431D01*
X107949124Y-101649920D01*
X107944702Y-101719464D01*
X107940279Y-101789008D01*
X107875787Y-101789008D01*
X107875787Y-101864412D01*
X107841647Y-101865907D01*
X107807507Y-101867403D01*
X107804978Y-101940740D01*
X107802450Y-102014078D01*
X107769574Y-102016606D01*
X107736699Y-102019135D01*
X107732536Y-102079278D01*
X107731218Y-102102212D01*
X107730489Y-102124497D01*
X107522089Y-102124497D01*
X107522060Y-102074444D01*
X107521999Y-101951830D01*
X107521948Y-101826503D01*
X107521905Y-101698845D01*
X107521872Y-101569243D01*
X107521848Y-101438082D01*
X107521833Y-101305744D01*
X107521828Y-101172617D01*
X107521831Y-101039083D01*
X107521844Y-100905528D01*
X107521865Y-100772337D01*
X107521896Y-100639894D01*
X107521935Y-100508584D01*
X107521984Y-100378792D01*
X107522042Y-100250902D01*
X107522109Y-100125299D01*
X107522184Y-100002368D01*
X107522269Y-99882493D01*
X107522363Y-99766059D01*
X107522465Y-99653451D01*
X107522576Y-99545054D01*
X107522696Y-99441252D01*
X107522826Y-99342430D01*
X107522963Y-99248973D01*
X107523110Y-99161265D01*
X107523266Y-99079692D01*
X107523430Y-99004637D01*
X107523603Y-98936485D01*
X107523784Y-98875622D01*
X107523975Y-98822432D01*
X107524174Y-98777299D01*
X107524382Y-98740608D01*
X107524598Y-98712745D01*
X107524823Y-98694093D01*
X107525057Y-98685038D01*
X107528323Y-98628360D01*
X107559173Y-98626874D01*
X107590024Y-98625388D01*
X107592553Y-98554579D01*
X107595082Y-98483771D01*
X107625951Y-98482284D01*
X107656821Y-98480798D01*
X107660091Y-98434723D01*
X107660605Y-98427208D01*
X107662012Y-98403490D01*
X107662993Y-98382092D01*
X107663362Y-98366897D01*
X107663362Y-98345145D01*
X107697501Y-98343650D01*
X107731641Y-98342154D01*
X107736116Y-98275139D01*
X107740590Y-98208124D01*
X107769244Y-98208124D01*
X107781278Y-98207609D01*
X107795825Y-98205404D01*
X107803967Y-98202054D01*
X107806485Y-98196877D01*
X107809044Y-98183663D01*
X107810036Y-98166650D01*
X107810036Y-98137315D01*
X107839371Y-98137315D01*
X107852091Y-98136765D01*
X107866667Y-98134561D01*
X107874775Y-98131246D01*
X107877244Y-98126263D01*
X107879838Y-98113171D01*
X107880845Y-98096273D01*
X107880845Y-98067370D01*
X107913720Y-98064410D01*
X107928173Y-98063107D01*
X107954927Y-98060695D01*
X107979258Y-98058498D01*
X108011920Y-98055547D01*
X108013397Y-98019301D01*
X108014875Y-97983054D01*
X108056601Y-97981585D01*
X108098328Y-97980116D01*
X108098328Y-97915717D01*
X108169136Y-97912068D01*
X108239945Y-97908420D01*
X108239945Y-97845492D01*
X108289258Y-97842226D01*
X108296619Y-97841765D01*
X108303160Y-97841437D01*
X115141239Y-97841437D01*
X115141239Y-97907188D01*
X115212336Y-97908585D01*
X115221251Y-97908732D01*
X115246100Y-97908829D01*
X115266614Y-97908449D01*
X115280869Y-97907647D01*
X115286938Y-97906478D01*
X115288589Y-97901009D01*
X115289928Y-97888038D01*
X115290442Y-97870806D01*
X115290442Y-97838638D01*
X115215841Y-97840038D01*
X115141239Y-97841437D01*
X108303160Y-97841437D01*
X108325317Y-97840326D01*
X108354559Y-97839309D01*
X108379033Y-97838908D01*
X108385234Y-97838868D01*
X108411613Y-97838271D01*
X108441242Y-97837113D01*
X108468808Y-97835590D01*
X108518121Y-97832325D01*
X108518121Y-97774769D01*
X108628127Y-97771447D01*
X108633273Y-97771335D01*
X108650402Y-97771132D01*
X108677038Y-97770936D01*
X108712852Y-97770746D01*
X108757518Y-97770563D01*
X108810709Y-97770387D01*
X108872097Y-97770218D01*
X108941356Y-97770056D01*
X109018159Y-97769900D01*
X109102179Y-97769751D01*
X109193088Y-97769609D01*
X109290560Y-97769474D01*
X109394268Y-97769346D01*
X109503884Y-97769224D01*
X109619082Y-97769110D01*
X109739535Y-97769002D01*
X109864915Y-97768901D01*
X109994895Y-97768806D01*
X110129149Y-97768719D01*
X110267349Y-97768638D01*
X110409169Y-97768565D01*
X110554282Y-97768498D01*
X110702359Y-97768437D01*
X110853076Y-97768384D01*
X111006103Y-97768338D01*
X111161115Y-97768298D01*
X111317784Y-97768265D01*
X111475784Y-97768239D01*
X111634786Y-97768220D01*
X111794465Y-97768207D01*
X111954494Y-97768202D01*
X112114544Y-97768203D01*
X112274290Y-97768211D01*
X112433403Y-97768226D01*
X112591558Y-97768248D01*
X112748427Y-97768277D01*
X112903683Y-97768312D01*
X113057000Y-97768355D01*
X113208049Y-97768404D01*
X113356504Y-97768460D01*
X113502038Y-97768523D01*
X113644325Y-97768592D01*
X113783036Y-97768669D01*
X113917845Y-97768752D01*
X114048425Y-97768842D01*
X114174449Y-97768939D01*
X114295590Y-97769043D01*
X114411520Y-97769154D01*
X114521914Y-97769272D01*
X114626443Y-97769396D01*
X114724781Y-97769527D01*
X114816601Y-97769666D01*
X114901576Y-97769811D01*
X114979378Y-97769963D01*
X115049681Y-97770121D01*
X115112158Y-97770287D01*
X115166481Y-97770459D01*
X115212324Y-97770639D01*
X115249359Y-97770825D01*
X115277260Y-97771018D01*
X115295700Y-97771218D01*
X115304351Y-97771425D01*
X115361251Y-97774703D01*
X115361251Y-97833851D01*
X115502868Y-97833851D01*
X115502868Y-97774735D01*
X115615403Y-97771469D01*
X115624996Y-97771250D01*
X115648347Y-97770911D01*
X115680921Y-97770592D01*
X115722164Y-97770291D01*
X115771525Y-97770009D01*
X115828452Y-97769746D01*
X115892392Y-97769502D01*
X115962794Y-97769278D01*
X116039105Y-97769072D01*
X116120774Y-97768886D01*
X116207249Y-97768719D01*
X116297977Y-97768572D01*
X116392407Y-97768443D01*
X116489987Y-97768334D01*
X116590163Y-97768245D01*
X116692386Y-97768175D01*
X116796102Y-97768124D01*
X116900759Y-97768093D01*
X117005806Y-97768082D01*
X117110690Y-97768090D01*
X117214860Y-97768117D01*
X117317763Y-97768165D01*
X117418847Y-97768232D01*
X117517561Y-97768319D01*
X117613352Y-97768426D01*
X117705668Y-97768553D01*
X117793958Y-97768699D01*
X117877668Y-97768866D01*
X117956249Y-97769052D01*
X118029146Y-97769259D01*
X118095809Y-97769486D01*
X118155684Y-97769732D01*
X118208221Y-97769999D01*
X118252868Y-97770286D01*
X118289071Y-97770594D01*
X118316279Y-97770921D01*
X118333941Y-97771269D01*
X118456591Y-97774725D01*
X118456591Y-97832713D01*
X118527400Y-97835811D01*
X118555877Y-97837057D01*
X118592033Y-97838638D01*
X118594914Y-97838764D01*
G37*
G36*
X108611252Y-89474313D02*
G01*
X108647868Y-89483378D01*
X108691576Y-89487433D01*
X108705343Y-89487858D01*
X108753014Y-89492441D01*
X108803228Y-89500432D01*
X108843932Y-89508031D01*
X108904509Y-89518561D01*
X108964949Y-89528415D01*
X108998341Y-89533774D01*
X109035815Y-89542025D01*
X109058988Y-89553851D01*
X109075707Y-89574068D01*
X109093821Y-89607493D01*
X109105339Y-89629381D01*
X109129646Y-89673149D01*
X109149320Y-89705693D01*
X109163908Y-89729197D01*
X109188504Y-89771279D01*
X109214835Y-89818233D01*
X109232115Y-89849723D01*
X109275818Y-89929016D01*
X109308582Y-89987774D01*
X109331892Y-90028615D01*
X109347236Y-90054158D01*
X109356100Y-90067020D01*
X109360195Y-90072356D01*
X109377897Y-90098154D01*
X109401913Y-90135166D01*
X109427993Y-90176585D01*
X109451885Y-90215603D01*
X109469338Y-90245410D01*
X109476101Y-90259199D01*
X109477643Y-90264171D01*
X109490100Y-90282611D01*
X109500016Y-90295840D01*
X109521729Y-90327511D01*
X109547746Y-90367293D01*
X109567422Y-90397234D01*
X109591947Y-90432339D01*
X109608295Y-90453047D01*
X109608735Y-90453509D01*
X109627593Y-90477807D01*
X109649079Y-90511022D01*
X109651487Y-90515010D01*
X109670215Y-90540873D01*
X109683660Y-90551450D01*
X109687842Y-90552880D01*
X109694360Y-90569339D01*
X109700144Y-90587214D01*
X109718603Y-90613673D01*
X109723084Y-90618723D01*
X109748662Y-90650561D01*
X109775932Y-90687862D01*
X109782464Y-90697110D01*
X109808923Y-90731800D01*
X109830276Y-90756068D01*
X109836409Y-90762381D01*
X109861004Y-90791033D01*
X109888693Y-90826504D01*
X109898450Y-90839483D01*
X109924497Y-90872879D01*
X109943107Y-90895039D01*
X109946474Y-90898747D01*
X109967229Y-90922477D01*
X109998569Y-90958955D01*
X110035121Y-91001940D01*
X110043784Y-91012134D01*
X110083310Y-91057741D01*
X110119079Y-91097715D01*
X110144251Y-91124382D01*
X110160825Y-91141604D01*
X110194149Y-91177686D01*
X110235945Y-91223918D01*
X110280873Y-91274436D01*
X110316833Y-91315047D01*
X110356105Y-91358991D01*
X110386572Y-91392625D01*
X110403644Y-91410848D01*
X110414358Y-91421854D01*
X110451385Y-91462290D01*
X110497445Y-91514808D01*
X110547068Y-91572947D01*
X110594781Y-91630250D01*
X110635113Y-91680257D01*
X110662592Y-91716510D01*
X110673521Y-91731502D01*
X110716579Y-91785378D01*
X110761788Y-91836065D01*
X110770389Y-91843346D01*
X110783444Y-91849381D01*
X110803789Y-91853871D01*
X110834755Y-91857040D01*
X110879675Y-91859114D01*
X110941881Y-91860317D01*
X111024704Y-91860874D01*
X111131476Y-91861009D01*
X111152260Y-91861005D01*
X111266715Y-91860622D01*
X111358648Y-91859055D01*
X111432158Y-91855516D01*
X111491345Y-91849220D01*
X111540310Y-91839380D01*
X111583150Y-91825208D01*
X111623967Y-91805918D01*
X111666859Y-91780723D01*
X111715927Y-91748837D01*
X111793615Y-91697314D01*
X112762892Y-91697314D01*
X112936553Y-91697354D01*
X113100320Y-91697512D01*
X113240302Y-91697828D01*
X113358318Y-91698341D01*
X113456186Y-91699091D01*
X113535728Y-91700117D01*
X113598761Y-91701459D01*
X113647105Y-91703156D01*
X113682580Y-91705248D01*
X113707004Y-91707774D01*
X113722198Y-91710774D01*
X113729980Y-91714287D01*
X113732169Y-91718352D01*
X113731021Y-91728057D01*
X113718251Y-91755865D01*
X113716374Y-91758145D01*
X113696997Y-91784978D01*
X113671737Y-91823514D01*
X113644788Y-91866866D01*
X113620345Y-91908149D01*
X113602603Y-91940475D01*
X113595757Y-91956958D01*
X113595478Y-91959775D01*
X113583707Y-91970139D01*
X113576070Y-91973855D01*
X113563948Y-91994012D01*
X113556284Y-92009998D01*
X113536141Y-92045400D01*
X113507247Y-92093130D01*
X113472986Y-92147476D01*
X113444083Y-92193183D01*
X113414073Y-92242393D01*
X113392257Y-92280216D01*
X113382023Y-92300940D01*
X113376030Y-92313691D01*
X113362265Y-92324812D01*
X113357163Y-92326611D01*
X113350214Y-92343831D01*
X113349170Y-92349284D01*
X113335363Y-92374553D01*
X113310638Y-92405217D01*
X113271062Y-92447583D01*
X112418111Y-92447583D01*
X112254400Y-92447509D01*
X112098819Y-92447231D01*
X111967004Y-92446711D01*
X111857114Y-92445910D01*
X111767308Y-92444788D01*
X111695745Y-92443306D01*
X111640584Y-92441426D01*
X111599983Y-92439108D01*
X111572102Y-92436314D01*
X111555099Y-92433004D01*
X111547134Y-92429140D01*
X111546872Y-92428872D01*
X111523270Y-92402699D01*
X111489898Y-92363487D01*
X111453648Y-92319578D01*
X111421410Y-92279318D01*
X111400074Y-92251051D01*
X111397169Y-92246881D01*
X111382850Y-92227397D01*
X111368241Y-92212806D01*
X111349486Y-92202401D01*
X111322730Y-92195474D01*
X111284115Y-92191318D01*
X111229787Y-92189225D01*
X111155888Y-92188488D01*
X111058563Y-92188399D01*
X110971666Y-92188093D01*
X110885684Y-92186651D01*
X110820798Y-92183678D01*
X110773588Y-92178792D01*
X110740633Y-92171612D01*
X110718515Y-92161756D01*
X110703813Y-92148844D01*
X110701338Y-92146336D01*
X110682276Y-92129175D01*
X110649518Y-92100731D01*
X110608369Y-92065628D01*
X110597869Y-92056594D01*
X110549470Y-92012773D01*
X110488453Y-91955113D01*
X110418880Y-91887680D01*
X110344811Y-91814543D01*
X110270308Y-91739766D01*
X110199431Y-91667418D01*
X110136241Y-91601564D01*
X110084799Y-91546273D01*
X110049165Y-91505610D01*
X110015855Y-91466081D01*
X109980283Y-91425542D01*
X109953677Y-91397007D01*
X109949332Y-91392566D01*
X109921277Y-91362143D01*
X109884161Y-91320134D01*
X109844806Y-91274235D01*
X109834017Y-91261497D01*
X109797586Y-91219198D01*
X109767243Y-91184987D01*
X109748670Y-91165306D01*
X109744160Y-91160732D01*
X109720453Y-91132531D01*
X109694360Y-91097100D01*
X109687965Y-91087977D01*
X109661541Y-91053217D01*
X109640056Y-91028893D01*
X109628328Y-91016472D01*
X109601690Y-90985078D01*
X109571555Y-90947046D01*
X109551524Y-90921190D01*
X109528739Y-90892671D01*
X109516719Y-90878840D01*
X109513898Y-90875835D01*
X109498051Y-90855391D01*
X109475831Y-90824275D01*
X109471159Y-90817624D01*
X109440500Y-90776959D01*
X109411692Y-90742567D01*
X109409295Y-90739919D01*
X109388959Y-90714719D01*
X109380612Y-90699207D01*
X109378028Y-90691647D01*
X109363111Y-90671785D01*
X109359002Y-90667281D01*
X109337640Y-90640547D01*
X109312614Y-90606015D01*
X109304545Y-90594484D01*
X109283692Y-90566077D01*
X109271420Y-90551450D01*
X109270091Y-90550096D01*
X109256129Y-90532015D01*
X109232182Y-90498646D01*
X109202556Y-90455961D01*
X109195571Y-90445782D01*
X109166920Y-90404692D01*
X109144984Y-90374266D01*
X109134046Y-90360472D01*
X109132820Y-90359183D01*
X109119239Y-90341176D01*
X109095745Y-90307769D01*
X109066589Y-90264984D01*
X109061280Y-90257118D01*
X109030945Y-90213299D01*
X109005528Y-90178331D01*
X108990070Y-90159183D01*
X108979890Y-90146097D01*
X108964528Y-90114849D01*
X108957036Y-90098903D01*
X108943173Y-90087647D01*
X108938177Y-90086202D01*
X108930451Y-90069758D01*
X108923052Y-90049598D01*
X108903168Y-90022584D01*
X108884217Y-90000008D01*
X108875886Y-89985385D01*
X108871335Y-89976021D01*
X108854244Y-89947851D01*
X108827427Y-89906095D01*
X108794038Y-89855746D01*
X108767188Y-89815373D01*
X108738737Y-89771407D01*
X108719353Y-89739984D01*
X108712191Y-89726102D01*
X108710668Y-89720737D01*
X108698162Y-89701706D01*
X108689972Y-89691499D01*
X108664956Y-89655865D01*
X108637069Y-89611677D01*
X108609891Y-89565198D01*
X108587003Y-89522693D01*
X108571985Y-89490428D01*
X108568416Y-89474668D01*
X108579632Y-89468273D01*
X108611252Y-89474313D01*
G37*
G36*
X112615949Y-80499155D02*
G01*
X112763126Y-80500177D01*
X112908836Y-80502083D01*
X113049431Y-80504845D01*
X113181263Y-80508437D01*
X113300685Y-80512833D01*
X113404049Y-80518005D01*
X113487708Y-80523927D01*
X113548012Y-80530571D01*
X113588419Y-80536441D01*
X113668019Y-80547590D01*
X113745003Y-80557922D01*
X113807196Y-80565784D01*
X113818662Y-80567173D01*
X113872903Y-80574170D01*
X113917455Y-80580568D01*
X113943609Y-80585132D01*
X113962940Y-80589176D01*
X114003996Y-80597068D01*
X114052739Y-80605960D01*
X114169109Y-80627446D01*
X114281307Y-80650418D01*
X114386737Y-80674865D01*
X114496079Y-80703130D01*
X114554507Y-80718745D01*
X114617235Y-80735222D01*
X114668431Y-80748364D01*
X114700698Y-80756252D01*
X114734453Y-80765189D01*
X114792243Y-80782721D01*
X114861745Y-80805256D01*
X114935436Y-80830232D01*
X115005788Y-80855091D01*
X115065276Y-80877274D01*
X115106376Y-80894221D01*
X115124108Y-80902116D01*
X115157225Y-80915456D01*
X115175430Y-80920730D01*
X115181094Y-80921899D01*
X115206957Y-80931632D01*
X115243126Y-80948013D01*
X115259893Y-80955874D01*
X115292839Y-80969786D01*
X115311232Y-80975295D01*
X115315605Y-80976528D01*
X115340838Y-80987345D01*
X115383812Y-81007481D01*
X115440054Y-81034703D01*
X115505090Y-81066781D01*
X115574449Y-81101484D01*
X115643656Y-81136580D01*
X115708238Y-81169837D01*
X115763724Y-81199026D01*
X115805639Y-81221914D01*
X115809121Y-81223896D01*
X115846114Y-81246006D01*
X115895116Y-81276530D01*
X115951110Y-81312197D01*
X116009076Y-81349735D01*
X116063998Y-81385872D01*
X116110857Y-81417336D01*
X116144634Y-81440856D01*
X116160311Y-81453159D01*
X116163343Y-81455982D01*
X116183790Y-81471832D01*
X116214876Y-81494125D01*
X116224620Y-81500949D01*
X116259032Y-81525572D01*
X116283082Y-81543540D01*
X116394552Y-81635777D01*
X116511106Y-81739871D01*
X116626378Y-81849758D01*
X116735029Y-81960183D01*
X116831720Y-82065892D01*
X116911111Y-82161629D01*
X116929494Y-82185025D01*
X116962690Y-82225990D01*
X116989017Y-82256978D01*
X116991416Y-82259697D01*
X117011477Y-82285173D01*
X117019710Y-82300793D01*
X117022175Y-82308239D01*
X117036801Y-82328214D01*
X117054754Y-82350115D01*
X117081572Y-82386872D01*
X117112480Y-82431644D01*
X117143480Y-82478393D01*
X117170573Y-82521083D01*
X117189761Y-82553678D01*
X117197046Y-82570140D01*
X117197465Y-82574338D01*
X117207277Y-82585069D01*
X117217227Y-82592372D01*
X117231716Y-82615761D01*
X117243948Y-82641068D01*
X117267729Y-82686453D01*
X117291568Y-82728339D01*
X117311417Y-82759738D01*
X117323227Y-82773666D01*
X117327702Y-82777746D01*
X117333458Y-82798843D01*
X117340533Y-82823857D01*
X117357822Y-82855681D01*
X117378028Y-82888712D01*
X117397316Y-82925993D01*
X117406371Y-82946250D01*
X117425232Y-82988126D01*
X117446513Y-83035123D01*
X117478246Y-83105577D01*
X117501604Y-83159277D01*
X117519534Y-83203538D01*
X117535131Y-83246001D01*
X117551489Y-83294307D01*
X117567111Y-83340509D01*
X117582348Y-83383529D01*
X117592635Y-83410258D01*
X117594875Y-83415657D01*
X117607447Y-83450273D01*
X117620913Y-83492105D01*
X117623864Y-83501809D01*
X117637028Y-83543290D01*
X117647542Y-83573952D01*
X117650682Y-83582897D01*
X117662039Y-83619099D01*
X117674517Y-83662621D01*
X117678802Y-83678097D01*
X117691910Y-83723535D01*
X117702582Y-83758109D01*
X117705433Y-83767906D01*
X117714738Y-83806061D01*
X117727230Y-83862252D01*
X117741649Y-83930454D01*
X117756735Y-84004644D01*
X117771227Y-84078795D01*
X117783868Y-84146885D01*
X117786300Y-84161200D01*
X117794194Y-84213693D01*
X117802960Y-84278456D01*
X117811110Y-84344683D01*
X117813678Y-84366533D01*
X117822318Y-84436815D01*
X117831060Y-84504017D01*
X117838355Y-84556122D01*
X117838437Y-84556676D01*
X117842653Y-84596728D01*
X117847033Y-84658053D01*
X117851253Y-84734763D01*
X117854987Y-84820972D01*
X117857911Y-84910795D01*
X117859959Y-85026388D01*
X117857648Y-85236822D01*
X117846883Y-85446791D01*
X117827141Y-85664907D01*
X117797899Y-85899785D01*
X117792187Y-85939664D01*
X117777969Y-86031650D01*
X117762060Y-86126938D01*
X117745797Y-86217944D01*
X117730511Y-86297082D01*
X117717538Y-86356767D01*
X117695867Y-86449166D01*
X117677411Y-86534351D01*
X117666600Y-86595063D01*
X117663486Y-86632246D01*
X117668123Y-86646844D01*
X117680562Y-86639797D01*
X117700855Y-86612051D01*
X117729054Y-86564548D01*
X117747408Y-86532808D01*
X117789691Y-86463630D01*
X117837462Y-86389348D01*
X117886850Y-86315680D01*
X117933982Y-86248347D01*
X117974986Y-86193066D01*
X118005988Y-86155558D01*
X118036340Y-86127707D01*
X118073016Y-86107747D01*
X118102102Y-86107588D01*
X118119254Y-86128276D01*
X118124314Y-86142537D01*
X118139287Y-86175835D01*
X118146021Y-86190491D01*
X118151933Y-86212736D01*
X118152037Y-86213890D01*
X118158727Y-86234739D01*
X118173791Y-86272064D01*
X118194337Y-86318641D01*
X118228375Y-86395102D01*
X118254929Y-86462527D01*
X118272342Y-86521316D01*
X118282474Y-86579548D01*
X118287188Y-86645305D01*
X118288345Y-86726668D01*
X118283631Y-86834234D01*
X118263564Y-86982202D01*
X118227189Y-87144847D01*
X118173907Y-87325295D01*
X118166832Y-87347190D01*
X118150404Y-87398893D01*
X118137283Y-87441246D01*
X118136461Y-87443944D01*
X118123059Y-87484359D01*
X118110795Y-87516273D01*
X118106942Y-87525571D01*
X118093564Y-87561685D01*
X118078907Y-87604941D01*
X118071033Y-87628528D01*
X118046228Y-87697791D01*
X118016489Y-87776115D01*
X117986129Y-87852295D01*
X117959463Y-87915130D01*
X117952003Y-87932454D01*
X117938872Y-87966871D01*
X117933673Y-87986896D01*
X117931750Y-87996188D01*
X117921294Y-88026021D01*
X117904787Y-88065481D01*
X117887012Y-88105295D01*
X117860220Y-88165553D01*
X117842191Y-88206634D01*
X117831311Y-88232299D01*
X117825966Y-88246304D01*
X117824543Y-88252410D01*
X117819862Y-88265851D01*
X117805625Y-88299298D01*
X117784184Y-88347248D01*
X117757928Y-88404442D01*
X117729244Y-88465620D01*
X117700521Y-88525522D01*
X117681262Y-88567339D01*
X117666498Y-88603946D01*
X117660848Y-88624421D01*
X117659849Y-88630885D01*
X117647207Y-88641675D01*
X117642157Y-88642897D01*
X117633566Y-88658785D01*
X117632115Y-88665663D01*
X117621390Y-88694560D01*
X117602502Y-88738188D01*
X117578173Y-88790095D01*
X117563633Y-88818363D01*
X117513565Y-88898335D01*
X117456280Y-88969582D01*
X117396834Y-89026313D01*
X117340279Y-89062735D01*
X117305457Y-89078838D01*
X117278213Y-89091839D01*
X117259403Y-89098707D01*
X117216946Y-89109873D01*
X117163498Y-89121357D01*
X117108311Y-89131218D01*
X117060633Y-89137515D01*
X117052665Y-89138177D01*
X117010707Y-89140539D01*
X116954217Y-89142684D01*
X116893100Y-89144218D01*
X116859525Y-89144586D01*
X116805587Y-89142249D01*
X116774674Y-89133090D01*
X116763941Y-89114011D01*
X116770545Y-89081913D01*
X116791641Y-89033699D01*
X116805099Y-89005150D01*
X116828128Y-88954782D01*
X116845726Y-88914500D01*
X116847662Y-88909863D01*
X116872306Y-88850792D01*
X116900048Y-88784268D01*
X116926353Y-88721168D01*
X116946684Y-88672368D01*
X116950123Y-88664125D01*
X116985063Y-88581602D01*
X117025368Y-88488211D01*
X117025701Y-88487443D01*
X117038426Y-88456821D01*
X117058264Y-88407657D01*
X117082564Y-88346571D01*
X117108676Y-88280182D01*
X117110013Y-88276764D01*
X117135918Y-88210933D01*
X117159714Y-88151148D01*
X117178811Y-88103870D01*
X117190622Y-88075564D01*
X117212762Y-88023107D01*
X117240731Y-87952644D01*
X117266191Y-87884524D01*
X117284816Y-87830021D01*
X117291803Y-87807624D01*
X117307063Y-87758474D01*
X117326021Y-87697240D01*
X117346106Y-87632223D01*
X117361068Y-87584639D01*
X117379137Y-87529584D01*
X117393786Y-87487634D01*
X117402803Y-87465303D01*
X117413571Y-87432100D01*
X117415118Y-87371979D01*
X117401512Y-87303157D01*
X117373694Y-87233143D01*
X117371151Y-87228194D01*
X117346645Y-87183757D01*
X117316033Y-87132148D01*
X117283241Y-87079538D01*
X117252196Y-87032102D01*
X117226825Y-86996013D01*
X117211054Y-86977443D01*
X117208095Y-86974462D01*
X117191899Y-86954022D01*
X117169543Y-86922878D01*
X117166094Y-86917958D01*
X117132751Y-86874220D01*
X117098617Y-86834210D01*
X117077038Y-86809359D01*
X117035136Y-86742772D01*
X117017570Y-86674355D01*
X117023685Y-86599511D01*
X117052823Y-86513641D01*
X117073655Y-86465744D01*
X117094491Y-86417795D01*
X117109135Y-86384049D01*
X117115544Y-86368450D01*
X117132334Y-86323568D01*
X117149001Y-86274919D01*
X117157081Y-86250638D01*
X117172129Y-86208144D01*
X117183477Y-86179430D01*
X117193412Y-86153883D01*
X117210090Y-86103618D01*
X117229287Y-86040392D01*
X117248796Y-85971772D01*
X117266410Y-85905328D01*
X117279922Y-85848630D01*
X117282828Y-85835301D01*
X117294934Y-85780079D01*
X117306899Y-85725859D01*
X117307456Y-85723342D01*
X117315046Y-85687561D01*
X117322520Y-85648789D01*
X117330690Y-85602226D01*
X117340369Y-85543070D01*
X117352370Y-85466521D01*
X117367504Y-85367776D01*
X117372143Y-85333438D01*
X117381269Y-85235407D01*
X117387721Y-85119379D01*
X117391486Y-84991797D01*
X117392549Y-84859103D01*
X117390897Y-84727740D01*
X117386518Y-84604152D01*
X117379397Y-84494780D01*
X117369520Y-84406068D01*
X117354844Y-84309761D01*
X117339058Y-84215252D01*
X117323904Y-84135852D01*
X117308209Y-84065037D01*
X117305813Y-84054922D01*
X117293490Y-84001854D01*
X117281522Y-83949087D01*
X117261857Y-83867495D01*
X117230474Y-83759338D01*
X117198067Y-83671721D01*
X117187666Y-83646603D01*
X117174792Y-83612029D01*
X117169763Y-83593135D01*
X117164679Y-83575294D01*
X117149444Y-83537471D01*
X117126179Y-83484571D01*
X117097027Y-83421031D01*
X117064129Y-83351288D01*
X117029628Y-83279780D01*
X116995665Y-83210942D01*
X116964382Y-83149212D01*
X116937923Y-83099027D01*
X116918428Y-83064823D01*
X116908041Y-83051038D01*
X116906201Y-83050101D01*
X116896938Y-83033179D01*
X116894980Y-83026459D01*
X116880362Y-82998775D01*
X116854014Y-82955823D01*
X116818982Y-82902021D01*
X116778314Y-82841782D01*
X116735056Y-82779524D01*
X116692255Y-82719661D01*
X116652959Y-82666610D01*
X116620214Y-82624785D01*
X116597067Y-82598603D01*
X116588949Y-82590012D01*
X116563892Y-82560265D01*
X116535539Y-82523746D01*
X116526566Y-82512154D01*
X116483403Y-82462308D01*
X116425046Y-82400917D01*
X116356074Y-82332447D01*
X116281068Y-82261369D01*
X116204608Y-82192152D01*
X116131271Y-82129263D01*
X116097294Y-82101102D01*
X116046286Y-82058927D01*
X116009465Y-82028779D01*
X115982367Y-82007121D01*
X115960527Y-81990417D01*
X115939483Y-81975128D01*
X115914769Y-81957719D01*
X115904643Y-81950526D01*
X115871633Y-81925805D01*
X115849892Y-81907653D01*
X115836798Y-81897626D01*
X115805558Y-81882412D01*
X115789596Y-81875086D01*
X115778356Y-81861976D01*
X115773146Y-81853397D01*
X115751154Y-81841540D01*
X115734267Y-81834566D01*
X115706820Y-81816748D01*
X115697735Y-81809571D01*
X115667372Y-81789873D01*
X115628302Y-81767505D01*
X115606099Y-81755266D01*
X115575153Y-81737081D01*
X115560096Y-81726581D01*
X115559608Y-81726090D01*
X115542164Y-81714916D01*
X115505666Y-81694544D01*
X115454907Y-81667417D01*
X115394683Y-81635980D01*
X115329787Y-81602675D01*
X115265015Y-81569947D01*
X115205162Y-81540237D01*
X115155021Y-81515991D01*
X115119388Y-81499652D01*
X115103058Y-81493662D01*
X115091579Y-81489671D01*
X115061514Y-81476977D01*
X115020454Y-81458603D01*
X114989288Y-81444991D01*
X114925306Y-81419502D01*
X114866586Y-81398678D01*
X114835179Y-81388339D01*
X114779861Y-81369307D01*
X114734801Y-81352876D01*
X114733491Y-81352376D01*
X114691836Y-81337774D01*
X114636085Y-81319809D01*
X114577927Y-81302253D01*
X114571224Y-81300307D01*
X114517438Y-81284584D01*
X114471069Y-81270864D01*
X114441514Y-81261926D01*
X114405840Y-81251461D01*
X114336274Y-81232622D01*
X114240306Y-81207814D01*
X114179433Y-81193202D01*
X114091682Y-81173937D01*
X113992570Y-81153583D01*
X113888422Y-81133333D01*
X113785565Y-81114379D01*
X113690327Y-81097916D01*
X113609034Y-81085136D01*
X113548012Y-81077234D01*
X113547638Y-81077195D01*
X113491471Y-81071339D01*
X113423027Y-81064173D01*
X113357035Y-81057240D01*
X113295244Y-81051195D01*
X113165061Y-81040881D01*
X113026887Y-81032654D01*
X112886571Y-81026688D01*
X112749962Y-81023162D01*
X112622908Y-81022252D01*
X112511257Y-81024134D01*
X112420858Y-81028985D01*
X112296856Y-81039996D01*
X112142138Y-81056276D01*
X112003263Y-81073910D01*
X111884043Y-81092404D01*
X111788292Y-81111262D01*
X111770079Y-81115381D01*
X111711526Y-81128324D01*
X111658700Y-81139643D01*
X111625730Y-81146664D01*
X111541643Y-81165610D01*
X111457139Y-81185926D01*
X111376728Y-81206408D01*
X111304920Y-81225851D01*
X111246227Y-81243048D01*
X111205158Y-81256796D01*
X111186223Y-81265888D01*
X111173612Y-81271724D01*
X111144695Y-81275403D01*
X111122020Y-81277769D01*
X111088993Y-81288399D01*
X111066244Y-81298397D01*
X111025456Y-81313708D01*
X110976638Y-81330448D01*
X110922040Y-81349014D01*
X110838912Y-81381144D01*
X110752872Y-81420123D01*
X110752448Y-81420326D01*
X110720313Y-81433592D01*
X110698307Y-81439103D01*
X110682150Y-81444672D01*
X110645774Y-81460881D01*
X110593670Y-81485576D01*
X110530118Y-81516595D01*
X110459402Y-81551772D01*
X110385804Y-81588945D01*
X110313606Y-81625950D01*
X110247092Y-81660623D01*
X110190542Y-81690801D01*
X110148240Y-81714321D01*
X110124469Y-81729018D01*
X110117826Y-81733794D01*
X110082179Y-81758055D01*
X110036145Y-81788004D01*
X109985264Y-81820209D01*
X109935074Y-81851235D01*
X109891113Y-81877648D01*
X109858919Y-81896015D01*
X109844031Y-81902900D01*
X109841185Y-81903150D01*
X109830773Y-81913600D01*
X109830576Y-81914771D01*
X109817538Y-81929319D01*
X109790346Y-81948181D01*
X109789278Y-81948814D01*
X109756137Y-81970266D01*
X109732370Y-81988636D01*
X109726326Y-81994024D01*
X109699333Y-82016032D01*
X109664848Y-82042516D01*
X109651815Y-82052354D01*
X109618450Y-82078458D01*
X109596312Y-82097081D01*
X109588105Y-82104511D01*
X109560781Y-82128732D01*
X109521567Y-82163183D01*
X109475981Y-82203007D01*
X109441580Y-82233332D01*
X109276806Y-82389729D01*
X109135069Y-82544165D01*
X109122072Y-82559483D01*
X109089069Y-82598190D01*
X109064578Y-82626635D01*
X109053144Y-82639527D01*
X109050136Y-82642919D01*
X109033794Y-82663399D01*
X109010336Y-82694092D01*
X109005388Y-82700617D01*
X108971415Y-82743666D01*
X108938814Y-82782760D01*
X108932204Y-82790632D01*
X108911525Y-82819826D01*
X108903185Y-82839599D01*
X108902710Y-82844380D01*
X108892143Y-82860061D01*
X108884399Y-82866849D01*
X108864301Y-82891249D01*
X108839030Y-82926341D01*
X108776545Y-83023577D01*
X108710033Y-83137670D01*
X108644675Y-83259402D01*
X108583423Y-83382815D01*
X108529232Y-83501949D01*
X108485054Y-83610845D01*
X108453843Y-83703544D01*
X108449291Y-83719182D01*
X108435557Y-83764533D01*
X108424401Y-83799033D01*
X108417348Y-83821166D01*
X108404481Y-83865086D01*
X108390698Y-83914984D01*
X108380797Y-83951942D01*
X108366678Y-84004535D01*
X108355895Y-84044575D01*
X108350369Y-84066642D01*
X108339297Y-84119696D01*
X108326793Y-84190799D01*
X108312340Y-84282975D01*
X108295425Y-84399248D01*
X108292775Y-84420121D01*
X108286095Y-84496187D01*
X108280891Y-84591200D01*
X108277202Y-84699389D01*
X108275069Y-84814983D01*
X108274532Y-84932210D01*
X108275630Y-85045300D01*
X108278405Y-85148480D01*
X108282896Y-85235980D01*
X108289144Y-85302028D01*
X108293931Y-85337606D01*
X108311866Y-85465891D01*
X108327969Y-85571827D01*
X108342887Y-85659266D01*
X108357268Y-85732061D01*
X108371758Y-85794065D01*
X108371931Y-85794743D01*
X108384929Y-85845665D01*
X108397894Y-85896375D01*
X108404722Y-85923196D01*
X108417874Y-85975232D01*
X108431477Y-86029377D01*
X108447924Y-86094026D01*
X108470177Y-86177561D01*
X108488720Y-86242109D01*
X108502809Y-86285122D01*
X108511699Y-86304055D01*
X108516572Y-86312507D01*
X108521213Y-86338763D01*
X108522724Y-86353910D01*
X108533263Y-86387645D01*
X108557273Y-86439204D01*
X108584890Y-86509425D01*
X108608476Y-86580824D01*
X108626133Y-86646934D01*
X108635960Y-86701293D01*
X108636057Y-86737437D01*
X108634573Y-86742954D01*
X108618355Y-86779024D01*
X108591931Y-86823261D01*
X108561822Y-86865505D01*
X108534550Y-86895596D01*
X108531764Y-86898568D01*
X108516011Y-86919008D01*
X108493931Y-86950161D01*
X108485958Y-86961628D01*
X108465213Y-86990076D01*
X108453007Y-87004726D01*
X108450157Y-87007690D01*
X108434237Y-87028129D01*
X108412083Y-87059291D01*
X108404110Y-87070758D01*
X108383365Y-87099206D01*
X108371160Y-87113856D01*
X108355688Y-87132121D01*
X108331080Y-87166996D01*
X108302416Y-87211071D01*
X108274587Y-87257089D01*
X108274133Y-87257877D01*
X108254101Y-87306464D01*
X108245378Y-87365078D01*
X108248098Y-87437357D01*
X108262391Y-87526940D01*
X108288391Y-87637464D01*
X108293897Y-87658104D01*
X108313446Y-87727246D01*
X108337658Y-87808611D01*
X108364781Y-87896708D01*
X108393061Y-87986050D01*
X108420748Y-88071147D01*
X108446087Y-88146511D01*
X108467326Y-88206651D01*
X108482713Y-88246079D01*
X108494227Y-88273112D01*
X108513240Y-88321517D01*
X108535077Y-88382492D01*
X108547048Y-88415139D01*
X108578139Y-88492326D01*
X108617823Y-88584327D01*
X108663290Y-88685091D01*
X108711736Y-88788565D01*
X108760353Y-88888699D01*
X108806335Y-88979440D01*
X108846874Y-89054738D01*
X108860562Y-89079798D01*
X108873404Y-89111293D01*
X108867957Y-89127321D01*
X108841328Y-89131650D01*
X108790628Y-89128047D01*
X108722810Y-89120855D01*
X108614905Y-89108135D01*
X108500562Y-89093453D01*
X108391621Y-89078288D01*
X108343202Y-89071661D01*
X108269970Y-89062684D01*
X108204695Y-89055714D01*
X108181689Y-89053672D01*
X108153723Y-89050335D01*
X108131745Y-89043815D01*
X108113599Y-89030895D01*
X108097124Y-89008355D01*
X108080164Y-88972977D01*
X108060558Y-88921541D01*
X108036148Y-88850831D01*
X108004776Y-88757626D01*
X107999019Y-88740574D01*
X107968631Y-88651294D01*
X107936320Y-88557336D01*
X107905602Y-88468886D01*
X107879995Y-88396133D01*
X107862829Y-88347516D01*
X107832384Y-88260033D01*
X107802119Y-88171802D01*
X107776584Y-88096026D01*
X107760478Y-88048073D01*
X107741310Y-87992345D01*
X107725978Y-87949280D01*
X107716809Y-87925510D01*
X107714580Y-87920241D01*
X107702099Y-87885598D01*
X107689097Y-87843662D01*
X107686357Y-87834241D01*
X107673105Y-87792609D01*
X107661660Y-87761815D01*
X107660829Y-87759861D01*
X107653329Y-87740388D01*
X107640944Y-87706068D01*
X107623131Y-87655326D01*
X107599348Y-87586589D01*
X107569052Y-87498283D01*
X107531702Y-87388835D01*
X107486755Y-87256670D01*
X107433669Y-87100215D01*
X107408594Y-87026063D01*
X107384603Y-86953511D01*
X107367367Y-86897404D01*
X107355763Y-86852552D01*
X107348669Y-86813765D01*
X107344962Y-86775850D01*
X107343520Y-86733617D01*
X107343221Y-86681875D01*
X107343891Y-86632136D01*
X107346944Y-86567010D01*
X107351916Y-86512628D01*
X107358201Y-86477256D01*
X107365237Y-86453079D01*
X107380329Y-86401061D01*
X107395801Y-86347581D01*
X107409345Y-86308549D01*
X107434685Y-86251706D01*
X107465626Y-86193247D01*
X107498879Y-86138500D01*
X107531153Y-86092797D01*
X107559158Y-86061467D01*
X107579603Y-86049839D01*
X107583918Y-86052537D01*
X107600126Y-86071986D01*
X107621559Y-86104037D01*
X107632374Y-86120773D01*
X107652622Y-86147780D01*
X107665225Y-86158602D01*
X107667713Y-86159111D01*
X107675456Y-86172929D01*
X107682664Y-86188988D01*
X107701688Y-86221281D01*
X107728552Y-86263761D01*
X107759278Y-86310392D01*
X107789887Y-86355137D01*
X107816403Y-86391960D01*
X107834847Y-86414823D01*
X107844646Y-86427930D01*
X107859638Y-86459157D01*
X107867131Y-86475102D01*
X107880994Y-86486358D01*
X107885666Y-86487556D01*
X107893733Y-86503410D01*
X107898536Y-86517718D01*
X107914863Y-86543235D01*
X107936454Y-86569610D01*
X107956656Y-86588895D01*
X107968818Y-86593140D01*
X107968462Y-86577790D01*
X107961018Y-86543908D01*
X107948091Y-86498858D01*
X107934448Y-86454498D01*
X107919039Y-86402338D01*
X107908288Y-86363587D01*
X107907087Y-86358936D01*
X107894597Y-86310681D01*
X107881770Y-86261278D01*
X107866455Y-86197951D01*
X107841815Y-86078901D01*
X107816989Y-85939125D01*
X107792666Y-85782603D01*
X107769537Y-85613319D01*
X107766025Y-85579434D01*
X107761175Y-85505172D01*
X107757478Y-85412292D01*
X107754935Y-85305892D01*
X107753546Y-85191068D01*
X107753310Y-85072919D01*
X107754229Y-84956540D01*
X107756304Y-84847031D01*
X107759533Y-84749487D01*
X107763918Y-84669007D01*
X107769460Y-84610687D01*
X107770876Y-84600147D01*
X107780767Y-84526547D01*
X107791048Y-84450043D01*
X107799707Y-84385607D01*
X107799884Y-84384293D01*
X107808397Y-84326631D01*
X107817512Y-84273250D01*
X107825286Y-84235553D01*
X107831303Y-84210091D01*
X107842527Y-84159537D01*
X107853809Y-84105961D01*
X107860758Y-84073223D01*
X107875758Y-84007545D01*
X107890247Y-83949087D01*
X107897764Y-83920048D01*
X107910844Y-83867609D01*
X107920563Y-83826316D01*
X107923297Y-83814663D01*
X107936246Y-83766601D01*
X107951381Y-83717186D01*
X107955072Y-83705870D01*
X107972929Y-83648785D01*
X107989005Y-83594414D01*
X107993179Y-83580182D01*
X108009046Y-83531629D01*
X108024088Y-83492105D01*
X108030518Y-83476463D01*
X108047373Y-83431596D01*
X108064164Y-83382975D01*
X108066769Y-83375223D01*
X108089525Y-83315528D01*
X108121522Y-83240710D01*
X108160723Y-83154773D01*
X108205092Y-83061719D01*
X108252591Y-82965552D01*
X108301185Y-82870276D01*
X108348836Y-82779893D01*
X108393508Y-82698407D01*
X108433164Y-82629823D01*
X108465767Y-82578142D01*
X108489280Y-82547368D01*
X108499255Y-82534271D01*
X108514418Y-82503034D01*
X108521612Y-82487059D01*
X108534119Y-82475832D01*
X108534784Y-82475765D01*
X108547451Y-82463019D01*
X108562137Y-82434908D01*
X108563131Y-82432553D01*
X108577893Y-82405235D01*
X108590155Y-82393985D01*
X108598311Y-82388765D01*
X108609856Y-82366783D01*
X108616944Y-82349921D01*
X108635496Y-82322449D01*
X108640187Y-82317304D01*
X108661179Y-82291998D01*
X108691792Y-82253496D01*
X108727166Y-82207872D01*
X108743422Y-82186991D01*
X108806505Y-82110342D01*
X108880560Y-82025625D01*
X108962038Y-81936472D01*
X109047386Y-81846515D01*
X109133053Y-81759383D01*
X109215489Y-81678710D01*
X109291142Y-81608126D01*
X109356461Y-81551263D01*
X109407894Y-81511752D01*
X109433591Y-81493150D01*
X109448818Y-81480155D01*
X109451778Y-81477276D01*
X109472217Y-81461283D01*
X109503383Y-81439097D01*
X109514824Y-81431133D01*
X109543289Y-81410248D01*
X109557948Y-81397807D01*
X109559228Y-81396518D01*
X109577224Y-81382646D01*
X109610636Y-81358939D01*
X109653437Y-81329694D01*
X109661302Y-81324385D01*
X109705121Y-81294049D01*
X109740089Y-81268632D01*
X109759237Y-81253174D01*
X109772323Y-81242994D01*
X109803571Y-81227633D01*
X109819517Y-81220140D01*
X109830773Y-81206277D01*
X109831209Y-81203119D01*
X109844661Y-81193555D01*
X109845447Y-81193493D01*
X109865038Y-81185704D01*
X109900082Y-81167416D01*
X109943560Y-81142271D01*
X109944441Y-81141740D01*
X110003365Y-81108272D01*
X110080479Y-81067358D01*
X110169758Y-81021924D01*
X110265182Y-80974896D01*
X110360727Y-80929198D01*
X110450370Y-80887755D01*
X110528089Y-80853493D01*
X110587862Y-80829336D01*
X110598473Y-80825371D01*
X110639465Y-80809702D01*
X110669710Y-80797641D01*
X110675000Y-80795527D01*
X110709638Y-80783493D01*
X110751557Y-80770676D01*
X110760948Y-80767936D01*
X110802597Y-80754470D01*
X110833404Y-80742616D01*
X110849590Y-80736283D01*
X110888933Y-80723411D01*
X110935714Y-80709950D01*
X110986171Y-80696275D01*
X111050500Y-80678659D01*
X111113050Y-80661380D01*
X111115662Y-80660656D01*
X111173900Y-80644987D01*
X111229203Y-80630883D01*
X111269924Y-80621317D01*
X111383799Y-80597515D01*
X111499587Y-80574842D01*
X111609665Y-80555346D01*
X111724989Y-80537102D01*
X111856515Y-80518182D01*
X111906362Y-80513069D01*
X111985736Y-80508230D01*
X112085530Y-80504434D01*
X112202096Y-80501656D01*
X112331787Y-80499868D01*
X112470954Y-80499043D01*
X112615949Y-80499155D01*
G37*
G36*
X116889864Y-87729791D02*
G01*
X116876763Y-87840930D01*
X116855656Y-87945972D01*
X116849180Y-87970894D01*
X116820477Y-88070404D01*
X116784846Y-88181859D01*
X116745574Y-88295632D01*
X116705951Y-88402095D01*
X116669265Y-88491622D01*
X116666280Y-88498344D01*
X116646847Y-88540285D01*
X116619681Y-88597124D01*
X116587568Y-88663218D01*
X116553296Y-88732923D01*
X116519652Y-88800594D01*
X116489422Y-88860587D01*
X116465394Y-88907257D01*
X116450354Y-88934962D01*
X116433638Y-88963574D01*
X116407308Y-89008962D01*
X116379157Y-89057733D01*
X116354313Y-89100632D01*
X116327146Y-89147014D01*
X116307190Y-89180505D01*
X116306202Y-89182141D01*
X116286847Y-89217265D01*
X116274297Y-89245300D01*
X116268347Y-89258114D01*
X116255864Y-89269173D01*
X116255227Y-89269242D01*
X116243011Y-89281998D01*
X116228517Y-89310096D01*
X116227523Y-89312452D01*
X116212761Y-89339770D01*
X116200499Y-89351020D01*
X116192343Y-89356240D01*
X116180799Y-89378222D01*
X116173724Y-89395086D01*
X116155257Y-89422556D01*
X116154771Y-89423058D01*
X116138282Y-89443379D01*
X116112250Y-89478645D01*
X116082085Y-89521536D01*
X116050184Y-89566389D01*
X116016024Y-89611643D01*
X115989231Y-89644307D01*
X115984260Y-89649928D01*
X115949730Y-89691035D01*
X115916697Y-89732975D01*
X115902547Y-89751245D01*
X115819906Y-89838321D01*
X115730435Y-89900109D01*
X115632247Y-89937967D01*
X115604794Y-89944182D01*
X115562181Y-89949118D01*
X115514097Y-89947404D01*
X115450032Y-89939106D01*
X115409951Y-89932183D01*
X115327912Y-89915302D01*
X115228414Y-89892391D01*
X115116745Y-89864735D01*
X114998190Y-89833616D01*
X114878034Y-89800316D01*
X114859278Y-89794995D01*
X114737910Y-89762149D01*
X114633935Y-89737653D01*
X114540219Y-89720375D01*
X114449631Y-89709183D01*
X114355036Y-89702944D01*
X114249303Y-89700526D01*
X114209767Y-89700245D01*
X114130306Y-89700531D01*
X114070006Y-89703665D01*
X114023110Y-89711479D01*
X113983862Y-89725805D01*
X113946506Y-89748473D01*
X113905286Y-89781316D01*
X113854446Y-89826166D01*
X113831338Y-89849820D01*
X113786311Y-89908785D01*
X113757286Y-89954971D01*
X113739045Y-89983997D01*
X113692901Y-90069068D01*
X113651241Y-90157609D01*
X113617426Y-90243232D01*
X113594819Y-90319549D01*
X113592625Y-90329058D01*
X113581104Y-90377468D01*
X113568816Y-90427440D01*
X113565510Y-90442135D01*
X113561289Y-90479297D01*
X113565780Y-90499647D01*
X113569809Y-90500669D01*
X113592260Y-90492296D01*
X113628317Y-90471101D01*
X113672842Y-90440526D01*
X113720698Y-90404013D01*
X113766747Y-90365004D01*
X113834224Y-90308230D01*
X113923268Y-90242410D01*
X114014411Y-90183453D01*
X114100782Y-90135752D01*
X114175510Y-90103697D01*
X114193248Y-90098070D01*
X114278848Y-90081195D01*
X114365346Y-90078767D01*
X114444548Y-90090481D01*
X114508257Y-90116035D01*
X114550297Y-90141600D01*
X114509547Y-90210713D01*
X114492049Y-90241660D01*
X114475278Y-90274839D01*
X114468797Y-90292866D01*
X114468405Y-90295966D01*
X114455155Y-90305907D01*
X114451913Y-90306282D01*
X114441514Y-90318948D01*
X114436846Y-90332722D01*
X114421323Y-90364051D01*
X114398685Y-90404206D01*
X114387223Y-90423568D01*
X114356560Y-90475892D01*
X114326171Y-90528788D01*
X114289333Y-90593915D01*
X114275348Y-90617393D01*
X114264178Y-90633297D01*
X114261127Y-90637387D01*
X114247438Y-90660316D01*
X114228765Y-90694683D01*
X114218146Y-90714798D01*
X114197940Y-90752070D01*
X114175048Y-90792733D01*
X114146600Y-90841768D01*
X114109727Y-90904157D01*
X114061558Y-90984882D01*
X114029253Y-91039912D01*
X114002468Y-91087539D01*
X113984363Y-91122043D01*
X113977712Y-91138346D01*
X113977318Y-91141520D01*
X113964070Y-91151665D01*
X113960815Y-91152054D01*
X113950429Y-91165126D01*
X113949840Y-91168033D01*
X113939707Y-91190831D01*
X113919603Y-91228507D01*
X113892918Y-91274604D01*
X113835408Y-91370620D01*
X113638025Y-91366862D01*
X113440643Y-91363104D01*
X113418127Y-91301718D01*
X113411596Y-91283950D01*
X113396198Y-91242303D01*
X113385259Y-91213050D01*
X113378873Y-91195913D01*
X113364561Y-91156853D01*
X113347840Y-91110741D01*
X113345402Y-91103997D01*
X113325474Y-91050830D01*
X113311274Y-91018357D01*
X113300404Y-91001796D01*
X113290462Y-90996362D01*
X113289637Y-90996596D01*
X113279644Y-91011130D01*
X113263248Y-91043368D01*
X113243343Y-91086629D01*
X113222824Y-91134233D01*
X113204584Y-91179499D01*
X113191518Y-91215746D01*
X113186519Y-91236294D01*
X113184838Y-91243620D01*
X113174454Y-91271029D01*
X113157735Y-91308688D01*
X113128950Y-91369925D01*
X112818295Y-91369925D01*
X112763346Y-91369890D01*
X112675820Y-91369530D01*
X112610516Y-91368572D01*
X112564098Y-91366767D01*
X112533227Y-91363863D01*
X112514567Y-91359609D01*
X112504781Y-91353756D01*
X112500531Y-91346052D01*
X112499972Y-91344213D01*
X112490652Y-91316123D01*
X112475204Y-91271496D01*
X112456512Y-91218464D01*
X112437461Y-91165161D01*
X112420935Y-91119721D01*
X112409820Y-91090279D01*
X112399225Y-91061050D01*
X112386590Y-91022073D01*
X112386273Y-91021045D01*
X112371661Y-90992833D01*
X112354075Y-90981149D01*
X112346071Y-90985670D01*
X112335019Y-91002083D01*
X112320519Y-91032765D01*
X112301635Y-91080072D01*
X112277431Y-91146358D01*
X112246970Y-91233977D01*
X112209317Y-91345286D01*
X112199261Y-91359551D01*
X112172266Y-91372568D01*
X112151492Y-91374027D01*
X112108808Y-91374853D01*
X112053263Y-91374771D01*
X111991548Y-91373916D01*
X111930354Y-91372421D01*
X111876370Y-91370420D01*
X111836288Y-91368047D01*
X111816798Y-91365438D01*
X111810487Y-91359253D01*
X111797035Y-91332530D01*
X111783970Y-91293201D01*
X111773243Y-91261712D01*
X111754279Y-91214391D01*
X111729877Y-91157573D01*
X111702687Y-91097040D01*
X111675359Y-91038575D01*
X111650545Y-90987959D01*
X111630893Y-90950975D01*
X111619054Y-90933405D01*
X111614039Y-90926996D01*
X111598334Y-90901621D01*
X111577938Y-90865198D01*
X111553961Y-90823086D01*
X111523405Y-90773361D01*
X111491296Y-90723963D01*
X111461501Y-90680676D01*
X111437891Y-90649284D01*
X111424335Y-90635571D01*
X111422392Y-90634575D01*
X111413157Y-90617567D01*
X111411869Y-90612852D01*
X111399727Y-90589256D01*
X111379026Y-90555000D01*
X111355000Y-90518218D01*
X111332883Y-90487041D01*
X111317912Y-90469602D01*
X111315010Y-90466645D01*
X111298957Y-90446207D01*
X111276745Y-90415037D01*
X111268772Y-90403570D01*
X111248027Y-90375122D01*
X111235821Y-90360472D01*
X111232971Y-90357508D01*
X111217051Y-90337070D01*
X111194898Y-90305907D01*
X111186911Y-90294398D01*
X111166388Y-90265977D01*
X111154553Y-90251342D01*
X111149962Y-90246259D01*
X111132030Y-90223827D01*
X111107357Y-90191386D01*
X111090086Y-90167745D01*
X111077464Y-90145618D01*
X111079060Y-90132109D01*
X111093372Y-90119491D01*
X111094088Y-90118972D01*
X111143849Y-90095929D01*
X111211672Y-90081657D01*
X111289897Y-90076251D01*
X111370862Y-90079809D01*
X111446907Y-90092429D01*
X111510371Y-90114207D01*
X111528108Y-90122397D01*
X111563886Y-90136595D01*
X111586235Y-90142212D01*
X111593287Y-90143322D01*
X111604135Y-90155854D01*
X111604905Y-90160105D01*
X111619535Y-90169495D01*
X111636419Y-90174630D01*
X111672784Y-90194687D01*
X111721137Y-90226581D01*
X111776748Y-90266749D01*
X111834888Y-90311628D01*
X111890828Y-90357657D01*
X111939837Y-90401272D01*
X111977186Y-90438910D01*
X112006104Y-90465189D01*
X112025961Y-90467677D01*
X112037147Y-90445039D01*
X112040655Y-90396611D01*
X112040002Y-90370694D01*
X112035703Y-90321121D01*
X112028713Y-90284071D01*
X112023326Y-90265026D01*
X112011595Y-90219579D01*
X111999622Y-90169495D01*
X111993396Y-90144907D01*
X111963373Y-90058109D01*
X111922800Y-89971583D01*
X111887554Y-89913036D01*
X112227997Y-89913036D01*
X112232877Y-89937661D01*
X112250459Y-89948632D01*
X112265837Y-89949500D01*
X112284563Y-89941556D01*
X112298453Y-89927657D01*
X112324885Y-89907414D01*
X112332734Y-89901583D01*
X112362900Y-89876314D01*
X112403378Y-89840072D01*
X112447656Y-89798628D01*
X112513679Y-89737803D01*
X112574602Y-89688675D01*
X112630093Y-89653592D01*
X112686202Y-89628777D01*
X112748979Y-89610449D01*
X112790676Y-89602942D01*
X112887174Y-89604830D01*
X112981037Y-89633734D01*
X113009099Y-89647697D01*
X113077243Y-89688452D01*
X113141532Y-89735078D01*
X113191069Y-89779988D01*
X113192963Y-89782026D01*
X113223036Y-89813964D01*
X113263232Y-89856170D01*
X113305397Y-89900080D01*
X113311327Y-89906189D01*
X113357709Y-89950265D01*
X113390880Y-89973201D01*
X113413037Y-89976087D01*
X113426379Y-89960011D01*
X113427491Y-89954971D01*
X113426009Y-89940041D01*
X113418685Y-89915781D01*
X113404286Y-89879157D01*
X113381578Y-89827136D01*
X113349328Y-89756684D01*
X113306302Y-89664769D01*
X113297905Y-89646845D01*
X113234913Y-89503805D01*
X113184340Y-89369896D01*
X113142327Y-89234004D01*
X113105016Y-89085016D01*
X113084179Y-88996893D01*
X113062302Y-88910416D01*
X113041208Y-88832452D01*
X113022538Y-88769059D01*
X113007929Y-88726291D01*
X113000384Y-88703046D01*
X112995542Y-88674988D01*
X112992126Y-88657439D01*
X112976422Y-88613881D01*
X112948655Y-88549665D01*
X112909576Y-88466611D01*
X112894923Y-88438894D01*
X112859185Y-88392012D01*
X112822014Y-88372196D01*
X112782958Y-88379301D01*
X112741562Y-88413184D01*
X112736220Y-88419222D01*
X112704991Y-88461327D01*
X112677402Y-88512827D01*
X112651673Y-88578138D01*
X112626026Y-88661675D01*
X112598682Y-88767857D01*
X112598509Y-88768570D01*
X112585982Y-88819479D01*
X112573224Y-88870166D01*
X112572609Y-88872582D01*
X112563860Y-88907725D01*
X112550619Y-88961727D01*
X112534575Y-89027675D01*
X112517415Y-89098657D01*
X112508817Y-89133944D01*
X112474306Y-89266526D01*
X112441902Y-89375247D01*
X112410775Y-89462726D01*
X112380094Y-89531582D01*
X112373773Y-89546097D01*
X112368045Y-89569238D01*
X112363289Y-89584112D01*
X112348642Y-89618857D01*
X112326472Y-89667598D01*
X112299190Y-89724881D01*
X112294506Y-89734561D01*
X112258317Y-89813754D01*
X112236312Y-89872490D01*
X112227997Y-89913036D01*
X111887554Y-89913036D01*
X111876257Y-89894270D01*
X111828324Y-89835111D01*
X111814732Y-89822108D01*
X111726081Y-89758178D01*
X111621591Y-89711911D01*
X111506527Y-89684642D01*
X111386154Y-89677707D01*
X111265734Y-89692440D01*
X111249203Y-89696043D01*
X111190164Y-89708722D01*
X111133512Y-89720673D01*
X111110559Y-89725742D01*
X111067290Y-89736773D01*
X111038023Y-89746183D01*
X111035633Y-89747137D01*
X111006540Y-89757221D01*
X110961230Y-89771610D01*
X110908431Y-89787520D01*
X110868645Y-89799456D01*
X110799834Y-89820719D01*
X110723233Y-89844904D01*
X110649248Y-89868750D01*
X110590435Y-89887767D01*
X110524625Y-89908652D01*
X110468828Y-89925952D01*
X110430988Y-89937175D01*
X110416386Y-89941358D01*
X110368567Y-89955973D01*
X110330196Y-89968897D01*
X110318239Y-89972116D01*
X110277256Y-89978025D01*
X110221571Y-89982236D01*
X110159681Y-89983997D01*
X110117977Y-89983931D01*
X110066749Y-89981985D01*
X110029882Y-89976491D01*
X109999365Y-89965994D01*
X109967185Y-89949039D01*
X109905045Y-89907415D01*
X109831533Y-89847738D01*
X109760295Y-89780592D01*
X109700342Y-89713917D01*
X109674582Y-89682212D01*
X109647994Y-89650247D01*
X109632092Y-89632070D01*
X109631680Y-89631635D01*
X109615888Y-89611171D01*
X109589393Y-89573337D01*
X109555803Y-89523634D01*
X109518723Y-89467564D01*
X109481759Y-89410628D01*
X109448517Y-89358326D01*
X109422605Y-89316161D01*
X109407627Y-89289635D01*
X109406428Y-89287216D01*
X109390508Y-89257806D01*
X109379503Y-89241890D01*
X109376134Y-89237590D01*
X109361283Y-89211882D01*
X109338138Y-89167573D01*
X109308747Y-89108965D01*
X109275153Y-89040362D01*
X109239402Y-88966064D01*
X109203541Y-88890375D01*
X109169613Y-88817597D01*
X109139664Y-88752032D01*
X109115739Y-88697982D01*
X109099885Y-88659750D01*
X109094146Y-88641639D01*
X109092343Y-88630764D01*
X109082096Y-88603977D01*
X109071680Y-88581780D01*
X109056704Y-88546187D01*
X109053872Y-88539053D01*
X109037987Y-88500569D01*
X109019584Y-88457519D01*
X109016526Y-88450132D01*
X109002584Y-88413217D01*
X108982288Y-88356713D01*
X108957285Y-88285301D01*
X108929220Y-88203665D01*
X108899739Y-88116487D01*
X108863625Y-88005308D01*
X108831397Y-87894903D01*
X108809232Y-87801182D01*
X108796502Y-87719943D01*
X109659337Y-87719943D01*
X109664709Y-87766037D01*
X109675113Y-87830411D01*
X109687446Y-87887732D01*
X109700205Y-87931297D01*
X109711888Y-87954405D01*
X109715680Y-87959781D01*
X109721643Y-87984177D01*
X109723759Y-87995000D01*
X109737011Y-88029738D01*
X109760091Y-88079778D01*
X109790284Y-88139934D01*
X109824877Y-88205025D01*
X109861154Y-88269865D01*
X109896402Y-88329271D01*
X109927906Y-88378061D01*
X109941885Y-88398939D01*
X109960068Y-88428443D01*
X109967185Y-88443653D01*
X109968133Y-88447456D01*
X109982427Y-88471002D01*
X110011443Y-88509332D01*
X110052008Y-88558741D01*
X110100952Y-88615525D01*
X110155104Y-88675980D01*
X110211293Y-88736403D01*
X110266346Y-88793088D01*
X110269154Y-88795896D01*
X110327986Y-88851997D01*
X110391378Y-88908061D01*
X110455281Y-88960956D01*
X110515644Y-89007550D01*
X110568416Y-89044709D01*
X110609549Y-89069302D01*
X110634990Y-89078195D01*
X110638785Y-89078689D01*
X110649248Y-89091836D01*
X110653162Y-89099203D01*
X110673802Y-89105478D01*
X110687365Y-89107004D01*
X110711315Y-89117530D01*
X110729882Y-89127904D01*
X110766422Y-89143673D01*
X110812943Y-89161368D01*
X110853180Y-89174519D01*
X110894227Y-89184003D01*
X110940681Y-89189732D01*
X110999826Y-89192585D01*
X111078947Y-89193439D01*
X111151004Y-89192529D01*
X111251604Y-89186022D01*
X111336257Y-89172191D01*
X111411679Y-89149779D01*
X111484589Y-89117527D01*
X111499121Y-89111224D01*
X111522678Y-89105478D01*
X111530350Y-89104156D01*
X111553556Y-89091559D01*
X111553791Y-89091362D01*
X111573554Y-89077020D01*
X111608736Y-89053269D01*
X111651879Y-89025145D01*
X111656365Y-89022249D01*
X111702333Y-88990133D01*
X111750011Y-88951820D01*
X111802537Y-88904348D01*
X111863052Y-88844755D01*
X111934697Y-88770081D01*
X112020611Y-88677362D01*
X112067548Y-88626240D01*
X112141042Y-88547148D01*
X112201876Y-88483718D01*
X112253562Y-88432878D01*
X112299609Y-88391557D01*
X112343529Y-88356684D01*
X112388833Y-88325186D01*
X112439032Y-88293993D01*
X112497636Y-88260032D01*
X112498392Y-88259605D01*
X112561119Y-88233788D01*
X112642089Y-88214237D01*
X112732874Y-88202086D01*
X112825044Y-88198469D01*
X112910170Y-88204521D01*
X112960103Y-88214454D01*
X113039956Y-88239444D01*
X113114950Y-88272474D01*
X113173881Y-88309100D01*
X113211131Y-88341170D01*
X113263306Y-88391017D01*
X113321564Y-88450339D01*
X113379989Y-88513096D01*
X113432663Y-88573249D01*
X113440431Y-88582376D01*
X113481916Y-88629035D01*
X113532806Y-88683872D01*
X113588481Y-88742155D01*
X113644317Y-88799154D01*
X113695693Y-88850135D01*
X113737988Y-88890368D01*
X113766580Y-88915121D01*
X113814445Y-88950942D01*
X113884218Y-88999218D01*
X113951458Y-89039362D01*
X114022008Y-89074149D01*
X114101709Y-89106353D01*
X114196400Y-89138747D01*
X114311922Y-89174105D01*
X114318164Y-89175665D01*
X114356527Y-89181343D01*
X114412877Y-89186476D01*
X114479875Y-89190726D01*
X114550180Y-89193759D01*
X114616449Y-89195239D01*
X114671342Y-89194830D01*
X114707518Y-89192196D01*
X114730983Y-89187776D01*
X114821002Y-89161106D01*
X114922604Y-89118444D01*
X115029955Y-89062459D01*
X115137218Y-88995817D01*
X115163763Y-88977074D01*
X115221167Y-88932932D01*
X115284664Y-88880620D01*
X115348668Y-88825044D01*
X115407594Y-88771109D01*
X115455858Y-88723721D01*
X115487874Y-88687788D01*
X115494226Y-88679677D01*
X115530982Y-88635595D01*
X115567143Y-88595680D01*
X115571902Y-88590664D01*
X115608773Y-88548171D01*
X115641720Y-88505263D01*
X115648787Y-88495312D01*
X115673873Y-88461883D01*
X115692649Y-88439493D01*
X115701663Y-88428527D01*
X115710150Y-88409774D01*
X115712614Y-88401217D01*
X115727469Y-88380056D01*
X115727673Y-88379842D01*
X115746226Y-88355167D01*
X115773168Y-88313192D01*
X115804500Y-88260786D01*
X115836225Y-88204817D01*
X115864345Y-88152155D01*
X115884861Y-88109667D01*
X115887995Y-88102465D01*
X115933389Y-87985449D01*
X115967616Y-87871883D01*
X115989064Y-87767983D01*
X115996126Y-87679968D01*
X115995812Y-87668487D01*
X115989008Y-87604495D01*
X115975305Y-87533082D01*
X115957257Y-87465813D01*
X115937419Y-87414252D01*
X115934699Y-87408666D01*
X115920538Y-87374260D01*
X115914769Y-87350482D01*
X115913874Y-87343057D01*
X115904348Y-87332116D01*
X115899820Y-87329757D01*
X115882864Y-87310844D01*
X115861215Y-87279187D01*
X115853399Y-87267437D01*
X115821770Y-87229859D01*
X115790285Y-87203682D01*
X115758617Y-87183205D01*
X115734518Y-87164532D01*
X115692864Y-87135072D01*
X115629160Y-87103170D01*
X115549227Y-87071368D01*
X115458471Y-87041815D01*
X115362298Y-87016658D01*
X115350829Y-87014323D01*
X115295500Y-87007185D01*
X115223161Y-87002085D01*
X115140128Y-86999038D01*
X115052716Y-86998062D01*
X114967240Y-86999172D01*
X114890017Y-87002384D01*
X114827360Y-87007715D01*
X114785586Y-87015180D01*
X114778482Y-87017251D01*
X114723373Y-87033149D01*
X114670005Y-87048330D01*
X114617010Y-87066379D01*
X114535725Y-87101118D01*
X114442152Y-87146948D01*
X114341660Y-87201079D01*
X114239621Y-87260717D01*
X114141407Y-87323071D01*
X114099850Y-87350778D01*
X114042264Y-87389544D01*
X113995511Y-87421473D01*
X113963572Y-87443836D01*
X113950429Y-87453907D01*
X113942175Y-87461580D01*
X113916982Y-87482276D01*
X113882223Y-87509452D01*
X113856357Y-87529505D01*
X113827845Y-87552299D01*
X113814017Y-87564322D01*
X113811044Y-87567107D01*
X113790605Y-87582861D01*
X113759452Y-87604941D01*
X113747937Y-87612928D01*
X113719520Y-87633423D01*
X113704887Y-87645207D01*
X113686573Y-87660630D01*
X113649997Y-87686573D01*
X113603232Y-87717375D01*
X113553397Y-87748486D01*
X113507608Y-87775357D01*
X113472986Y-87793437D01*
X113461354Y-87798694D01*
X113388795Y-87828061D01*
X113331548Y-87843271D01*
X113283313Y-87845457D01*
X113237787Y-87835754D01*
X113205559Y-87822353D01*
X113139995Y-87775148D01*
X113081064Y-87702971D01*
X113028337Y-87605228D01*
X112981384Y-87481325D01*
X112965235Y-87427505D01*
X112934926Y-87306322D01*
X112906965Y-87168455D01*
X112882701Y-87020890D01*
X112863481Y-86870612D01*
X112860889Y-86851158D01*
X112850135Y-86809226D01*
X112835510Y-86790187D01*
X112832187Y-86789060D01*
X112814545Y-86790852D01*
X112801665Y-86810306D01*
X112792251Y-86850623D01*
X112785008Y-86915006D01*
X112781358Y-86956460D01*
X112772189Y-87050693D01*
X112762434Y-87139441D01*
X112752749Y-87217274D01*
X112743791Y-87278762D01*
X112736217Y-87318474D01*
X112732355Y-87334252D01*
X112720540Y-87383257D01*
X112708386Y-87434425D01*
X112702329Y-87459448D01*
X112667501Y-87580829D01*
X112628543Y-87682968D01*
X112586606Y-87763187D01*
X112542845Y-87818810D01*
X112499154Y-87847362D01*
X112436015Y-87859267D01*
X112361385Y-87847968D01*
X112276755Y-87813494D01*
X112244759Y-87796896D01*
X112190413Y-87768100D01*
X112153508Y-87747280D01*
X112129219Y-87731637D01*
X112112718Y-87718375D01*
X112099404Y-87708620D01*
X112067856Y-87693583D01*
X112051882Y-87686389D01*
X112040655Y-87673883D01*
X112040587Y-87673218D01*
X112027842Y-87660551D01*
X111999731Y-87645864D01*
X111997426Y-87644891D01*
X111970074Y-87629832D01*
X111958807Y-87616927D01*
X111958503Y-87614367D01*
X111945626Y-87604941D01*
X111944612Y-87604813D01*
X111925653Y-87596298D01*
X111891754Y-87577435D01*
X111849801Y-87552417D01*
X111806680Y-87525440D01*
X111769274Y-87500699D01*
X111744470Y-87482388D01*
X111725351Y-87469488D01*
X111693316Y-87452639D01*
X111669717Y-87438794D01*
X111658700Y-87425415D01*
X111658276Y-87422608D01*
X111644826Y-87413963D01*
X111641194Y-87413147D01*
X111617407Y-87402313D01*
X111578991Y-87381525D01*
X111532286Y-87354151D01*
X111398155Y-87277254D01*
X111239776Y-87197537D01*
X111086834Y-87132344D01*
X110943694Y-87083506D01*
X110814720Y-87052857D01*
X110762998Y-87046236D01*
X110654575Y-87042640D01*
X110531842Y-87048792D01*
X110401533Y-87063645D01*
X110270381Y-87086151D01*
X110145120Y-87115261D01*
X110032483Y-87149928D01*
X109939204Y-87189105D01*
X109889637Y-87217623D01*
X109801319Y-87290515D01*
X109732572Y-87380148D01*
X109684955Y-87483566D01*
X109660024Y-87597816D01*
X109659337Y-87719943D01*
X108796502Y-87719943D01*
X108796472Y-87719752D01*
X108792458Y-87646222D01*
X108796531Y-87576198D01*
X108808032Y-87505290D01*
X108818328Y-87465566D01*
X108838178Y-87406396D01*
X108862871Y-87343432D01*
X108889242Y-87284157D01*
X108914127Y-87236054D01*
X108934360Y-87206606D01*
X108944708Y-87194828D01*
X108969288Y-87164755D01*
X108998501Y-87127497D01*
X109018638Y-87101571D01*
X109041357Y-87073099D01*
X109053222Y-87059291D01*
X109060518Y-87051005D01*
X109080794Y-87025817D01*
X109107787Y-86991085D01*
X109127812Y-86965180D01*
X109150347Y-86936694D01*
X109161999Y-86922878D01*
X109170694Y-86912998D01*
X109192341Y-86886899D01*
X109220963Y-86851600D01*
X109244639Y-86822394D01*
X109272014Y-86789309D01*
X109289169Y-86769424D01*
X109292449Y-86765798D01*
X109312835Y-86742419D01*
X109343871Y-86706216D01*
X109380255Y-86663366D01*
X109392985Y-86648333D01*
X109426017Y-86609598D01*
X109450645Y-86581118D01*
X109462290Y-86568206D01*
X109472645Y-86556597D01*
X109495592Y-86529387D01*
X109525491Y-86493179D01*
X109581327Y-86424973D01*
X109590774Y-86137969D01*
X109591566Y-86112752D01*
X109593677Y-86027723D01*
X109594709Y-85952277D01*
X109594656Y-85890834D01*
X109593510Y-85847812D01*
X109591266Y-85827631D01*
X109585696Y-85817319D01*
X109563105Y-85805207D01*
X109533971Y-85814448D01*
X109504312Y-85843915D01*
X109500911Y-85848752D01*
X109483283Y-85876221D01*
X109476101Y-85891808D01*
X109472072Y-85905682D01*
X109456992Y-85942276D01*
X109432046Y-85997596D01*
X109398623Y-86068575D01*
X109358114Y-86152148D01*
X109320164Y-86228272D01*
X109273998Y-86315661D01*
X109235286Y-86380627D01*
X109202430Y-86424862D01*
X109173833Y-86450062D01*
X109147898Y-86457920D01*
X109123027Y-86450129D01*
X109097623Y-86428383D01*
X109095934Y-86426511D01*
X109071516Y-86391255D01*
X109042065Y-86337678D01*
X109010796Y-86272797D01*
X108980927Y-86203633D01*
X108955672Y-86137205D01*
X108938249Y-86080531D01*
X108920326Y-86008885D01*
X108900499Y-85928087D01*
X108885377Y-85863987D01*
X108873643Y-85810958D01*
X108863978Y-85763372D01*
X108859099Y-85738287D01*
X108846913Y-85675965D01*
X108835924Y-85620139D01*
X108833266Y-85605842D01*
X108824839Y-85553348D01*
X108815706Y-85488578D01*
X108807427Y-85422341D01*
X108804479Y-85397628D01*
X108795834Y-85331268D01*
X108787035Y-85270828D01*
X108779592Y-85226913D01*
X108777640Y-85213638D01*
X108774040Y-85168280D01*
X108771185Y-85103436D01*
X108769076Y-85023782D01*
X108767716Y-84933994D01*
X108767105Y-84838746D01*
X108767246Y-84742716D01*
X108768140Y-84650578D01*
X108769789Y-84567009D01*
X108772196Y-84496684D01*
X108775360Y-84444280D01*
X108779286Y-84414472D01*
X108780176Y-84410856D01*
X108788565Y-84370412D01*
X108798335Y-84315183D01*
X108807551Y-84256015D01*
X108821266Y-84171364D01*
X108841118Y-84078726D01*
X108862370Y-84010472D01*
X108863134Y-84008522D01*
X108875398Y-83975490D01*
X108889527Y-83935445D01*
X108901283Y-83902556D01*
X108922693Y-83851822D01*
X108949134Y-83803018D01*
X108986539Y-83744468D01*
X108994742Y-83732280D01*
X109039621Y-83671312D01*
X109076678Y-83632941D01*
X109108410Y-83615025D01*
X109137319Y-83615427D01*
X109158898Y-83623571D01*
X109175993Y-83633766D01*
X109189855Y-83644763D01*
X109216917Y-83661688D01*
X109223543Y-83665540D01*
X109256570Y-83685290D01*
X109302435Y-83713179D01*
X109353329Y-83744468D01*
X109369823Y-83754645D01*
X109419948Y-83785356D01*
X109462524Y-83811136D01*
X109489742Y-83827248D01*
X109514874Y-83842551D01*
X109530666Y-83854046D01*
X109533590Y-83856261D01*
X109555470Y-83870325D01*
X109594735Y-83894494D01*
X109647030Y-83926104D01*
X109708002Y-83962494D01*
X109720981Y-83970212D01*
X109790342Y-84011933D01*
X109857385Y-84052965D01*
X109915031Y-84088945D01*
X109956206Y-84115510D01*
X109956850Y-84115940D01*
X109996846Y-84141852D01*
X110027497Y-84160311D01*
X110042212Y-84167347D01*
X110042615Y-84167391D01*
X110058651Y-84175542D01*
X110090206Y-84195028D01*
X110130880Y-84221912D01*
X110133397Y-84223616D01*
X110174819Y-84250312D01*
X110207879Y-84269268D01*
X110225621Y-84276477D01*
X110229488Y-84276922D01*
X110240010Y-84288527D01*
X110243719Y-84296134D01*
X110263882Y-84308148D01*
X110288115Y-84318661D01*
X110323205Y-84337407D01*
X110356441Y-84357485D01*
X110376423Y-84372386D01*
X110379560Y-84374849D01*
X110401448Y-84389131D01*
X110438724Y-84412114D01*
X110485553Y-84440172D01*
X110505022Y-84451751D01*
X110548737Y-84478217D01*
X110580568Y-84498160D01*
X110594683Y-84507957D01*
X110606401Y-84516697D01*
X110632196Y-84532250D01*
X110655687Y-84545301D01*
X110693582Y-84566353D01*
X110715036Y-84579094D01*
X110731095Y-84590646D01*
X110734232Y-84593109D01*
X110756120Y-84607391D01*
X110793396Y-84630374D01*
X110840225Y-84658432D01*
X110859695Y-84670011D01*
X110903409Y-84696477D01*
X110935241Y-84716420D01*
X110949355Y-84726217D01*
X110962253Y-84735747D01*
X110988737Y-84751793D01*
X110990589Y-84752835D01*
X111026352Y-84772953D01*
X111066259Y-84795379D01*
X111093447Y-84811236D01*
X111139330Y-84839125D01*
X111187161Y-84869123D01*
X111221347Y-84890950D01*
X111282519Y-84930000D01*
X111337921Y-84965360D01*
X111375481Y-84988240D01*
X111408653Y-85006217D01*
X111426589Y-85013104D01*
X111430031Y-85013533D01*
X111440440Y-85026745D01*
X111440983Y-85030452D01*
X111454830Y-85040386D01*
X111455318Y-85040413D01*
X111474140Y-85048414D01*
X111507876Y-85067929D01*
X111549570Y-85094951D01*
X111553035Y-85097301D01*
X111592906Y-85123697D01*
X111622838Y-85142408D01*
X111636583Y-85149516D01*
X111648324Y-85154806D01*
X111676443Y-85170551D01*
X111712914Y-85192161D01*
X111750004Y-85214960D01*
X111779981Y-85234268D01*
X111795112Y-85245410D01*
X111797195Y-85247063D01*
X111817451Y-85260432D01*
X111855220Y-85284201D01*
X111906085Y-85315611D01*
X111965628Y-85351903D01*
X112032537Y-85392554D01*
X112120924Y-85446480D01*
X112209383Y-85500650D01*
X112286197Y-85547899D01*
X112344951Y-85584076D01*
X112432631Y-85637863D01*
X112521731Y-85692339D01*
X112599946Y-85739971D01*
X112609495Y-85745775D01*
X112670312Y-85783002D01*
X112724554Y-85816622D01*
X112766624Y-85843143D01*
X112790923Y-85859075D01*
X112800294Y-85865447D01*
X112838495Y-85889836D01*
X112880733Y-85915225D01*
X112886363Y-85918494D01*
X112942884Y-85951661D01*
X113003943Y-85988002D01*
X113064868Y-86024675D01*
X113120987Y-86058839D01*
X113167630Y-86087652D01*
X113200125Y-86108272D01*
X113213802Y-86117856D01*
X113216905Y-86120404D01*
X113238770Y-86134874D01*
X113276063Y-86157942D01*
X113322932Y-86185957D01*
X113333677Y-86192309D01*
X113389823Y-86226146D01*
X113442754Y-86258957D01*
X113482264Y-86284435D01*
X113512546Y-86303432D01*
X113549567Y-86320630D01*
X113567597Y-86319629D01*
X113566216Y-86301701D01*
X113545003Y-86268115D01*
X113503538Y-86220142D01*
X113470991Y-86184787D01*
X113421559Y-86128846D01*
X113377629Y-86076909D01*
X113344120Y-86036947D01*
X113308603Y-85996410D01*
X113282008Y-85967991D01*
X113258087Y-85942478D01*
X113223093Y-85902519D01*
X113186634Y-85858861D01*
X113153276Y-85818577D01*
X113123618Y-85784076D01*
X113104527Y-85763372D01*
X113100826Y-85759627D01*
X113078475Y-85735182D01*
X113045905Y-85698081D01*
X113008791Y-85654762D01*
X112999419Y-85643722D01*
X112961224Y-85599300D01*
X112927875Y-85561322D01*
X112905707Y-85537024D01*
X112888858Y-85518494D01*
X112857543Y-85481972D01*
X112823860Y-85441017D01*
X112799086Y-85410943D01*
X112763869Y-85370219D01*
X112736226Y-85340494D01*
X112712288Y-85314931D01*
X112677275Y-85275010D01*
X112640737Y-85231410D01*
X112607210Y-85191100D01*
X112574266Y-85152831D01*
X112551035Y-85127314D01*
X112534156Y-85108948D01*
X112502852Y-85072636D01*
X112469188Y-85031779D01*
X112444433Y-85001698D01*
X112409260Y-84960896D01*
X112381686Y-84931056D01*
X112377343Y-84926602D01*
X112349342Y-84896178D01*
X112312261Y-84854175D01*
X112272913Y-84808285D01*
X112260127Y-84793160D01*
X112227155Y-84754403D01*
X112202614Y-84725911D01*
X112191066Y-84712997D01*
X112185674Y-84707165D01*
X112165171Y-84683993D01*
X112133705Y-84647961D01*
X112095481Y-84603867D01*
X112070898Y-84575475D01*
X112036433Y-84535887D01*
X112011368Y-84507375D01*
X111999907Y-84494737D01*
X111997575Y-84492259D01*
X111980891Y-84473185D01*
X111952835Y-84440413D01*
X111917960Y-84399248D01*
X111906969Y-84386257D01*
X111870703Y-84343958D01*
X111840695Y-84309765D01*
X111822556Y-84290100D01*
X111818828Y-84286248D01*
X111796664Y-84261675D01*
X111764283Y-84224439D01*
X111727298Y-84180970D01*
X111716412Y-84168086D01*
X111680091Y-84125756D01*
X111649926Y-84091535D01*
X111631562Y-84071858D01*
X111612812Y-84051522D01*
X111583276Y-84017135D01*
X111549570Y-83976369D01*
X111516295Y-83936115D01*
X111486662Y-83901595D01*
X111467578Y-83880881D01*
X111463795Y-83877045D01*
X111441425Y-83852485D01*
X111408892Y-83815248D01*
X111371842Y-83771769D01*
X111360941Y-83758865D01*
X111324670Y-83716540D01*
X111294598Y-83682320D01*
X111276353Y-83662639D01*
X111272599Y-83658794D01*
X111250335Y-83634223D01*
X111217881Y-83596984D01*
X111180864Y-83553509D01*
X111169949Y-83540586D01*
X111133726Y-83498268D01*
X111103741Y-83464056D01*
X111085606Y-83444379D01*
X111081842Y-83440491D01*
X111059629Y-83415903D01*
X111027183Y-83378678D01*
X110990117Y-83335231D01*
X110978653Y-83321677D01*
X110943184Y-83280056D01*
X110914589Y-83246945D01*
X110898200Y-83228537D01*
X110885889Y-83213659D01*
X110881993Y-83198888D01*
X110898241Y-83198921D01*
X110932304Y-83214702D01*
X110958404Y-83229388D01*
X111008032Y-83256948D01*
X111058485Y-83284639D01*
X111094034Y-83304314D01*
X111128565Y-83324140D01*
X111147153Y-83335741D01*
X111149993Y-83337766D01*
X111176942Y-83354513D01*
X111219680Y-83379154D01*
X111271198Y-83407716D01*
X111324489Y-83436230D01*
X111340015Y-83444495D01*
X111370591Y-83461672D01*
X111385875Y-83471643D01*
X111395475Y-83478693D01*
X111419978Y-83493103D01*
X111460472Y-83514869D01*
X111513801Y-83543762D01*
X111548604Y-83563053D01*
X111568436Y-83574727D01*
X111576852Y-83580773D01*
X111581023Y-83583908D01*
X111603956Y-83597854D01*
X111638238Y-83616923D01*
X111646791Y-83621535D01*
X111698148Y-83649583D01*
X111747368Y-83676908D01*
X111774303Y-83691950D01*
X111825636Y-83720370D01*
X111876960Y-83748559D01*
X111911680Y-83767949D01*
X111955417Y-83793476D01*
X111986090Y-83812674D01*
X112007451Y-83826247D01*
X112048940Y-83850839D01*
X112095220Y-83876927D01*
X112132799Y-83897531D01*
X112194622Y-83931426D01*
X112252094Y-83962938D01*
X112294331Y-83986714D01*
X112339074Y-84013182D01*
X112370150Y-84033016D01*
X112371804Y-84034161D01*
X112398587Y-84051189D01*
X112413884Y-84058217D01*
X112425438Y-84063021D01*
X112454536Y-84078534D01*
X112493626Y-84101046D01*
X112524304Y-84119151D01*
X112618553Y-84173315D01*
X112715896Y-84226685D01*
X112731552Y-84235275D01*
X112762043Y-84253192D01*
X112777282Y-84263973D01*
X112777838Y-84264522D01*
X112794802Y-84275472D01*
X112828664Y-84294628D01*
X112872771Y-84318213D01*
X112878073Y-84320987D01*
X112921337Y-84344125D01*
X112953614Y-84362248D01*
X112968259Y-84371641D01*
X112979884Y-84380286D01*
X113005588Y-84395838D01*
X113007874Y-84397101D01*
X113044425Y-84411771D01*
X113062017Y-84407947D01*
X113058833Y-84388296D01*
X113033055Y-84355488D01*
X113010449Y-84330851D01*
X112976860Y-84292126D01*
X112940977Y-84249194D01*
X112907367Y-84208884D01*
X112874384Y-84170646D01*
X112851142Y-84145144D01*
X112834263Y-84126779D01*
X112802959Y-84090467D01*
X112769295Y-84049610D01*
X112744524Y-84019526D01*
X112709360Y-83978808D01*
X112681793Y-83949087D01*
X112664387Y-83930673D01*
X112630603Y-83892291D01*
X112595900Y-83850526D01*
X112572193Y-83821337D01*
X112544755Y-83788380D01*
X112527500Y-83768679D01*
X112524122Y-83765023D01*
X112503601Y-83741703D01*
X112472481Y-83705527D01*
X112436058Y-83662639D01*
X112425040Y-83649626D01*
X112388788Y-83607342D01*
X112358828Y-83573158D01*
X112340762Y-83553491D01*
X112337025Y-83549603D01*
X112314889Y-83525012D01*
X112282502Y-83487786D01*
X112245467Y-83444342D01*
X112233943Y-83430718D01*
X112198596Y-83389251D01*
X112170190Y-83356398D01*
X112154024Y-83338303D01*
X112141949Y-83324674D01*
X112116278Y-83294081D01*
X112085625Y-83256455D01*
X112062732Y-83228630D01*
X112027580Y-83187928D01*
X111999687Y-83157894D01*
X111994032Y-83152110D01*
X111961321Y-83115551D01*
X111929353Y-83076047D01*
X111921004Y-83065288D01*
X111884719Y-83021601D01*
X111847549Y-82980252D01*
X111820071Y-82950235D01*
X111779855Y-82904337D01*
X111740547Y-82857783D01*
X111708053Y-82819140D01*
X111664804Y-82769330D01*
X111628007Y-82728571D01*
X111608126Y-82705800D01*
X111584428Y-82672046D01*
X111575369Y-82648423D01*
X111583258Y-82639527D01*
X111593193Y-82643048D01*
X111621193Y-82657363D01*
X111658478Y-82678498D01*
X111697076Y-82701889D01*
X111729012Y-82722972D01*
X111729960Y-82723641D01*
X111759414Y-82741332D01*
X111780167Y-82748657D01*
X111784525Y-82749183D01*
X111795112Y-82760707D01*
X111798821Y-82768314D01*
X111818985Y-82780328D01*
X111841857Y-82790207D01*
X111876952Y-82808822D01*
X111910732Y-82829008D01*
X111931525Y-82844146D01*
X111937975Y-82848740D01*
X111963347Y-82863872D01*
X111999731Y-82884052D01*
X112021935Y-82896291D01*
X112052881Y-82914476D01*
X112067937Y-82924976D01*
X112079636Y-82934088D01*
X112105451Y-82949865D01*
X112128942Y-82962916D01*
X112166836Y-82983969D01*
X112188268Y-82996837D01*
X112204350Y-83008858D01*
X112210774Y-83013796D01*
X112236147Y-83029402D01*
X112272556Y-83049782D01*
X112294816Y-83061986D01*
X112325724Y-83079783D01*
X112340762Y-83089688D01*
X112347213Y-83094282D01*
X112372585Y-83109414D01*
X112408968Y-83129595D01*
X112431172Y-83141834D01*
X112462118Y-83160019D01*
X112477175Y-83170518D01*
X112486784Y-83178242D01*
X112511278Y-83193278D01*
X112512368Y-83193874D01*
X112566376Y-83223878D01*
X112599124Y-83243239D01*
X112613587Y-83253717D01*
X112621123Y-83259017D01*
X112647668Y-83274444D01*
X112685204Y-83294617D01*
X112710449Y-83308580D01*
X112738920Y-83327130D01*
X112750000Y-83338618D01*
X112750640Y-83341581D01*
X112764945Y-83348872D01*
X112765347Y-83348881D01*
X112786579Y-83356639D01*
X112816100Y-83374557D01*
X112822012Y-83378670D01*
X112861056Y-83403891D01*
X112903464Y-83429122D01*
X112908664Y-83432058D01*
X112957925Y-83459869D01*
X113005773Y-83486882D01*
X113013729Y-83491431D01*
X113056843Y-83517522D01*
X113093137Y-83541446D01*
X113094085Y-83542115D01*
X113123539Y-83559807D01*
X113144291Y-83567132D01*
X113148649Y-83567658D01*
X113159237Y-83579182D01*
X113162945Y-83586789D01*
X113183109Y-83598803D01*
X113205982Y-83608682D01*
X113241076Y-83627296D01*
X113274857Y-83647483D01*
X113295649Y-83662621D01*
X113305294Y-83669757D01*
X113329753Y-83684363D01*
X113380255Y-83712353D01*
X113416176Y-83733349D01*
X113432062Y-83744468D01*
X113438498Y-83749045D01*
X113463871Y-83764134D01*
X113500268Y-83784253D01*
X113515321Y-83792537D01*
X113569265Y-83824299D01*
X113618676Y-83855869D01*
X113639164Y-83869195D01*
X113670865Y-83887388D01*
X113689156Y-83894522D01*
X113691534Y-83894674D01*
X113707160Y-83904753D01*
X113712826Y-83910578D01*
X113737145Y-83927285D01*
X113773093Y-83948069D01*
X113795297Y-83960309D01*
X113826243Y-83978493D01*
X113841299Y-83988993D01*
X113842893Y-83990611D01*
X113858555Y-84001761D01*
X113890857Y-84020837D01*
X113943609Y-84050116D01*
X113961422Y-84060485D01*
X113977712Y-84071858D01*
X113989444Y-84080336D01*
X114015225Y-84095730D01*
X114038716Y-84108781D01*
X114076611Y-84129833D01*
X114098080Y-84142484D01*
X114114124Y-84153705D01*
X114125857Y-84162183D01*
X114151638Y-84177578D01*
X114175129Y-84190628D01*
X114213023Y-84211681D01*
X114234493Y-84224332D01*
X114250537Y-84235553D01*
X114256987Y-84240147D01*
X114282359Y-84255279D01*
X114318743Y-84275459D01*
X114340947Y-84287698D01*
X114371892Y-84305883D01*
X114386949Y-84316383D01*
X114399827Y-84326298D01*
X114426331Y-84342555D01*
X114429148Y-84344141D01*
X114465078Y-84364351D01*
X114505184Y-84386889D01*
X114514029Y-84391793D01*
X114542998Y-84406832D01*
X114557880Y-84412889D01*
X114564883Y-84404674D01*
X114556040Y-84383211D01*
X114533592Y-84355016D01*
X114523879Y-84344660D01*
X114494567Y-84312303D01*
X114456165Y-84269066D01*
X114414423Y-84221393D01*
X114393117Y-84197020D01*
X114351503Y-84150144D01*
X114315685Y-84110689D01*
X114291651Y-84085293D01*
X114275199Y-84068107D01*
X114241937Y-84031994D01*
X114200187Y-83985743D01*
X114155298Y-83935240D01*
X114119521Y-83894847D01*
X114080210Y-83850908D01*
X114049667Y-83817267D01*
X114032497Y-83799033D01*
X114031864Y-83798402D01*
X114013982Y-83779446D01*
X113982512Y-83745114D01*
X113941711Y-83700078D01*
X113895835Y-83649013D01*
X113849425Y-83597301D01*
X113799165Y-83541608D01*
X113754994Y-83492967D01*
X113722942Y-83458036D01*
X113699420Y-83432353D01*
X113656773Y-83384627D01*
X113620633Y-83342910D01*
X113604046Y-83323701D01*
X113561966Y-83277098D01*
X113520730Y-83233614D01*
X113500839Y-83212945D01*
X113460218Y-83168894D01*
X113426736Y-83130446D01*
X113426589Y-83130268D01*
X113401797Y-83101497D01*
X113363661Y-83058558D01*
X113317353Y-83007227D01*
X113268044Y-82953276D01*
X113267580Y-82952771D01*
X113218311Y-82898810D01*
X113172144Y-82847499D01*
X113134236Y-82804616D01*
X113109744Y-82775940D01*
X113100198Y-82764517D01*
X113061754Y-82721218D01*
X113022894Y-82680443D01*
X113009607Y-82666915D01*
X112967581Y-82622038D01*
X112928722Y-82578133D01*
X112928437Y-82577798D01*
X112895072Y-82539504D01*
X112852320Y-82491698D01*
X112809361Y-82444649D01*
X112788667Y-82421837D01*
X112753662Y-82379576D01*
X112738225Y-82353933D01*
X112742605Y-82345438D01*
X112767051Y-82354623D01*
X112788324Y-82366901D01*
X112804565Y-82378975D01*
X112816251Y-82388306D01*
X112842078Y-82404216D01*
X112865569Y-82417266D01*
X112903464Y-82438319D01*
X112924895Y-82451188D01*
X112940977Y-82463208D01*
X112947401Y-82468146D01*
X112972775Y-82483752D01*
X113009183Y-82504132D01*
X113031419Y-82516352D01*
X113062343Y-82534319D01*
X113077389Y-82544486D01*
X113080328Y-82546714D01*
X113102222Y-82560813D01*
X113141487Y-82585032D01*
X113193772Y-82616706D01*
X113254726Y-82653168D01*
X113280314Y-82668423D01*
X113338263Y-82703258D01*
X113385771Y-82732218D01*
X113418487Y-82752637D01*
X113432062Y-82761851D01*
X113432430Y-82762229D01*
X113447397Y-82772965D01*
X113480324Y-82792399D01*
X113534371Y-82822403D01*
X113552142Y-82832953D01*
X113568474Y-82845163D01*
X113574898Y-82850101D01*
X113600272Y-82865707D01*
X113636681Y-82886087D01*
X113658907Y-82898312D01*
X113689838Y-82916341D01*
X113704887Y-82926603D01*
X113706038Y-82927580D01*
X113724214Y-82939665D01*
X113760069Y-82962120D01*
X113808843Y-82992055D01*
X113865778Y-83026582D01*
X113926115Y-83062810D01*
X113985094Y-83097850D01*
X114037956Y-83128813D01*
X114051313Y-83136677D01*
X114094816Y-83163532D01*
X114129871Y-83186789D01*
X114130813Y-83187453D01*
X114160270Y-83205137D01*
X114181026Y-83212459D01*
X114185384Y-83212985D01*
X114195972Y-83224510D01*
X114199680Y-83232117D01*
X114219844Y-83244131D01*
X114244149Y-83254677D01*
X114279239Y-83273432D01*
X114312446Y-83293505D01*
X114332384Y-83308396D01*
X114335323Y-83310624D01*
X114357217Y-83324722D01*
X114396482Y-83348942D01*
X114448766Y-83380616D01*
X114509720Y-83417078D01*
X114535307Y-83432332D01*
X114593257Y-83467170D01*
X114640765Y-83496135D01*
X114673482Y-83516561D01*
X114687056Y-83525782D01*
X114701956Y-83536071D01*
X114730045Y-83551687D01*
X114759163Y-83564521D01*
X114779303Y-83566082D01*
X114779291Y-83551361D01*
X114759272Y-83521389D01*
X114719395Y-83477197D01*
X114694817Y-83451764D01*
X114648174Y-83402840D01*
X114591615Y-83343003D01*
X114530153Y-83277559D01*
X114468797Y-83211814D01*
X114419095Y-83158469D01*
X114365564Y-83101248D01*
X114319421Y-83052172D01*
X114284385Y-83015195D01*
X114264178Y-82994272D01*
X114252076Y-82981794D01*
X114221245Y-82949210D01*
X114178538Y-82903567D01*
X114127880Y-82849067D01*
X114073200Y-82789914D01*
X114037988Y-82751790D01*
X113983149Y-82692707D01*
X113933743Y-82639810D01*
X113894108Y-82597738D01*
X113868582Y-82571128D01*
X113862564Y-82564969D01*
X113827202Y-82528128D01*
X113783313Y-82481697D01*
X113738990Y-82434227D01*
X113736128Y-82431142D01*
X113699360Y-82391657D01*
X113648781Y-82337534D01*
X113588818Y-82273504D01*
X113523903Y-82204298D01*
X113458465Y-82134646D01*
X113449068Y-82124649D01*
X113384879Y-82056204D01*
X113323027Y-81989997D01*
X113267609Y-81930428D01*
X113222722Y-81881900D01*
X113192460Y-81848815D01*
X113152039Y-81804916D01*
X113099079Y-81748909D01*
X113050107Y-81698476D01*
X113019752Y-81667562D01*
X112954680Y-81598872D01*
X112909355Y-81546848D01*
X112884091Y-81511865D01*
X112879199Y-81494297D01*
X112895687Y-81482902D01*
X112936641Y-81474909D01*
X113001664Y-81472831D01*
X113091615Y-81476647D01*
X113207354Y-81486338D01*
X113233010Y-81488864D01*
X113332362Y-81499092D01*
X113413574Y-81508541D01*
X113484040Y-81518318D01*
X113551152Y-81529525D01*
X113622303Y-81543266D01*
X113704887Y-81560647D01*
X113817504Y-81586192D01*
X113941548Y-81616823D01*
X114065011Y-81649597D01*
X114182657Y-81683021D01*
X114289250Y-81715606D01*
X114379555Y-81745861D01*
X114448335Y-81772294D01*
X114469896Y-81781442D01*
X114515242Y-81800532D01*
X114564285Y-81821052D01*
X114596338Y-81834439D01*
X114644401Y-81854581D01*
X114680236Y-81869678D01*
X114691918Y-81874572D01*
X114735651Y-81892433D01*
X114782545Y-81911119D01*
X114796854Y-81916933D01*
X114847814Y-81939847D01*
X114891675Y-81962345D01*
X114910339Y-81972738D01*
X114954274Y-81996643D01*
X115009726Y-82026405D01*
X115069011Y-82057883D01*
X115083234Y-82065433D01*
X115159590Y-82107522D01*
X115238254Y-82153822D01*
X115325798Y-82208299D01*
X115428793Y-82274915D01*
X115444693Y-82285793D01*
X115486991Y-82316418D01*
X115541792Y-82357364D01*
X115603435Y-82404277D01*
X115666259Y-82452801D01*
X115724606Y-82498582D01*
X115772814Y-82537267D01*
X115805223Y-82564500D01*
X115825979Y-82583153D01*
X115917635Y-82670548D01*
X116011517Y-82767103D01*
X116099587Y-82864333D01*
X116173812Y-82953752D01*
X116192481Y-82977289D01*
X116225836Y-83017982D01*
X116252249Y-83048625D01*
X116254634Y-83051276D01*
X116274804Y-83076109D01*
X116283082Y-83090837D01*
X116283613Y-83092903D01*
X116295195Y-83111215D01*
X116317169Y-83138721D01*
X116322465Y-83145087D01*
X116342962Y-83174637D01*
X116351272Y-83195408D01*
X116352067Y-83201642D01*
X116362625Y-83212459D01*
X116362784Y-83212463D01*
X116376451Y-83223652D01*
X116393296Y-83249973D01*
X116409293Y-83278353D01*
X116420852Y-83294307D01*
X116423805Y-83298592D01*
X116437210Y-83323099D01*
X116458587Y-83364687D01*
X116485462Y-83418322D01*
X116515363Y-83478972D01*
X116545816Y-83541602D01*
X116574349Y-83601179D01*
X116598489Y-83652671D01*
X116615764Y-83691043D01*
X116632651Y-83733739D01*
X116655919Y-83798988D01*
X116681553Y-83875593D01*
X116707205Y-83956159D01*
X116730525Y-84033289D01*
X116749166Y-84099590D01*
X116760779Y-84147665D01*
X116767574Y-84181416D01*
X116779621Y-84240717D01*
X116789773Y-84290118D01*
X116799872Y-84345251D01*
X116815384Y-84462593D01*
X116827143Y-84597001D01*
X116834939Y-84742034D01*
X116838566Y-84891250D01*
X116837815Y-85038206D01*
X116832479Y-85176460D01*
X116822349Y-85299570D01*
X116816239Y-85353373D01*
X116794369Y-85526390D01*
X116771429Y-85677097D01*
X116746785Y-85809366D01*
X116719804Y-85927067D01*
X116715828Y-85942879D01*
X116703738Y-85991871D01*
X116691346Y-86043018D01*
X116683508Y-86074344D01*
X116667352Y-86134805D01*
X116650786Y-86193072D01*
X116640307Y-86228819D01*
X116623033Y-86288820D01*
X116608825Y-86339358D01*
X116595412Y-86380248D01*
X116577389Y-86405260D01*
X116549827Y-86411173D01*
X116505770Y-86402230D01*
X116462475Y-86382308D01*
X116405417Y-86339375D01*
X116343403Y-86278592D01*
X116279644Y-86203767D01*
X116217350Y-86118704D01*
X116159731Y-86027208D01*
X116109998Y-85933084D01*
X116107911Y-85928702D01*
X116080850Y-85875228D01*
X116060135Y-85843170D01*
X116044969Y-85833500D01*
X116034558Y-85847188D01*
X116028106Y-85885202D01*
X116024818Y-85948514D01*
X116023899Y-86038093D01*
X116024490Y-86084758D01*
X116032597Y-86209985D01*
X116049701Y-86318991D01*
X116075149Y-86408397D01*
X116108288Y-86474823D01*
X116109228Y-86476204D01*
X116126069Y-86503373D01*
X116133029Y-86519275D01*
X116134054Y-86523399D01*
X116145232Y-86540886D01*
X116169751Y-86570259D01*
X116208901Y-86612898D01*
X116263970Y-86670182D01*
X116336245Y-86743493D01*
X116427016Y-86834210D01*
X116512131Y-86919630D01*
X116603167Y-87013829D01*
X116677350Y-87095009D01*
X116736697Y-87165976D01*
X116783230Y-87229534D01*
X116818966Y-87288488D01*
X116845924Y-87345646D01*
X116866125Y-87403811D01*
X116881587Y-87465789D01*
X116890202Y-87523348D01*
X116894497Y-87621087D01*
X116891987Y-87679968D01*
X116889864Y-87729791D01*
G37*
G36*
X170817871Y-60300317D02*
G01*
X170817871Y-61861660D01*
X170495944Y-61861660D01*
X170174018Y-61861660D01*
X170174018Y-60300317D01*
X170174018Y-58738973D01*
X170495944Y-58738973D01*
X170817871Y-58738973D01*
X170817871Y-60300317D01*
G37*
G36*
X173393283Y-60300317D02*
G01*
X173393283Y-61861660D01*
X172281428Y-61861660D01*
X171169574Y-61861660D01*
X171178830Y-61569646D01*
X171188086Y-61277631D01*
X171968758Y-61280949D01*
X172749430Y-61284266D01*
X172749430Y-60011620D01*
X172749430Y-58738973D01*
X173071356Y-58738973D01*
X173393283Y-58738973D01*
X173393283Y-60300317D01*
G37*
G36*
X167859111Y-59642930D02*
G01*
X167957356Y-59652304D01*
X168032046Y-59669612D01*
X168041767Y-59673661D01*
X168061486Y-59691434D01*
X168033883Y-59712532D01*
X167951564Y-59743772D01*
X167914185Y-59756495D01*
X167813844Y-59786747D01*
X167757534Y-59791735D01*
X167732848Y-59770193D01*
X167727376Y-59720849D01*
X167734526Y-59668487D01*
X167768583Y-59646075D01*
X167848099Y-59642630D01*
X167859111Y-59642930D01*
G37*
G36*
X166053359Y-62425032D02*
G01*
X166051796Y-62458950D01*
X166038400Y-62485479D01*
X166000029Y-62499346D01*
X165923547Y-62504656D01*
X165795817Y-62505513D01*
X165538276Y-62505513D01*
X165538276Y-63165463D01*
X165538276Y-63825412D01*
X165457795Y-63825412D01*
X165377313Y-63825412D01*
X165377313Y-63166765D01*
X165377313Y-62508117D01*
X165111724Y-62498767D01*
X165023961Y-62495276D01*
X164926256Y-62487966D01*
X164871258Y-62475125D01*
X164845584Y-62452787D01*
X164835847Y-62416984D01*
X164825560Y-62344550D01*
X165439459Y-62344550D01*
X166053359Y-62344550D01*
X166053359Y-62425032D01*
G37*
G36*
X164129354Y-59655078D02*
G01*
X164137896Y-60571183D01*
X164331052Y-60324767D01*
X164372551Y-60271870D01*
X164522597Y-60081105D01*
X164696169Y-59861005D01*
X164880722Y-59627436D01*
X165063711Y-59396266D01*
X165232592Y-59183360D01*
X165374819Y-59004586D01*
X165586565Y-58739021D01*
X165852155Y-58738997D01*
X166117744Y-58738973D01*
X166117744Y-60300317D01*
X166117744Y-61861660D01*
X165795817Y-61861660D01*
X165473891Y-61861660D01*
X165473891Y-60844650D01*
X165473891Y-59827640D01*
X165094475Y-60321520D01*
X165012818Y-60427736D01*
X164661101Y-60883296D01*
X164345066Y-61289271D01*
X164065725Y-61644360D01*
X163893676Y-61861660D01*
X163685811Y-61861660D01*
X163477947Y-61861660D01*
X163477947Y-60300317D01*
X163477947Y-58738973D01*
X163799379Y-58738973D01*
X164120812Y-58738973D01*
X164129354Y-59655078D01*
G37*
G36*
X167261035Y-59910355D02*
G01*
X167284502Y-59928606D01*
X167302065Y-59957543D01*
X167286206Y-59998589D01*
X167233654Y-60070929D01*
X167214015Y-60097964D01*
X167170924Y-60189405D01*
X167184606Y-60266710D01*
X167256314Y-60345063D01*
X167308116Y-60376661D01*
X167409197Y-60421513D01*
X167527966Y-60464524D01*
X167639498Y-60496831D01*
X167718874Y-60509569D01*
X167764463Y-60516690D01*
X167791762Y-60541762D01*
X167787100Y-60548053D01*
X167734531Y-60561739D01*
X167631453Y-60570725D01*
X167487831Y-60573954D01*
X167413719Y-60574902D01*
X167291272Y-60581195D01*
X167203003Y-60592110D01*
X167164005Y-60606147D01*
X167136472Y-60631188D01*
X167080865Y-60631793D01*
X167038679Y-60587418D01*
X167032585Y-60563549D01*
X167022941Y-60481184D01*
X167019138Y-60377033D01*
X167017969Y-60339475D01*
X167000692Y-60223987D01*
X166968179Y-60139797D01*
X166934707Y-60051848D01*
X166956477Y-59966558D01*
X167037368Y-59902794D01*
X167110395Y-59874908D01*
X167187088Y-59871753D01*
X167261035Y-59910355D01*
G37*
G36*
X169075427Y-60229524D02*
G01*
X169112487Y-60266870D01*
X169187257Y-60369216D01*
X169264491Y-60500992D01*
X169332821Y-60642007D01*
X169380876Y-60772065D01*
X169397169Y-60829255D01*
X169423243Y-60938090D01*
X169429668Y-61023589D01*
X169416648Y-61112673D01*
X169384389Y-61232264D01*
X169373134Y-61267735D01*
X169271543Y-61466110D01*
X169113816Y-61639878D01*
X168904276Y-61785135D01*
X168647247Y-61897976D01*
X168595706Y-61913561D01*
X168456097Y-61943184D01*
X168328749Y-61955981D01*
X168277509Y-61956253D01*
X168209837Y-61950451D01*
X168183751Y-61930039D01*
X168183883Y-61887782D01*
X168199272Y-61852182D01*
X168264746Y-61779361D01*
X168371229Y-61696539D01*
X168375302Y-61693754D01*
X168611070Y-61507366D01*
X168801890Y-61304590D01*
X168938107Y-61095658D01*
X168950335Y-61071304D01*
X168987479Y-60989883D01*
X169011020Y-60914883D01*
X169023941Y-60828609D01*
X169029226Y-60713364D01*
X169029857Y-60551451D01*
X169029854Y-60550611D01*
X169030268Y-60394501D01*
X169033732Y-60293525D01*
X169041546Y-60238495D01*
X169055011Y-60220224D01*
X169075427Y-60229524D01*
G37*
G36*
X167212294Y-62877328D02*
G01*
X167213903Y-63098859D01*
X167220553Y-63273230D01*
X167234746Y-63401708D01*
X167258981Y-63493660D01*
X167295760Y-63558450D01*
X167347581Y-63605445D01*
X167416945Y-63644011D01*
X167502097Y-63677112D01*
X167649974Y-63692662D01*
X167806754Y-63650888D01*
X167871519Y-63618623D01*
X167926242Y-63573018D01*
X167965507Y-63508283D01*
X167991769Y-63415381D01*
X168007485Y-63285278D01*
X168015113Y-63108939D01*
X168017110Y-62877328D01*
X168017110Y-62344550D01*
X168117743Y-62344550D01*
X168218376Y-62344550D01*
X168204573Y-62901899D01*
X168201776Y-63009760D01*
X168195921Y-63187516D01*
X168188697Y-63317312D01*
X168178685Y-63410172D01*
X168164471Y-63477118D01*
X168144637Y-63529176D01*
X168117766Y-63577368D01*
X168045487Y-63673492D01*
X167928626Y-63776584D01*
X167807858Y-63834015D01*
X167694680Y-63851399D01*
X167512611Y-63841666D01*
X167341901Y-63791702D01*
X167205185Y-63706304D01*
X167165655Y-63667681D01*
X167118966Y-63606843D01*
X167084694Y-63532799D01*
X167060571Y-63435313D01*
X167044327Y-63304153D01*
X167033694Y-63129084D01*
X167026403Y-62899873D01*
X167012767Y-62344550D01*
X167112531Y-62344550D01*
X167212294Y-62344550D01*
X167212294Y-62877328D01*
G37*
G36*
X171914070Y-62419221D02*
G01*
X171896095Y-62513825D01*
X171848035Y-62577370D01*
X171827192Y-62593202D01*
X171809861Y-62619052D01*
X171797848Y-62662556D01*
X171790187Y-62733060D01*
X171785911Y-62839911D01*
X171784054Y-62992454D01*
X171783650Y-63200034D01*
X171782683Y-63373556D01*
X171779679Y-63540504D01*
X171775011Y-63674976D01*
X171769054Y-63766337D01*
X171762188Y-63803950D01*
X171742919Y-63814902D01*
X171681707Y-63825412D01*
X171663354Y-63822665D01*
X171647274Y-63807545D01*
X171636084Y-63771345D01*
X171628908Y-63705404D01*
X171624867Y-63601061D01*
X171623086Y-63449657D01*
X171622687Y-63242529D01*
X171622687Y-62659647D01*
X171542205Y-62596340D01*
X171501975Y-62551753D01*
X171464032Y-62449196D01*
X171465398Y-62407370D01*
X171597374Y-62407370D01*
X171621346Y-62455609D01*
X171629045Y-62464433D01*
X171688992Y-62502370D01*
X171733826Y-62481162D01*
X171751457Y-62405470D01*
X171737527Y-62348834D01*
X171691454Y-62323627D01*
X171630411Y-62355222D01*
X171625598Y-62360115D01*
X171597374Y-62407370D01*
X171465398Y-62407370D01*
X171467689Y-62337181D01*
X171515002Y-62242459D01*
X171561737Y-62209375D01*
X171660922Y-62185554D01*
X171767883Y-62194558D01*
X171853549Y-62236865D01*
X171858078Y-62241182D01*
X171901538Y-62319645D01*
X171912339Y-62405470D01*
X171914070Y-62419221D01*
G37*
G36*
X166812420Y-62485568D02*
G01*
X166745501Y-62583176D01*
X166734314Y-62593627D01*
X166708746Y-62621123D01*
X166690396Y-62654036D01*
X166678068Y-62702193D01*
X166670563Y-62775422D01*
X166666685Y-62883552D01*
X166665236Y-63036411D01*
X166665019Y-63243827D01*
X166665019Y-63829890D01*
X166592585Y-63819603D01*
X166585565Y-63818563D01*
X166561524Y-63811823D01*
X166544030Y-63794385D01*
X166531842Y-63757302D01*
X166523719Y-63691629D01*
X166518422Y-63588417D01*
X166514711Y-63438720D01*
X166511343Y-63233592D01*
X166510991Y-63210663D01*
X166507506Y-63010434D01*
X166503249Y-62863277D01*
X166496862Y-62758892D01*
X166486985Y-62686983D01*
X166472258Y-62637250D01*
X166451320Y-62599397D01*
X166422814Y-62563124D01*
X166410979Y-62548704D01*
X166354146Y-62452099D01*
X166354046Y-62385306D01*
X166506620Y-62385306D01*
X166513969Y-62444550D01*
X166554978Y-62485973D01*
X166586635Y-62497832D01*
X166619422Y-62502933D01*
X166643557Y-62484052D01*
X166668267Y-62439857D01*
X166658571Y-62379208D01*
X166612426Y-62337351D01*
X166544296Y-62335879D01*
X166535198Y-62340067D01*
X166506620Y-62385306D01*
X166354046Y-62385306D01*
X166354015Y-62364498D01*
X166409814Y-62268410D01*
X166483872Y-62203906D01*
X166586874Y-62183587D01*
X166599979Y-62183875D01*
X166712725Y-62214797D01*
X166789842Y-62285783D01*
X166825137Y-62381239D01*
X166817992Y-62439857D01*
X166812420Y-62485568D01*
G37*
G36*
X172854216Y-62326071D02*
G01*
X173022793Y-62380406D01*
X173182575Y-62464792D01*
X173306413Y-62567068D01*
X173376879Y-62655275D01*
X173449171Y-62796069D01*
X173482794Y-62959234D01*
X173483020Y-63162543D01*
X173481228Y-63188528D01*
X173464213Y-63326550D01*
X173432396Y-63431016D01*
X173378193Y-63528383D01*
X173330916Y-63591717D01*
X173173155Y-63733821D01*
X172982374Y-63827480D01*
X172900307Y-63845825D01*
X172724279Y-63849613D01*
X172537160Y-63818496D01*
X172363046Y-63757447D01*
X172226038Y-63671438D01*
X172203118Y-63650080D01*
X172187098Y-63612876D01*
X172220537Y-63565344D01*
X172235574Y-63549362D01*
X172269357Y-63528203D01*
X172311946Y-63539456D01*
X172384999Y-63585815D01*
X172485878Y-63642257D01*
X172662427Y-63688798D01*
X172865636Y-63681698D01*
X172901773Y-63674210D01*
X173038069Y-63613593D01*
X173164178Y-63513817D01*
X173262324Y-63391453D01*
X173314732Y-63263070D01*
X173327803Y-63164933D01*
X173317712Y-62960572D01*
X173256459Y-62782084D01*
X173147580Y-62637514D01*
X172994612Y-62534909D01*
X172899979Y-62499169D01*
X172720172Y-62474989D01*
X172540951Y-62511912D01*
X172355007Y-62610807D01*
X172293601Y-62648236D01*
X172253720Y-62650526D01*
X172211641Y-62616176D01*
X172203702Y-62608126D01*
X172178237Y-62571554D01*
X172192237Y-62537429D01*
X172251944Y-62485509D01*
X172285314Y-62461194D01*
X172427826Y-62386293D01*
X172589600Y-62332788D01*
X172737860Y-62312357D01*
X172854216Y-62326071D01*
G37*
G36*
X169025333Y-62312893D02*
G01*
X169214720Y-62349127D01*
X169396907Y-62434442D01*
X169553529Y-62557904D01*
X169666223Y-62708582D01*
X169700449Y-62795066D01*
X169732424Y-62956554D01*
X169741000Y-63134538D01*
X169725517Y-63303794D01*
X169685316Y-63439100D01*
X169606834Y-63559629D01*
X169484216Y-63683509D01*
X169343722Y-63781302D01*
X169205877Y-63836016D01*
X169076500Y-63850490D01*
X168902521Y-63841550D01*
X168736466Y-63806914D01*
X168605279Y-63750423D01*
X168518651Y-63692032D01*
X168459091Y-63636363D01*
X168447229Y-63590460D01*
X168477110Y-63544771D01*
X168485659Y-63536542D01*
X168521345Y-63516686D01*
X168565551Y-63530048D01*
X168638307Y-63581146D01*
X168653321Y-63592120D01*
X168807456Y-63664721D01*
X168981533Y-63690015D01*
X169158003Y-63669767D01*
X169319315Y-63605744D01*
X169447921Y-63499709D01*
X169493268Y-63436760D01*
X169563952Y-63267624D01*
X169585754Y-63080454D01*
X169557956Y-62892750D01*
X169479840Y-62722012D01*
X169441316Y-62672903D01*
X169314071Y-62570082D01*
X169157544Y-62499525D01*
X168995283Y-62473321D01*
X168977958Y-62473757D01*
X168840187Y-62498874D01*
X168699193Y-62553596D01*
X168588706Y-62625312D01*
X168560386Y-62649279D01*
X168521272Y-62659825D01*
X168474853Y-62621888D01*
X168464762Y-62611423D01*
X168440665Y-62574918D01*
X168455703Y-62540383D01*
X168516096Y-62487561D01*
X168551588Y-62461541D01*
X168693615Y-62386453D01*
X168854085Y-62332829D01*
X169000673Y-62312357D01*
X169025333Y-62312893D01*
G37*
G36*
X169642112Y-59559886D02*
G01*
X169722961Y-59746995D01*
X169800010Y-60054227D01*
X169815222Y-60370614D01*
X169767696Y-60688061D01*
X169738796Y-60792111D01*
X169712673Y-60866924D01*
X169695262Y-60895238D01*
X169682622Y-60876774D01*
X169653141Y-60808184D01*
X169613141Y-60700812D01*
X169567537Y-60567282D01*
X169537400Y-60480597D01*
X169474334Y-60320479D01*
X169408793Y-60175636D01*
X169350912Y-60069369D01*
X169349067Y-60066508D01*
X169277015Y-59974291D01*
X169179126Y-59873099D01*
X169069053Y-59774413D01*
X168960453Y-59689711D01*
X168866980Y-59630472D01*
X168802289Y-59608175D01*
X168783351Y-59605131D01*
X168757541Y-59575982D01*
X168762365Y-59567401D01*
X168810764Y-59549201D01*
X168894360Y-59540342D01*
X169031179Y-59536895D01*
X168894360Y-59506255D01*
X168874580Y-59501650D01*
X168784354Y-59472874D01*
X168773070Y-59463308D01*
X169240431Y-59463308D01*
X169256527Y-59479404D01*
X169272623Y-59463308D01*
X169256527Y-59447212D01*
X169240431Y-59463308D01*
X168773070Y-59463308D01*
X168754418Y-59447496D01*
X168781231Y-59428588D01*
X168861251Y-59419223D01*
X168990938Y-59422473D01*
X169224335Y-59438578D01*
X169055387Y-59380492D01*
X168997869Y-59362117D01*
X168858245Y-59325028D01*
X168733460Y-59300322D01*
X168686928Y-59292599D01*
X168591934Y-59270598D01*
X168532193Y-59248046D01*
X168529112Y-59245428D01*
X168551146Y-59235404D01*
X168633109Y-59230634D01*
X168771460Y-59231209D01*
X168962654Y-59237216D01*
X169011963Y-59239196D01*
X169193251Y-59247396D01*
X169324612Y-59258871D01*
X169417747Y-59279178D01*
X169484362Y-59313875D01*
X169536159Y-59368521D01*
X169584841Y-59448671D01*
X169592378Y-59463308D01*
X169642112Y-59559886D01*
G37*
G36*
X171107604Y-63084981D02*
G01*
X171107604Y-63825412D01*
X171027123Y-63825412D01*
X170988458Y-63822970D01*
X170964539Y-63807133D01*
X170952096Y-63765153D01*
X170947380Y-63684282D01*
X170946641Y-63551774D01*
X170946641Y-63278137D01*
X170777630Y-63279525D01*
X170608618Y-63280912D01*
X170367174Y-63550453D01*
X170273006Y-63653781D01*
X170188500Y-63739198D01*
X170125145Y-63790225D01*
X170072197Y-63815260D01*
X170018910Y-63822703D01*
X169912092Y-63825412D01*
X169976115Y-63736882D01*
X170027403Y-63674244D01*
X170110385Y-63583447D01*
X170203656Y-63488599D01*
X170210062Y-63482324D01*
X170289460Y-63401496D01*
X170345774Y-63338670D01*
X170367174Y-63306982D01*
X170342531Y-63285792D01*
X170278644Y-63263234D01*
X170161798Y-63212164D01*
X170056239Y-63110976D01*
X169988354Y-62978170D01*
X169962349Y-62827452D01*
X169963876Y-62815669D01*
X170141825Y-62815669D01*
X170143193Y-62861680D01*
X170164816Y-62960575D01*
X170220843Y-63038155D01*
X170222317Y-63039626D01*
X170263142Y-63075344D01*
X170308751Y-63098032D01*
X170374041Y-63110617D01*
X170473909Y-63116022D01*
X170623251Y-63117174D01*
X170946641Y-63117174D01*
X170946641Y-62811344D01*
X170946641Y-62505513D01*
X170643281Y-62505513D01*
X170522328Y-62506366D01*
X170416995Y-62511668D01*
X170346050Y-62524891D01*
X170292880Y-62549473D01*
X170240873Y-62588857D01*
X170183597Y-62644867D01*
X170149987Y-62714288D01*
X170141825Y-62815669D01*
X169963876Y-62815669D01*
X169982428Y-62672527D01*
X170052797Y-62527103D01*
X170074157Y-62499128D01*
X170141643Y-62435433D01*
X170228963Y-62391146D01*
X170347151Y-62363248D01*
X170507238Y-62348722D01*
X170720259Y-62344550D01*
X171107604Y-62344550D01*
X171107604Y-62811344D01*
X171107604Y-63084981D01*
G37*
G36*
X164355693Y-62373506D02*
G01*
X164383752Y-62386151D01*
X164525602Y-62479429D01*
X164609367Y-62598330D01*
X164636882Y-62745277D01*
X164632593Y-62811917D01*
X164604955Y-62899390D01*
X164544844Y-62970652D01*
X164444375Y-63031475D01*
X164295661Y-63087629D01*
X164090815Y-63144885D01*
X163994931Y-63169908D01*
X163842365Y-63215766D01*
X163739630Y-63259701D01*
X163677575Y-63307681D01*
X163647051Y-63365671D01*
X163638910Y-63439642D01*
X163648527Y-63500764D01*
X163709683Y-63592301D01*
X163820495Y-63657217D01*
X163973078Y-63689611D01*
X164147705Y-63687517D01*
X164324800Y-63638033D01*
X164463371Y-63537443D01*
X164519037Y-63491388D01*
X164591528Y-63463747D01*
X164646972Y-63475552D01*
X164669075Y-63527583D01*
X164654194Y-63569408D01*
X164597553Y-63640917D01*
X164514485Y-63716952D01*
X164422044Y-63782378D01*
X164337285Y-63822058D01*
X164237712Y-63844383D01*
X164045077Y-63856944D01*
X163857465Y-63834454D01*
X163692802Y-63779854D01*
X163569013Y-63696083D01*
X163516951Y-63634920D01*
X163485827Y-63558211D01*
X163477947Y-63448740D01*
X163477960Y-63444358D01*
X163497738Y-63302235D01*
X163558764Y-63190207D01*
X163666526Y-63103831D01*
X163826508Y-63038665D01*
X164044199Y-62990266D01*
X164168464Y-62963773D01*
X164289746Y-62927331D01*
X164374173Y-62890261D01*
X164428039Y-62848290D01*
X164473460Y-62768360D01*
X164467096Y-62684318D01*
X164415367Y-62604479D01*
X164324694Y-62537156D01*
X164201499Y-62490665D01*
X164052200Y-62473321D01*
X163971982Y-62482771D01*
X163869022Y-62511649D01*
X163771811Y-62552040D01*
X163699466Y-62595839D01*
X163671103Y-62634938D01*
X163660100Y-62657024D01*
X163611688Y-62663306D01*
X163544877Y-62636538D01*
X163528443Y-62620119D01*
X163528040Y-62566740D01*
X163571968Y-62500515D01*
X163651105Y-62432739D01*
X163756327Y-62374710D01*
X163945109Y-62322905D01*
X164156063Y-62320917D01*
X164355693Y-62373506D01*
G37*
G36*
X169086884Y-58922310D02*
G01*
X169096010Y-58928328D01*
X169225721Y-59016947D01*
X169301269Y-59076520D01*
X169324453Y-59109511D01*
X169297076Y-59118382D01*
X169220940Y-59105597D01*
X169145510Y-59091904D01*
X168956207Y-59078050D01*
X168753159Y-59084790D01*
X168561730Y-59110614D01*
X168407285Y-59154014D01*
X168330455Y-59182412D01*
X168252354Y-59203987D01*
X168214322Y-59204457D01*
X168219275Y-59183227D01*
X168260354Y-59129329D01*
X168329935Y-59058410D01*
X168387821Y-59002566D01*
X168435390Y-58951731D01*
X168446216Y-58932129D01*
X168435644Y-58933445D01*
X168370694Y-58964136D01*
X168287938Y-59023730D01*
X168207346Y-59096477D01*
X168148886Y-59166630D01*
X168082580Y-59270152D01*
X168082236Y-59173574D01*
X168093902Y-59086568D01*
X168128624Y-58987407D01*
X168133093Y-58978642D01*
X168152961Y-58927535D01*
X168147042Y-58920351D01*
X168505694Y-58920351D01*
X168532193Y-58932129D01*
X168549235Y-58929806D01*
X168553654Y-58910668D01*
X168548936Y-58906815D01*
X168510731Y-58910668D01*
X168505694Y-58920351D01*
X168147042Y-58920351D01*
X168144293Y-58917015D01*
X168117245Y-58942656D01*
X168068946Y-59023104D01*
X168028807Y-59127042D01*
X168007996Y-59228911D01*
X168006261Y-59245940D01*
X167994376Y-59291478D01*
X167965167Y-59334343D01*
X167909106Y-59383394D01*
X167816670Y-59447490D01*
X167678331Y-59535488D01*
X167555294Y-59611037D01*
X167444471Y-59676220D01*
X167363941Y-59720383D01*
X167325679Y-59736693D01*
X167333292Y-59716712D01*
X167378661Y-59659907D01*
X167454550Y-59575156D01*
X167553325Y-59471356D01*
X167563487Y-59460909D01*
X167694103Y-59319725D01*
X167791910Y-59200509D01*
X167853260Y-59108666D01*
X167874509Y-59049597D01*
X167852011Y-59028707D01*
X167850083Y-59028824D01*
X167801140Y-59044154D01*
X167713653Y-59080220D01*
X167605178Y-59129831D01*
X167565474Y-59149622D01*
X167326981Y-59308946D01*
X167128101Y-59515627D01*
X166977067Y-59761388D01*
X166934373Y-59855335D01*
X166902028Y-59945029D01*
X166884106Y-60034812D01*
X166876566Y-60146102D01*
X166875365Y-60300317D01*
X166876006Y-60377327D01*
X166881324Y-60514874D01*
X166894823Y-60617471D01*
X166919970Y-60705489D01*
X166960227Y-60799303D01*
X167012112Y-60908396D01*
X167064132Y-61003320D01*
X167113107Y-61053558D01*
X167173752Y-61066263D01*
X167260779Y-61048588D01*
X167388903Y-61007685D01*
X167555054Y-60947810D01*
X167938718Y-60766886D01*
X168301582Y-60536183D01*
X168333180Y-60513341D01*
X168426421Y-60448448D01*
X168493794Y-60405386D01*
X168522447Y-60392515D01*
X168523497Y-60395087D01*
X168517046Y-60437793D01*
X168494759Y-60512397D01*
X168421684Y-60675079D01*
X168269447Y-60888256D01*
X168063003Y-61081792D01*
X167807858Y-61249778D01*
X167679087Y-61320846D01*
X167789745Y-61301118D01*
X167912997Y-61271266D01*
X168149968Y-61165954D01*
X168365294Y-61004286D01*
X168553770Y-60790624D01*
X168710193Y-60529332D01*
X168712611Y-60524392D01*
X168783042Y-60388357D01*
X168833675Y-60311259D01*
X168866381Y-60294017D01*
X168883032Y-60337550D01*
X168885497Y-60442777D01*
X168875650Y-60610618D01*
X168849305Y-60795577D01*
X168763369Y-61055021D01*
X168620817Y-61288051D01*
X168420028Y-61497100D01*
X168159379Y-61684601D01*
X168078089Y-61739215D01*
X168014766Y-61803118D01*
X167990827Y-61869709D01*
X167981291Y-61910572D01*
X167946686Y-61948486D01*
X167880381Y-61956262D01*
X167773824Y-61934197D01*
X167618461Y-61882585D01*
X167487487Y-61828975D01*
X167204421Y-61666125D01*
X166959031Y-61456345D01*
X166757195Y-61206354D01*
X166604787Y-60922870D01*
X166507685Y-60612611D01*
X166475609Y-60321165D01*
X166501428Y-60014322D01*
X166585506Y-59715989D01*
X166725113Y-59435689D01*
X166917518Y-59182948D01*
X167012531Y-59086517D01*
X167277141Y-58876432D01*
X167566413Y-58725542D01*
X167573057Y-58722979D01*
X167662717Y-58698815D01*
X167785116Y-58677871D01*
X167926480Y-58661034D01*
X168073033Y-58649192D01*
X168210999Y-58643232D01*
X168326602Y-58644043D01*
X168406065Y-58652512D01*
X168435615Y-58669527D01*
X168442089Y-58684816D01*
X168482706Y-58686689D01*
X168549565Y-58684421D01*
X168659311Y-58711682D01*
X168794922Y-58764113D01*
X168942185Y-58836170D01*
X169067328Y-58910668D01*
X169086884Y-58922310D01*
G37*
%TD*%
M02*
