%TF.GenerationSoftware,KiCad,Pcbnew,9.0.2*%
%TF.CreationDate,2025-11-07T18:09:28+05:30*%
%TF.ProjectId,v1,76312e6b-6963-4616-945f-706362585858,rev?*%
%TF.SameCoordinates,Original*%
%TF.FileFunction,Copper,L1,Top*%
%TF.FilePolarity,Positive*%
%FSLAX46Y46*%
G04 Gerber Fmt 4.6, Leading zero omitted, Abs format (unit mm)*
G04 Created by KiCad (PCBNEW 9.0.2) date 2025-11-07 18:09:28*
%MOMM*%
%LPD*%
G01*
G04 APERTURE LIST*
G04 Aperture macros list*
%AMRoundRect*
0 Rectangle with rounded corners*
0 $1 Rounding radius*
0 $2 $3 $4 $5 $6 $7 $8 $9 X,Y pos of 4 corners*
0 Add a 4 corners polygon primitive as box body*
4,1,4,$2,$3,$4,$5,$6,$7,$8,$9,$2,$3,0*
0 Add four circle primitives for the rounded corners*
1,1,$1+$1,$2,$3*
1,1,$1+$1,$4,$5*
1,1,$1+$1,$6,$7*
1,1,$1+$1,$8,$9*
0 Add four rect primitives between the rounded corners*
20,1,$1+$1,$2,$3,$4,$5,0*
20,1,$1+$1,$4,$5,$6,$7,0*
20,1,$1+$1,$6,$7,$8,$9,0*
20,1,$1+$1,$8,$9,$2,$3,0*%
G04 Aperture macros list end*
%TA.AperFunction,SMDPad,CuDef*%
%ADD10RoundRect,0.250000X-0.350000X-0.450000X0.350000X-0.450000X0.350000X0.450000X-0.350000X0.450000X0*%
%TD*%
%TA.AperFunction,ComponentPad*%
%ADD11RoundRect,0.250000X0.550000X-0.950000X0.550000X0.950000X-0.550000X0.950000X-0.550000X-0.950000X0*%
%TD*%
%TA.AperFunction,ComponentPad*%
%ADD12O,1.600000X2.400000*%
%TD*%
%TA.AperFunction,ComponentPad*%
%ADD13RoundRect,0.250000X0.550000X-0.550000X0.550000X0.550000X-0.550000X0.550000X-0.550000X-0.550000X0*%
%TD*%
%TA.AperFunction,ComponentPad*%
%ADD14C,1.600000*%
%TD*%
%TA.AperFunction,SMDPad,CuDef*%
%ADD15RoundRect,0.250000X-0.337500X-0.475000X0.337500X-0.475000X0.337500X0.475000X-0.337500X0.475000X0*%
%TD*%
%TA.AperFunction,SMDPad,CuDef*%
%ADD16RoundRect,0.250000X0.350000X0.450000X-0.350000X0.450000X-0.350000X-0.450000X0.350000X-0.450000X0*%
%TD*%
%TA.AperFunction,SMDPad,CuDef*%
%ADD17RoundRect,0.250000X0.337500X0.475000X-0.337500X0.475000X-0.337500X-0.475000X0.337500X-0.475000X0*%
%TD*%
%TA.AperFunction,SMDPad,CuDef*%
%ADD18RoundRect,0.250000X-0.450000X0.350000X-0.450000X-0.350000X0.450000X-0.350000X0.450000X0.350000X0*%
%TD*%
%TA.AperFunction,ComponentPad*%
%ADD19R,1.524000X2.524000*%
%TD*%
%TA.AperFunction,ComponentPad*%
%ADD20O,1.524000X2.524000*%
%TD*%
%TA.AperFunction,SMDPad,CuDef*%
%ADD21RoundRect,0.250000X0.450000X-0.350000X0.450000X0.350000X-0.450000X0.350000X-0.450000X-0.350000X0*%
%TD*%
%TA.AperFunction,SMDPad,CuDef*%
%ADD22RoundRect,0.250000X-0.475000X0.337500X-0.475000X-0.337500X0.475000X-0.337500X0.475000X0.337500X0*%
%TD*%
%TA.AperFunction,ComponentPad*%
%ADD23RoundRect,0.250000X0.550000X0.550000X-0.550000X0.550000X-0.550000X-0.550000X0.550000X-0.550000X0*%
%TD*%
%TA.AperFunction,ComponentPad*%
%ADD24RoundRect,0.250000X1.050000X-1.050000X1.050000X1.050000X-1.050000X1.050000X-1.050000X-1.050000X0*%
%TD*%
%TA.AperFunction,ComponentPad*%
%ADD25C,2.600000*%
%TD*%
%TA.AperFunction,ComponentPad*%
%ADD26R,1.500000X1.050000*%
%TD*%
%TA.AperFunction,ComponentPad*%
%ADD27O,1.500000X1.050000*%
%TD*%
%TA.AperFunction,ComponentPad*%
%ADD28RoundRect,0.250000X-0.950000X-0.550000X0.950000X-0.550000X0.950000X0.550000X-0.950000X0.550000X0*%
%TD*%
%TA.AperFunction,ComponentPad*%
%ADD29O,2.400000X1.600000*%
%TD*%
%TA.AperFunction,ComponentPad*%
%ADD30C,2.000000*%
%TD*%
%TA.AperFunction,ComponentPad*%
%ADD31C,1.000000*%
%TD*%
%TA.AperFunction,SMDPad,CuDef*%
%ADD32RoundRect,0.250000X0.325000X0.450000X-0.325000X0.450000X-0.325000X-0.450000X0.325000X-0.450000X0*%
%TD*%
%TA.AperFunction,ViaPad*%
%ADD33C,0.600000*%
%TD*%
%TA.AperFunction,Conductor*%
%ADD34C,0.300000*%
%TD*%
G04 APERTURE END LIST*
D10*
%TO.P,R18,1*%
%TO.N,Net-(U8-C)*%
X58750000Y-74250000D03*
%TO.P,R18,2*%
%TO.N,Net-(AFF6-c)*%
X60750000Y-74250000D03*
%TD*%
D11*
%TO.P,U8,1,CLK*%
%TO.N,Net-(U7-CARRY_OUT)*%
X67380000Y-72250000D03*
D12*
%TO.P,U8,2,CLK_INHIBIT*%
%TO.N,GND*%
X69920000Y-72250000D03*
%TO.P,U8,3,DISPLAY_EN_IN*%
%TO.N,+6V*%
X72460000Y-72250000D03*
%TO.P,U8,4,DISPLAY_EN_OUT*%
%TO.N,unconnected-(U8-DISPLAY_EN_OUT-Pad4)*%
X75000000Y-72250000D03*
%TO.P,U8,5,CARRY_OUT*%
%TO.N,unconnected-(U8-CARRY_OUT-Pad5)*%
X77540000Y-72250000D03*
%TO.P,U8,6,F*%
%TO.N,Net-(U8-F)*%
X80080000Y-72250000D03*
%TO.P,U8,7,G*%
%TO.N,Net-(U8-G)*%
X82620000Y-72250000D03*
%TO.P,U8,8,VSS*%
%TO.N,GND*%
X85160000Y-72250000D03*
%TO.P,U8,9,D*%
%TO.N,Net-(U8-D)*%
X85160000Y-64630000D03*
%TO.P,U8,10,A*%
%TO.N,Net-(U8-A)*%
X82620000Y-64630000D03*
%TO.P,U8,11,E*%
%TO.N,Net-(U8-E)*%
X80080000Y-64630000D03*
%TO.P,U8,12,B*%
%TO.N,Net-(U8-B)*%
X77540000Y-64630000D03*
%TO.P,U8,13,C*%
%TO.N,Net-(U8-C)*%
X75000000Y-64630000D03*
%TO.P,U8,14,UNGATED_C_SEGMENT_OUT*%
%TO.N,unconnected-(U8-UNGATED_C_SEGMENT_OUT-Pad14)*%
X72460000Y-64630000D03*
%TO.P,U8,15,RESET*%
%TO.N,Net-(U7-RESET)*%
X69920000Y-64630000D03*
%TO.P,U8,16,VDD*%
%TO.N,+6V*%
X67380000Y-64630000D03*
%TD*%
D13*
%TO.P,D5,1,K*%
%TO.N,Net-(D5-K)*%
X53250000Y-85000000D03*
D14*
%TO.P,D5,2,A*%
%TO.N,Net-(D5-A)*%
X53250000Y-77380000D03*
%TD*%
D15*
%TO.P,C6,1*%
%TO.N,+6V*%
X66635000Y-62000000D03*
%TO.P,C6,2*%
%TO.N,GND*%
X68710000Y-62000000D03*
%TD*%
D16*
%TO.P,R14,1*%
%TO.N,Net-(AFF5-a)*%
X58000000Y-93250000D03*
%TO.P,R14,2*%
%TO.N,Net-(U7-A)*%
X56000000Y-93250000D03*
%TD*%
D17*
%TO.P,C1,1*%
%TO.N,Net-(U1-~{\u03A60})*%
X176575000Y-89750000D03*
%TO.P,C1,2*%
%TO.N,Net-(U1-~{\u03A61})*%
X174500000Y-89750000D03*
%TD*%
D13*
%TO.P,D4,1,K*%
%TO.N,Net-(D4-K)*%
X53250000Y-95620000D03*
D14*
%TO.P,D4,2,A*%
%TO.N,Net-(D2-A)*%
X53250000Y-88000000D03*
%TD*%
D10*
%TO.P,R11,1*%
%TO.N,Net-(U7-D)*%
X56000000Y-86250000D03*
%TO.P,R11,2*%
%TO.N,Net-(AFF5-d)*%
X58000000Y-86250000D03*
%TD*%
%TO.P,R21,1*%
%TO.N,Net-(U8-F)*%
X58750000Y-67500000D03*
%TO.P,R21,2*%
%TO.N,Net-(AFF6-f)*%
X60750000Y-67500000D03*
%TD*%
D18*
%TO.P,R50,1*%
%TO.N,Net-(U6-G)*%
X126750000Y-100500000D03*
%TO.P,R50,2*%
%TO.N,Net-(AFF4-g)*%
X126750000Y-102500000D03*
%TD*%
%TO.P,R7,1*%
%TO.N,+6V*%
X157750000Y-102250000D03*
%TO.P,R7,2*%
%TO.N,Net-(D5-A)*%
X157750000Y-104250000D03*
%TD*%
D19*
%TO.P,AFF3,1,e*%
%TO.N,Net-(AFF3-e)*%
X94000000Y-94240000D03*
D20*
%TO.P,AFF3,2,d*%
%TO.N,Net-(AFF3-d)*%
X96540000Y-94240000D03*
%TO.P,AFF3,3,C.K.*%
%TO.N,GND*%
X99080000Y-94240000D03*
%TO.P,AFF3,4,c*%
%TO.N,Net-(AFF3-c)*%
X101620000Y-94240000D03*
%TO.P,AFF3,5,DP*%
%TO.N,unconnected-(AFF3-DP-Pad5)*%
X104160000Y-94240000D03*
%TO.P,AFF3,6,b*%
%TO.N,Net-(AFF3-b)*%
X104160000Y-79000000D03*
%TO.P,AFF3,7,a*%
%TO.N,Net-(AFF3-a)*%
X101620000Y-79000000D03*
%TO.P,AFF3,8,C.K.*%
%TO.N,GND*%
X99080000Y-79000000D03*
%TO.P,AFF3,9,f*%
%TO.N,Net-(AFF3-f)*%
X96540000Y-79000000D03*
%TO.P,AFF3,10,g*%
%TO.N,Net-(AFF3-g)*%
X94000000Y-79000000D03*
%TD*%
D21*
%TO.P,R32,1*%
%TO.N,Net-(U3-C)*%
X115500000Y-102500000D03*
%TO.P,R32,2*%
%TO.N,Net-(AFF2-c)*%
X115500000Y-100500000D03*
%TD*%
%TO.P,R2,1*%
%TO.N,Net-(R2-Pad1)*%
X151000000Y-104250000D03*
%TO.P,R2,2*%
%TO.N,Net-(U2-Q5)*%
X151000000Y-102250000D03*
%TD*%
D22*
%TO.P,C7,1*%
%TO.N,+6V*%
X127250000Y-109500000D03*
%TO.P,C7,2*%
%TO.N,GND*%
X127250000Y-111575000D03*
%TD*%
D23*
%TO.P,D6,1,K*%
%TO.N,Net-(D6-K)*%
X64750000Y-101750000D03*
D14*
%TO.P,D6,2,A*%
%TO.N,Net-(D5-A)*%
X57130000Y-101750000D03*
%TD*%
D11*
%TO.P,U6,1,CLK*%
%TO.N,/CLK - Mod-60 (2)*%
X81760000Y-118000000D03*
D12*
%TO.P,U6,2,CLK_INHIBIT*%
%TO.N,GND*%
X84300000Y-118000000D03*
%TO.P,U6,3,DISPLAY_EN_IN*%
%TO.N,+6V*%
X86840000Y-118000000D03*
%TO.P,U6,4,DISPLAY_EN_OUT*%
%TO.N,unconnected-(U6-DISPLAY_EN_OUT-Pad4)*%
X89380000Y-118000000D03*
%TO.P,U6,5,CARRY_OUT*%
%TO.N,Net-(U5-CLK)*%
X91920000Y-118000000D03*
%TO.P,U6,6,F*%
%TO.N,Net-(U6-F)*%
X94460000Y-118000000D03*
%TO.P,U6,7,G*%
%TO.N,Net-(U6-G)*%
X97000000Y-118000000D03*
%TO.P,U6,8,VSS*%
%TO.N,GND*%
X99540000Y-118000000D03*
%TO.P,U6,9,D*%
%TO.N,Net-(U6-D)*%
X99540000Y-110380000D03*
%TO.P,U6,10,A*%
%TO.N,Net-(U6-A)*%
X97000000Y-110380000D03*
%TO.P,U6,11,E*%
%TO.N,Net-(U6-E)*%
X94460000Y-110380000D03*
%TO.P,U6,12,B*%
%TO.N,Net-(U6-B)*%
X91920000Y-110380000D03*
%TO.P,U6,13,C*%
%TO.N,Net-(U6-C)*%
X89380000Y-110380000D03*
%TO.P,U6,14,UNGATED_C_SEGMENT_OUT*%
%TO.N,unconnected-(U6-UNGATED_C_SEGMENT_OUT-Pad14)*%
X86840000Y-110380000D03*
%TO.P,U6,15,RESET*%
%TO.N,Net-(D5-A)*%
X84300000Y-110380000D03*
%TO.P,U6,16,VDD*%
%TO.N,+6V*%
X81760000Y-110380000D03*
%TD*%
D19*
%TO.P,AFF2,1,e*%
%TO.N,Net-(AFF2-e)*%
X136170000Y-94240000D03*
D20*
%TO.P,AFF2,2,d*%
%TO.N,Net-(AFF2-d)*%
X138710000Y-94240000D03*
%TO.P,AFF2,3,C.K.*%
%TO.N,GND*%
X141250000Y-94240000D03*
%TO.P,AFF2,4,c*%
%TO.N,Net-(AFF2-c)*%
X143790000Y-94240000D03*
%TO.P,AFF2,5,DP*%
%TO.N,unconnected-(AFF2-DP-Pad5)*%
X146330000Y-94240000D03*
%TO.P,AFF2,6,b*%
%TO.N,Net-(AFF2-b)*%
X146330000Y-79000000D03*
%TO.P,AFF2,7,a*%
%TO.N,Net-(AFF2-a)*%
X143790000Y-79000000D03*
%TO.P,AFF2,8,C.K.*%
%TO.N,GND*%
X141250000Y-79000000D03*
%TO.P,AFF2,9,f*%
%TO.N,Net-(AFF2-f)*%
X138710000Y-79000000D03*
%TO.P,AFF2,10,g*%
%TO.N,Net-(AFF2-g)*%
X136170000Y-79000000D03*
%TD*%
D16*
%TO.P,R15,1*%
%TO.N,Net-(AFF5-g)*%
X58000000Y-95750000D03*
%TO.P,R15,2*%
%TO.N,Net-(U7-G)*%
X56000000Y-95750000D03*
%TD*%
D10*
%TO.P,R27,1*%
%TO.N,Net-(D2-K)*%
X151000000Y-72500000D03*
%TO.P,R27,2*%
%TO.N,Net-(AFF1-e)*%
X153000000Y-72500000D03*
%TD*%
D18*
%TO.P,R46,1*%
%TO.N,Net-(U6-C)*%
X135750000Y-100500000D03*
%TO.P,R46,2*%
%TO.N,Net-(AFF4-c)*%
X135750000Y-102500000D03*
%TD*%
%TO.P,R5,1*%
%TO.N,Net-(D1-A)*%
X159750000Y-102250000D03*
%TO.P,R5,2*%
%TO.N,+6V*%
X159750000Y-104250000D03*
%TD*%
%TO.P,R44,1*%
%TO.N,Net-(U6-A)*%
X148750000Y-102250000D03*
%TO.P,R44,2*%
%TO.N,Net-(AFF4-a)*%
X148750000Y-104250000D03*
%TD*%
D24*
%TO.P,J1,1,Pin_1*%
%TO.N,+6V*%
X171750000Y-99000000D03*
D25*
%TO.P,J1,2,Pin_2*%
%TO.N,GND*%
X171750000Y-94000000D03*
%TD*%
D10*
%TO.P,R43,1*%
%TO.N,Net-(D7-K)*%
X92500000Y-71000000D03*
%TO.P,R43,2*%
%TO.N,Net-(AFF3-g)*%
X94500000Y-71000000D03*
%TD*%
D19*
%TO.P,AFF6,1,e*%
%TO.N,Net-(AFF6-e)*%
X65170000Y-94240000D03*
D20*
%TO.P,AFF6,2,d*%
%TO.N,Net-(AFF6-d)*%
X67710000Y-94240000D03*
%TO.P,AFF6,3,C.K.*%
%TO.N,GND*%
X70250000Y-94240000D03*
%TO.P,AFF6,4,c*%
%TO.N,Net-(AFF6-c)*%
X72790000Y-94240000D03*
%TO.P,AFF6,5,DP*%
%TO.N,unconnected-(AFF6-DP-Pad5)*%
X75330000Y-94240000D03*
%TO.P,AFF6,6,b*%
%TO.N,Net-(AFF6-b)*%
X75330000Y-79000000D03*
%TO.P,AFF6,7,a*%
%TO.N,Net-(AFF6-a)*%
X72790000Y-79000000D03*
%TO.P,AFF6,8,C.K.*%
%TO.N,GND*%
X70250000Y-79000000D03*
%TO.P,AFF6,9,f*%
%TO.N,Net-(AFF6-f)*%
X67710000Y-79000000D03*
%TO.P,AFF6,10,g*%
%TO.N,Net-(AFF6-g)*%
X65170000Y-79000000D03*
%TD*%
D13*
%TO.P,D7,1,K*%
%TO.N,Net-(D7-K)*%
X53250000Y-74500000D03*
D14*
%TO.P,D7,2,A*%
%TO.N,Net-(D5-A)*%
X53250000Y-66880000D03*
%TD*%
D10*
%TO.P,R41,1*%
%TO.N,Net-(D5-K)*%
X92500000Y-68750000D03*
%TO.P,R41,2*%
%TO.N,Net-(AFF3-e)*%
X94500000Y-68750000D03*
%TD*%
D18*
%TO.P,R47,1*%
%TO.N,Net-(U6-D)*%
X133500000Y-100500000D03*
%TO.P,R47,2*%
%TO.N,Net-(AFF4-d)*%
X133500000Y-102500000D03*
%TD*%
D10*
%TO.P,R8,1*%
%TO.N,Net-(U7-RESET)*%
X163250000Y-97750000D03*
%TO.P,R8,2*%
%TO.N,GND*%
X165250000Y-97750000D03*
%TD*%
D16*
%TO.P,R39,1*%
%TO.N,Net-(U5-C)*%
X94500000Y-66500000D03*
%TO.P,R39,2*%
%TO.N,Net-(AFF3-c)*%
X92500000Y-66500000D03*
%TD*%
D21*
%TO.P,R33,1*%
%TO.N,Net-(U3-D)*%
X117750000Y-102500000D03*
%TO.P,R33,2*%
%TO.N,Net-(AFF2-d)*%
X117750000Y-100500000D03*
%TD*%
D22*
%TO.P,C9,1*%
%TO.N,+6V*%
X124250000Y-64250000D03*
%TO.P,C9,2*%
%TO.N,GND*%
X124250000Y-66325000D03*
%TD*%
%TO.P,C2,1*%
%TO.N,+6V*%
X155000000Y-109462500D03*
%TO.P,C2,2*%
%TO.N,GND*%
X155000000Y-111537500D03*
%TD*%
D10*
%TO.P,R51,1*%
%TO.N,Net-(AFF5-DP)*%
X158000000Y-71250000D03*
%TO.P,R51,2*%
%TO.N,+6V*%
X160000000Y-71250000D03*
%TD*%
D11*
%TO.P,U3,1,CLK*%
%TO.N,/CLK - Mod-60 (1)*%
X105470000Y-117750000D03*
D12*
%TO.P,U3,2,CLK_INHIBIT*%
%TO.N,GND*%
X108010000Y-117750000D03*
%TO.P,U3,3,DISPLAY_EN_IN*%
%TO.N,+6V*%
X110550000Y-117750000D03*
%TO.P,U3,4,DISPLAY_EN_OUT*%
%TO.N,unconnected-(U3-DISPLAY_EN_OUT-Pad4)*%
X113090000Y-117750000D03*
%TO.P,U3,5,CARRY_OUT*%
%TO.N,Net-(U3-CARRY_OUT)*%
X115630000Y-117750000D03*
%TO.P,U3,6,F*%
%TO.N,Net-(U3-F)*%
X118170000Y-117750000D03*
%TO.P,U3,7,G*%
%TO.N,Net-(U3-G)*%
X120710000Y-117750000D03*
%TO.P,U3,8,VSS*%
%TO.N,GND*%
X123250000Y-117750000D03*
%TO.P,U3,9,D*%
%TO.N,Net-(U3-D)*%
X123250000Y-110130000D03*
%TO.P,U3,10,A*%
%TO.N,Net-(U3-A)*%
X120710000Y-110130000D03*
%TO.P,U3,11,E*%
%TO.N,Net-(U3-E)*%
X118170000Y-110130000D03*
%TO.P,U3,12,B*%
%TO.N,Net-(U3-B)*%
X115630000Y-110130000D03*
%TO.P,U3,13,C*%
%TO.N,Net-(U3-C)*%
X113090000Y-110130000D03*
%TO.P,U3,14,UNGATED_C_SEGMENT_OUT*%
%TO.N,unconnected-(U3-UNGATED_C_SEGMENT_OUT-Pad14)*%
X110550000Y-110130000D03*
%TO.P,U3,15,RESET*%
%TO.N,Net-(D2-A)*%
X108010000Y-110130000D03*
%TO.P,U3,16,VDD*%
%TO.N,+6V*%
X105470000Y-110130000D03*
%TD*%
D10*
%TO.P,R12,1*%
%TO.N,Net-(U7-E)*%
X56000000Y-88500000D03*
%TO.P,R12,2*%
%TO.N,Net-(AFF5-e)*%
X58000000Y-88500000D03*
%TD*%
D13*
%TO.P,D3,1,K*%
%TO.N,Net-(D3-K)*%
X53750000Y-117120000D03*
D14*
%TO.P,D3,2,A*%
%TO.N,Net-(D2-A)*%
X53750000Y-109500000D03*
%TD*%
D26*
%TO.P,Q2,1,C*%
%TO.N,Net-(D1-K)*%
X165000000Y-88540000D03*
D27*
%TO.P,Q2,2,B*%
%TO.N,Net-(Q2-B)*%
X165000000Y-87270000D03*
%TO.P,Q2,3,E*%
%TO.N,GND*%
X165000000Y-86000000D03*
%TD*%
D10*
%TO.P,R42,1*%
%TO.N,Net-(D6-K)*%
X92500000Y-73250000D03*
%TO.P,R42,2*%
%TO.N,Net-(AFF3-f)*%
X94500000Y-73250000D03*
%TD*%
D15*
%TO.P,C10,1*%
%TO.N,+6V*%
X92462500Y-64250000D03*
%TO.P,C10,2*%
%TO.N,GND*%
X94537500Y-64250000D03*
%TD*%
D21*
%TO.P,R36,1*%
%TO.N,Net-(U3-G)*%
X124500000Y-102500000D03*
%TO.P,R36,2*%
%TO.N,Net-(AFF2-g)*%
X124500000Y-100500000D03*
%TD*%
D28*
%TO.P,U10,1*%
%TO.N,Net-(U8-A)*%
X151380000Y-81460000D03*
D29*
%TO.P,U10,2*%
X151380000Y-84000000D03*
%TO.P,U10,3*%
%TO.N,Net-(U10-Pad3)*%
X151380000Y-86540000D03*
%TO.P,U10,4*%
X151380000Y-89080000D03*
%TO.P,U10,5*%
%TO.N,Net-(U7-G)*%
X151380000Y-91620000D03*
%TO.P,U10,6*%
%TO.N,Net-(U10-Pad10)*%
X151380000Y-94160000D03*
%TO.P,U10,7,GND*%
%TO.N,GND*%
X151380000Y-96700000D03*
%TO.P,U10,8*%
%TO.N,Net-(U7-RESET)*%
X159000000Y-96700000D03*
%TO.P,U10,9*%
%TO.N,Net-(U10-Pad10)*%
X159000000Y-94160000D03*
%TO.P,U10,10*%
X159000000Y-91620000D03*
%TO.P,U10,11*%
%TO.N,N/C*%
X159000000Y-89080000D03*
%TO.P,U10,12*%
X159000000Y-86540000D03*
%TO.P,U10,13*%
X159000000Y-84000000D03*
%TO.P,U10,14,VCC*%
%TO.N,+6V*%
X159000000Y-81460000D03*
%TD*%
D16*
%TO.P,R29,1*%
%TO.N,Net-(D4-K)*%
X159912500Y-66500000D03*
%TO.P,R29,2*%
%TO.N,Net-(AFF1-g)*%
X157912500Y-66500000D03*
%TD*%
D11*
%TO.P,U5,1,CLK*%
%TO.N,Net-(U5-CLK)*%
X98610000Y-72060000D03*
D12*
%TO.P,U5,2,CLK_INHIBIT*%
%TO.N,GND*%
X101150000Y-72060000D03*
%TO.P,U5,3,DISPLAY_EN_IN*%
%TO.N,+6V*%
X103690000Y-72060000D03*
%TO.P,U5,4,DISPLAY_EN_OUT*%
%TO.N,unconnected-(U5-DISPLAY_EN_OUT-Pad4)*%
X106230000Y-72060000D03*
%TO.P,U5,5,CARRY_OUT*%
%TO.N,/CLK - Mod-12*%
X108770000Y-72060000D03*
%TO.P,U5,6,F*%
%TO.N,Net-(D6-K)*%
X111310000Y-72060000D03*
%TO.P,U5,7,G*%
%TO.N,Net-(D7-K)*%
X113850000Y-72060000D03*
%TO.P,U5,8,VSS*%
%TO.N,GND*%
X116390000Y-72060000D03*
%TO.P,U5,9,D*%
%TO.N,Net-(U5-D)*%
X116390000Y-64440000D03*
%TO.P,U5,10,A*%
%TO.N,Net-(U5-A)*%
X113850000Y-64440000D03*
%TO.P,U5,11,E*%
%TO.N,Net-(D5-K)*%
X111310000Y-64440000D03*
%TO.P,U5,12,B*%
%TO.N,Net-(U5-B)*%
X108770000Y-64440000D03*
%TO.P,U5,13,C*%
%TO.N,Net-(U5-C)*%
X106230000Y-64440000D03*
%TO.P,U5,14,UNGATED_C_SEGMENT_OUT*%
%TO.N,unconnected-(U5-UNGATED_C_SEGMENT_OUT-Pad14)*%
X103690000Y-64440000D03*
%TO.P,U5,15,RESET*%
%TO.N,Net-(D5-A)*%
X101150000Y-64440000D03*
%TO.P,U5,16,VDD*%
%TO.N,+6V*%
X98610000Y-64440000D03*
%TD*%
D15*
%TO.P,C8,1*%
%TO.N,+6V*%
X104462500Y-107250000D03*
%TO.P,C8,2*%
%TO.N,GND*%
X106537500Y-107250000D03*
%TD*%
D30*
%TO.P,SW1,1,1*%
%TO.N,Net-(U1-Q4)*%
X171000000Y-74250000D03*
X171000000Y-67750000D03*
%TO.P,SW1,2,2*%
%TO.N,Net-(R2-Pad1)*%
X175500000Y-74250000D03*
X175500000Y-67750000D03*
%TD*%
D18*
%TO.P,R48,1*%
%TO.N,Net-(U6-E)*%
X131250000Y-100500000D03*
%TO.P,R48,2*%
%TO.N,Net-(AFF4-e)*%
X131250000Y-102500000D03*
%TD*%
D21*
%TO.P,R35,1*%
%TO.N,Net-(U3-F)*%
X122250000Y-102500000D03*
%TO.P,R35,2*%
%TO.N,Net-(AFF2-f)*%
X122250000Y-100500000D03*
%TD*%
D13*
%TO.P,D2,1,K*%
%TO.N,Net-(D2-K)*%
X53250000Y-106500000D03*
D14*
%TO.P,D2,2,A*%
%TO.N,Net-(D2-A)*%
X53250000Y-98880000D03*
%TD*%
D11*
%TO.P,U1,1,Q12*%
%TO.N,unconnected-(U1-Q12-Pad1)*%
X157760000Y-117750000D03*
D12*
%TO.P,U1,2,Q13*%
%TO.N,unconnected-(U1-Q13-Pad2)*%
X160300000Y-117750000D03*
%TO.P,U1,3,Q14*%
%TO.N,unconnected-(U1-Q14-Pad3)*%
X162840000Y-117750000D03*
%TO.P,U1,4,Q6*%
%TO.N,unconnected-(U1-Q6-Pad4)*%
X165380000Y-117750000D03*
%TO.P,U1,5,Q5*%
%TO.N,unconnected-(U1-Q5-Pad5)*%
X167920000Y-117750000D03*
%TO.P,U1,6,Q7*%
%TO.N,unconnected-(U1-Q7-Pad6)*%
X170460000Y-117750000D03*
%TO.P,U1,7,Q4*%
%TO.N,Net-(U1-Q4)*%
X173000000Y-117750000D03*
%TO.P,U1,8,VSS*%
%TO.N,GND*%
X175540000Y-117750000D03*
%TO.P,U1,9,~{\u03A60}*%
%TO.N,Net-(U1-~{\u03A60})*%
X175540000Y-110130000D03*
%TO.P,U1,10,\u03A60*%
%TO.N,Net-(U1-\u03A60)*%
X173000000Y-110130000D03*
%TO.P,U1,11,~{\u03A61}*%
%TO.N,Net-(U1-~{\u03A61})*%
X170460000Y-110130000D03*
%TO.P,U1,12,CLR*%
%TO.N,GND*%
X167920000Y-110130000D03*
%TO.P,U1,13,Q9*%
%TO.N,Net-(U1-Q9)*%
X165380000Y-110130000D03*
%TO.P,U1,14,Q8*%
%TO.N,unconnected-(U1-Q8-Pad14)*%
X162840000Y-110130000D03*
%TO.P,U1,15,Q10*%
%TO.N,Net-(U1-Q10)*%
X160300000Y-110130000D03*
%TO.P,U1,16,VDD*%
%TO.N,+6V*%
X157760000Y-110130000D03*
%TD*%
D19*
%TO.P,AFF4,1,e*%
%TO.N,Net-(AFF4-e)*%
X107920000Y-94240000D03*
D20*
%TO.P,AFF4,2,d*%
%TO.N,Net-(AFF4-d)*%
X110460000Y-94240000D03*
%TO.P,AFF4,3,C.K.*%
%TO.N,GND*%
X113000000Y-94240000D03*
%TO.P,AFF4,4,c*%
%TO.N,Net-(AFF4-c)*%
X115540000Y-94240000D03*
%TO.P,AFF4,5,DP*%
%TO.N,Net-(AFF4-DP)*%
X118080000Y-94240000D03*
%TO.P,AFF4,6,b*%
%TO.N,Net-(AFF4-b)*%
X118080000Y-79000000D03*
%TO.P,AFF4,7,a*%
%TO.N,Net-(AFF4-a)*%
X115540000Y-79000000D03*
%TO.P,AFF4,8,C.K.*%
%TO.N,GND*%
X113000000Y-79000000D03*
%TO.P,AFF4,9,f*%
%TO.N,Net-(AFF4-f)*%
X110460000Y-79000000D03*
%TO.P,AFF4,10,g*%
%TO.N,Net-(AFF4-g)*%
X107920000Y-79000000D03*
%TD*%
D11*
%TO.P,U2,1,Q12*%
%TO.N,unconnected-(U2-Q12-Pad1)*%
X130010000Y-117750000D03*
D12*
%TO.P,U2,2,Q13*%
%TO.N,unconnected-(U2-Q13-Pad2)*%
X132550000Y-117750000D03*
%TO.P,U2,3,Q14*%
%TO.N,unconnected-(U2-Q14-Pad3)*%
X135090000Y-117750000D03*
%TO.P,U2,4,Q6*%
%TO.N,unconnected-(U2-Q6-Pad4)*%
X137630000Y-117750000D03*
%TO.P,U2,5,Q5*%
%TO.N,Net-(U2-Q5)*%
X140170000Y-117750000D03*
%TO.P,U2,6,Q7*%
%TO.N,unconnected-(U2-Q7-Pad6)*%
X142710000Y-117750000D03*
%TO.P,U2,7,Q4*%
%TO.N,unconnected-(U2-Q4-Pad7)*%
X145250000Y-117750000D03*
%TO.P,U2,8,VSS*%
%TO.N,GND*%
X147790000Y-117750000D03*
%TO.P,U2,9,~{\u03A60}*%
%TO.N,unconnected-(U2-~{\u03A60}-Pad9)*%
X147790000Y-110130000D03*
%TO.P,U2,10,\u03A60*%
%TO.N,unconnected-(U2-\u03A60-Pad10)*%
X145250000Y-110130000D03*
%TO.P,U2,11,~{\u03A61}*%
%TO.N,Net-(U1-Q10)*%
X142710000Y-110130000D03*
%TO.P,U2,12,CLR*%
%TO.N,GND*%
X140170000Y-110130000D03*
%TO.P,U2,13,Q9*%
%TO.N,unconnected-(U2-Q9-Pad13)*%
X137630000Y-110130000D03*
%TO.P,U2,14,Q8*%
%TO.N,unconnected-(U2-Q8-Pad14)*%
X135090000Y-110130000D03*
%TO.P,U2,15,Q10*%
%TO.N,unconnected-(U2-Q10-Pad15)*%
X132550000Y-110130000D03*
%TO.P,U2,16,VDD*%
%TO.N,+6V*%
X130010000Y-110130000D03*
%TD*%
D10*
%TO.P,R25,1*%
%TO.N,Net-(U4-C)*%
X151000000Y-68500000D03*
%TO.P,R25,2*%
%TO.N,Net-(AFF1-c)*%
X153000000Y-68500000D03*
%TD*%
%TO.P,R22,1*%
%TO.N,Net-(U8-G)*%
X58750000Y-65250000D03*
%TO.P,R22,2*%
%TO.N,Net-(AFF6-g)*%
X60750000Y-65250000D03*
%TD*%
D21*
%TO.P,R4,1*%
%TO.N,Net-(Q2-B)*%
X161750000Y-104250000D03*
%TO.P,R4,2*%
%TO.N,/CLK - Mod-60 (1)*%
X161750000Y-102250000D03*
%TD*%
%TO.P,R37,1*%
%TO.N,Net-(U5-A)*%
X120750000Y-68500000D03*
%TO.P,R37,2*%
%TO.N,Net-(AFF3-a)*%
X120750000Y-66500000D03*
%TD*%
D15*
%TO.P,C3,1*%
%TO.N,+6V*%
X81212500Y-107500000D03*
%TO.P,C3,2*%
%TO.N,GND*%
X83287500Y-107500000D03*
%TD*%
D18*
%TO.P,R1,1*%
%TO.N,Net-(U1-~{\u03A61})*%
X164000000Y-102162500D03*
%TO.P,R1,2*%
%TO.N,Net-(U1-\u03A60)*%
X164000000Y-104162500D03*
%TD*%
D21*
%TO.P,R30,1*%
%TO.N,Net-(U3-A)*%
X111000000Y-102500000D03*
%TO.P,R30,2*%
%TO.N,Net-(AFF2-a)*%
X111000000Y-100500000D03*
%TD*%
D10*
%TO.P,R23,1*%
%TO.N,Net-(U4-A)*%
X151000000Y-64500000D03*
%TO.P,R23,2*%
%TO.N,Net-(AFF1-a)*%
X153000000Y-64500000D03*
%TD*%
D30*
%TO.P,SW2,1,1*%
%TO.N,Net-(U1-Q9)*%
X171000000Y-85500000D03*
X171000000Y-79000000D03*
%TO.P,SW2,2,2*%
%TO.N,Net-(R2-Pad1)*%
X175500000Y-85500000D03*
X175500000Y-79000000D03*
%TD*%
D10*
%TO.P,R20,1*%
%TO.N,Net-(U8-E)*%
X58750000Y-69750000D03*
%TO.P,R20,2*%
%TO.N,Net-(AFF6-e)*%
X60750000Y-69750000D03*
%TD*%
D31*
%TO.P,Y1,1,1*%
%TO.N,Net-(U1-~{\u03A60})*%
X170750000Y-89750000D03*
%TO.P,Y1,2,2*%
%TO.N,Net-(U1-~{\u03A61})*%
X172250000Y-89750000D03*
%TD*%
D10*
%TO.P,R13,1*%
%TO.N,Net-(U7-F)*%
X56000000Y-90750000D03*
%TO.P,R13,2*%
%TO.N,Net-(AFF5-f)*%
X58000000Y-90750000D03*
%TD*%
%TO.P,R24,1*%
%TO.N,Net-(U4-B)*%
X151000000Y-66500000D03*
%TO.P,R24,2*%
%TO.N,Net-(AFF1-b)*%
X153000000Y-66500000D03*
%TD*%
%TO.P,R40,1*%
%TO.N,Net-(U5-D)*%
X88337500Y-64500000D03*
%TO.P,R40,2*%
%TO.N,Net-(AFF3-d)*%
X90337500Y-64500000D03*
%TD*%
D18*
%TO.P,R6,1*%
%TO.N,+6V*%
X155500000Y-102250000D03*
%TO.P,R6,2*%
%TO.N,Net-(D2-A)*%
X155500000Y-104250000D03*
%TD*%
D10*
%TO.P,R10,1*%
%TO.N,Net-(U7-C)*%
X56000000Y-83750000D03*
%TO.P,R10,2*%
%TO.N,Net-(AFF5-c)*%
X58000000Y-83750000D03*
%TD*%
D19*
%TO.P,AFF1,1,e*%
%TO.N,Net-(AFF1-e)*%
X122170000Y-94240000D03*
D20*
%TO.P,AFF1,2,d*%
%TO.N,Net-(AFF1-d)*%
X124710000Y-94240000D03*
%TO.P,AFF1,3,C.K.*%
%TO.N,GND*%
X127250000Y-94240000D03*
%TO.P,AFF1,4,c*%
%TO.N,Net-(AFF1-c)*%
X129790000Y-94240000D03*
%TO.P,AFF1,5,DP*%
%TO.N,unconnected-(AFF1-DP-Pad5)*%
X132330000Y-94240000D03*
%TO.P,AFF1,6,b*%
%TO.N,Net-(AFF1-b)*%
X132330000Y-79000000D03*
%TO.P,AFF1,7,a*%
%TO.N,Net-(AFF1-a)*%
X129790000Y-79000000D03*
%TO.P,AFF1,8,C.K.*%
%TO.N,GND*%
X127250000Y-79000000D03*
%TO.P,AFF1,9,f*%
%TO.N,Net-(AFF1-f)*%
X124710000Y-79000000D03*
%TO.P,AFF1,10,g*%
%TO.N,Net-(AFF1-g)*%
X122170000Y-79000000D03*
%TD*%
D21*
%TO.P,R34,1*%
%TO.N,Net-(U3-E)*%
X120000000Y-102500000D03*
%TO.P,R34,2*%
%TO.N,Net-(AFF2-e)*%
X120000000Y-100500000D03*
%TD*%
D18*
%TO.P,R49,1*%
%TO.N,Net-(U6-F)*%
X129000000Y-100500000D03*
%TO.P,R49,2*%
%TO.N,Net-(AFF4-f)*%
X129000000Y-102500000D03*
%TD*%
D10*
%TO.P,R26,1*%
%TO.N,Net-(U4-D)*%
X151000000Y-70500000D03*
%TO.P,R26,2*%
%TO.N,Net-(AFF1-d)*%
X153000000Y-70500000D03*
%TD*%
%TO.P,R16,1*%
%TO.N,Net-(U8-A)*%
X58750000Y-78750000D03*
%TO.P,R16,2*%
%TO.N,Net-(AFF6-a)*%
X60750000Y-78750000D03*
%TD*%
D32*
%TO.P,D1,1,K*%
%TO.N,Net-(D1-K)*%
X172550000Y-104250000D03*
%TO.P,D1,2,A*%
%TO.N,Net-(D1-A)*%
X170500000Y-104250000D03*
%TD*%
D10*
%TO.P,R19,1*%
%TO.N,Net-(U8-D)*%
X58750000Y-72000000D03*
%TO.P,R19,2*%
%TO.N,Net-(AFF6-d)*%
X60750000Y-72000000D03*
%TD*%
%TO.P,R52,1*%
%TO.N,Net-(AFF4-DP)*%
X157912500Y-68500000D03*
%TO.P,R52,2*%
%TO.N,+6V*%
X159912500Y-68500000D03*
%TD*%
D11*
%TO.P,U7,1,CLK*%
%TO.N,/CLK - Mod-12*%
X58760000Y-118120000D03*
D12*
%TO.P,U7,2,CLK_INHIBIT*%
%TO.N,GND*%
X61300000Y-118120000D03*
%TO.P,U7,3,DISPLAY_EN_IN*%
%TO.N,+6V*%
X63840000Y-118120000D03*
%TO.P,U7,4,DISPLAY_EN_OUT*%
%TO.N,unconnected-(U7-DISPLAY_EN_OUT-Pad4)*%
X66380000Y-118120000D03*
%TO.P,U7,5,CARRY_OUT*%
%TO.N,Net-(U7-CARRY_OUT)*%
X68920000Y-118120000D03*
%TO.P,U7,6,F*%
%TO.N,Net-(U7-F)*%
X71460000Y-118120000D03*
%TO.P,U7,7,G*%
%TO.N,Net-(U7-G)*%
X74000000Y-118120000D03*
%TO.P,U7,8,VSS*%
%TO.N,GND*%
X76540000Y-118120000D03*
%TO.P,U7,9,D*%
%TO.N,Net-(U7-D)*%
X76540000Y-110500000D03*
%TO.P,U7,10,A*%
%TO.N,Net-(U7-A)*%
X74000000Y-110500000D03*
%TO.P,U7,11,E*%
%TO.N,Net-(U7-E)*%
X71460000Y-110500000D03*
%TO.P,U7,12,B*%
%TO.N,Net-(U7-B)*%
X68920000Y-110500000D03*
%TO.P,U7,13,C*%
%TO.N,Net-(U7-C)*%
X66380000Y-110500000D03*
%TO.P,U7,14,UNGATED_C_SEGMENT_OUT*%
%TO.N,unconnected-(U7-UNGATED_C_SEGMENT_OUT-Pad14)*%
X63840000Y-110500000D03*
%TO.P,U7,15,RESET*%
%TO.N,Net-(U7-RESET)*%
X61300000Y-110500000D03*
%TO.P,U7,16,VDD*%
%TO.N,+6V*%
X58760000Y-110500000D03*
%TD*%
D10*
%TO.P,R17,1*%
%TO.N,Net-(U8-B)*%
X58750000Y-76500000D03*
%TO.P,R17,2*%
%TO.N,Net-(AFF6-b)*%
X60750000Y-76500000D03*
%TD*%
%TO.P,R9,1*%
%TO.N,Net-(U7-B)*%
X56000000Y-81500000D03*
%TO.P,R9,2*%
%TO.N,Net-(AFF5-b)*%
X58000000Y-81500000D03*
%TD*%
D15*
%TO.P,C5,1*%
%TO.N,+6V*%
X57962500Y-107750000D03*
%TO.P,C5,2*%
%TO.N,GND*%
X60037500Y-107750000D03*
%TD*%
D11*
%TO.P,U4,1,CLK*%
%TO.N,Net-(U3-CARRY_OUT)*%
X127010000Y-72000000D03*
D12*
%TO.P,U4,2,CLK_INHIBIT*%
%TO.N,GND*%
X129550000Y-72000000D03*
%TO.P,U4,3,DISPLAY_EN_IN*%
%TO.N,+6V*%
X132090000Y-72000000D03*
%TO.P,U4,4,DISPLAY_EN_OUT*%
%TO.N,unconnected-(U4-DISPLAY_EN_OUT-Pad4)*%
X134630000Y-72000000D03*
%TO.P,U4,5,CARRY_OUT*%
%TO.N,/CLK - Mod-60 (2)*%
X137170000Y-72000000D03*
%TO.P,U4,6,F*%
%TO.N,Net-(D3-K)*%
X139710000Y-72000000D03*
%TO.P,U4,7,G*%
%TO.N,Net-(D4-K)*%
X142250000Y-72000000D03*
%TO.P,U4,8,VSS*%
%TO.N,GND*%
X144790000Y-72000000D03*
%TO.P,U4,9,D*%
%TO.N,Net-(U4-D)*%
X144790000Y-64380000D03*
%TO.P,U4,10,A*%
%TO.N,Net-(U4-A)*%
X142250000Y-64380000D03*
%TO.P,U4,11,E*%
%TO.N,Net-(D2-K)*%
X139710000Y-64380000D03*
%TO.P,U4,12,B*%
%TO.N,Net-(U4-B)*%
X137170000Y-64380000D03*
%TO.P,U4,13,C*%
%TO.N,Net-(U4-C)*%
X134630000Y-64380000D03*
%TO.P,U4,14,UNGATED_C_SEGMENT_OUT*%
%TO.N,unconnected-(U4-UNGATED_C_SEGMENT_OUT-Pad14)*%
X132090000Y-64380000D03*
%TO.P,U4,15,RESET*%
%TO.N,Net-(D2-A)*%
X129550000Y-64380000D03*
%TO.P,U4,16,VDD*%
%TO.N,+6V*%
X127010000Y-64380000D03*
%TD*%
D19*
%TO.P,AFF5,1,e*%
%TO.N,Net-(AFF5-e)*%
X79750000Y-94240000D03*
D20*
%TO.P,AFF5,2,d*%
%TO.N,Net-(AFF5-d)*%
X82290000Y-94240000D03*
%TO.P,AFF5,3,C.K.*%
%TO.N,GND*%
X84830000Y-94240000D03*
%TO.P,AFF5,4,c*%
%TO.N,Net-(AFF5-c)*%
X87370000Y-94240000D03*
%TO.P,AFF5,5,DP*%
%TO.N,Net-(AFF5-DP)*%
X89910000Y-94240000D03*
%TO.P,AFF5,6,b*%
%TO.N,Net-(AFF5-b)*%
X89910000Y-79000000D03*
%TO.P,AFF5,7,a*%
%TO.N,Net-(AFF5-a)*%
X87370000Y-79000000D03*
%TO.P,AFF5,8,C.K.*%
%TO.N,GND*%
X84830000Y-79000000D03*
%TO.P,AFF5,9,f*%
%TO.N,Net-(AFF5-f)*%
X82290000Y-79000000D03*
%TO.P,AFF5,10,g*%
%TO.N,Net-(AFF5-g)*%
X79750000Y-79000000D03*
%TD*%
D16*
%TO.P,R28,1*%
%TO.N,Net-(D3-K)*%
X159912500Y-64500000D03*
%TO.P,R28,2*%
%TO.N,Net-(AFF1-f)*%
X157912500Y-64500000D03*
%TD*%
D21*
%TO.P,R31,1*%
%TO.N,Net-(U3-B)*%
X113250000Y-102500000D03*
%TO.P,R31,2*%
%TO.N,Net-(AFF2-b)*%
X113250000Y-100500000D03*
%TD*%
D15*
%TO.P,C4,1*%
%TO.N,+6V*%
X161462500Y-81000000D03*
%TO.P,C4,2*%
%TO.N,GND*%
X163537500Y-81000000D03*
%TD*%
D18*
%TO.P,R45,1*%
%TO.N,Net-(U6-B)*%
X138000000Y-100500000D03*
%TO.P,R45,2*%
%TO.N,Net-(AFF4-b)*%
X138000000Y-102500000D03*
%TD*%
D21*
%TO.P,R38,1*%
%TO.N,Net-(U5-B)*%
X120750000Y-72500000D03*
%TO.P,R38,2*%
%TO.N,Net-(AFF3-b)*%
X120750000Y-70500000D03*
%TD*%
%TO.P,R3,1*%
%TO.N,/CLK - Mod-60 (1)*%
X153250000Y-104250000D03*
%TO.P,R3,2*%
%TO.N,Net-(R2-Pad1)*%
X153250000Y-102250000D03*
%TD*%
D33*
%TO.N,Net-(AFF1-c)*%
X128114200Y-76476400D03*
%TO.N,Net-(AFF1-f)*%
X156209100Y-64284800D03*
X156565500Y-60856800D03*
X126874500Y-61330400D03*
%TO.N,Net-(AFF1-d)*%
X133188300Y-75102700D03*
X130816900Y-95505600D03*
%TO.N,GND*%
X79500000Y-110500000D03*
X125500000Y-116500000D03*
X121500000Y-64000000D03*
X152000000Y-79000000D03*
X83500000Y-112500000D03*
%TO.N,Net-(AFF1-a)*%
X143140000Y-61904600D03*
%TO.N,Net-(AFF1-e)*%
X123488400Y-75500600D03*
%TO.N,Net-(AFF1-b)*%
X154353800Y-67056000D03*
X133507200Y-80982800D03*
X149823700Y-78240300D03*
%TO.N,Net-(AFF2-g)*%
X134471100Y-97967300D03*
%TO.N,Net-(AFF2-a)*%
X143080900Y-85786100D03*
X111689800Y-86633700D03*
X111552000Y-96786000D03*
%TO.N,Net-(AFF2-e)*%
X136300500Y-89848700D03*
X125507700Y-89967700D03*
X121488200Y-99035500D03*
%TO.N,Net-(AFF2-f)*%
X124167600Y-99077500D03*
%TO.N,Net-(AFF2-b)*%
X145894200Y-91278400D03*
X119026200Y-96424600D03*
X117959100Y-91220500D03*
%TO.N,Net-(AFF3-d)*%
X91333900Y-63360100D03*
%TO.N,Net-(AFF3-f)*%
X97095300Y-74343000D03*
%TO.N,Net-(AFF3-c)*%
X93697400Y-67678600D03*
%TO.N,Net-(AFF3-g)*%
X96216800Y-71061000D03*
%TO.N,Net-(AFF3-e)*%
X96996600Y-69551300D03*
%TO.N,Net-(AFF4-g)*%
X109465200Y-102109900D03*
%TO.N,Net-(AFF4-e)*%
X111105600Y-104991900D03*
%TO.N,Net-(AFF4-f)*%
X127880200Y-82637200D03*
X129075400Y-103635100D03*
%TO.N,Net-(AFF4-a)*%
X145623000Y-103284600D03*
X144842100Y-83608100D03*
%TO.N,Net-(AFF4-b)*%
X120486500Y-97890200D03*
%TO.N,Net-(AFF4-DP)*%
X117269400Y-80482600D03*
%TO.N,Net-(AFF4-d)*%
X133902800Y-92816000D03*
X133136000Y-103635100D03*
%TO.N,Net-(AFF4-c)*%
X116579500Y-106726900D03*
%TO.N,Net-(AFF5-g)*%
X78413900Y-95404000D03*
%TO.N,Net-(AFF5-f)*%
X79687800Y-90692500D03*
%TO.N,Net-(AFF5-DP)*%
X92006100Y-81615600D03*
%TO.N,Net-(AFF5-a)*%
X79469900Y-91615800D03*
%TO.N,Net-(AFF6-b)*%
X76353900Y-76832900D03*
%TO.N,Net-(AFF6-c)*%
X71308800Y-73980200D03*
%TO.N,Net-(AFF6-g)*%
X62738400Y-64880100D03*
%TO.N,Net-(AFF6-f)*%
X64645100Y-67417500D03*
%TO.N,Net-(AFF6-e)*%
X62634900Y-69753000D03*
%TO.N,Net-(AFF6-d)*%
X63700300Y-72392900D03*
%TO.N,Net-(U1-~{\u03A61})*%
X170080000Y-102750500D03*
%TO.N,Net-(D1-K)*%
X164639200Y-100099100D03*
%TO.N,Net-(D2-A)*%
X108275400Y-101432400D03*
X105250700Y-101432400D03*
X139092600Y-106056500D03*
X138900000Y-112064000D03*
%TO.N,Net-(D5-A)*%
X153843300Y-89798600D03*
X91117400Y-62282400D03*
X156443600Y-103305200D03*
X59385500Y-105013600D03*
X87931900Y-88327100D03*
%TO.N,Net-(Q2-B)*%
X162248200Y-105987300D03*
%TO.N,Net-(U2-Q5)*%
X149930200Y-103305200D03*
%TO.N,Net-(R2-Pad1)*%
X166371900Y-87457500D03*
X162087700Y-99787700D03*
%TO.N,/CLK - Mod-60 (1)*%
X153876500Y-120249700D03*
X158603400Y-100670500D03*
X109043700Y-121741000D03*
X162760800Y-103135700D03*
%TO.N,+6V*%
X159000000Y-74500000D03*
X81000000Y-106000000D03*
%TO.N,Net-(D2-K)*%
X86352100Y-87108600D03*
X79325700Y-105814100D03*
X138389400Y-69925000D03*
X139469300Y-69758200D03*
X134030000Y-85397800D03*
%TO.N,Net-(U7-RESET)*%
X157838400Y-90350000D03*
X60656600Y-83043500D03*
%TO.N,Net-(D3-K)*%
X135883300Y-120587500D03*
X142078700Y-61086100D03*
%TO.N,Net-(D4-K)*%
X144705300Y-60516800D03*
X53372900Y-65069400D03*
%TO.N,Net-(D5-K)*%
X67559300Y-75749000D03*
X78385700Y-70057400D03*
X51487900Y-73148000D03*
X79015700Y-75679400D03*
X65640800Y-73803400D03*
%TO.N,Net-(D6-K)*%
X111835500Y-74472800D03*
X63296600Y-76272800D03*
%TO.N,Net-(U7-B)*%
X54790300Y-82713000D03*
X62878700Y-108693100D03*
%TO.N,Net-(U7-C)*%
X64699600Y-85664700D03*
%TO.N,Net-(U7-D)*%
X76540000Y-89969800D03*
%TO.N,Net-(U7-E)*%
X71148100Y-88108300D03*
%TO.N,Net-(U7-F)*%
X68224300Y-91412700D03*
%TO.N,Net-(U7-A)*%
X73935200Y-95629600D03*
%TO.N,Net-(U7-G)*%
X72773300Y-99737600D03*
%TO.N,Net-(U8-A)*%
X84960300Y-81941800D03*
%TO.N,Net-(U8-B)*%
X76965900Y-79047400D03*
%TO.N,Net-(U8-C)*%
X57593100Y-73663100D03*
%TO.N,Net-(U8-F)*%
X57593100Y-67275500D03*
%TO.N,Net-(U8-G)*%
X79325700Y-58431600D03*
%TO.N,Net-(U4-D)*%
X149781000Y-69583600D03*
%TO.N,Net-(U3-A)*%
X112429700Y-103605900D03*
%TO.N,Net-(U3-B)*%
X113549700Y-103610700D03*
%TO.N,Net-(U3-C)*%
X114351500Y-103633500D03*
%TO.N,Net-(U3-D)*%
X121980000Y-103763000D03*
%TO.N,Net-(U3-E)*%
X119056400Y-103437100D03*
%TO.N,Net-(U3-F)*%
X121141200Y-103387900D03*
%TO.N,Net-(U3-G)*%
X123399500Y-103458400D03*
%TO.N,Net-(U5-C)*%
X95704200Y-68215100D03*
%TO.N,Net-(U5-D)*%
X114987300Y-61044900D03*
%TO.N,Net-(U6-B)*%
X144705300Y-99737600D03*
X144431900Y-89895700D03*
X91974700Y-89629100D03*
%TO.N,Net-(U6-D)*%
X138162400Y-99079700D03*
X136072500Y-97700400D03*
X134379500Y-98858600D03*
X132137900Y-107424700D03*
%TO.N,Net-(U6-E)*%
X94482900Y-102560400D03*
%TO.N,Net-(U6-F)*%
X96221600Y-102492500D03*
%TO.N,Net-(U6-G)*%
X136351300Y-96898600D03*
X126096400Y-120087300D03*
X130370900Y-99228800D03*
X138728500Y-97132000D03*
%TO.N,/CLK - Mod-60 (2)*%
X89258500Y-85808000D03*
X132544000Y-85069900D03*
%TO.N,/CLK - Mod-12*%
X106048200Y-103469400D03*
X57827000Y-105235700D03*
%TD*%
D34*
%TO.N,Net-(AFF1-c)*%
X134583900Y-76382900D02*
X128207700Y-76382900D01*
X134791600Y-76175200D02*
X134583900Y-76382900D01*
X135085600Y-75881200D02*
X151343200Y-75881200D01*
X151343200Y-75881200D02*
X153959700Y-73264700D01*
X134791600Y-76175200D02*
X134583900Y-76382900D01*
X153959700Y-73264700D02*
X153959700Y-69459700D01*
X134791600Y-76175200D02*
X135085600Y-75881200D01*
X153959700Y-69459700D02*
X153000000Y-68500000D01*
X128207700Y-76382900D02*
X128114200Y-76476400D01*
%TO.N,Net-(AFF1-f)*%
X156424300Y-64500000D02*
X156209100Y-64284800D01*
X143620200Y-60399900D02*
X127805000Y-60399900D01*
X127805000Y-60399900D02*
X126874500Y-61330400D01*
X156225400Y-61196900D02*
X144417200Y-61196900D01*
X157912500Y-64500000D02*
X156424300Y-64500000D01*
X144417200Y-61196900D02*
X143620200Y-60399900D01*
X156565500Y-60856800D02*
X156225400Y-61196900D01*
%TO.N,Net-(AFF1-d)*%
X150399800Y-74822300D02*
X152027400Y-73194700D01*
X133188300Y-75102700D02*
X133468700Y-74822300D01*
X130467200Y-95855300D02*
X126638000Y-95855300D01*
X152027400Y-73194700D02*
X152027400Y-71472600D01*
X130816900Y-95505600D02*
X130467200Y-95855300D01*
X125022700Y-94240000D02*
X124710000Y-94240000D01*
X133468700Y-74822300D02*
X150399800Y-74822300D01*
X152027400Y-71472600D02*
X153000000Y-70500000D01*
X126638000Y-95855300D02*
X125022700Y-94240000D01*
%TO.N,GND*%
X76084100Y-77484600D02*
X76623800Y-77484600D01*
X76623800Y-77484600D02*
X76722100Y-77386300D01*
X83000000Y-112000000D02*
X83000000Y-107787500D01*
X163537500Y-80962500D02*
X164500000Y-80000000D01*
X127250000Y-118086000D02*
X127543000Y-118793000D01*
X109346300Y-95366600D02*
X108859200Y-95853700D01*
X79500000Y-110500000D02*
X81424000Y-108576000D01*
X147055000Y-92890000D02*
X146791300Y-92626300D01*
X167920000Y-110130000D02*
X167920000Y-111681700D01*
X84830000Y-78716300D02*
X83500000Y-77386300D01*
X133672700Y-92124600D02*
X140748300Y-92124600D01*
X97467000Y-77387000D02*
X99080000Y-79000000D01*
X68710000Y-62000000D02*
X68710000Y-71040000D01*
X81424000Y-108576000D02*
X82211500Y-108576000D01*
X109998700Y-92626300D02*
X109346300Y-93278700D01*
X159500000Y-92890000D02*
X147055000Y-92890000D01*
X101150000Y-72060000D02*
X101150000Y-70862500D01*
X167418300Y-112183400D02*
X167920000Y-111681700D01*
X155000000Y-118836000D02*
X155293000Y-119543000D01*
X155000000Y-111538000D02*
X155000000Y-115187000D01*
X86613000Y-77387000D02*
X97467000Y-77387000D01*
X70250000Y-79000000D02*
X70250000Y-78136300D01*
X168000000Y-97750000D02*
X171750000Y-94000000D01*
X121500000Y-64000000D02*
X123825000Y-66325000D01*
X155144000Y-111681000D02*
X155646400Y-112183400D01*
X127250000Y-92627800D02*
X127250000Y-92626300D01*
X127250000Y-111575000D02*
X127356000Y-111681000D01*
X164500000Y-86000000D02*
X165000000Y-86000000D01*
X160750000Y-96977800D02*
X159728000Y-98000000D01*
X161000000Y-96727800D02*
X160750000Y-96977800D01*
X84830000Y-79000000D02*
X84830000Y-78716300D01*
X125500000Y-113000000D02*
X126925000Y-111575000D01*
X98022200Y-114930500D02*
X99540000Y-116448300D01*
X106538000Y-107250000D02*
X106621000Y-107334000D01*
X163000000Y-87500000D02*
X164500000Y-86000000D01*
X128207000Y-119457000D02*
X128914000Y-119750000D01*
X99540000Y-116448300D02*
X99540000Y-118000000D01*
X155000000Y-111538000D02*
X155144000Y-111681000D01*
X76722100Y-77386300D02*
X83500000Y-77386300D01*
X109346300Y-93278700D02*
X109346300Y-95366600D01*
X127250000Y-111575000D02*
X127250000Y-115333300D01*
X127633000Y-92244800D02*
X133552500Y-92244800D01*
X84830000Y-79000000D02*
X84830000Y-78193100D01*
X113000000Y-92626300D02*
X109998700Y-92626300D01*
X127250000Y-92626300D02*
X113000000Y-92626300D01*
X155293000Y-119543000D02*
X155457000Y-119707000D01*
X101150000Y-70862500D02*
X94537500Y-64250000D01*
X83000000Y-107787500D02*
X83287500Y-107500000D01*
X164000000Y-81000000D02*
X165000000Y-82000000D01*
X163500000Y-78000000D02*
X153000000Y-78000000D01*
X98022200Y-114930500D02*
X87369500Y-114930500D01*
X106621000Y-113895500D02*
X106621000Y-116361000D01*
X70250000Y-78136300D02*
X71000000Y-77386300D01*
X127250000Y-92627800D02*
X127633000Y-92244800D01*
X133552500Y-92244800D02*
X133672700Y-92124600D01*
X140748300Y-92124600D02*
X141250000Y-92626300D01*
X75985800Y-77386300D02*
X76084100Y-77484600D01*
X127250000Y-115333300D02*
X127250000Y-118086000D01*
X123825000Y-66325000D02*
X124250000Y-66325000D01*
X128914000Y-119750000D02*
X145790000Y-119750000D01*
X155000000Y-111537500D02*
X155000000Y-111538000D01*
X100693700Y-95853700D02*
X99080000Y-94240000D01*
X165250000Y-97750000D02*
X168000000Y-97750000D01*
X87369500Y-114930500D02*
X84300000Y-118000000D01*
X60037500Y-114059100D02*
X60037500Y-116858000D01*
X125500000Y-116500000D02*
X125500000Y-113000000D01*
X173290000Y-120000000D02*
X175540000Y-117750000D01*
X152680000Y-98000000D02*
X151380000Y-96700000D01*
X106621000Y-116361000D02*
X108010000Y-117750000D01*
X153000000Y-78000000D02*
X152000000Y-79000000D01*
X159890000Y-92890000D02*
X161000000Y-94000000D01*
X83287500Y-107500000D02*
X83000000Y-107788000D01*
X145790000Y-119750000D02*
X147790000Y-117750000D01*
X163000000Y-90000000D02*
X163000000Y-87500000D01*
X124250000Y-66700000D02*
X129550000Y-72000000D01*
X164500000Y-80000000D02*
X164500000Y-78500000D01*
X164000000Y-78000000D02*
X163500000Y-78000000D01*
X83500000Y-112500000D02*
X83000000Y-112000000D01*
X106537500Y-107250000D02*
X106538000Y-107250000D01*
X164500000Y-78500000D02*
X164000000Y-78000000D01*
X126925000Y-111575000D02*
X127250000Y-111575000D01*
X85000000Y-79000000D02*
X86613000Y-77387000D01*
X165250000Y-97750000D02*
X165250000Y-92250000D01*
X165250000Y-92250000D02*
X163000000Y-90000000D01*
X60037500Y-107750000D02*
X60037500Y-114059100D01*
X163537500Y-81000000D02*
X164000000Y-81000000D01*
X165000000Y-82000000D02*
X165000000Y-86000000D01*
X159500000Y-92890000D02*
X159890000Y-92890000D01*
X108859200Y-95853700D02*
X100693700Y-95853700D01*
X71000000Y-77386300D02*
X75985800Y-77386300D01*
X151962500Y-111537500D02*
X147790000Y-115710000D01*
X163537500Y-81000000D02*
X163537500Y-80962500D01*
X155457000Y-119707000D02*
X156164000Y-120000000D01*
X155000000Y-111537500D02*
X151962500Y-111537500D01*
X156164000Y-120000000D02*
X173290000Y-120000000D01*
X159728000Y-98000000D02*
X152680000Y-98000000D01*
X161000000Y-94000000D02*
X161000000Y-96727800D01*
X68710000Y-71040000D02*
X69920000Y-72250000D01*
X124250000Y-66325000D02*
X124250000Y-66700000D01*
X82211500Y-108576000D02*
X83287500Y-107500000D01*
X155000000Y-115187000D02*
X155000000Y-118836000D01*
X84830000Y-79000000D02*
X85000000Y-79000000D01*
X127543000Y-118793000D02*
X128207000Y-119457000D01*
X155646400Y-112183400D02*
X167418300Y-112183400D01*
X106621000Y-107334000D02*
X106621000Y-113895500D01*
X60037500Y-116858000D02*
X61300000Y-118120000D01*
X147790000Y-115710000D02*
X147790000Y-117750000D01*
X146791300Y-92626300D02*
X141250000Y-92626300D01*
%TO.N,Net-(AFF1-a)*%
X143246200Y-61798400D02*
X143246300Y-61798400D01*
X151213900Y-62200300D02*
X153000000Y-63986400D01*
X153000000Y-63986400D02*
X153000000Y-64500000D01*
X143246300Y-61798400D02*
X143648200Y-62200300D01*
X143648200Y-62200300D02*
X151213900Y-62200300D01*
X143140000Y-61904600D02*
X143246200Y-61798400D01*
%TO.N,Net-(AFF1-e)*%
X133482300Y-75730300D02*
X134527100Y-75730300D01*
X133458200Y-75754400D02*
X133482300Y-75730300D01*
X150624200Y-75379500D02*
X153000000Y-73003700D01*
X134583900Y-75673500D02*
X134527100Y-75730300D01*
X123488400Y-75500600D02*
X123742200Y-75754400D01*
X134583900Y-75673500D02*
X134527100Y-75730300D01*
X134877900Y-75379500D02*
X150624200Y-75379500D01*
X153000000Y-73003700D02*
X153000000Y-72500000D01*
X134583900Y-75673500D02*
X134877900Y-75379500D01*
X123742200Y-75754400D02*
X133458200Y-75754400D01*
%TO.N,Net-(AFF1-b)*%
X140788700Y-77386300D02*
X141711300Y-77386300D01*
X144822100Y-77957100D02*
X145297900Y-77957100D01*
X135056300Y-78038700D02*
X135708700Y-77386300D01*
X142757900Y-77957100D02*
X143328700Y-77386300D01*
X137596300Y-79961300D02*
X138248700Y-80613700D01*
X143328700Y-77386300D02*
X144251300Y-77386300D01*
X145297900Y-77957100D02*
X145868700Y-77386300D01*
X153556000Y-67056000D02*
X153000000Y-66500000D01*
X142282100Y-77957100D02*
X142757900Y-77957100D01*
X135708700Y-77386300D02*
X136631300Y-77386300D01*
X141711300Y-77386300D02*
X142282100Y-77957100D01*
X137596300Y-78351300D02*
X137596300Y-79961300D01*
X154353800Y-67056000D02*
X153556000Y-67056000D01*
X146791300Y-77386300D02*
X147645200Y-78240200D01*
X133507200Y-80982800D02*
X135056300Y-79433700D01*
X136631300Y-77386300D02*
X137596300Y-78351300D01*
X147645200Y-78240200D02*
X147645200Y-78240300D01*
X139823700Y-79961300D02*
X139823700Y-78351200D01*
X135056300Y-79433700D02*
X135056300Y-78038700D01*
X145868700Y-77386300D02*
X146791300Y-77386300D01*
X147645200Y-78240300D02*
X149823700Y-78240300D01*
X139823700Y-78351200D02*
X139823800Y-78351200D01*
X138248700Y-80613700D02*
X139171300Y-80613700D01*
X139171300Y-80613700D02*
X139823700Y-79961300D01*
X139823800Y-78351200D02*
X140788700Y-77386300D01*
X144251300Y-77386300D02*
X144822100Y-77957100D01*
%TO.N,Net-(AFF1-g)*%
X155030800Y-72953700D02*
X155030800Y-69381700D01*
X139588900Y-76385100D02*
X140371100Y-76385100D01*
X140371100Y-76385100D02*
X140373300Y-76382900D01*
X137831800Y-76384400D02*
X139588200Y-76384400D01*
X139588200Y-76384400D02*
X139588900Y-76385100D01*
X137830300Y-76382900D02*
X137831800Y-76384400D01*
X155030800Y-69381700D02*
X157912500Y-66500000D01*
X135293300Y-76382900D02*
X137830300Y-76382900D01*
X134291400Y-77384800D02*
X135293300Y-76382900D01*
X123000000Y-77384800D02*
X134291400Y-77384800D01*
X151601600Y-76382900D02*
X155030800Y-72953700D01*
X122170000Y-79000000D02*
X122170000Y-78214800D01*
X122170000Y-78214800D02*
X123000000Y-77384800D01*
X140373300Y-76382900D02*
X151601600Y-76382900D01*
%TO.N,Net-(AFF2-g)*%
X133515700Y-98408600D02*
X126591400Y-98408600D01*
X133881000Y-98043300D02*
X133515700Y-98408600D01*
X126591400Y-98408600D02*
X124500000Y-100500000D01*
X134471100Y-97967300D02*
X134395100Y-98043300D01*
X134395100Y-98043300D02*
X133881000Y-98043300D01*
%TO.N,Net-(AFF2-c)*%
X143790000Y-95063700D02*
X143000000Y-95853700D01*
X115872400Y-100500000D02*
X120013900Y-96358500D01*
X134775200Y-93050600D02*
X135199500Y-92626300D01*
X135199500Y-92626300D02*
X139215100Y-92626300D01*
X139926500Y-95043700D02*
X140736500Y-95853700D01*
X139215100Y-92626300D02*
X139926500Y-93337700D01*
X133024600Y-96357000D02*
X134775200Y-94606400D01*
X131737800Y-96357000D02*
X133024600Y-96357000D01*
X143790000Y-94240000D02*
X143790000Y-95063700D01*
X140736500Y-95853700D02*
X143000000Y-95853700D01*
X125472200Y-96358500D02*
X125972400Y-96858700D01*
X131530100Y-96564700D02*
X131737800Y-96357000D01*
X131236100Y-96858700D02*
X131530100Y-96564700D01*
X134775200Y-94606400D02*
X134775200Y-93050600D01*
X131530100Y-96564700D02*
X131737800Y-96357000D01*
X125972400Y-96858700D02*
X131236100Y-96858700D01*
X120013900Y-96358500D02*
X125472200Y-96358500D01*
X139926500Y-93337700D02*
X139926500Y-95043700D01*
X115500000Y-100500000D02*
X115872400Y-100500000D01*
%TO.N,Net-(AFF2-a)*%
X111915400Y-86408100D02*
X142458900Y-86408100D01*
X111000000Y-100500000D02*
X111000000Y-97338000D01*
X142458900Y-86408100D02*
X143080900Y-85786100D01*
X111000000Y-97338000D02*
X111552000Y-96786000D01*
X111689800Y-86633700D02*
X111915400Y-86408100D01*
X111689800Y-86633700D02*
X111915400Y-86408100D01*
X111915400Y-86408100D02*
X111689800Y-86633700D01*
%TO.N,Net-(AFF2-e)*%
X125626700Y-89848700D02*
X136300500Y-89848700D01*
X125507700Y-89967700D02*
X125626700Y-89848700D01*
X121464500Y-99035500D02*
X121488200Y-99035500D01*
X120000000Y-100500000D02*
X121464500Y-99035500D01*
%TO.N,Net-(AFF2-d)*%
X125297400Y-97186600D02*
X125500000Y-97389200D01*
X138000000Y-95853700D02*
X135759100Y-95853700D01*
X131737800Y-97066400D02*
X131931700Y-96872500D01*
X138710000Y-94240000D02*
X138710000Y-95143700D01*
X125500000Y-97389200D02*
X131415000Y-97389200D01*
X117750000Y-99672500D02*
X120235900Y-97186600D01*
X134850400Y-96762400D02*
X134798900Y-96813900D01*
X133935000Y-96872500D02*
X131931700Y-96872500D01*
X138710000Y-95143700D02*
X138000000Y-95853700D01*
X131737800Y-97066400D02*
X131931700Y-96872500D01*
X135759100Y-95853700D02*
X134850400Y-96762400D01*
X133993600Y-96813900D02*
X133935000Y-96872500D01*
X134850400Y-96762400D02*
X134798900Y-96813900D01*
X120235900Y-97186600D02*
X125297400Y-97186600D01*
X131415000Y-97389200D02*
X131737800Y-97066400D01*
X134798900Y-96813900D02*
X133993600Y-96813900D01*
X117750000Y-100500000D02*
X117750000Y-99672500D01*
%TO.N,Net-(AFF2-f)*%
X123672500Y-99077500D02*
X124167600Y-99077500D01*
X122250000Y-100500000D02*
X123672500Y-99077500D01*
%TO.N,Net-(AFF2-b)*%
X113250000Y-100500000D02*
X117325400Y-96424600D01*
X133276500Y-91102000D02*
X145717800Y-91102000D01*
X133158000Y-91220500D02*
X133276500Y-91102000D01*
X117325400Y-96424600D02*
X119026200Y-96424600D01*
X117959100Y-91220500D02*
X133158000Y-91220500D01*
X145717800Y-91102000D02*
X145894200Y-91278400D01*
%TO.N,Net-(AFF3-d)*%
X91333900Y-63360100D02*
X90337500Y-64356500D01*
X90337500Y-64356500D02*
X90337500Y-64500000D01*
%TO.N,Net-(AFF3-f)*%
X97095300Y-74343000D02*
X96002300Y-73250000D01*
X96002300Y-73250000D02*
X94500000Y-73250000D01*
%TO.N,Net-(AFF3-c)*%
X92500000Y-66500000D02*
X93678600Y-67678600D01*
X93678600Y-67678600D02*
X93697400Y-67678600D01*
%TO.N,Net-(AFF3-a)*%
X113544700Y-75174200D02*
X115335400Y-75174200D01*
X101620000Y-79000000D02*
X101620000Y-77386300D01*
X121842300Y-69095500D02*
X121842300Y-67592300D01*
X121842300Y-67592300D02*
X120750000Y-66500000D01*
X119200500Y-71309100D02*
X119200500Y-70297300D01*
X121437800Y-69500000D02*
X121842300Y-69095500D01*
X102621900Y-76384400D02*
X112334500Y-76384400D01*
X115335400Y-75174200D02*
X119200500Y-71309100D01*
X101620000Y-77386300D02*
X102621900Y-76384400D01*
X119997800Y-69500000D02*
X121437800Y-69500000D01*
X112334500Y-76384400D02*
X113544700Y-75174200D01*
X119200500Y-70297300D02*
X119997800Y-69500000D01*
%TO.N,Net-(AFF3-b)*%
X104160000Y-79000000D02*
X104160000Y-78726300D01*
X112586200Y-77092300D02*
X112793900Y-76884600D01*
X105500000Y-77386300D02*
X112292200Y-77386300D01*
X112586200Y-77092300D02*
X112793900Y-76884600D01*
X112292200Y-77386300D02*
X112586200Y-77092300D01*
X114365400Y-76884600D02*
X120750000Y-70500000D01*
X112793900Y-76884600D02*
X114365400Y-76884600D01*
X104160000Y-78726300D02*
X105500000Y-77386300D01*
%TO.N,Net-(AFF3-g)*%
X94561000Y-71061000D02*
X94500000Y-71000000D01*
X96216800Y-71061000D02*
X94561000Y-71061000D01*
%TO.N,Net-(AFF3-e)*%
X95047700Y-69297700D02*
X94500000Y-68750000D01*
X96743000Y-69297700D02*
X95047700Y-69297700D01*
X96996600Y-69551300D02*
X96743000Y-69297700D01*
%TO.N,Net-(AFF4-g)*%
X109465200Y-102683900D02*
X109465200Y-102109900D01*
X115476100Y-104500000D02*
X112402000Y-104500000D01*
X126750000Y-102500000D02*
X125015100Y-104234900D01*
X117151520Y-104250000D02*
X115750000Y-104250000D01*
X115750000Y-104250000D02*
X115488050Y-104511950D01*
X111740500Y-103838500D02*
X110619800Y-103838500D01*
X123524900Y-104640300D02*
X117542700Y-104640300D01*
X117542700Y-104640300D02*
X117542260Y-104640740D01*
X123930300Y-104234900D02*
X123524900Y-104640300D01*
X117542260Y-104640740D02*
X117151520Y-104250000D01*
X115488050Y-104511950D02*
X115476100Y-104500000D01*
X110619800Y-103838500D02*
X109465200Y-102683900D01*
X125015100Y-104234900D02*
X123930300Y-104234900D01*
X112402000Y-104500000D02*
X111740500Y-103838500D01*
%TO.N,Net-(AFF4-e)*%
X111757400Y-105643700D02*
X111105600Y-104991900D01*
X128750000Y-105000000D02*
X127234000Y-105000000D01*
X116175500Y-105500000D02*
X116031800Y-105643700D01*
X131250000Y-102500000D02*
X128750000Y-105000000D01*
X126590300Y-105643700D02*
X117127300Y-105643700D01*
X116983600Y-105500000D02*
X116175500Y-105500000D01*
X116031800Y-105643700D02*
X111757400Y-105643700D01*
X117127300Y-105643700D02*
X116983600Y-105500000D01*
X127234000Y-105000000D02*
X126590300Y-105643700D01*
%TO.N,Net-(AFF4-f)*%
X129000000Y-102500000D02*
X129000000Y-103559700D01*
X110460000Y-79000000D02*
X110460000Y-80613700D01*
X129000000Y-103559700D02*
X129075400Y-103635100D01*
X112483500Y-82637200D02*
X127880200Y-82637200D01*
X110460000Y-80613700D02*
X112483500Y-82637200D01*
%TO.N,Net-(AFF4-a)*%
X116562400Y-81636100D02*
X115540000Y-80613700D01*
X147784600Y-103284600D02*
X148750000Y-104250000D01*
X145623000Y-103284600D02*
X147784600Y-103284600D01*
X142870100Y-81636100D02*
X116562400Y-81636100D01*
X144842100Y-83608100D02*
X142870100Y-81636100D01*
X115540000Y-79000000D02*
X115540000Y-80613700D01*
%TO.N,Net-(AFF4-b)*%
X131945500Y-97568100D02*
X131989400Y-97524200D01*
X133992700Y-97524200D02*
X131989400Y-97524200D01*
X120486500Y-97890200D02*
X131623400Y-97890200D01*
X134875000Y-97315600D02*
X134201300Y-97315600D01*
X134201300Y-97315600D02*
X133992700Y-97524200D01*
X138000000Y-102500000D02*
X136835200Y-101335200D01*
X136835200Y-101335200D02*
X136835200Y-99416800D01*
X131623400Y-97890200D02*
X131945500Y-97568100D01*
X135420800Y-97861400D02*
X134875000Y-97315600D01*
X135420800Y-98002400D02*
X135420800Y-97861400D01*
X136835200Y-99416800D02*
X135420800Y-98002400D01*
X131945500Y-97568100D02*
X131989400Y-97524200D01*
%TO.N,Net-(AFF4-DP)*%
X134554600Y-78901600D02*
X134554600Y-77831000D01*
X117419500Y-80632700D02*
X132823500Y-80632700D01*
X151846400Y-76884600D02*
X157047300Y-71683700D01*
X132823500Y-80632700D02*
X134554600Y-78901600D01*
X157047300Y-71683700D02*
X157047300Y-69365200D01*
X135501000Y-76884600D02*
X151846400Y-76884600D01*
X134554600Y-77831000D02*
X135501000Y-76884600D01*
X117269400Y-80482600D02*
X117419500Y-80632700D01*
X157047300Y-69365200D02*
X157912500Y-68500000D01*
%TO.N,Net-(AFF4-d)*%
X118675600Y-95853700D02*
X119029300Y-95500000D01*
X133647100Y-93152200D02*
X133902800Y-92896500D01*
X121044000Y-95856800D02*
X125679900Y-95856800D01*
X133902800Y-92896500D02*
X133902800Y-92816000D01*
X110460000Y-94813700D02*
X111500000Y-95853700D01*
X111500000Y-95853700D02*
X118675600Y-95853700D01*
X133500000Y-102500000D02*
X133500000Y-103271100D01*
X133647100Y-95025100D02*
X133647100Y-93152200D01*
X125679900Y-95856800D02*
X126180100Y-96357000D01*
X131516100Y-95855300D02*
X132816900Y-95855300D01*
X120687200Y-95500000D02*
X121044000Y-95856800D01*
X110460000Y-94240000D02*
X110460000Y-94813700D01*
X119029300Y-95500000D02*
X120687200Y-95500000D01*
X126180100Y-96357000D02*
X131014400Y-96357000D01*
X133500000Y-103271100D02*
X133136000Y-103635100D01*
X132816900Y-95855300D02*
X133647100Y-95025100D01*
X131014400Y-96357000D02*
X131516100Y-95855300D01*
%TO.N,Net-(AFF4-c)*%
X116859400Y-107006800D02*
X116579500Y-106726900D01*
X132122900Y-106127100D02*
X129372900Y-106127100D01*
X129372900Y-106127100D02*
X128493200Y-107006800D01*
X135750000Y-102500000D02*
X132122900Y-106127100D01*
X128493200Y-107006800D02*
X116859400Y-107006800D01*
%TO.N,Net-(AFF5-g)*%
X58637500Y-96387500D02*
X77430400Y-96387500D01*
X58000000Y-95750000D02*
X58637500Y-96387500D01*
X77430400Y-96387500D02*
X78413900Y-95404000D01*
%TO.N,Net-(AFF5-c)*%
X76965500Y-83750000D02*
X58000000Y-83750000D01*
X87370000Y-94240000D02*
X87370000Y-94154500D01*
X87370000Y-94154500D02*
X76965500Y-83750000D01*
%TO.N,Net-(AFF5-d)*%
X82290000Y-91606500D02*
X82290000Y-94240000D01*
X58066400Y-86316400D02*
X76999900Y-86316400D01*
X58000000Y-86250000D02*
X58066400Y-86316400D01*
X76999900Y-86316400D02*
X82290000Y-91606500D01*
%TO.N,Net-(AFF5-b)*%
X84058400Y-80907700D02*
X83852200Y-81113900D01*
X61965700Y-81500000D02*
X58000000Y-81500000D01*
X62467400Y-82001700D02*
X61965700Y-81500000D01*
X71602200Y-82001700D02*
X62467400Y-82001700D01*
X83852200Y-81113900D02*
X83850700Y-81115400D01*
X84352400Y-80613700D02*
X84058400Y-80907700D01*
X89910000Y-80613700D02*
X84352400Y-80613700D01*
X83850700Y-81115400D02*
X72488500Y-81115400D01*
X72488500Y-81115400D02*
X71602200Y-82001700D01*
X84058400Y-80907700D02*
X83852200Y-81113900D01*
X89910000Y-79000000D02*
X89910000Y-80613700D01*
%TO.N,Net-(AFF5-f)*%
X79687800Y-90692500D02*
X58057500Y-90692500D01*
X58057500Y-90692500D02*
X58000000Y-90750000D01*
%TO.N,Net-(AFF5-DP)*%
X145280900Y-84259800D02*
X158000000Y-71540700D01*
X144190400Y-83877800D02*
X144190400Y-83877900D01*
X158000000Y-71540700D02*
X158000000Y-71250000D01*
X92006100Y-81615600D02*
X94268300Y-83877800D01*
X94268300Y-83877800D02*
X144190400Y-83877800D01*
X144572300Y-84259800D02*
X145280900Y-84259800D01*
X144190400Y-83877900D02*
X144572300Y-84259800D01*
%TO.N,Net-(AFF5-e)*%
X80498100Y-90524000D02*
X78697200Y-88723100D01*
X58317100Y-88817100D02*
X58000000Y-88500000D01*
X79750000Y-92626300D02*
X80498100Y-91878200D01*
X80498100Y-91878200D02*
X80498100Y-90524000D01*
X78697200Y-88723100D02*
X78573200Y-88723100D01*
X79750000Y-94240000D02*
X79750000Y-92626300D01*
X78573200Y-88723100D02*
X78479200Y-88817100D01*
X78479200Y-88817100D02*
X58317100Y-88817100D01*
%TO.N,Net-(AFF5-a)*%
X79469900Y-91615800D02*
X78763400Y-92322300D01*
X78763400Y-92322300D02*
X58927700Y-92322300D01*
X58927700Y-92322300D02*
X58000000Y-93250000D01*
%TO.N,Net-(AFF6-b)*%
X67981400Y-76957900D02*
X68109800Y-76829500D01*
X60750000Y-76500000D02*
X61207900Y-76957900D01*
X68109800Y-76829500D02*
X76350500Y-76829500D01*
X61207900Y-76957900D02*
X67981400Y-76957900D01*
X76350500Y-76829500D02*
X76353900Y-76832900D01*
%TO.N,Net-(AFF6-c)*%
X60955100Y-74455100D02*
X70833900Y-74455100D01*
X70833900Y-74455100D02*
X71308800Y-73980200D01*
X60750000Y-74250000D02*
X60955100Y-74455100D01*
%TO.N,Net-(AFF6-g)*%
X60750000Y-65250000D02*
X62368500Y-65250000D01*
X62368500Y-65250000D02*
X62738400Y-64880100D01*
%TO.N,Net-(AFF6-f)*%
X64645100Y-67417500D02*
X60832500Y-67417500D01*
X60832500Y-67417500D02*
X60750000Y-67500000D01*
%TO.N,Net-(AFF6-e)*%
X60753000Y-69753000D02*
X60750000Y-69750000D01*
X62634900Y-69753000D02*
X60753000Y-69753000D01*
%TO.N,Net-(AFF6-d)*%
X63307400Y-72000000D02*
X63700300Y-72392900D01*
X60750000Y-72000000D02*
X63307400Y-72000000D01*
%TO.N,Net-(AFF6-a)*%
X60752000Y-78750000D02*
X60750000Y-78750000D01*
X71137300Y-80652700D02*
X62654700Y-80652700D01*
X72790000Y-79000000D02*
X71137300Y-80652700D01*
X62654700Y-80652700D02*
X60752000Y-78750000D01*
%TO.N,Net-(U1-~{\u03A61})*%
X164000000Y-102162500D02*
X164588000Y-102750500D01*
X164588000Y-102750500D02*
X170080000Y-102750500D01*
X174500000Y-89750000D02*
X172250000Y-89750000D01*
%TO.N,Net-(U1-~{\u03A60})*%
X170750000Y-89750000D02*
X171853900Y-88646100D01*
X175471100Y-88646100D02*
X176575000Y-89750000D01*
X171853900Y-88646100D02*
X175471100Y-88646100D01*
%TO.N,Net-(D1-K)*%
X172550000Y-104250000D02*
X172550000Y-103542600D01*
X169106500Y-100099100D02*
X164639200Y-100099100D01*
X172550000Y-103542600D02*
X169106500Y-100099100D01*
%TO.N,Net-(D1-A)*%
X162341400Y-101289200D02*
X162432400Y-101198200D01*
X170749400Y-102451400D02*
X170749400Y-104000600D01*
X160210600Y-101789400D02*
X160558500Y-101789400D01*
X159750000Y-102250000D02*
X160210600Y-101789400D01*
X162432400Y-101198200D02*
X169496200Y-101198200D01*
X170749400Y-104000600D02*
X170500000Y-104250000D01*
X169496200Y-101198200D02*
X170749400Y-102451400D01*
X160558500Y-101789400D02*
X160558500Y-101789300D01*
X160558500Y-101789300D02*
X161058600Y-101289200D01*
X161058600Y-101289200D02*
X162341400Y-101289200D01*
%TO.N,Net-(D2-A)*%
X53250000Y-98880000D02*
X54357600Y-99987600D01*
X155500000Y-104250000D02*
X153693500Y-106056500D01*
X66126400Y-99987600D02*
X67571200Y-101432400D01*
X105250700Y-101432400D02*
X108275400Y-101432400D01*
X153693500Y-106056500D02*
X139092600Y-106056500D01*
X138900000Y-112064000D02*
X129895700Y-112064000D01*
X108010000Y-110191700D02*
X109500000Y-111681700D01*
X125021900Y-111681700D02*
X109500000Y-111681700D01*
X128425000Y-110593300D02*
X126110300Y-110593300D01*
X108010000Y-110130000D02*
X108010000Y-110191700D01*
X54357600Y-99987600D02*
X66126400Y-99987600D01*
X67571200Y-101432400D02*
X105250700Y-101432400D01*
X129895700Y-112064000D02*
X128425000Y-110593300D01*
X126110300Y-110593300D02*
X125021900Y-111681700D01*
%TO.N,Net-(D5-A)*%
X84300000Y-110380000D02*
X84300000Y-108828300D01*
X152221800Y-87874600D02*
X153843300Y-89496100D01*
X84300000Y-106844700D02*
X82468900Y-105013600D01*
X88384400Y-87874600D02*
X152221800Y-87874600D01*
X91117400Y-62282400D02*
X91399800Y-62000000D01*
X82468900Y-105013600D02*
X59385500Y-105013600D01*
X153843300Y-89496100D02*
X153843300Y-89798600D01*
X87931900Y-88327100D02*
X88384400Y-87874600D01*
X101150000Y-62888300D02*
X101150000Y-64440000D01*
X100261700Y-62000000D02*
X101150000Y-62888300D01*
X156805200Y-103305200D02*
X157750000Y-104250000D01*
X156443600Y-103305200D02*
X156805200Y-103305200D01*
X84300000Y-108828300D02*
X84300000Y-106844700D01*
X91399800Y-62000000D02*
X100261700Y-62000000D01*
%TO.N,Net-(Q2-B)*%
X162248200Y-105987300D02*
X161750000Y-105489100D01*
X161750000Y-105489100D02*
X161750000Y-104250000D01*
%TO.N,Net-(U1-\u03A60)*%
X173000000Y-110130000D02*
X173000000Y-108921700D01*
X173000000Y-108921700D02*
X172656600Y-108578300D01*
X168415800Y-108578300D02*
X164000000Y-104162500D01*
X172656600Y-108578300D02*
X168415800Y-108578300D01*
%TO.N,Net-(U2-Q5)*%
X149930200Y-103305200D02*
X150985400Y-102250000D01*
X150985400Y-102250000D02*
X151000000Y-102250000D01*
%TO.N,Net-(R2-Pad1)*%
X153250000Y-102250000D02*
X153250000Y-102009300D01*
X173542500Y-87457500D02*
X175500000Y-85500000D01*
X151250000Y-104250000D02*
X153250000Y-102250000D01*
X155471600Y-99787700D02*
X162087700Y-99787700D01*
X153250000Y-102009300D02*
X155471600Y-99787700D01*
X166371900Y-87457500D02*
X173542500Y-87457500D01*
X151000000Y-104250000D02*
X151250000Y-104250000D01*
%TO.N,/CLK - Mod-60 (1)*%
X154372600Y-103127400D02*
X153250000Y-104250000D01*
X152385200Y-121741000D02*
X153876500Y-120249700D01*
X155406400Y-100670500D02*
X154372600Y-101704300D01*
X109043700Y-121741000D02*
X152385200Y-121741000D01*
X154372600Y-101704300D02*
X154372600Y-103127400D01*
X158603400Y-100670500D02*
X155406400Y-100670500D01*
X161750000Y-102250000D02*
X161875100Y-102250000D01*
X161875100Y-102250000D02*
X162760800Y-103135700D01*
%TO.N,+6V*%
X110300000Y-119551700D02*
X99045400Y-119551700D01*
X129380000Y-109500000D02*
X130010000Y-110130000D01*
X104462500Y-107250000D02*
X104462000Y-107250000D01*
X93000000Y-62500000D02*
X97500000Y-62500000D01*
X144837000Y-108578300D02*
X154461900Y-108578300D01*
X160000000Y-68587500D02*
X160000000Y-71250000D01*
X129000700Y-109500000D02*
X130424100Y-108076600D01*
X104462500Y-107250000D02*
X105079800Y-106632700D01*
X124250000Y-64250000D02*
X126880000Y-64250000D01*
X161002000Y-81460000D02*
X161232000Y-81230000D01*
X126278100Y-108528100D02*
X127250000Y-109500000D01*
X157092000Y-109462000D02*
X157760000Y-110130000D01*
X155000000Y-109462000D02*
X157092000Y-109462000D01*
X155500000Y-102250000D02*
X157750000Y-102250000D01*
X160000000Y-72888200D02*
X160000000Y-73500000D01*
X100161700Y-65991700D02*
X98610000Y-64440000D01*
X59097900Y-106614600D02*
X79000000Y-106614600D01*
X105079800Y-106632700D02*
X105490200Y-106632700D01*
X105490200Y-106632600D02*
X105987300Y-106135500D01*
X129000700Y-109500000D02*
X129380000Y-109500000D01*
X66635000Y-62000000D02*
X66635000Y-63885000D01*
X98151700Y-117122900D02*
X97477100Y-116448300D01*
X160000000Y-71250000D02*
X160000000Y-72888200D01*
X102301700Y-63779300D02*
X102301700Y-65317100D01*
X57962500Y-109702000D02*
X58760000Y-110500000D01*
X97500000Y-62500000D02*
X98610000Y-63610000D01*
X163797200Y-99000000D02*
X171750000Y-99000000D01*
X105490200Y-106632700D02*
X105490200Y-106632600D01*
X155000000Y-109462500D02*
X155000000Y-109462000D01*
X157945500Y-102250000D02*
X159408000Y-100787500D01*
X159750000Y-104250000D02*
X157750000Y-102250000D01*
X66635000Y-63885000D02*
X67380000Y-64630000D01*
X109480300Y-108528100D02*
X126278100Y-108528100D01*
X98610000Y-63610000D02*
X98610000Y-64440000D01*
X79000000Y-106614600D02*
X79885400Y-107500000D01*
X101627100Y-65991700D02*
X100161700Y-65991700D01*
X159912500Y-68500000D02*
X160000000Y-68587500D01*
X104462000Y-107250000D02*
X104462000Y-109122000D01*
X99045400Y-119551700D02*
X98151700Y-118658000D01*
X81212500Y-107500000D02*
X81212500Y-106212500D01*
X97477100Y-116448300D02*
X88391700Y-116448300D01*
X159750000Y-104250000D02*
X159750000Y-106804000D01*
X81212500Y-109832000D02*
X81760000Y-110380000D01*
X102301700Y-65317100D02*
X101627100Y-65991700D01*
X103694400Y-62386600D02*
X102301700Y-63779300D01*
X144335300Y-108076600D02*
X144837000Y-108578300D01*
X81212500Y-106212500D02*
X81000000Y-106000000D01*
X98151700Y-118658000D02*
X98151700Y-117122900D01*
X92462500Y-64250000D02*
X92462500Y-63037500D01*
X110550000Y-119301700D02*
X110300000Y-119551700D01*
X79885400Y-107500000D02*
X81212500Y-107500000D01*
X107087700Y-106135500D02*
X109480300Y-108528100D01*
X57962500Y-107750000D02*
X57962500Y-109702000D01*
X92462500Y-63037500D02*
X93000000Y-62500000D01*
X104462000Y-109122000D02*
X105470000Y-110130000D01*
X57962500Y-107750000D02*
X59097900Y-106614600D01*
X122386600Y-62386600D02*
X103694400Y-62386600D01*
X159000000Y-81460000D02*
X161002000Y-81460000D01*
X105987300Y-106135500D02*
X107087700Y-106135500D01*
X130424100Y-108076600D02*
X144335300Y-108076600D01*
X157750000Y-102250000D02*
X157945500Y-102250000D01*
X126880000Y-64250000D02*
X127010000Y-64380000D01*
X159750000Y-106804000D02*
X157092000Y-109462000D01*
X110550000Y-117750000D02*
X110550000Y-119301700D01*
X88391700Y-116448300D02*
X86840000Y-118000000D01*
X159408000Y-100787500D02*
X162009700Y-100787500D01*
X162009700Y-100787500D02*
X163797200Y-99000000D01*
X161232000Y-81230000D02*
X161462000Y-81000000D01*
X161232500Y-81230000D02*
X161462500Y-81000000D01*
X161232000Y-81230000D02*
X161232500Y-81230000D01*
X124250000Y-64250000D02*
X122386600Y-62386600D01*
X127250000Y-109500000D02*
X129000700Y-109500000D01*
X154461900Y-108578300D02*
X154963800Y-109080200D01*
X160000000Y-73500000D02*
X159000000Y-74500000D01*
%TO.N,Net-(D2-K)*%
X148258200Y-69758200D02*
X139469300Y-69758200D01*
X92095100Y-86900900D02*
X110371500Y-86900900D01*
X92095100Y-86900900D02*
X91888900Y-87107100D01*
X110371500Y-86900900D02*
X111372900Y-85899500D01*
X53250000Y-106500000D02*
X53862600Y-105887400D01*
X151000000Y-72500000D02*
X148258200Y-69758200D01*
X111372900Y-85899500D02*
X133528300Y-85899500D01*
X92095100Y-86900900D02*
X91888900Y-87107100D01*
X91888900Y-87107100D02*
X86353600Y-87107100D01*
X138389400Y-69925000D02*
X139302500Y-69925000D01*
X86353600Y-87107100D02*
X86352100Y-87108600D01*
X53862600Y-105887400D02*
X79252400Y-105887400D01*
X133528300Y-85899500D02*
X134030000Y-85397800D01*
X79252400Y-105887400D02*
X79325700Y-105814100D01*
X139302500Y-69925000D02*
X139469300Y-69758200D01*
%TO.N,Net-(U7-RESET)*%
X131072100Y-90547400D02*
X145703300Y-90547400D01*
X162469500Y-98530500D02*
X163250000Y-97750000D01*
X157448300Y-96700000D02*
X156257800Y-95509500D01*
X131000000Y-90619500D02*
X131072100Y-90547400D01*
X149792400Y-97171300D02*
X151151600Y-98530500D01*
X100254400Y-90995300D02*
X100048200Y-91201500D01*
X121728300Y-90619500D02*
X131000000Y-90619500D01*
X77010700Y-83043500D02*
X85168700Y-91201500D01*
X100254400Y-90995300D02*
X100702200Y-90547500D01*
X145703300Y-90547400D02*
X145800400Y-90450300D01*
X100254400Y-90995300D02*
X100048200Y-91201500D01*
X151151600Y-98530500D02*
X162469500Y-98530500D01*
X156257800Y-95509500D02*
X150524000Y-95509500D01*
X150524000Y-95509500D02*
X149792400Y-96241100D01*
X60656600Y-83043500D02*
X77010700Y-83043500D01*
X159000000Y-96700000D02*
X157448300Y-96700000D01*
X149792400Y-96241100D02*
X149792400Y-97171300D01*
X131000000Y-90619500D02*
X131138300Y-90619500D01*
X157738100Y-90450300D02*
X157838400Y-90350000D01*
X85168700Y-91201500D02*
X100048200Y-91201500D01*
X145800400Y-90450300D02*
X157738100Y-90450300D01*
X121656300Y-90547500D02*
X121728300Y-90619500D01*
X100702200Y-90547500D02*
X121656300Y-90547500D01*
%TO.N,Net-(U1-Q10)*%
X157110000Y-111681700D02*
X159300000Y-111681700D01*
X156002200Y-110573900D02*
X157110000Y-111681700D01*
X144261700Y-111681700D02*
X148267100Y-111681700D01*
X142710000Y-110130000D02*
X144261700Y-111681700D01*
X149374900Y-110573900D02*
X156002200Y-110573900D01*
X160300000Y-110681700D02*
X160300000Y-110130000D01*
X148267100Y-111681700D02*
X149374900Y-110573900D01*
X159300000Y-111681700D02*
G75*
G03*
X160300000Y-110681700I0J1000000D01*
G01*
%TO.N,Net-(U10-Pad10)*%
X151380000Y-94160000D02*
X159000000Y-94160000D01*
%TO.N,Net-(D3-K)*%
X127794900Y-120795200D02*
X128002600Y-120587500D01*
X128002600Y-120587500D02*
X135883300Y-120587500D01*
X56925200Y-120795200D02*
X127794900Y-120795200D01*
X143855900Y-61698600D02*
X157111100Y-61698600D01*
X53750000Y-117620000D02*
X56925200Y-120795200D01*
X127794900Y-120795200D02*
X128002600Y-120587500D01*
X157111100Y-61698600D02*
X159912500Y-64500000D01*
X142078700Y-61086100D02*
X143243400Y-61086100D01*
X53750000Y-117120000D02*
X53750000Y-117620000D01*
X143243400Y-61086100D02*
X143855900Y-61698600D01*
%TO.N,Net-(D4-K)*%
X159912500Y-66500000D02*
X160910300Y-65502200D01*
X160910300Y-63829400D02*
X157286000Y-60205100D01*
X145017000Y-60205100D02*
X144705300Y-60516800D01*
X60662400Y-57779900D02*
X53372900Y-65069400D01*
X160910300Y-65502200D02*
X160910300Y-63829400D01*
X157286000Y-60205100D02*
X145017000Y-60205100D01*
X141968400Y-57779900D02*
X60662400Y-57779900D01*
X144705300Y-60516800D02*
X141968400Y-57779900D01*
%TO.N,Net-(D5-K)*%
X110000000Y-66750000D02*
X111310000Y-65440000D01*
X51680200Y-72955700D02*
X51487900Y-73148000D01*
X79693100Y-68750000D02*
X78385700Y-70057400D01*
X79015700Y-75679400D02*
X67628900Y-75679400D01*
X92500000Y-68750000D02*
X93699000Y-69949000D01*
X100000000Y-70750000D02*
X100000000Y-73027300D01*
X64985000Y-73147600D02*
X58245400Y-73147600D01*
X58245400Y-73147600D02*
X58053500Y-72955700D01*
X100000000Y-73027300D02*
X100638700Y-73666000D01*
X102420000Y-72890900D02*
X102420000Y-71230700D01*
X93699000Y-69949000D02*
X96472800Y-69949000D01*
X96726800Y-70203000D02*
X99453000Y-70203000D01*
X106900700Y-66750000D02*
X110000000Y-66750000D01*
X65640800Y-73803400D02*
X64985000Y-73147600D01*
X101644900Y-73666000D02*
X102420000Y-72890900D01*
X99453000Y-70203000D02*
X100000000Y-70750000D01*
X92500000Y-68750000D02*
X79693100Y-68750000D01*
X58053500Y-72955700D02*
X51680200Y-72955700D01*
X100638700Y-73666000D02*
X101644900Y-73666000D01*
X111310000Y-65440000D02*
X111310000Y-64440000D01*
X67628900Y-75679400D02*
X67559300Y-75749000D01*
X102420000Y-71230700D02*
X106900700Y-66750000D01*
X96472800Y-69949000D02*
X96726800Y-70203000D01*
%TO.N,Net-(D6-K)*%
X89418900Y-76331100D02*
X78745900Y-76331100D01*
X63296600Y-76272800D02*
X63424500Y-76400700D01*
X92500000Y-73250000D02*
X89418900Y-76331100D01*
X111835500Y-74472800D02*
X111314300Y-74994000D01*
X94244000Y-74994000D02*
X111314300Y-74994000D01*
X63424500Y-76400700D02*
X67829200Y-76400700D01*
X78595900Y-76181100D02*
X78745900Y-76331100D01*
X68048800Y-76181100D02*
X78595900Y-76181100D01*
X67829200Y-76400700D02*
X68048800Y-76181100D01*
X92500000Y-73250000D02*
X94244000Y-74994000D01*
%TO.N,Net-(D7-K)*%
X112000000Y-73611700D02*
X111775100Y-73611700D01*
X78745900Y-75027700D02*
X78595900Y-75177700D01*
X92500000Y-71562500D02*
X89034800Y-75027700D01*
X111216400Y-74170400D02*
X97844300Y-74170400D01*
X54070300Y-75320300D02*
X53250000Y-74500000D01*
X78595900Y-75177700D02*
X67909600Y-75177700D01*
X66741000Y-75320300D02*
X54070300Y-75320300D01*
X92500000Y-71562500D02*
X92500000Y-71000000D01*
X93062500Y-72125000D02*
X92500000Y-71562500D01*
X111775100Y-73611700D02*
X111216400Y-74170400D01*
X95798900Y-72125000D02*
X93062500Y-72125000D01*
X67909600Y-75177700D02*
X67829200Y-75097300D01*
X112298300Y-73611700D02*
X113850000Y-72060000D01*
X97844300Y-74170400D02*
X95798900Y-72125000D01*
X67829200Y-75097300D02*
X66964000Y-75097300D01*
X66964000Y-75097300D02*
X66741000Y-75320300D01*
X89034800Y-75027700D02*
X78745900Y-75027700D01*
X112000000Y-73611700D02*
X112298300Y-73611700D01*
%TO.N,Net-(U7-B)*%
X54790300Y-82713000D02*
X56000000Y-81503300D01*
X67368300Y-108948300D02*
X63133900Y-108948300D01*
X63133900Y-108948300D02*
X62878700Y-108693100D01*
X56000000Y-81503300D02*
X56000000Y-81500000D01*
X68920000Y-110500000D02*
X67368300Y-108948300D01*
%TO.N,Net-(U7-C)*%
X57329400Y-85079400D02*
X64114300Y-85079400D01*
X64114300Y-85079400D02*
X64699600Y-85664700D01*
X56000000Y-83750000D02*
X57329400Y-85079400D01*
%TO.N,Net-(U7-D)*%
X56000000Y-86250000D02*
X55039700Y-87210300D01*
X55039700Y-87210300D02*
X55039700Y-89226800D01*
X55375200Y-89562300D02*
X76132500Y-89562300D01*
X55039700Y-89226800D02*
X55375200Y-89562300D01*
X76132500Y-89562300D02*
X76540000Y-89969800D01*
%TO.N,Net-(U7-E)*%
X56000000Y-88500000D02*
X57069600Y-87430400D01*
X70470200Y-87430400D02*
X71148100Y-88108300D01*
X57069600Y-87430400D02*
X70470200Y-87430400D01*
%TO.N,Net-(U7-F)*%
X59127900Y-91412700D02*
X58718500Y-91822100D01*
X57072100Y-91822100D02*
X56000000Y-90750000D01*
X67727200Y-91412700D02*
X68224300Y-91412700D01*
X58718500Y-91822100D02*
X57072100Y-91822100D01*
X67727200Y-91412700D02*
X59127900Y-91412700D01*
%TO.N,Net-(U7-A)*%
X74000000Y-95564800D02*
X73711100Y-95853700D01*
X73711100Y-95853700D02*
X64262300Y-95853700D01*
X74000000Y-95564800D02*
X73935200Y-95629600D01*
X64262300Y-95853700D02*
X62908600Y-94500000D01*
X57250000Y-94500000D02*
X56000000Y-93250000D01*
X62908600Y-94500000D02*
X57250000Y-94500000D01*
%TO.N,Net-(U7-G)*%
X97690500Y-93292500D02*
X97690500Y-95189700D01*
X120552900Y-91916900D02*
X120348100Y-92121700D01*
X144113100Y-91930100D02*
X149518200Y-91930100D01*
X120726700Y-91743100D02*
X133344800Y-91743100D01*
X59485900Y-99235900D02*
X56000000Y-95750000D01*
X72271600Y-99235900D02*
X59485900Y-99235900D01*
X149828300Y-91620000D02*
X151380000Y-91620000D01*
X149518200Y-91930100D02*
X149828300Y-91620000D01*
X120348100Y-92121700D02*
X98861300Y-92121700D01*
X97690500Y-95189700D02*
X93142600Y-99737600D01*
X120552900Y-91916900D02*
X120348100Y-92121700D01*
X72773300Y-99737600D02*
X72271600Y-99235900D01*
X93142600Y-99737600D02*
X72773300Y-99737600D01*
X143803000Y-91620000D02*
X144113100Y-91930100D01*
X133467021Y-91620000D02*
X143803000Y-91620000D01*
X98861300Y-92121700D02*
X97690500Y-93292500D01*
X133344800Y-91742221D02*
X133467021Y-91620000D01*
X120552900Y-91916900D02*
X120726700Y-91743100D01*
X133344800Y-91743100D02*
X133344800Y-91742221D01*
%TO.N,Net-(U8-A)*%
X88041700Y-85023200D02*
X84960300Y-81941800D01*
X151380000Y-84000000D02*
X149828300Y-84000000D01*
X149828300Y-84000000D02*
X148823300Y-85005000D01*
X134558800Y-85005000D02*
X133972000Y-84418200D01*
X59092100Y-82391800D02*
X58921400Y-82562500D01*
X133972000Y-84418200D02*
X111185200Y-84418200D01*
X77544000Y-82534100D02*
X62290400Y-82534100D01*
X110787900Y-84815500D02*
X110580200Y-85023200D01*
X58921400Y-82562500D02*
X57362800Y-82562500D01*
X111185200Y-84418200D02*
X110787900Y-84815500D01*
X78136300Y-81941800D02*
X77544000Y-82534100D01*
X148823300Y-85005000D02*
X134558800Y-85005000D01*
X57000000Y-80500000D02*
X58750000Y-78750000D01*
X57000000Y-82199700D02*
X57000000Y-80500000D01*
X57362800Y-82562500D02*
X57000000Y-82199700D01*
X62148100Y-82391800D02*
X59092100Y-82391800D01*
X110580200Y-85023200D02*
X88041700Y-85023200D01*
X62290400Y-82534100D02*
X62148100Y-82391800D01*
X110787900Y-84815500D02*
X110580200Y-85023200D01*
X84960300Y-81941800D02*
X78136300Y-81941800D01*
%TO.N,Net-(U8-B)*%
X61693100Y-80400500D02*
X62792600Y-81500000D01*
X59747600Y-77497600D02*
X59747600Y-79476100D01*
X60672000Y-80400500D02*
X61693100Y-80400500D01*
X72280800Y-80613700D02*
X75818100Y-80613700D01*
X59747600Y-79476100D02*
X60672000Y-80400500D01*
X58750000Y-76500000D02*
X59747600Y-77497600D01*
X76965900Y-79465900D02*
X76965900Y-79047400D01*
X62792600Y-81500000D02*
X71394500Y-81500000D01*
X71394500Y-81500000D02*
X72280800Y-80613700D01*
X75818100Y-80613700D02*
X76965900Y-79465900D01*
%TO.N,Net-(U8-C)*%
X57593100Y-73663100D02*
X58163100Y-73663100D01*
X58163100Y-73663100D02*
X58750000Y-74250000D01*
%TO.N,Net-(U8-D)*%
X70447100Y-73817700D02*
X71276500Y-72988300D01*
X76499500Y-66181700D02*
X83608300Y-66181700D01*
X58750000Y-72000000D02*
X59810300Y-70939700D01*
X71276500Y-71404700D02*
X76499500Y-66181700D01*
X66578900Y-73817700D02*
X70447100Y-73817700D01*
X59810300Y-70939700D02*
X63700900Y-70939700D01*
X63700900Y-70939700D02*
X66578900Y-73817700D01*
X83608300Y-66181700D02*
X85160000Y-64630000D01*
X71276500Y-72988300D02*
X71276500Y-71404700D01*
%TO.N,Net-(U8-E)*%
X62165100Y-66375000D02*
X64841100Y-63699000D01*
X64841100Y-63699000D02*
X64841100Y-62129200D01*
X66068800Y-60901500D02*
X77903200Y-60901500D01*
X59750000Y-68750000D02*
X59750000Y-66783900D01*
X59750000Y-66783900D02*
X60158900Y-66375000D01*
X58750000Y-69750000D02*
X59750000Y-68750000D01*
X64841100Y-62129200D02*
X66068800Y-60901500D01*
X77903200Y-60901500D02*
X80080000Y-63078300D01*
X60158900Y-66375000D02*
X62165100Y-66375000D01*
X80080000Y-64630000D02*
X80080000Y-63078300D01*
%TO.N,Net-(U8-F)*%
X57593100Y-67275500D02*
X58525500Y-67275500D01*
X58525500Y-67275500D02*
X58750000Y-67500000D01*
%TO.N,Net-(U8-G)*%
X65568400Y-58431600D02*
X79325700Y-58431600D01*
X58750000Y-65250000D02*
X65568400Y-58431600D01*
%TO.N,Net-(U4-A)*%
X143801700Y-65931700D02*
X149568300Y-65931700D01*
X149568300Y-65931700D02*
X151000000Y-64500000D01*
X142250000Y-64380000D02*
X143801700Y-65931700D01*
%TO.N,Net-(U4-B)*%
X151000000Y-66500000D02*
X139290000Y-66500000D01*
X139290000Y-66500000D02*
X137170000Y-64380000D01*
%TO.N,Net-(U4-C)*%
X137198300Y-68500000D02*
X134630000Y-65931700D01*
X151000000Y-68500000D02*
X137198300Y-68500000D01*
X134630000Y-64380000D02*
X134630000Y-65931700D01*
%TO.N,Net-(U4-D)*%
X150697400Y-70500000D02*
X151000000Y-70500000D01*
X149781000Y-69583600D02*
X150697400Y-70500000D01*
%TO.N,Net-(U3-A)*%
X112428600Y-103607000D02*
X111321600Y-102500000D01*
X112428600Y-103607000D02*
X112429700Y-103605900D01*
X111321600Y-102500000D02*
X111000000Y-102500000D01*
%TO.N,Net-(U3-B)*%
X113250000Y-102500000D02*
X113250000Y-103311000D01*
X113250000Y-103311000D02*
X113549700Y-103610700D01*
%TO.N,Net-(U3-C)*%
X115485000Y-102500000D02*
X115500000Y-102500000D01*
X114351500Y-103633500D02*
X115485000Y-102500000D01*
%TO.N,Net-(U3-D)*%
X121980000Y-103763000D02*
X121623000Y-104120000D01*
X121623000Y-104120000D02*
X118787800Y-104120000D01*
X118787800Y-104120000D02*
X117750000Y-103082200D01*
X117750000Y-103082200D02*
X117750000Y-102500000D01*
%TO.N,Net-(U3-E)*%
X119993500Y-102500000D02*
X119056400Y-103437100D01*
X120000000Y-102500000D02*
X119993500Y-102500000D01*
%TO.N,Net-(U3-F)*%
X121141200Y-103387900D02*
X121362100Y-103387900D01*
X121362100Y-103387900D02*
X122250000Y-102500000D01*
%TO.N,Net-(U3-G)*%
X123541600Y-103458400D02*
X124500000Y-102500000D01*
X123399500Y-103458400D02*
X123541600Y-103458400D01*
%TO.N,Net-(U5-A)*%
X120750000Y-68500000D02*
X116358300Y-68500000D01*
X113850000Y-64440000D02*
X113850000Y-65991700D01*
X116358300Y-68500000D02*
X113850000Y-65991700D01*
%TO.N,Net-(U5-B)*%
X122383500Y-70866500D02*
X120750000Y-72500000D01*
X118802000Y-62888300D02*
X122383500Y-66469800D01*
X122383500Y-66469800D02*
X122383500Y-70866500D01*
X110321700Y-62888300D02*
X118802000Y-62888300D01*
X108770000Y-64440000D02*
X110321700Y-62888300D01*
%TO.N,Net-(U5-C)*%
X95704200Y-68215100D02*
X95704200Y-67704200D01*
X95704200Y-67704200D02*
X94500000Y-66500000D01*
%TO.N,Net-(U5-D)*%
X91433400Y-61044900D02*
X88337500Y-64140800D01*
X88337500Y-64140800D02*
X88337500Y-64500000D01*
X114987300Y-61044900D02*
X91433400Y-61044900D01*
%TO.N,Net-(U6-A)*%
X141610100Y-102250000D02*
X137610100Y-106250000D01*
X148750000Y-102250000D02*
X141610100Y-102250000D01*
X129149400Y-107508500D02*
X110272800Y-107508500D01*
X130029800Y-106628100D02*
X129149400Y-107508500D01*
X132708520Y-106250000D02*
X132330420Y-106628100D01*
X137610100Y-106250000D02*
X132708520Y-106250000D01*
X103988800Y-105595100D02*
X100233200Y-105595100D01*
X100233200Y-105595100D02*
X97000000Y-108828300D01*
X132330420Y-106628100D02*
X130029800Y-106628100D01*
X110272800Y-107508500D02*
X107859200Y-105094900D01*
X97000000Y-110380000D02*
X97000000Y-108828300D01*
X104489000Y-105094900D02*
X104195000Y-105388900D01*
X104195000Y-105388900D02*
X103988800Y-105595100D01*
X107859200Y-105094900D02*
X104489000Y-105094900D01*
X104195000Y-105388900D02*
X103988800Y-105595100D01*
%TO.N,Net-(U6-B)*%
X143731500Y-89195300D02*
X144431900Y-89895700D01*
X92205900Y-89397900D02*
X91974700Y-89629100D01*
X91974700Y-89629100D02*
X92408500Y-89195300D01*
X92408500Y-89195300D02*
X143731500Y-89195300D01*
X143731500Y-89195300D02*
X144431900Y-89895700D01*
X144903700Y-99737600D02*
X144705300Y-99737600D01*
X138762400Y-99737600D02*
X138000000Y-100500000D01*
X91974700Y-89629100D02*
X92205900Y-89397900D01*
X144431900Y-89895700D02*
X143731500Y-89195300D01*
X144705300Y-99737600D02*
X138762400Y-99737600D01*
X144705300Y-99737600D02*
X144903700Y-99737600D01*
%TO.N,Net-(U6-C)*%
X132783900Y-101500000D02*
X132302700Y-101981200D01*
X132302700Y-101981200D02*
X132302700Y-102697300D01*
X103987300Y-104887200D02*
X103796000Y-105078500D01*
X116309700Y-106075200D02*
X116849400Y-106075200D01*
X132301000Y-103105870D02*
X131955870Y-103451000D01*
X116849400Y-106075200D02*
X117024200Y-106250000D01*
X127442400Y-105501000D02*
X126935900Y-106007500D01*
X103796000Y-105078500D02*
X93129800Y-105078500D01*
X103987300Y-104887200D02*
X103796000Y-105078500D01*
X135750000Y-100500000D02*
X134750000Y-101500000D01*
X132301000Y-102699000D02*
X132301000Y-103105870D01*
X115939400Y-106445500D02*
X116309700Y-106075200D01*
X103987300Y-104887200D02*
X104281300Y-104593200D01*
X129500000Y-105500000D02*
X128958521Y-105500000D01*
X134750000Y-101500000D02*
X132783900Y-101500000D01*
X126935900Y-106007500D02*
X126860100Y-106083300D01*
X108431800Y-104593200D02*
X110284100Y-106445500D01*
X131955870Y-103451000D02*
X131549000Y-103451000D01*
X104281300Y-104593200D02*
X108431800Y-104593200D01*
X89380000Y-110380000D02*
X89380000Y-108828300D01*
X126693400Y-106250000D02*
X126860100Y-106083300D01*
X126935900Y-106007500D02*
X126860100Y-106083300D01*
X93129800Y-105078500D02*
X89380000Y-108828300D01*
X110284100Y-106445500D02*
X115939400Y-106445500D01*
X131549000Y-103451000D02*
X129500000Y-105500000D01*
X128958521Y-105500000D02*
X128957520Y-105501000D01*
X117024200Y-106250000D02*
X126693400Y-106250000D01*
X128957520Y-105501000D02*
X127442400Y-105501000D01*
X132302700Y-102697300D02*
X132301000Y-102699000D01*
%TO.N,Net-(U6-D)*%
X136783100Y-97700400D02*
X136072500Y-97700400D01*
X132137900Y-107424700D02*
X132059500Y-107503100D01*
X104446700Y-106096800D02*
X102271500Y-106096800D01*
X109940200Y-108010200D02*
X107526600Y-105596600D01*
X133500000Y-99738100D02*
X134379500Y-98858600D01*
X132059500Y-107503100D02*
X130217700Y-107503100D01*
X107526600Y-105596600D02*
X104946900Y-105596600D01*
X99540000Y-110380000D02*
X99540000Y-108828300D01*
X104946900Y-105596600D02*
X104446700Y-106096800D01*
X102271500Y-106096800D02*
X99540000Y-108828300D01*
X133500000Y-100500000D02*
X133500000Y-99738100D01*
X138162400Y-99079700D02*
X136783100Y-97700400D01*
X130217700Y-107503100D02*
X129710600Y-108010200D01*
X129710600Y-108010200D02*
X109940200Y-108010200D01*
%TO.N,Net-(U6-E)*%
X117335000Y-105142000D02*
X116944000Y-104751000D01*
X99235700Y-102817700D02*
X98895000Y-103158400D01*
X124276800Y-104848000D02*
X124341700Y-104783100D01*
X115280530Y-105012950D02*
X115268580Y-105001000D01*
X127947300Y-103001600D02*
X126165800Y-104783100D01*
X95080900Y-103158400D02*
X94482900Y-102560400D01*
X127947300Y-101893100D02*
X127947300Y-103001600D01*
X115268580Y-105001000D02*
X112194480Y-105001000D01*
X98895000Y-103158400D02*
X95080900Y-103158400D01*
X123982800Y-105142000D02*
X117335000Y-105142000D01*
X109930200Y-104340200D02*
X108407700Y-102817700D01*
X115957520Y-104751000D02*
X115695570Y-105012950D01*
X130297300Y-101452700D02*
X128387700Y-101452700D01*
X131250000Y-100500000D02*
X130297300Y-101452700D01*
X124276800Y-104848000D02*
X124341700Y-104783100D01*
X124276800Y-104848000D02*
X123982800Y-105142000D01*
X128387700Y-101452700D02*
X127947300Y-101893100D01*
X112035300Y-105000000D02*
X111375500Y-104340200D01*
X112194480Y-105001000D02*
X112193479Y-105000000D01*
X111375500Y-104340200D02*
X109930200Y-104340200D01*
X126165800Y-104783100D02*
X124341700Y-104783100D01*
X112193479Y-105000000D02*
X112035300Y-105000000D01*
X115695570Y-105012950D02*
X115280530Y-105012950D01*
X116944000Y-104751000D02*
X115957520Y-104751000D01*
X108407700Y-102817700D02*
X99235700Y-102817700D01*
%TO.N,Net-(U6-F)*%
X128430200Y-100500000D02*
X127472000Y-101458200D01*
X127472000Y-101458200D02*
X109172800Y-101458200D01*
X109172800Y-101458200D02*
X108315000Y-102316000D01*
X96398100Y-102316000D02*
X96221600Y-102492500D01*
X108315000Y-102316000D02*
X96398100Y-102316000D01*
X129000000Y-100500000D02*
X128430200Y-100500000D01*
%TO.N,Net-(U6-G)*%
X128021200Y-99228800D02*
X126750000Y-100500000D01*
X130370900Y-99228800D02*
X128021200Y-99228800D01*
X97535600Y-120087300D02*
X126096400Y-120087300D01*
X136584700Y-97132000D02*
X138728500Y-97132000D01*
X136351300Y-96898600D02*
X136584700Y-97132000D01*
X97000000Y-119551700D02*
X97535600Y-120087300D01*
X97000000Y-118000000D02*
X97000000Y-119551700D01*
%TO.N,/CLK - Mod-60 (2)*%
X132544000Y-85069900D02*
X111493100Y-85069900D01*
X89412500Y-85962000D02*
X89258500Y-85808000D01*
X110601000Y-85962000D02*
X89412500Y-85962000D01*
X111493100Y-85069900D02*
X110601000Y-85962000D01*
%TO.N,/CLK - Mod-12*%
X59252600Y-103810100D02*
X57827000Y-105235700D01*
X105707500Y-103810100D02*
X59252600Y-103810100D01*
X106048200Y-103469400D02*
X105707500Y-103810100D01*
%TD*%
M02*
