%TF.GenerationSoftware,KiCad,Pcbnew,9.0.2*%
%TF.CreationDate,2025-11-07T18:09:28+05:30*%
%TF.ProjectId,v1,76312e6b-6963-4616-945f-706362585858,rev?*%
%TF.SameCoordinates,Original*%
%TF.FileFunction,Paste,Top*%
%TF.FilePolarity,Positive*%
%FSLAX46Y46*%
G04 Gerber Fmt 4.6, Leading zero omitted, Abs format (unit mm)*
G04 Created by KiCad (PCBNEW 9.0.2) date 2025-11-07 18:09:28*
%MOMM*%
%LPD*%
G01*
G04 APERTURE LIST*
G04 Aperture macros list*
%AMRoundRect*
0 Rectangle with rounded corners*
0 $1 Rounding radius*
0 $2 $3 $4 $5 $6 $7 $8 $9 X,Y pos of 4 corners*
0 Add a 4 corners polygon primitive as box body*
4,1,4,$2,$3,$4,$5,$6,$7,$8,$9,$2,$3,0*
0 Add four circle primitives for the rounded corners*
1,1,$1+$1,$2,$3*
1,1,$1+$1,$4,$5*
1,1,$1+$1,$6,$7*
1,1,$1+$1,$8,$9*
0 Add four rect primitives between the rounded corners*
20,1,$1+$1,$2,$3,$4,$5,0*
20,1,$1+$1,$4,$5,$6,$7,0*
20,1,$1+$1,$6,$7,$8,$9,0*
20,1,$1+$1,$8,$9,$2,$3,0*%
G04 Aperture macros list end*
%ADD10RoundRect,0.250000X-0.350000X-0.450000X0.350000X-0.450000X0.350000X0.450000X-0.350000X0.450000X0*%
%ADD11RoundRect,0.250000X-0.337500X-0.475000X0.337500X-0.475000X0.337500X0.475000X-0.337500X0.475000X0*%
%ADD12RoundRect,0.250000X0.350000X0.450000X-0.350000X0.450000X-0.350000X-0.450000X0.350000X-0.450000X0*%
%ADD13RoundRect,0.250000X0.337500X0.475000X-0.337500X0.475000X-0.337500X-0.475000X0.337500X-0.475000X0*%
%ADD14RoundRect,0.250000X-0.450000X0.350000X-0.450000X-0.350000X0.450000X-0.350000X0.450000X0.350000X0*%
%ADD15RoundRect,0.250000X0.450000X-0.350000X0.450000X0.350000X-0.450000X0.350000X-0.450000X-0.350000X0*%
%ADD16RoundRect,0.250000X-0.475000X0.337500X-0.475000X-0.337500X0.475000X-0.337500X0.475000X0.337500X0*%
%ADD17RoundRect,0.250000X0.325000X0.450000X-0.325000X0.450000X-0.325000X-0.450000X0.325000X-0.450000X0*%
G04 APERTURE END LIST*
D10*
%TO.C,R18*%
X58750000Y-74250000D03*
X60750000Y-74250000D03*
%TD*%
D11*
%TO.C,C6*%
X66635000Y-62000000D03*
X68710000Y-62000000D03*
%TD*%
D12*
%TO.C,R14*%
X58000000Y-93250000D03*
X56000000Y-93250000D03*
%TD*%
D13*
%TO.C,C1*%
X176575000Y-89750000D03*
X174500000Y-89750000D03*
%TD*%
D10*
%TO.C,R11*%
X56000000Y-86250000D03*
X58000000Y-86250000D03*
%TD*%
%TO.C,R21*%
X58750000Y-67500000D03*
X60750000Y-67500000D03*
%TD*%
D14*
%TO.C,R50*%
X126750000Y-100500000D03*
X126750000Y-102500000D03*
%TD*%
%TO.C,R7*%
X157750000Y-102250000D03*
X157750000Y-104250000D03*
%TD*%
D15*
%TO.C,R32*%
X115500000Y-102500000D03*
X115500000Y-100500000D03*
%TD*%
%TO.C,R2*%
X151000000Y-104250000D03*
X151000000Y-102250000D03*
%TD*%
D16*
%TO.C,C7*%
X127250000Y-109500000D03*
X127250000Y-111575000D03*
%TD*%
D12*
%TO.C,R15*%
X58000000Y-95750000D03*
X56000000Y-95750000D03*
%TD*%
D10*
%TO.C,R27*%
X151000000Y-72500000D03*
X153000000Y-72500000D03*
%TD*%
D14*
%TO.C,R46*%
X135750000Y-100500000D03*
X135750000Y-102500000D03*
%TD*%
%TO.C,R5*%
X159750000Y-102250000D03*
X159750000Y-104250000D03*
%TD*%
%TO.C,R44*%
X148750000Y-102250000D03*
X148750000Y-104250000D03*
%TD*%
D10*
%TO.C,R43*%
X92500000Y-71000000D03*
X94500000Y-71000000D03*
%TD*%
%TO.C,R41*%
X92500000Y-68750000D03*
X94500000Y-68750000D03*
%TD*%
D14*
%TO.C,R47*%
X133500000Y-100500000D03*
X133500000Y-102500000D03*
%TD*%
D10*
%TO.C,R8*%
X163250000Y-97750000D03*
X165250000Y-97750000D03*
%TD*%
D12*
%TO.C,R39*%
X94500000Y-66500000D03*
X92500000Y-66500000D03*
%TD*%
D15*
%TO.C,R33*%
X117750000Y-102500000D03*
X117750000Y-100500000D03*
%TD*%
D16*
%TO.C,C9*%
X124250000Y-64250000D03*
X124250000Y-66325000D03*
%TD*%
%TO.C,C2*%
X155000000Y-109462500D03*
X155000000Y-111537500D03*
%TD*%
D10*
%TO.C,R51*%
X158000000Y-71250000D03*
X160000000Y-71250000D03*
%TD*%
%TO.C,R12*%
X56000000Y-88500000D03*
X58000000Y-88500000D03*
%TD*%
%TO.C,R42*%
X92500000Y-73250000D03*
X94500000Y-73250000D03*
%TD*%
D11*
%TO.C,C10*%
X92462500Y-64250000D03*
X94537500Y-64250000D03*
%TD*%
D15*
%TO.C,R36*%
X124500000Y-102500000D03*
X124500000Y-100500000D03*
%TD*%
D12*
%TO.C,R29*%
X159912500Y-66500000D03*
X157912500Y-66500000D03*
%TD*%
D11*
%TO.C,C8*%
X104462500Y-107250000D03*
X106537500Y-107250000D03*
%TD*%
D14*
%TO.C,R48*%
X131250000Y-100500000D03*
X131250000Y-102500000D03*
%TD*%
D15*
%TO.C,R35*%
X122250000Y-102500000D03*
X122250000Y-100500000D03*
%TD*%
D10*
%TO.C,R25*%
X151000000Y-68500000D03*
X153000000Y-68500000D03*
%TD*%
%TO.C,R22*%
X58750000Y-65250000D03*
X60750000Y-65250000D03*
%TD*%
D15*
%TO.C,R4*%
X161750000Y-104250000D03*
X161750000Y-102250000D03*
%TD*%
%TO.C,R37*%
X120750000Y-68500000D03*
X120750000Y-66500000D03*
%TD*%
D11*
%TO.C,C3*%
X81212500Y-107500000D03*
X83287500Y-107500000D03*
%TD*%
D14*
%TO.C,R1*%
X164000000Y-102162500D03*
X164000000Y-104162500D03*
%TD*%
D15*
%TO.C,R30*%
X111000000Y-102500000D03*
X111000000Y-100500000D03*
%TD*%
D10*
%TO.C,R23*%
X151000000Y-64500000D03*
X153000000Y-64500000D03*
%TD*%
%TO.C,R20*%
X58750000Y-69750000D03*
X60750000Y-69750000D03*
%TD*%
%TO.C,R13*%
X56000000Y-90750000D03*
X58000000Y-90750000D03*
%TD*%
%TO.C,R24*%
X151000000Y-66500000D03*
X153000000Y-66500000D03*
%TD*%
%TO.C,R40*%
X88337500Y-64500000D03*
X90337500Y-64500000D03*
%TD*%
D14*
%TO.C,R6*%
X155500000Y-102250000D03*
X155500000Y-104250000D03*
%TD*%
D10*
%TO.C,R10*%
X56000000Y-83750000D03*
X58000000Y-83750000D03*
%TD*%
D15*
%TO.C,R34*%
X120000000Y-102500000D03*
X120000000Y-100500000D03*
%TD*%
D14*
%TO.C,R49*%
X129000000Y-100500000D03*
X129000000Y-102500000D03*
%TD*%
D10*
%TO.C,R26*%
X151000000Y-70500000D03*
X153000000Y-70500000D03*
%TD*%
%TO.C,R16*%
X58750000Y-78750000D03*
X60750000Y-78750000D03*
%TD*%
D17*
%TO.C,D1*%
X172550000Y-104250000D03*
X170500000Y-104250000D03*
%TD*%
D10*
%TO.C,R19*%
X58750000Y-72000000D03*
X60750000Y-72000000D03*
%TD*%
%TO.C,R52*%
X157912500Y-68500000D03*
X159912500Y-68500000D03*
%TD*%
%TO.C,R17*%
X58750000Y-76500000D03*
X60750000Y-76500000D03*
%TD*%
%TO.C,R9*%
X56000000Y-81500000D03*
X58000000Y-81500000D03*
%TD*%
D11*
%TO.C,C5*%
X57962500Y-107750000D03*
X60037500Y-107750000D03*
%TD*%
D12*
%TO.C,R28*%
X159912500Y-64500000D03*
X157912500Y-64500000D03*
%TD*%
D15*
%TO.C,R31*%
X113250000Y-102500000D03*
X113250000Y-100500000D03*
%TD*%
D11*
%TO.C,C4*%
X161462500Y-81000000D03*
X163537500Y-81000000D03*
%TD*%
D14*
%TO.C,R45*%
X138000000Y-100500000D03*
X138000000Y-102500000D03*
%TD*%
D15*
%TO.C,R38*%
X120750000Y-72500000D03*
X120750000Y-70500000D03*
%TD*%
%TO.C,R3*%
X153250000Y-104250000D03*
X153250000Y-102250000D03*
%TD*%
M02*
