%TF.GenerationSoftware,KiCad,Pcbnew,9.0.2*%
%TF.CreationDate,2025-11-07T18:09:28+05:30*%
%TF.ProjectId,v1,76312e6b-6963-4616-945f-706362585858,rev?*%
%TF.SameCoordinates,Original*%
%TF.FileFunction,Soldermask,Top*%
%TF.FilePolarity,Negative*%
%FSLAX46Y46*%
G04 Gerber Fmt 4.6, Leading zero omitted, Abs format (unit mm)*
G04 Created by KiCad (PCBNEW 9.0.2) date 2025-11-07 18:09:28*
%MOMM*%
%LPD*%
G01*
G04 APERTURE LIST*
G04 Aperture macros list*
%AMRoundRect*
0 Rectangle with rounded corners*
0 $1 Rounding radius*
0 $2 $3 $4 $5 $6 $7 $8 $9 X,Y pos of 4 corners*
0 Add a 4 corners polygon primitive as box body*
4,1,4,$2,$3,$4,$5,$6,$7,$8,$9,$2,$3,0*
0 Add four circle primitives for the rounded corners*
1,1,$1+$1,$2,$3*
1,1,$1+$1,$4,$5*
1,1,$1+$1,$6,$7*
1,1,$1+$1,$8,$9*
0 Add four rect primitives between the rounded corners*
20,1,$1+$1,$2,$3,$4,$5,0*
20,1,$1+$1,$4,$5,$6,$7,0*
20,1,$1+$1,$6,$7,$8,$9,0*
20,1,$1+$1,$8,$9,$2,$3,0*%
G04 Aperture macros list end*
%ADD10RoundRect,0.250000X-0.350000X-0.450000X0.350000X-0.450000X0.350000X0.450000X-0.350000X0.450000X0*%
%ADD11RoundRect,0.250000X0.550000X-0.950000X0.550000X0.950000X-0.550000X0.950000X-0.550000X-0.950000X0*%
%ADD12O,1.600000X2.400000*%
%ADD13RoundRect,0.250000X0.550000X-0.550000X0.550000X0.550000X-0.550000X0.550000X-0.550000X-0.550000X0*%
%ADD14C,1.600000*%
%ADD15RoundRect,0.250000X-0.337500X-0.475000X0.337500X-0.475000X0.337500X0.475000X-0.337500X0.475000X0*%
%ADD16RoundRect,0.250000X0.350000X0.450000X-0.350000X0.450000X-0.350000X-0.450000X0.350000X-0.450000X0*%
%ADD17RoundRect,0.250000X0.337500X0.475000X-0.337500X0.475000X-0.337500X-0.475000X0.337500X-0.475000X0*%
%ADD18RoundRect,0.250000X-0.450000X0.350000X-0.450000X-0.350000X0.450000X-0.350000X0.450000X0.350000X0*%
%ADD19R,1.524000X2.524000*%
%ADD20O,1.524000X2.524000*%
%ADD21RoundRect,0.250000X0.450000X-0.350000X0.450000X0.350000X-0.450000X0.350000X-0.450000X-0.350000X0*%
%ADD22RoundRect,0.250000X-0.475000X0.337500X-0.475000X-0.337500X0.475000X-0.337500X0.475000X0.337500X0*%
%ADD23RoundRect,0.250000X0.550000X0.550000X-0.550000X0.550000X-0.550000X-0.550000X0.550000X-0.550000X0*%
%ADD24C,3.200000*%
%ADD25RoundRect,0.250000X1.050000X-1.050000X1.050000X1.050000X-1.050000X1.050000X-1.050000X-1.050000X0*%
%ADD26C,2.600000*%
%ADD27R,1.500000X1.050000*%
%ADD28O,1.500000X1.050000*%
%ADD29RoundRect,0.250000X-0.950000X-0.550000X0.950000X-0.550000X0.950000X0.550000X-0.950000X0.550000X0*%
%ADD30O,2.400000X1.600000*%
%ADD31C,2.000000*%
%ADD32C,1.000000*%
%ADD33RoundRect,0.250000X0.325000X0.450000X-0.325000X0.450000X-0.325000X-0.450000X0.325000X-0.450000X0*%
G04 APERTURE END LIST*
D10*
%TO.C,R18*%
X58750000Y-74250000D03*
X60750000Y-74250000D03*
%TD*%
D11*
%TO.C,U8*%
X67380000Y-72250000D03*
D12*
X69920000Y-72250000D03*
X72460000Y-72250000D03*
X75000000Y-72250000D03*
X77540000Y-72250000D03*
X80080000Y-72250000D03*
X82620000Y-72250000D03*
X85160000Y-72250000D03*
X85160000Y-64630000D03*
X82620000Y-64630000D03*
X80080000Y-64630000D03*
X77540000Y-64630000D03*
X75000000Y-64630000D03*
X72460000Y-64630000D03*
X69920000Y-64630000D03*
X67380000Y-64630000D03*
%TD*%
D13*
%TO.C,D5*%
X53250000Y-85000000D03*
D14*
X53250000Y-77380000D03*
%TD*%
D15*
%TO.C,C6*%
X66635000Y-62000000D03*
X68710000Y-62000000D03*
%TD*%
D16*
%TO.C,R14*%
X58000000Y-93250000D03*
X56000000Y-93250000D03*
%TD*%
D17*
%TO.C,C1*%
X176575000Y-89750000D03*
X174500000Y-89750000D03*
%TD*%
D13*
%TO.C,D4*%
X53250000Y-95620000D03*
D14*
X53250000Y-88000000D03*
%TD*%
D10*
%TO.C,R11*%
X56000000Y-86250000D03*
X58000000Y-86250000D03*
%TD*%
%TO.C,R21*%
X58750000Y-67500000D03*
X60750000Y-67500000D03*
%TD*%
D18*
%TO.C,R50*%
X126750000Y-100500000D03*
X126750000Y-102500000D03*
%TD*%
%TO.C,R7*%
X157750000Y-102250000D03*
X157750000Y-104250000D03*
%TD*%
D19*
%TO.C,AFF3*%
X94000000Y-94240000D03*
D20*
X96540000Y-94240000D03*
X99080000Y-94240000D03*
X101620000Y-94240000D03*
X104160000Y-94240000D03*
X104160000Y-79000000D03*
X101620000Y-79000000D03*
X99080000Y-79000000D03*
X96540000Y-79000000D03*
X94000000Y-79000000D03*
%TD*%
D21*
%TO.C,R32*%
X115500000Y-102500000D03*
X115500000Y-100500000D03*
%TD*%
%TO.C,R2*%
X151000000Y-104250000D03*
X151000000Y-102250000D03*
%TD*%
D22*
%TO.C,C7*%
X127250000Y-109500000D03*
X127250000Y-111575000D03*
%TD*%
D23*
%TO.C,D6*%
X64750000Y-101750000D03*
D14*
X57130000Y-101750000D03*
%TD*%
D11*
%TO.C,U6*%
X81760000Y-118000000D03*
D12*
X84300000Y-118000000D03*
X86840000Y-118000000D03*
X89380000Y-118000000D03*
X91920000Y-118000000D03*
X94460000Y-118000000D03*
X97000000Y-118000000D03*
X99540000Y-118000000D03*
X99540000Y-110380000D03*
X97000000Y-110380000D03*
X94460000Y-110380000D03*
X91920000Y-110380000D03*
X89380000Y-110380000D03*
X86840000Y-110380000D03*
X84300000Y-110380000D03*
X81760000Y-110380000D03*
%TD*%
D19*
%TO.C,AFF2*%
X136170000Y-94240000D03*
D20*
X138710000Y-94240000D03*
X141250000Y-94240000D03*
X143790000Y-94240000D03*
X146330000Y-94240000D03*
X146330000Y-79000000D03*
X143790000Y-79000000D03*
X141250000Y-79000000D03*
X138710000Y-79000000D03*
X136170000Y-79000000D03*
%TD*%
D16*
%TO.C,R15*%
X58000000Y-95750000D03*
X56000000Y-95750000D03*
%TD*%
D10*
%TO.C,R27*%
X151000000Y-72500000D03*
X153000000Y-72500000D03*
%TD*%
D18*
%TO.C,R46*%
X135750000Y-100500000D03*
X135750000Y-102500000D03*
%TD*%
D24*
%TO.C,H1*%
X179000000Y-59250000D03*
%TD*%
D18*
%TO.C,R5*%
X159750000Y-102250000D03*
X159750000Y-104250000D03*
%TD*%
%TO.C,R44*%
X148750000Y-102250000D03*
X148750000Y-104250000D03*
%TD*%
D25*
%TO.C,J1*%
X171750000Y-99000000D03*
D26*
X171750000Y-94000000D03*
%TD*%
D10*
%TO.C,R43*%
X92500000Y-71000000D03*
X94500000Y-71000000D03*
%TD*%
D19*
%TO.C,AFF6*%
X65170000Y-94240000D03*
D20*
X67710000Y-94240000D03*
X70250000Y-94240000D03*
X72790000Y-94240000D03*
X75330000Y-94240000D03*
X75330000Y-79000000D03*
X72790000Y-79000000D03*
X70250000Y-79000000D03*
X67710000Y-79000000D03*
X65170000Y-79000000D03*
%TD*%
D13*
%TO.C,D7*%
X53250000Y-74500000D03*
D14*
X53250000Y-66880000D03*
%TD*%
D10*
%TO.C,R41*%
X92500000Y-68750000D03*
X94500000Y-68750000D03*
%TD*%
D18*
%TO.C,R47*%
X133500000Y-100500000D03*
X133500000Y-102500000D03*
%TD*%
D10*
%TO.C,R8*%
X163250000Y-97750000D03*
X165250000Y-97750000D03*
%TD*%
D16*
%TO.C,R39*%
X94500000Y-66500000D03*
X92500000Y-66500000D03*
%TD*%
D21*
%TO.C,R33*%
X117750000Y-102500000D03*
X117750000Y-100500000D03*
%TD*%
D22*
%TO.C,C9*%
X124250000Y-64250000D03*
X124250000Y-66325000D03*
%TD*%
%TO.C,C2*%
X155000000Y-109462500D03*
X155000000Y-111537500D03*
%TD*%
D10*
%TO.C,R51*%
X158000000Y-71250000D03*
X160000000Y-71250000D03*
%TD*%
D11*
%TO.C,U3*%
X105470000Y-117750000D03*
D12*
X108010000Y-117750000D03*
X110550000Y-117750000D03*
X113090000Y-117750000D03*
X115630000Y-117750000D03*
X118170000Y-117750000D03*
X120710000Y-117750000D03*
X123250000Y-117750000D03*
X123250000Y-110130000D03*
X120710000Y-110130000D03*
X118170000Y-110130000D03*
X115630000Y-110130000D03*
X113090000Y-110130000D03*
X110550000Y-110130000D03*
X108010000Y-110130000D03*
X105470000Y-110130000D03*
%TD*%
D10*
%TO.C,R12*%
X56000000Y-88500000D03*
X58000000Y-88500000D03*
%TD*%
D13*
%TO.C,D3*%
X53750000Y-117120000D03*
D14*
X53750000Y-109500000D03*
%TD*%
D27*
%TO.C,Q2*%
X165000000Y-88540000D03*
D28*
X165000000Y-87270000D03*
X165000000Y-86000000D03*
%TD*%
D10*
%TO.C,R42*%
X92500000Y-73250000D03*
X94500000Y-73250000D03*
%TD*%
D15*
%TO.C,C10*%
X92462500Y-64250000D03*
X94537500Y-64250000D03*
%TD*%
D21*
%TO.C,R36*%
X124500000Y-102500000D03*
X124500000Y-100500000D03*
%TD*%
D29*
%TO.C,U10*%
X151380000Y-81460000D03*
D30*
X151380000Y-84000000D03*
X151380000Y-86540000D03*
X151380000Y-89080000D03*
X151380000Y-91620000D03*
X151380000Y-94160000D03*
X151380000Y-96700000D03*
X159000000Y-96700000D03*
X159000000Y-94160000D03*
X159000000Y-91620000D03*
X159000000Y-89080000D03*
X159000000Y-86540000D03*
X159000000Y-84000000D03*
X159000000Y-81460000D03*
%TD*%
D16*
%TO.C,R29*%
X159912500Y-66500000D03*
X157912500Y-66500000D03*
%TD*%
D11*
%TO.C,U5*%
X98610000Y-72060000D03*
D12*
X101150000Y-72060000D03*
X103690000Y-72060000D03*
X106230000Y-72060000D03*
X108770000Y-72060000D03*
X111310000Y-72060000D03*
X113850000Y-72060000D03*
X116390000Y-72060000D03*
X116390000Y-64440000D03*
X113850000Y-64440000D03*
X111310000Y-64440000D03*
X108770000Y-64440000D03*
X106230000Y-64440000D03*
X103690000Y-64440000D03*
X101150000Y-64440000D03*
X98610000Y-64440000D03*
%TD*%
D15*
%TO.C,C8*%
X104462500Y-107250000D03*
X106537500Y-107250000D03*
%TD*%
D31*
%TO.C,SW1*%
X171000000Y-74250000D03*
X171000000Y-67750000D03*
X175500000Y-74250000D03*
X175500000Y-67750000D03*
%TD*%
D18*
%TO.C,R48*%
X131250000Y-100500000D03*
X131250000Y-102500000D03*
%TD*%
D21*
%TO.C,R35*%
X122250000Y-102500000D03*
X122250000Y-100500000D03*
%TD*%
D13*
%TO.C,D2*%
X53250000Y-106500000D03*
D14*
X53250000Y-98880000D03*
%TD*%
D24*
%TO.C,H3*%
X51250000Y-59250000D03*
%TD*%
D11*
%TO.C,U1*%
X157760000Y-117750000D03*
D12*
X160300000Y-117750000D03*
X162840000Y-117750000D03*
X165380000Y-117750000D03*
X167920000Y-117750000D03*
X170460000Y-117750000D03*
X173000000Y-117750000D03*
X175540000Y-117750000D03*
X175540000Y-110130000D03*
X173000000Y-110130000D03*
X170460000Y-110130000D03*
X167920000Y-110130000D03*
X165380000Y-110130000D03*
X162840000Y-110130000D03*
X160300000Y-110130000D03*
X157760000Y-110130000D03*
%TD*%
D19*
%TO.C,AFF4*%
X107920000Y-94240000D03*
D20*
X110460000Y-94240000D03*
X113000000Y-94240000D03*
X115540000Y-94240000D03*
X118080000Y-94240000D03*
X118080000Y-79000000D03*
X115540000Y-79000000D03*
X113000000Y-79000000D03*
X110460000Y-79000000D03*
X107920000Y-79000000D03*
%TD*%
D11*
%TO.C,U2*%
X130010000Y-117750000D03*
D12*
X132550000Y-117750000D03*
X135090000Y-117750000D03*
X137630000Y-117750000D03*
X140170000Y-117750000D03*
X142710000Y-117750000D03*
X145250000Y-117750000D03*
X147790000Y-117750000D03*
X147790000Y-110130000D03*
X145250000Y-110130000D03*
X142710000Y-110130000D03*
X140170000Y-110130000D03*
X137630000Y-110130000D03*
X135090000Y-110130000D03*
X132550000Y-110130000D03*
X130010000Y-110130000D03*
%TD*%
D10*
%TO.C,R25*%
X151000000Y-68500000D03*
X153000000Y-68500000D03*
%TD*%
%TO.C,R22*%
X58750000Y-65250000D03*
X60750000Y-65250000D03*
%TD*%
D21*
%TO.C,R4*%
X161750000Y-104250000D03*
X161750000Y-102250000D03*
%TD*%
%TO.C,R37*%
X120750000Y-68500000D03*
X120750000Y-66500000D03*
%TD*%
D15*
%TO.C,C3*%
X81212500Y-107500000D03*
X83287500Y-107500000D03*
%TD*%
D18*
%TO.C,R1*%
X164000000Y-102162500D03*
X164000000Y-104162500D03*
%TD*%
D21*
%TO.C,R30*%
X111000000Y-102500000D03*
X111000000Y-100500000D03*
%TD*%
D10*
%TO.C,R23*%
X151000000Y-64500000D03*
X153000000Y-64500000D03*
%TD*%
D31*
%TO.C,SW2*%
X171000000Y-85500000D03*
X171000000Y-79000000D03*
X175500000Y-85500000D03*
X175500000Y-79000000D03*
%TD*%
D10*
%TO.C,R20*%
X58750000Y-69750000D03*
X60750000Y-69750000D03*
%TD*%
D32*
%TO.C,Y1*%
X170750000Y-89750000D03*
X172250000Y-89750000D03*
%TD*%
D10*
%TO.C,R13*%
X56000000Y-90750000D03*
X58000000Y-90750000D03*
%TD*%
%TO.C,R24*%
X151000000Y-66500000D03*
X153000000Y-66500000D03*
%TD*%
%TO.C,R40*%
X88337500Y-64500000D03*
X90337500Y-64500000D03*
%TD*%
D18*
%TO.C,R6*%
X155500000Y-102250000D03*
X155500000Y-104250000D03*
%TD*%
D10*
%TO.C,R10*%
X56000000Y-83750000D03*
X58000000Y-83750000D03*
%TD*%
D19*
%TO.C,AFF1*%
X122170000Y-94240000D03*
D20*
X124710000Y-94240000D03*
X127250000Y-94240000D03*
X129790000Y-94240000D03*
X132330000Y-94240000D03*
X132330000Y-79000000D03*
X129790000Y-79000000D03*
X127250000Y-79000000D03*
X124710000Y-79000000D03*
X122170000Y-79000000D03*
%TD*%
D21*
%TO.C,R34*%
X120000000Y-102500000D03*
X120000000Y-100500000D03*
%TD*%
D18*
%TO.C,R49*%
X129000000Y-100500000D03*
X129000000Y-102500000D03*
%TD*%
D10*
%TO.C,R26*%
X151000000Y-70500000D03*
X153000000Y-70500000D03*
%TD*%
%TO.C,R16*%
X58750000Y-78750000D03*
X60750000Y-78750000D03*
%TD*%
D33*
%TO.C,D1*%
X172550000Y-104250000D03*
X170500000Y-104250000D03*
%TD*%
D10*
%TO.C,R19*%
X58750000Y-72000000D03*
X60750000Y-72000000D03*
%TD*%
%TO.C,R52*%
X157912500Y-68500000D03*
X159912500Y-68500000D03*
%TD*%
D11*
%TO.C,U7*%
X58760000Y-118120000D03*
D12*
X61300000Y-118120000D03*
X63840000Y-118120000D03*
X66380000Y-118120000D03*
X68920000Y-118120000D03*
X71460000Y-118120000D03*
X74000000Y-118120000D03*
X76540000Y-118120000D03*
X76540000Y-110500000D03*
X74000000Y-110500000D03*
X71460000Y-110500000D03*
X68920000Y-110500000D03*
X66380000Y-110500000D03*
X63840000Y-110500000D03*
X61300000Y-110500000D03*
X58760000Y-110500000D03*
%TD*%
D24*
%TO.C,H2*%
X179750000Y-121500000D03*
%TD*%
D10*
%TO.C,R17*%
X58750000Y-76500000D03*
X60750000Y-76500000D03*
%TD*%
%TO.C,R9*%
X56000000Y-81500000D03*
X58000000Y-81500000D03*
%TD*%
D15*
%TO.C,C5*%
X57962500Y-107750000D03*
X60037500Y-107750000D03*
%TD*%
D11*
%TO.C,U4*%
X127010000Y-72000000D03*
D12*
X129550000Y-72000000D03*
X132090000Y-72000000D03*
X134630000Y-72000000D03*
X137170000Y-72000000D03*
X139710000Y-72000000D03*
X142250000Y-72000000D03*
X144790000Y-72000000D03*
X144790000Y-64380000D03*
X142250000Y-64380000D03*
X139710000Y-64380000D03*
X137170000Y-64380000D03*
X134630000Y-64380000D03*
X132090000Y-64380000D03*
X129550000Y-64380000D03*
X127010000Y-64380000D03*
%TD*%
D19*
%TO.C,AFF5*%
X79750000Y-94240000D03*
D20*
X82290000Y-94240000D03*
X84830000Y-94240000D03*
X87370000Y-94240000D03*
X89910000Y-94240000D03*
X89910000Y-79000000D03*
X87370000Y-79000000D03*
X84830000Y-79000000D03*
X82290000Y-79000000D03*
X79750000Y-79000000D03*
%TD*%
D16*
%TO.C,R28*%
X159912500Y-64500000D03*
X157912500Y-64500000D03*
%TD*%
D24*
%TO.C,H4*%
X50750000Y-121250000D03*
%TD*%
D21*
%TO.C,R31*%
X113250000Y-102500000D03*
X113250000Y-100500000D03*
%TD*%
D15*
%TO.C,C4*%
X161462500Y-81000000D03*
X163537500Y-81000000D03*
%TD*%
D18*
%TO.C,R45*%
X138000000Y-100500000D03*
X138000000Y-102500000D03*
%TD*%
D21*
%TO.C,R38*%
X120750000Y-72500000D03*
X120750000Y-70500000D03*
%TD*%
%TO.C,R3*%
X153250000Y-104250000D03*
X153250000Y-102250000D03*
%TD*%
M02*
