M48
; DRILL file {KiCad 9.0.2} date 2025-11-07T18:09:38+0530
; FORMAT={-:-/ absolute / metric / decimal}
; #@! TF.CreationDate,2025-11-07T18:09:38+05:30
; #@! TF.GenerationSoftware,Kicad,Pcbnew,9.0.2
; #@! TF.FileFunction,Plated,1,2,PTH
FMAT,2
METRIC
; #@! TA.AperFunction,Plated,PTH,ViaDrill
T1C0.300
; #@! TA.AperFunction,Plated,PTH,ComponentDrill
T2C0.500
; #@! TA.AperFunction,Plated,PTH,ComponentDrill
T3C0.750
; #@! TA.AperFunction,Plated,PTH,ComponentDrill
T4C0.800
; #@! TA.AperFunction,Plated,PTH,ComponentDrill
T5C1.100
; #@! TA.AperFunction,Plated,PTH,ComponentDrill
T6C1.300
%
G90
G05
T1
X51.488Y-73.148
X53.373Y-65.069
X54.79Y-82.713
X57.593Y-67.275
X57.593Y-73.663
X57.827Y-105.236
X59.386Y-105.014
X60.657Y-83.043
X62.635Y-69.753
X62.738Y-64.88
X62.879Y-108.693
X63.297Y-76.273
X63.7Y-72.393
X64.645Y-67.418
X64.7Y-85.665
X65.641Y-73.803
X67.559Y-75.749
X68.224Y-91.413
X71.148Y-88.108
X71.309Y-73.98
X72.773Y-99.738
X73.935Y-95.63
X76.354Y-76.833
X76.54Y-89.97
X76.966Y-79.047
X78.386Y-70.057
X78.414Y-95.404
X79.016Y-75.679
X79.326Y-58.432
X79.326Y-105.814
X79.47Y-91.616
X79.5Y-110.5
X79.688Y-90.692
X81.0Y-106.0
X83.5Y-112.5
X84.96Y-81.942
X86.352Y-87.109
X87.932Y-88.327
X89.258Y-85.808
X91.117Y-62.282
X91.334Y-63.36
X91.975Y-89.629
X92.006Y-81.616
X93.697Y-67.679
X94.483Y-102.56
X95.704Y-68.215
X96.217Y-71.061
X96.222Y-102.492
X96.997Y-69.551
X97.095Y-74.343
X105.251Y-101.432
X106.048Y-103.469
X108.275Y-101.432
X109.044Y-121.741
X109.465Y-102.11
X111.106Y-104.992
X111.552Y-96.786
X111.69Y-86.634
X111.835Y-74.473
X112.43Y-103.606
X113.55Y-103.611
X114.352Y-103.633
X114.987Y-61.045
X116.579Y-106.727
X117.269Y-80.483
X117.959Y-91.221
X119.026Y-96.425
X119.056Y-103.437
X120.486Y-97.89
X121.141Y-103.388
X121.488Y-99.035
X121.5Y-64.0
X121.98Y-103.763
X123.399Y-103.458
X123.488Y-75.501
X124.168Y-99.078
X125.5Y-116.5
X125.508Y-89.968
X126.096Y-120.087
X126.874Y-61.33
X127.88Y-82.637
X128.114Y-76.476
X129.075Y-103.635
X130.371Y-99.229
X130.817Y-95.506
X132.138Y-107.425
X132.544Y-85.07
X133.136Y-103.635
X133.188Y-75.103
X133.507Y-80.983
X133.903Y-92.816
X134.03Y-85.398
X134.38Y-98.859
X134.471Y-97.967
X135.883Y-120.587
X136.072Y-97.7
X136.3Y-89.849
X136.351Y-96.899
X138.162Y-99.08
X138.389Y-69.925
X138.728Y-97.132
X138.9Y-112.064
X139.093Y-106.056
X139.469Y-69.758
X142.079Y-61.086
X143.081Y-85.786
X143.14Y-61.905
X144.432Y-89.896
X144.705Y-60.517
X144.705Y-99.738
X144.842Y-83.608
X145.623Y-103.285
X145.894Y-91.278
X149.781Y-69.584
X149.824Y-78.24
X149.93Y-103.305
X152.0Y-79.0
X153.843Y-89.799
X153.876Y-120.25
X154.354Y-67.056
X156.209Y-64.285
X156.444Y-103.305
X156.565Y-60.857
X157.838Y-90.35
X158.603Y-100.67
X159.0Y-74.5
X162.088Y-99.788
X162.248Y-105.987
X162.761Y-103.136
X164.639Y-100.099
X166.372Y-87.457
X170.08Y-102.751
T2
X170.75Y-89.75
X172.25Y-89.75
T3
X165.0Y-86.0
X165.0Y-87.27
X165.0Y-88.54
T4
X53.25Y-66.88
X53.25Y-74.5
X53.25Y-77.38
X53.25Y-85.0
X53.25Y-88.0
X53.25Y-95.62
X53.25Y-98.88
X53.25Y-106.5
X53.75Y-109.5
X53.75Y-117.12
X57.13Y-101.75
X58.76Y-110.5
X58.76Y-118.12
X61.3Y-110.5
X61.3Y-118.12
X63.84Y-110.5
X63.84Y-118.12
X64.75Y-101.75
X65.17Y-79.0
X65.17Y-94.24
X66.38Y-110.5
X66.38Y-118.12
X67.38Y-64.63
X67.38Y-72.25
X67.71Y-79.0
X67.71Y-94.24
X68.92Y-110.5
X68.92Y-118.12
X69.92Y-64.63
X69.92Y-72.25
X70.25Y-79.0
X70.25Y-94.24
X71.46Y-110.5
X71.46Y-118.12
X72.46Y-64.63
X72.46Y-72.25
X72.79Y-79.0
X72.79Y-94.24
X74.0Y-110.5
X74.0Y-118.12
X75.0Y-64.63
X75.0Y-72.25
X75.33Y-79.0
X75.33Y-94.24
X76.54Y-110.5
X76.54Y-118.12
X77.54Y-64.63
X77.54Y-72.25
X79.75Y-79.0
X79.75Y-94.24
X80.08Y-64.63
X80.08Y-72.25
X81.76Y-110.38
X81.76Y-118.0
X82.29Y-79.0
X82.29Y-94.24
X82.62Y-64.63
X82.62Y-72.25
X84.3Y-110.38
X84.3Y-118.0
X84.83Y-79.0
X84.83Y-94.24
X85.16Y-64.63
X85.16Y-72.25
X86.84Y-110.38
X86.84Y-118.0
X87.37Y-79.0
X87.37Y-94.24
X89.38Y-110.38
X89.38Y-118.0
X89.91Y-79.0
X89.91Y-94.24
X91.92Y-110.38
X91.92Y-118.0
X94.0Y-79.0
X94.0Y-94.24
X94.46Y-110.38
X94.46Y-118.0
X96.54Y-79.0
X96.54Y-94.24
X97.0Y-110.38
X97.0Y-118.0
X98.61Y-64.44
X98.61Y-72.06
X99.08Y-79.0
X99.08Y-94.24
X99.54Y-110.38
X99.54Y-118.0
X101.15Y-64.44
X101.15Y-72.06
X101.62Y-79.0
X101.62Y-94.24
X103.69Y-64.44
X103.69Y-72.06
X104.16Y-79.0
X104.16Y-94.24
X105.47Y-110.13
X105.47Y-117.75
X106.23Y-64.44
X106.23Y-72.06
X107.92Y-79.0
X107.92Y-94.24
X108.01Y-110.13
X108.01Y-117.75
X108.77Y-64.44
X108.77Y-72.06
X110.46Y-79.0
X110.46Y-94.24
X110.55Y-110.13
X110.55Y-117.75
X111.31Y-64.44
X111.31Y-72.06
X113.0Y-79.0
X113.0Y-94.24
X113.09Y-110.13
X113.09Y-117.75
X113.85Y-64.44
X113.85Y-72.06
X115.54Y-79.0
X115.54Y-94.24
X115.63Y-110.13
X115.63Y-117.75
X116.39Y-64.44
X116.39Y-72.06
X118.08Y-79.0
X118.08Y-94.24
X118.17Y-110.13
X118.17Y-117.75
X120.71Y-110.13
X120.71Y-117.75
X122.17Y-79.0
X122.17Y-94.24
X123.25Y-110.13
X123.25Y-117.75
X124.71Y-79.0
X124.71Y-94.24
X127.01Y-64.38
X127.01Y-72.0
X127.25Y-79.0
X127.25Y-94.24
X129.55Y-64.38
X129.55Y-72.0
X129.79Y-79.0
X129.79Y-94.24
X130.01Y-110.13
X130.01Y-117.75
X132.09Y-64.38
X132.09Y-72.0
X132.33Y-79.0
X132.33Y-94.24
X132.55Y-110.13
X132.55Y-117.75
X134.63Y-64.38
X134.63Y-72.0
X135.09Y-110.13
X135.09Y-117.75
X136.17Y-79.0
X136.17Y-94.24
X137.17Y-64.38
X137.17Y-72.0
X137.63Y-110.13
X137.63Y-117.75
X138.71Y-79.0
X138.71Y-94.24
X139.71Y-64.38
X139.71Y-72.0
X140.17Y-110.13
X140.17Y-117.75
X141.25Y-79.0
X141.25Y-94.24
X142.25Y-64.38
X142.25Y-72.0
X142.71Y-110.13
X142.71Y-117.75
X143.79Y-79.0
X143.79Y-94.24
X144.79Y-64.38
X144.79Y-72.0
X145.25Y-110.13
X145.25Y-117.75
X146.33Y-79.0
X146.33Y-94.24
X147.79Y-110.13
X147.79Y-117.75
X151.38Y-81.46
X151.38Y-84.0
X151.38Y-86.54
X151.38Y-89.08
X151.38Y-91.62
X151.38Y-94.16
X151.38Y-96.7
X157.76Y-110.13
X157.76Y-117.75
X159.0Y-81.46
X159.0Y-84.0
X159.0Y-86.54
X159.0Y-89.08
X159.0Y-91.62
X159.0Y-94.16
X159.0Y-96.7
X160.3Y-110.13
X160.3Y-117.75
X162.84Y-110.13
X162.84Y-117.75
X165.38Y-110.13
X165.38Y-117.75
X167.92Y-110.13
X167.92Y-117.75
X170.46Y-110.13
X170.46Y-117.75
X173.0Y-110.13
X173.0Y-117.75
X175.54Y-110.13
X175.54Y-117.75
T5
X171.0Y-67.75
X171.0Y-74.25
X171.0Y-79.0
X171.0Y-85.5
X175.5Y-67.75
X175.5Y-74.25
X175.5Y-79.0
X175.5Y-85.5
T6
X171.75Y-94.0
X171.75Y-99.0
M30
